<svg width="13" height="13" viewBox="0 0 13 13" version="1.1" xmlns="http://www.w3.org/2000/svg" xmlns:xlink="http://www.w3.org/1999/xlink">
<title>chat-comment-oval-speech-bubble-with-text-lines</title>
<desc>Created using Figma</desc>
<g id="Canvas" transform="translate(-1320 -2111)">
<g id="chat-comment-oval-speech-bubble-with-text-lines">
<g id="Group">
<g id="x32  26">
<g id="Group">
<g id="Vector">
<use xlink:href="#path0_fill" transform="matrix(-1 0 0 1 1333 2111)" fill="#197AE3"/>
</g>
</g>
</g>
</g>
</g>
</g>
<defs>
<path id="path0_fill" d="M 8.53125 6.90625L 4.46875 6.90625C 4.2445 6.90625 4.0625 7.08825 4.0625 7.3125C 4.0625 7.53675 4.2445 7.71875 4.46875 7.71875L 8.53125 7.71875C 8.7555 7.71875 8.9375 7.53675 8.9375 7.3125C 8.9375 7.08825 8.7555 6.90625 8.53125 6.90625ZM 9.34375 4.46875L 3.65625 4.46875C 3.432 4.46875 3.25 4.65075 3.25 4.875C 3.25 5.09925 3.432 5.28125 3.65625 5.28125L 9.34375 5.28125C 9.568 5.28125 9.75 5.09925 9.75 4.875C 9.75 4.65075 9.568 4.46875 9.34375 4.46875ZM 6.5 0C 2.91039 0 0 2.54636 0 5.6875C 0 7.48273 0.952654 9.0809 2.4375 10.1233L 2.4375 13L 5.2849 11.2722C 5.67898 11.3372 6.0844 11.375 6.5 11.375C 10.09 11.375 13 8.82864 13 5.6875C 13 2.54636 10.09 0 6.5 0ZM 6.5 10.5625C 6.0255 10.5625 5.56725 10.5072 5.12686 10.4134L 3.21423 11.5631L 3.23983 9.6789C 1.77369 8.79694 0.8125 7.33933 0.8125 5.6875C 0.8125 2.99529 3.35886 0.8125 6.5 0.8125C 9.64114 0.8125 12.1875 2.99529 12.1875 5.6875C 12.1875 8.37971 9.64114 10.5625 6.5 10.5625Z"/>
</defs>
</svg>
