<svg width="28" height="28" viewBox="0 0 28 28" version="1.1" xmlns="http://www.w3.org/2000/svg" xmlns:xlink="http://www.w3.org/1999/xlink">
<title>Group 2</title>
<desc>Created using Figma</desc>
<g id="Canvas" transform="translate(-2922 482)">
<g id="Group 2">
<g id="Ellipse">
<mask id="mask0_outline_ins">
<use xlink:href="#path0_fill" fill="white" transform="translate(2922 -482)"/>
</mask>
<g mask="url(#mask0_outline_ins)">
<use xlink:href="#path1_stroke_2x" transform="translate(2922 -482)" fill="#8F9CAE"/>
</g>
</g>
<g id="arrow-point-to-right">
<g id="Group">
<g id="Vector">
<use xlink:href="#path2_fill" transform="matrix(-1 1.22465e-16 -1.22465e-16 -1 2938 -464)" fill="#8F9CAE"/>
</g>
</g>
</g>
</g>
</g>
<defs>
<path id="path0_fill" d="M 28 14C 28 21.732 21.732 28 14 28C 6.26801 28 0 21.732 0 14C 0 6.26801 6.26801 0 14 0C 21.732 0 28 6.26801 28 14Z"/>
<path id="path1_stroke_2x" d="M 27 14C 27 21.1797 21.1797 27 14 27L 14 29C 22.2843 29 29 22.2843 29 14L 27 14ZM 14 27C 6.8203 27 1 21.1797 1 14L -1 14C -1 22.2843 5.71573 29 14 29L 14 27ZM 1 14C 1 6.8203 6.8203 1 14 1L 14 -1C 5.71573 -1 -1 5.71573 -1 14L 1 14ZM 14 1C 21.1797 1 27 6.8203 27 14L 29 14C 29 5.71573 22.2843 -1 14 -1L 14 1Z"/>
<path id="path2_fill" d="M 3.85609 4.39604L 0.838849 7.83581C 0.646917 8.05473 0.335731 8.05473 0.143891 7.83581C -0.0479638 7.61708 -0.0479638 7.26232 0.143891 7.04361L 2.81368 3.99994L 0.143969 0.956381C -0.0478862 0.737564 -0.0478862 0.382842 0.143969 0.164113C 0.335824 -0.0547044 0.646994 -0.0547044 0.838927 0.164113L 3.85616 3.60393C 3.95209 3.71335 4 3.8566 4 3.99992C 4 4.14332 3.952 4.28668 3.85609 4.39604Z"/>
</defs>
</svg>
