<svg width="35" height="35" viewBox="0 0 35 35" version="1.1" xmlns="http://www.w3.org/2000/svg" xmlns:xlink="http://www.w3.org/1999/xlink">
<title>Group 4</title>
<desc>Created using Figma</desc>
<g id="Canvas" transform="translate(-4247 -79)">
<g id="Group 4">
<g id="Ellipse 2">
<mask id="mask0_outline_ins">
<use xlink:href="#path0_fill" fill="white" transform="translate(4247 79)"/>
</mask>
<g mask="url(#mask0_outline_ins)">
<use xlink:href="#path1_stroke_2x" transform="translate(4247 79)" fill="#FFFFFF" fill-opacity="0.15"/>
</g>
</g>
<g id="phone-call">
<g id="Group">
<g id="Group">
<g id="Vector">
<use xlink:href="#path2_fill" transform="translate(4255 88.9833)" fill="#FFFFFF"/>
</g>
<g id="Vector">
<use xlink:href="#path3_fill" transform="translate(4263.79 91.083)" fill="#FFFFFF"/>
</g>
<g id="Vector">
<use xlink:href="#path4_fill" transform="translate(4263.93 88)" fill="#FFFFFF"/>
</g>
</g>
</g>
</g>
</g>
</g>
<defs>
<path id="path0_fill" d="M 35 17.5C 35 27.165 27.165 35 17.5 35C 7.83502 35 0 27.165 0 17.5C 0 7.83502 7.83502 0 17.5 0C 27.165 0 35 7.83502 35 17.5Z"/>
<path id="path1_stroke_2x" d="M 34 17.5C 34 26.6127 26.6127 34 17.5 34L 17.5 36C 27.7173 36 36 27.7173 36 17.5L 34 17.5ZM 17.5 34C 8.3873 34 1 26.6127 1 17.5L -1 17.5C -1 27.7173 7.28273 36 17.5 36L 17.5 34ZM 1 17.5C 1 8.3873 8.3873 1 17.5 1L 17.5 -1C 7.28273 -1 -1 7.28273 -1 17.5L 1 17.5ZM 17.5 1C 26.6127 1 34 8.3873 34 17.5L 36 17.5C 36 7.28273 27.7173 -1 17.5 -1L 17.5 1Z"/>
<path id="path2_fill" d="M 13.4425 9.54758C 13.094 9.1852 12.6736 8.99145 12.228 8.99145C 11.7861 8.99145 11.3621 9.18161 10.9992 9.54399L 9.86372 10.6742C 9.7703 10.624 9.67687 10.5773 9.58704 10.5307C 9.45769 10.4661 9.33552 10.4051 9.23132 10.3405C 8.16773 9.66598 7.20116 8.78693 6.27412 7.64955C 5.82497 7.08265 5.52314 6.60545 5.30396 6.12107C 5.5986 5.85197 5.87168 5.57211 6.13758 5.30302C 6.23819 5.20255 6.3388 5.0985 6.43941 4.99804C 7.19398 4.24457 7.19398 3.26864 6.43941 2.51517L 5.45847 1.53565C 5.34708 1.42442 5.2321 1.30961 5.1243 1.19479C 4.90871 0.972339 4.68234 0.742709 4.44878 0.527431C 4.10024 0.182986 3.68343 4.92733e-09 3.24506 4.92733e-09C 2.80669 4.92733e-09 2.3827 0.182986 2.02338 0.527431C 2.01979 0.531019 2.01979 0.531019 2.01619 0.534607L 0.794508 1.76528C 0.334579 2.22454 0.0722765 2.78426 0.0147854 3.43369C -0.0714511 4.48137 0.237563 5.4573 0.474714 6.09596C 1.05681 7.6639 1.92636 9.11703 3.2235 10.6742C 4.79732 12.5507 6.69093 14.0325 8.85403 15.0766C 9.68047 15.4677 10.7836 15.9306 12.016 16.0095C 12.0915 16.0131 12.1705 16.0167 12.2424 16.0167C 13.0724 16.0167 13.7695 15.7189 14.3157 15.1269C 14.3193 15.1197 14.3265 15.1161 14.3301 15.1089C 14.5169 14.8829 14.7325 14.6784 14.9589 14.4595C 15.1134 14.3124 15.2715 14.1581 15.426 13.9967C 15.7817 13.6271 15.9685 13.1965 15.9685 12.7552C 15.9685 12.3103 15.7781 11.8833 15.4152 11.5246L 13.4425 9.54758ZM 14.7289 13.3257C 14.7253 13.3257 14.7253 13.3293 14.7289 13.3257C 14.5888 13.4764 14.445 13.6127 14.2905 13.7634C 14.057 13.9859 13.8198 14.2191 13.597 14.481C 13.2341 14.8685 12.8065 15.0515 12.246 15.0515C 12.1921 15.0515 12.1346 15.0515 12.0807 15.0479C 11.0135 14.9798 10.0218 14.5636 9.27803 14.2084C 7.24428 13.2252 5.45847 11.8295 3.97448 10.0607C 2.7492 8.58601 1.92996 7.22258 1.38738 5.75869C 1.05322 4.86528 0.931049 4.16922 0.984947 3.51262C 1.02088 3.09283 1.18257 2.7448 1.48081 2.44699L 2.70608 1.2235C 2.88215 1.05845 3.069 0.968751 3.25225 0.968751C 3.47862 0.968751 3.66187 1.10509 3.77685 1.21991C 3.78045 1.2235 3.78404 1.22708 3.78763 1.23067C 4.00682 1.43519 4.21522 1.64688 4.43441 1.87292C 4.5458 1.98773 4.66078 2.10255 4.77576 2.22095L 5.7567 3.20047C 6.13758 3.58079 6.13758 3.93241 5.7567 4.31274C 5.6525 4.41679 5.55189 4.52084 5.44769 4.6213C 5.14586 4.92987 4.85841 5.2169 4.5458 5.49677C 4.53861 5.50394 4.53142 5.50753 4.52783 5.51471C 4.21882 5.82327 4.27631 6.12466 4.34099 6.32917C 4.34458 6.33994 4.34817 6.3507 4.35177 6.36147C 4.60688 6.9786 4.9662 7.55985 5.51237 8.25233L 5.51596 8.25591C 6.50768 9.47582 7.5533 10.4266 8.70671 11.155C 8.85403 11.2483 9.00495 11.3236 9.14867 11.3954C 9.27803 11.46 9.4002 11.521 9.5044 11.5855C 9.51877 11.5927 9.53314 11.6035 9.54752 11.6107C 9.66969 11.6717 9.78467 11.7004 9.90324 11.7004C 10.2015 11.7004 10.3883 11.5138 10.4494 11.4528L 11.6783 10.2257C 11.8004 10.1037 11.9945 9.95661 12.2208 9.95661C 12.4436 9.95661 12.6269 10.0965 12.7383 10.2185C 12.7419 10.2221 12.7419 10.2221 12.7455 10.2257L 14.7253 12.2027C 15.0954 12.5687 15.0954 12.9454 14.7289 13.3257Z"/>
<path id="path3_fill" d="M 0.399283 0.960884C 1.3407 1.11875 2.19588 1.56366 2.87858 2.24538C 3.56129 2.92709 4.00325 3.78103 4.16495 4.72107C 4.20447 4.95788 4.40928 5.12293 4.64284 5.12293C 4.67159 5.12293 4.69674 5.11934 4.72548 5.11575C 4.99138 5.07269 5.16745 4.82154 5.12433 4.55603C 4.93029 3.41864 4.39132 2.38172 3.56848 1.56007C 2.74564 0.73843 1.7072 0.200235 0.568164 0.00648492C 0.302268 -0.0365707 0.0543374 0.13924 0.00762598 0.401161C -0.0390855 0.663083 0.133387 0.917829 0.399283 0.960884Z"/>
<path id="path4_fill" d="M 8.06602 7.49906C 7.74622 5.62614 6.8623 3.92186 5.50407 2.56561C 4.14584 1.20935 2.43908 0.326714 0.563435 0.00738457C 0.301132 -0.039259 0.0532017 0.140139 0.00649027 0.402061C -0.036628 0.667571 0.139438 0.91514 0.405335 0.961784C 2.07976 1.24523 3.60687 2.03817 4.82136 3.24732C 6.03586 4.46005 6.82636 5.98494 7.11023 7.65693C 7.14975 7.89374 7.35456 8.05878 7.58812 8.05878C 7.61687 8.05878 7.64202 8.0552 7.67076 8.05161C 7.93307 8.01214 8.11273 7.76098 8.06602 7.49906Z"/>
</defs>
</svg>
