<svg width="12" height="12" viewBox="0 0 12 12" version="1.1" xmlns="http://www.w3.org/2000/svg" xmlns:xlink="http://www.w3.org/1999/xlink">
<title>Group 9</title>
<desc>Created using Figma</desc>
<g id="Canvas" transform="translate(-2097 -2552)">
<g id="Group 9">
<g id="Group 8">
<g id="Ellipse 3">
<mask id="mask0_outline_ins">
<use xlink:href="#path0_fill" fill="white" transform="translate(2097 2552)"/>
</mask>
<g mask="url(#mask0_outline_ins)">
<use xlink:href="#path1_stroke_2x" transform="translate(2097 2552)" fill="#DB2C2C"/>
</g>
</g>
</g>
<g id="i">
<use xlink:href="#path2_fill" transform="translate(2102 2553)" fill="#DB2C2C"/>
</g>
</g>
</g>
<defs>
<path id="path0_fill" d="M 12 6C 12 9.31371 9.31371 12 6 12C 2.68629 12 0 9.31371 0 6C 0 2.68629 2.68629 0 6 0C 9.31371 0 12 2.68629 12 6Z"/>
<path id="path1_stroke_2x" d="M 11 6C 11 8.76142 8.76142 11 6 11L 6 13C 9.86599 13 13 9.86599 13 6L 11 6ZM 6 11C 3.23858 11 1 8.76142 1 6L -1 6C -1 9.86599 2.13401 13 6 13L 6 11ZM 1 6C 1 3.23858 3.23858 1 6 1L 6 -1C 2.13401 -1 -1 2.13401 -1 6L 1 6ZM 6 1C 8.76142 1 11 3.23858 11 6L 13 6C 13 2.13401 9.86599 -1 6 -1L 6 1Z"/>
<path id="path2_fill" d="M 1.56 8L 0.76 8L 0.76 3.2L 1.56 3.2L 1.56 8ZM 1.53 1.3C 1.63 1.38667 1.68 1.51 1.68 1.67C 1.68 1.83 1.63 1.95667 1.53 2.05C 1.43 2.13667 1.30667 2.18 1.16 2.18C 1.01333 2.18 0.89 2.13667 0.79 2.05C 0.69 1.95667 0.64 1.83 0.64 1.67C 0.64 1.51 0.69 1.38667 0.79 1.3C 0.89 1.20667 1.01333 1.16 1.16 1.16C 1.30667 1.16 1.43 1.20667 1.53 1.3Z"/>
</defs>
</svg>
