<svg width="12" height="12" viewBox="0 0 12 12" version="1.1" xmlns="http://www.w3.org/2000/svg" xmlns:xlink="http://www.w3.org/1999/xlink">
<title>Vector</title>
<desc>Created using Figma</desc>
<g id="Canvas" transform="translate(-2136 -2406)">
<g id="Vector">
<use xlink:href="#path0_fill" transform="translate(2136 2406)" fill="#FFFFFF"/>
</g>
</g>
<defs>
<path id="path0_fill" d="M 7.06127 6.00012L 11.7801 1.28108C 12.0733 0.988138 12.0733 0.512831 11.7801 0.219892C 11.4869 -0.0732973 11.0122 -0.0732973 10.719 0.219892L 6.00012 4.93894L 1.28102 0.219892C 0.987847 -0.0732973 0.51306 -0.0732973 0.219883 0.219892C -0.0732943 0.512831 -0.0732943 0.988138 0.219883 1.28108L 4.93898 6.00012L 0.219883 10.7192C -0.0732943 11.0121 -0.0732943 11.4874 0.219883 11.7804C 0.366471 11.9267 0.558587 12 0.750453 12C 0.942319 12 1.13444 11.9267 1.28102 11.7801L 6.00012 7.06106L 10.719 11.7801C 10.8656 11.9267 11.0577 12 11.2495 12C 11.4414 12 11.6335 11.9267 11.7801 11.7801C 12.0733 11.4872 12.0733 11.0119 11.7801 10.7189L 7.06127 6.00012Z"/>
</defs>
</svg>
