<svg width="10" height="10" viewBox="0 0 10 10" version="1.1" xmlns="http://www.w3.org/2000/svg" xmlns:xlink="http://www.w3.org/1999/xlink">
<title>Vector</title>
<desc>Created using Figma</desc>
<g id="Canvas" transform="translate(-13094 -99)">
<g id="Vector">
<use xlink:href="#path0_fill" transform="translate(13094 99)" fill="#FFFFFF"/>
</g>
</g>
<defs>
<path id="path0_fill" fill-rule="evenodd" d="M 5.67824 4.99992L 9.85953 0.818698C 10.0468 0.631402 10.0468 0.327767 9.85953 0.140471C 9.67223 -0.0468238 9.36859 -0.0468238 9.18129 0.140471L 5 4.32169L 0.818711 0.141111C 0.631412 -0.0461846 0.327772 -0.0461846 0.140474 0.141111C -0.0468246 0.328406 -0.0468246 0.632042 0.140474 0.819337L 4.32176 5.00056L 0.141113 9.18114C -0.0461853 9.36844 -0.0461853 9.67207 0.141113 9.85937C 0.235082 9.9527 0.357177 10 0.479912 10C 0.602646 10 0.725381 9.95334 0.818711 9.85937L 5 5.67815L 9.18129 9.85937C 9.27526 9.9527 9.39735 10 9.52009 10C 9.64282 10 9.76556 9.95334 9.85889 9.85937C 10.0462 9.67207 10.0462 9.36844 9.85889 9.18114L 5.67824 4.99992Z"/>
</defs>
</svg>
