<svg width="16" height="16" viewBox="0 0 16 16" version="1.1" xmlns="http://www.w3.org/2000/svg" xmlns:xlink="http://www.w3.org/1999/xlink">
<title>Group 4</title>
<desc>Created using Figma</desc>
<g id="Canvas" transform="translate(-18534 136)">
<g id="Group 4">
<g id="Ellipse 3.5">
<mask id="mask0_outline_ins">
<use xlink:href="#path0_fill" fill="white" transform="translate(18534 -136)"/>
</mask>
<g mask="url(#mask0_outline_ins)">
<use xlink:href="#path1_stroke_2x" transform="translate(18534 -136)" fill="#CCCCCC" fill-opacity="0.5"/>
</g>
</g>
<g id="i">
<use xlink:href="#path2_fill" transform="translate(18541 -133)" fill="#FFFFFF" fill-opacity="0.5"/>
</g>
</g>
</g>
<defs>
<path id="path0_fill" d="M 16 8C 16 12.4183 12.4183 16 8 16C 3.58172 16 0 12.4183 0 8C 0 3.58172 3.58172 0 8 0C 12.4183 0 16 3.58172 16 8Z"/>
<path id="path1_stroke_2x" d="M 15 8C 15 11.866 11.866 15 8 15L 8 17C 12.9706 17 17 12.9706 17 8L 15 8ZM 8 15C 4.13401 15 1 11.866 1 8L -1 8C -1 12.9706 3.02944 17 8 17L 8 15ZM 1 8C 1 4.13401 4.13401 1 8 1L 8 -1C 3.02944 -1 -1 3.02944 -1 8L 1 8ZM 8 1C 11.866 1 15 4.13401 15 8L 17 8C 17 3.02944 12.9706 -1 8 -1L 8 1Z"/>
<path id="path2_fill" d="M 1.56 8L 1.56 3.2L 0.76 3.2L 0.76 8L 1.56 8ZM 1.68 1.67C 1.68 1.34 1.44 1.16 1.16 1.16C 0.88 1.16 0.64 1.34 0.64 1.67C 0.64 2.01 0.88 2.18 1.16 2.18C 1.44 2.18 1.68 2.01 1.68 1.67Z"/>
</defs>
</svg>
