<svg width="16" height="16" viewBox="0 0 16 16" version="1.1" xmlns="http://www.w3.org/2000/svg" xmlns:xlink="http://www.w3.org/1999/xlink">
<g id="Canvas__fyi" transform="translate(-13058 -62)">
<g id="Group__fyi">
<g id="Ellipse35__fyi">
<use xlink:href="#path0_fill__fyi" transform="translate(13058 62)" fill="#FFFFFF"/>
<mask id="mask0_outline_ins__fyi">
<use xlink:href="#path0_fill__fyi" fill="white" transform="translate(13058 62)"/>
</mask>
<g mask="url(#mask0_outline_ins)">
<use xlink:href="#path1_stroke_2x__fyi" transform="translate(13058 62)" fill="#CCD3DB"/>
</g>
</g>
<g id="i__fyi">
<use xlink:href="#path2_fill__fyi" transform="translate(13065 65)" fill="#8F9CAE"/>
</g>
</g>
</g>
<defs>
<path id="path0_fill__fyi" d="M 16 8C 16 12.4183 12.4183 16 8 16C 3.58172 16 0 12.4183 0 8C 0 3.58172 3.58172 0 8 0C 12.4183 0 16 3.58172 16 8Z"/>
<path id="path1_stroke_2x__fyi" d="M 15 8C 15 11.866 11.866 15 8 15L 8 17C 12.9706 17 17 12.9706 17 8L 15 8ZM 8 15C 4.13401 15 1 11.866 1 8L -1 8C -1 12.9706 3.02944 17 8 17L 8 15ZM 1 8C 1 4.13401 4.13401 1 8 1L 8 -1C 3.02944 -1 -1 3.02944 -1 8L 1 8ZM 8 1C 11.866 1 15 4.13401 15 8L 17 8C 17 3.02944 12.9706 -1 8 -1L 8 1Z"/>
<path id="path2_fill__fyi" d="M 1.56 8L 0.76 8L 0.76 3.2L 1.56 3.2L 1.56 8ZM 1.53 1.3C 1.63 1.38667 1.68 1.51 1.68 1.67C 1.68 1.83 1.63 1.95667 1.53 2.05C 1.43 2.13667 1.30667 2.18 1.16 2.18C 1.01333 2.18 0.89 2.13667 0.79 2.05C 0.69 1.95667 0.64 1.83 0.64 1.67C 0.64 1.51 0.69 1.38667 0.79 1.3C 0.89 1.20667 1.01333 1.16 1.16 1.16C 1.30667 1.16 1.43 1.20667 1.53 1.3Z"/>
</defs>
</svg>
