<svg width="66" height="66" viewBox="0 0 66 66" version="1.1" xmlns="http://www.w3.org/2000/svg" xmlns:xlink="http://www.w3.org/1999/xlink">
<title>Group 39</title>
<desc>Created using Figma</desc>
<g id="Canvas" transform="translate(-11900 -1647)">
<g id="Group 39">
<g id="Ellipse 4.1">
<mask id="mask0_outline_ins">
<use xlink:href="#path0_fill" fill="white" transform="translate(11900 1647)"/>
</mask>
<g mask="url(#mask0_outline_ins)">
<use xlink:href="#path1_stroke_2x" transform="translate(11900 1647)" fill="#197AE3"/>
</g>
</g>
<g id="Group 37">
<g id="Rectangle 36">
<mask id="mask1_outline_ins">
<use xlink:href="#path2_fill" fill="white" transform="translate(11918.9 1671.54)"/>
</mask>
<g mask="url(#mask1_outline_ins)">
<use xlink:href="#path3_stroke_2x" transform="translate(11918.9 1671.54)" fill="#197AE3"/>
</g>
</g>
<g id="Vector">
<use xlink:href="#path4_stroke" transform="translate(11911 1680)" fill="#197AE3"/>
</g>
<g id="Vector 2">
<use xlink:href="#path5_stroke" transform="translate(11922.8 1669)" fill="#197AE3"/>
</g>
<g id="Vector 2.1">
<use xlink:href="#path5_stroke" transform="translate(11922.8 1691)" fill="#197AE3"/>
</g>
</g>
</g>
</g>
<defs>
<path id="path0_fill" d="M 66 33C 66 51.2254 51.2254 66 33 66C 14.7746 66 0 51.2254 0 33C 0 14.7746 14.7746 0 33 0C 51.2254 0 66 14.7746 66 33Z"/>
<path id="path1_stroke_2x" d="M 65 33C 65 50.6731 50.6731 65 33 65L 33 67C 51.7777 67 67 51.7777 67 33L 65 33ZM 33 65C 15.3269 65 1 50.6731 1 33L -1 33C -1 51.7777 14.2223 67 33 67L 33 65ZM 1 33C 1 15.3269 15.3269 1 33 1L 33 -1C 14.2223 -1 -1 14.2223 -1 33L 1 33ZM 33 1C 50.6731 1 65 15.3269 65 33L 67 33C 67 14.2223 51.7777 -1 33 -1L 33 1Z"/>
<path id="path2_fill" d="M 0 0L 28.2857 0L 28.2857 16.923L 0 16.923L 0 0Z"/>
<path id="path3_stroke_2x" d="M 0 0L 0 -1.5L -1.5 -1.5L -1.5 0L 0 0ZM 28.2857 0L 29.7857 0L 29.7857 -1.5L 28.2857 -1.5L 28.2857 0ZM 28.2857 16.923L 28.2857 18.423L 29.7857 18.423L 29.7857 16.923L 28.2857 16.923ZM 0 16.923L -1.5 16.923L -1.5 18.423L 0 18.423L 0 16.923ZM 0 1.5L 28.2857 1.5L 28.2857 -1.5L 0 -1.5L 0 1.5ZM 26.7857 0L 26.7857 16.923L 29.7857 16.923L 29.7857 0L 26.7857 0ZM 28.2857 15.423L 0 15.423L 0 18.423L 28.2857 18.423L 28.2857 15.423ZM 1.5 16.923L 1.5 0L -1.5 0L -1.5 16.923L 1.5 16.923Z"/>
<path id="path4_stroke" d="M 0 0.75L 44 0.75L 44 -0.75L 0 -0.75L 0 0.75Z"/>
<path id="path5_stroke" d="M 0 0.75L 20.4286 0.75L 20.4286 -0.75L 0 -0.75L 0 0.75Z"/>
</defs>
</svg>
