<svg width="66" height="66" viewBox="0 0 66 66" version="1.1" xmlns="http://www.w3.org/2000/svg" xmlns:xlink="http://www.w3.org/1999/xlink">
<title>Group 40</title>
<desc>Created using Figma</desc>
<g id="Canvas" transform="translate(-11528 -1647)">
<g id="Group 40">
<g id="Ellipse 4">
<mask id="mask0_outline_ins">
<use xlink:href="#path0_fill" fill="white" transform="translate(11528 1647)"/>
</mask>
<g mask="url(#mask0_outline_ins)">
<use xlink:href="#path1_stroke_2x" transform="translate(11528 1647)" fill="#197AE3"/>
</g>
</g>
<g id="Group 36">
<g id="Vector">
<use xlink:href="#path2_stroke" transform="translate(11546 1665)" fill="#197AE3"/>
</g>
<g id="Vector">
<use xlink:href="#path3_stroke" transform="matrix(6.12323e-17 1 -1 6.12323e-17 11576 1665)" fill="#197AE3"/>
</g>
<g id="Vector">
<use xlink:href="#path4_stroke" transform="matrix(1 0 0 -1 11546 1695)" fill="#197AE3"/>
</g>
<g id="Vector">
<use xlink:href="#path3_stroke" transform="matrix(6.12323e-17 -1 -1 -6.12323e-17 11576 1695)" fill="#197AE3"/>
</g>
</g>
</g>
</g>
<defs>
<path id="path0_fill" d="M 66 33C 66 51.2254 51.2254 66 33 66C 14.7746 66 0 51.2254 0 33C 0 14.7746 14.7746 0 33 0C 51.2254 0 66 14.7746 66 33Z"/>
<path id="path1_stroke_2x" d="M 65 33C 65 50.6731 50.6731 65 33 65L 33 67C 51.7777 67 67 51.7777 67 33L 65 33ZM 33 65C 15.3269 65 1 50.6731 1 33L -1 33C -1 51.7777 14.2223 67 33 67L 33 65ZM 1 33C 1 15.3269 15.3269 1 33 1L 33 -1C 14.2223 -1 -1 14.2223 -1 33L 1 33ZM 33 1C 50.6731 1 65 15.3269 65 33L 67 33C 67 14.2223 51.7777 -1 33 -1L 33 1Z"/>
<path id="path2_stroke" d="M 0 0L 0 -0.75L -0.75 -0.75L -0.75 0L 0 0ZM -0.53033 0.53033L 12.0277 13.0884L 13.0884 12.0277L 0.53033 -0.53033L -0.53033 0.53033ZM 0 0.75L 8.37204 0.75L 8.37204 -0.75L 0 -0.75L 0 0.75ZM -0.75 0L -0.75 8.37204L 0.75 8.37204L 0.75 0L -0.75 0Z"/>
<path id="path3_stroke" d="M 0 0L -1.91351e-17 -0.75L -0.75 -0.75L -0.75 1.91351e-17L 0 0ZM -0.53033 0.53033L 12.0277 13.0884L 13.0884 12.0277L 0.53033 -0.53033L -0.53033 0.53033ZM 1.91351e-17 0.75L 8.37204 0.75L 8.37204 -0.75L -1.91351e-17 -0.75L 1.91351e-17 0.75ZM -0.75 1.91351e-17L -0.75 8.37204L 0.75 8.37204L 0.75 -1.91351e-17L -0.75 1.91351e-17Z"/>
<path id="path4_stroke" d="M 0 0L 0 -0.75L -0.75 -0.75L -0.75 0L 0 0ZM -0.53033 0.53033L 12.0277 13.0884L 13.0884 12.0277L 0.53033 -0.53033L -0.53033 0.53033ZM 0 0.75L 8.37204 0.75L 8.37204 -0.75L 0 -0.75L 0 0.75ZM -0.75 0L -0.75 8.37204L 0.75 8.37204L 0.75 0L -0.75 0Z"/>
</defs>
</svg>
