<svg width="56" height="56" viewBox="0 0 56 56" version="1.1" xmlns="http://www.w3.org/2000/svg" xmlns:xlink="http://www.w3.org/1999/xlink">
<title>Group</title>
<desc>Created using Figma</desc>
<g id="Canvas" transform="translate(-18002 -468)">
<g id="Group">
<g id="Ellipse 5.1">
<mask id="mask0_outline_ins">
<use xlink:href="#path0_fill" fill="white" transform="translate(18002 468)"/>
</mask>
<g mask="url(#mask0_outline_ins)">
<use xlink:href="#path1_stroke_2x" transform="translate(18002 468)" fill="#197AE3"/>
</g>
</g>
<g id="forms">
<g id="Group">
<g id="Group">
<g id="Vector">
<use xlink:href="#path2_fill" transform="translate(18018 482)" fill="#197AE3"/>
</g>
</g>
</g>
<g id="Group">
<g id="Group">
<g id="Vector">
<use xlink:href="#path3_fill" transform="translate(18023 498.611)" fill="#197AE3"/>
</g>
</g>
</g>
<g id="Group">
<g id="Group">
<g id="Vector">
<use xlink:href="#path4_fill" transform="translate(18025.2 498.611)" fill="#197AE3"/>
</g>
</g>
</g>
<g id="Group">
<g id="Group">
<g id="Vector">
<use xlink:href="#path5_fill" transform="translate(18023 496)" fill="#197AE3"/>
</g>
</g>
</g>
<g id="Group">
<g id="Group">
<g id="Vector">
<use xlink:href="#path6_fill" transform="translate(18025.2 496)" fill="#197AE3"/>
</g>
</g>
</g>
<g id="Group">
<g id="Group">
<g id="Vector">
<use xlink:href="#path7_fill" transform="translate(18023 493.389)" fill="#197AE3"/>
</g>
</g>
</g>
<g id="Group">
<g id="Group">
<g id="Vector">
<use xlink:href="#path8_fill" transform="translate(18025.2 493.389)" fill="#197AE3"/>
</g>
</g>
</g>
</g>
</g>
</g>
<defs>
<path id="path0_fill" d="M 56 28C 56 43.464 43.464 56 28 56C 12.536 56 0 43.464 0 28C 0 12.536 12.536 0 28 0C 43.464 0 56 12.536 56 28Z"/>
<path id="path1_stroke_2x" d="M 55 28C 55 42.9117 42.9117 55 28 55L 28 57C 44.0163 57 57 44.0163 57 28L 55 28ZM 28 55C 13.0883 55 1 42.9117 1 28L -1 28C -1 44.0163 11.9837 57 28 57L 28 55ZM 1 28C 1 13.0883 13.0883 1 28 1L 28 -1C 11.9837 -1 -1 11.9837 -1 28L 1 28ZM 28 1C 42.9117 1 55 13.0883 55 28L 57 28C 57 11.9837 44.0163 -1 28 -1L 28 1Z"/>
<path id="path2_fill" d="M 23.826 6.93786L 16.7869 0.167398C 16.6754 0.0602108 16.5243 0 16.3667 0L 2.8873 0C 1.2952 0 1.38811e-08 1.24589 1.38811e-08 2.77724L 1.38811e-08 25.2228C 1.38811e-08 26.7541 1.29525 28 2.88736 28L 21.1126 28C 22.7047 28 24 26.7542 24 25.2228L 24 7.34195C 23.9999 7.19041 23.9373 7.04505 23.826 6.93786ZM 16.961 1.95119L 21.9716 6.77057L 18.6602 6.77057C 18.2062 6.77057 17.7795 6.60055 17.4586 6.29189C 17.1376 5.98329 16.961 5.57286 16.961 5.13629L 16.961 1.95119ZM 22.8117 25.2228C 22.8117 26.124 22.0495 26.8571 21.1126 26.8571L 2.8873 26.8571C 1.95036 26.8571 1.18814 26.124 1.18814 25.2228L 1.18814 2.77724C 1.18819 1.87605 1.95042 1.14286 2.8873 1.14286L 15.7728 1.14286L 15.7728 5.13619C 15.7727 5.87802 16.073 6.57545 16.6183 7.09996C 17.1637 7.62452 17.8888 7.91338 18.6601 7.91338L 22.8117 7.91338L 22.8117 25.2228L 22.8117 25.2228Z"/>
<path id="path3_fill" d="M 0.860073 -2.67028e-07L 0.594096 -2.67028e-07C 0.266033 -2.67028e-07 1.45751e-07 0.255828 1.45751e-07 0.571429C 1.45751e-07 0.88703 0.266033 1.14286 0.594096 1.14286L 0.860073 1.14286C 1.18814 1.14286 1.45417 0.88703 1.45417 0.571429C 1.45417 0.255828 1.18814 -2.67028e-07 0.860073 -2.67028e-07Z"/>
<path id="path4_fill" d="M 11.2432 -2.67028e-07L 0.594097 -2.67028e-07C 0.266033 -2.67028e-07 -1.59632e-07 0.255828 -1.59632e-07 0.571429C -1.59632e-07 0.88703 0.266033 1.14286 0.594097 1.14286L 11.2432 1.14286C 11.5712 1.14286 11.8372 0.88703 11.8372 0.571429C 11.8372 0.255828 11.5712 -2.67028e-07 11.2432 -2.67028e-07Z"/>
<path id="path5_fill" d="M 0.860073 0L 0.594096 0C 0.266033 0 1.45751e-07 0.255828 1.45751e-07 0.571429C 1.45751e-07 0.88703 0.266033 1.14286 0.594096 1.14286L 0.860073 1.14286C 1.18814 1.14286 1.45417 0.88703 1.45417 0.571429C 1.45417 0.255828 1.18814 0 0.860073 0Z"/>
<path id="path6_fill" d="M 11.2432 0L 0.594097 0C 0.266033 0 -1.59632e-07 0.255828 -1.59632e-07 0.571429C -1.59632e-07 0.88703 0.266033 1.14286 0.594097 1.14286L 11.2432 1.14286C 11.5712 1.14286 11.8372 0.88703 11.8372 0.571429C 11.8372 0.255828 11.5712 0 11.2432 0Z"/>
<path id="path7_fill" d="M 0.860073 2.67028e-07L 0.594096 2.67028e-07C 0.266033 2.67028e-07 1.45751e-07 0.255827 1.45751e-07 0.571428C 1.45751e-07 0.887029 0.266033 1.14286 0.594096 1.14286L 0.860073 1.14286C 1.18814 1.14286 1.45417 0.887029 1.45417 0.571428C 1.45417 0.255827 1.18814 2.67028e-07 0.860073 2.67028e-07Z"/>
<path id="path8_fill" d="M 11.2432 2.67028e-07L 0.594097 2.67028e-07C 0.266033 2.67028e-07 -1.59632e-07 0.255827 -1.59632e-07 0.571428C -1.59632e-07 0.887029 0.266033 1.14286 0.594097 1.14286L 11.2432 1.14286C 11.5712 1.14286 11.8372 0.887029 11.8372 0.571428C 11.8372 0.255827 11.5712 2.67028e-07 11.2432 2.67028e-07Z"/>
</defs>
</svg>
