<svg width="56" height="56" viewBox="0 0 56 56" version="1.1" xmlns="http://www.w3.org/2000/svg" xmlns:xlink="http://www.w3.org/1999/xlink">
<title>Group</title>
<desc>Created using Figma</desc>
<g id="Canvas" transform="translate(-18316 -468)">
<g id="Group">
<g id="Ellipse 5.2">
<mask id="mask0_outline_ins">
<use xlink:href="#path0_fill" fill="white" transform="translate(18316 468)"/>
</mask>
<g mask="url(#mask0_outline_ins)">
<use xlink:href="#path1_stroke_2x" transform="translate(18316 468)" fill="#197AE3"/>
</g>
</g>
<g id="smartphone">
<g id="Group">
<g id="Vector">
<use xlink:href="#path2_fill" transform="translate(18335 481)" fill="#197AE3"/>
</g>
<g id="Vector">
<use xlink:href="#path3_fill" transform="translate(18341.9 505.5)" fill="#197AE3"/>
</g>
<g id="Vector">
<use xlink:href="#path4_fill" transform="translate(18341.4 482.5)" fill="#197AE3"/>
</g>
<g id="Vector">
<use xlink:href="#path5_fill" transform="translate(18345.1 482.5)" fill="#197AE3"/>
</g>
</g>
</g>
</g>
</g>
<defs>
<path id="path0_fill" d="M 56 28C 56 43.464 43.464 56 28 56C 12.536 56 0 43.464 0 28C 0 12.536 12.536 0 28 0C 43.464 0 56 12.536 56 28Z"/>
<path id="path1_stroke_2x" d="M 55 28C 55 42.9117 42.9117 55 28 55L 28 57C 44.0163 57 57 44.0163 57 28L 55 28ZM 28 55C 13.0883 55 1 42.9117 1 28L -1 28C -1 44.0163 11.9837 57 28 57L 28 55ZM 1 28C 1 13.0883 13.0883 1 28 1L 28 -1C 11.9837 -1 -1 11.9837 -1 28L 1 28ZM 28 1C 42.9117 1 55 13.0883 55 28L 57 28C 57 11.9837 44.0163 -1 28 -1L 28 1Z"/>
<path id="path2_fill" d="M 15.6679 0L 2.33206 0C 1.04665 0 0 0.9885 0 2.2025L 0 27.797C 0 29.0115 1.04665 30 2.33206 30L 15.6674 30C 16.9534 30 18 29.0115 18 27.7975L 18 2.2025C 18 0.9885 16.9534 0 15.6679 0ZM 1.05882 4L 16.9412 4L 16.9412 23L 1.05882 23L 1.05882 4ZM 2.33206 1L 15.6674 1C 16.3699 1 16.9412 1.5395 16.9412 2.2025L 16.9412 3L 1.05882 3L 1.05882 2.2025C 1.05882 1.5395 1.63006 1 2.33206 1ZM 15.6679 29L 2.33206 29C 1.63006 29 1.05882 28.4605 1.05882 27.7975L 1.05882 24L 16.9412 24L 16.9412 27.7975C 16.9412 28.4605 16.3699 29 15.6679 29Z"/>
<path id="path3_fill" d="M 2.11765 0C 0.949764 0 0 0.897 0 2C 0 3.103 0.949764 4 2.11765 4C 3.28553 4 4.23529 3.103 4.23529 2C 4.23529 0.897 3.28553 0 2.11765 0ZM 2.11765 3C 1.53371 3 1.05882 2.5515 1.05882 2C 1.05882 1.4485 1.53371 1 2.11765 1C 2.70159 1 3.17647 1.4485 3.17647 2C 3.17647 2.5515 2.70159 3 2.11765 3Z"/>
<path id="path4_fill" d="M 0.529412 1L 2.64706 1C 2.93982 1 3.17647 0.7765 3.17647 0.5C 3.17647 0.2235 2.93982 0 2.64706 0L 0.529412 0C 0.236647 0 0 0.2235 0 0.5C 0 0.7765 0.236647 1 0.529412 1Z"/>
<path id="path5_fill" d="M 0.529412 1L 1.05882 1C 1.35159 1 1.58824 0.7765 1.58824 0.5C 1.58824 0.2235 1.35159 0 1.05882 0L 0.529412 0C 0.236647 0 0 0.2235 0 0.5C 0 0.7765 0.236647 1 0.529412 1Z"/>
</defs>
</svg>
