<svg width="56" height="56" viewBox="0 0 56 56" version="1.1" xmlns="http://www.w3.org/2000/svg" xmlns:xlink="http://www.w3.org/1999/xlink">
<title>Group</title>
<desc>Created using Figma</desc>
<g id="Canvas" transform="translate(-17688 -468)">
<g id="Group">
<g id="call-center">
<g id="Group">
<g id="Vector">
<use xlink:href="#path0_fill" transform="translate(17704.7 480)" fill="#197AE3"/>
</g>
<g id="Vector">
<use xlink:href="#path1_fill" transform="translate(17704 500.933)" fill="#197AE3"/>
</g>
</g>
</g>
<g id="Ellipse 5">
<mask id="mask0_outline_ins">
<use xlink:href="#path2_fill" fill="white" transform="translate(17688 468)"/>
</mask>
<g mask="url(#mask0_outline_ins)">
<use xlink:href="#path3_stroke_2x" transform="translate(17688 468)" fill="#197AE3"/>
</g>
</g>
</g>
</g>
<defs>
<path id="path0_fill" d="M 1.47205 14.6501L 3.20464 14.6501C 4.3542 18.1044 7.55552 20.5959 11.315 20.5959C 14.0105 20.5959 16.4187 19.3147 17.9898 17.3164L 20.2171 17.3164C 20.6304 17.3164 20.9654 16.9736 20.9654 16.5506L 20.9654 14.6501L 21.3027 14.6501C 22.1144 14.6501 22.7747 13.9743 22.7747 13.1436L 22.7747 9.29217C 22.7747 8.5582 22.2589 7.94543 21.5789 7.81271C 21.0879 5.53635 19.8785 3.6018 18.0633 2.19858C 16.2024 0.760275 13.8689 0 11.3149 0C 6.13097 0 2.04207 3.14205 1.04303 7.85113C 0.439949 8.03959 1.46951e-07 8.61421 1.46951e-07 9.29217L 1.46951e-07 13.1436C 1.46951e-07 13.9743 0.660345 14.6501 1.47205 14.6501ZM 1.49664 13.1185L 1.49664 9.31735L 3.1097 9.31735C 2.87623 10.114 2.75018 10.9577 2.75018 11.831C 2.75018 12.2683 2.78207 12.6981 2.84278 13.1185L 1.49664 13.1185ZM 11.3149 19.0643C 7.4175 19.0643 4.24676 15.8195 4.24676 11.831C 4.24676 7.84261 7.4175 4.59787 11.3149 4.59787C 15.2124 4.59787 18.3831 7.84268 18.3831 11.831C 18.3831 13.2893 17.9588 14.6477 17.2307 15.7848L 10.8807 15.7848C 10.4674 15.7848 10.1323 16.1277 10.1323 16.5506C 10.1323 16.9736 10.4674 17.3164 10.8807 17.3164L 15.9171 17.3164C 14.6795 18.4053 13.0711 19.0643 11.3149 19.0643ZM 19.4687 15.7848L 18.9574 15.7848C 19.1381 15.4203 19.295 15.0415 19.4252 14.6501L 19.4686 14.6501L 19.4686 15.7848L 19.4687 15.7848ZM 21.278 13.1185L 19.7872 13.1185C 19.8479 12.6982 19.8798 12.2683 19.8798 11.831C 19.8798 10.9577 19.7537 10.114 19.5203 9.31735L 21.2781 9.31735L 21.2781 13.1185L 21.278 13.1185ZM 11.3149 1.5316C 15.6285 1.5316 19.0425 4.01567 20.0315 7.78574L 18.9111 7.78574C 17.4804 4.98357 14.6125 3.06627 11.3149 3.06627C 8.01733 3.06627 5.1495 4.98357 3.71871 7.78574L 2.59818 7.78574C 3.58616 4.018 7.00716 1.5316 11.3149 1.5316Z"/>
<path id="path1_fill" d="M 19.6918 -6.82823e-07L 4.30812 -6.82823e-07C 1.93262 -6.82823e-07 7.54613e-08 1.9777 7.54613e-08 4.40869L 7.54613e-08 10.301C 7.54613e-08 10.724 0.335053 11.0668 0.748322 11.0668C 1.16159 11.0668 1.49664 10.724 1.49664 10.301L 1.49664 4.40869C 1.49664 2.82228 2.75786 1.5316 4.30812 1.5316L 19.6918 1.5316C 21.2421 1.5316 22.5034 2.82228 22.5034 4.40876L 22.5034 10.301C 22.5034 10.724 22.8383 11.0668 23.2517 11.0668C 23.665 11.0668 24 10.724 24 10.301L 24 4.40876C 24 1.97777 22.0674 -6.82823e-07 19.6918 -6.82823e-07Z"/>
<path id="path2_fill" d="M 56 28C 56 43.464 43.464 56 28 56C 12.536 56 0 43.464 0 28C 0 12.536 12.536 0 28 0C 43.464 0 56 12.536 56 28Z"/>
<path id="path3_stroke_2x" d="M 55 28C 55 42.9117 42.9117 55 28 55L 28 57C 44.0163 57 57 44.0163 57 28L 55 28ZM 28 55C 13.0883 55 1 42.9117 1 28L -1 28C -1 44.0163 11.9837 57 28 57L 28 55ZM 1 28C 1 13.0883 13.0883 1 28 1L 28 -1C 11.9837 -1 -1 11.9837 -1 28L 1 28ZM 28 1C 42.9117 1 55 13.0883 55 28L 57 28C 57 11.9837 44.0163 -1 28 -1L 28 1Z"/>
</defs>
</svg>
