<svg width="12" height="14" viewBox="0 0 12 14" version="1.1" xmlns="http://www.w3.org/2000/svg" xmlns:xlink="http://www.w3.org/1999/xlink">
<title>avatar</title>
<desc>Created using Figma</desc>
<g id="Canvas" transform="translate(-1775 21)">
<g id="avatar">
<g id="Group">
<g id="Group">
<g id="Vector">
<use xlink:href="#path0_fill" transform="translate(1777.95 -21)" fill="#FFFFFF"/>
</g>
<g id="Vector">
<use xlink:href="#path1_fill" transform="translate(1775 -13.4841)" fill="#FFFFFF"/>
</g>
</g>
</g>
</g>
</g>
<defs>
<path id="path0_fill" d="M 2.99794 7.54359C 3.01255 7.54359 3.02716 7.54359 3.04469 7.54359C 3.05053 7.54359 3.05637 7.54359 3.06221 7.54359C 3.07098 7.54359 3.08266 7.54359 3.09143 7.54359C 3.94741 7.52909 4.6398 7.23048 5.15105 6.65935C 6.27581 5.40112 6.08883 3.24415 6.06838 3.03831C 5.99535 1.49306 5.25914 0.753779 4.65148 0.40878C 4.19866 0.150756 3.66988 0.0115966 3.07974 0L 3.05929 0C 3.05637 0 3.05053 0 3.04761 0L 3.03008 0C 2.7058 0 2.06892 0.0521847 1.45834 0.397184C 0.844835 0.742183 0.0969443 1.48147 0.0239081 3.03831C 0.003458 3.24415 -0.183514 5.40112 0.941243 6.65935C 1.44957 7.23048 2.14196 7.52909 2.99794 7.54359ZM 0.803935 3.11079C 0.803935 3.10209 0.806856 3.09339 0.806856 3.0876C 0.903264 1.0089 2.39028 0.78567 3.02716 0.78567L 3.03884 0.78567C 3.04469 0.78567 3.05345 0.78567 3.06221 0.78567C 3.851 0.803065 5.19195 1.12197 5.28251 3.0876C 5.28251 3.09629 5.28251 3.10499 5.28544 3.11079C 5.28836 3.13108 5.49286 5.10251 4.56384 6.1404C 4.19574 6.55208 3.70493 6.75502 3.05929 6.76082C 3.05345 6.76082 3.05053 6.76082 3.04469 6.76082C 3.03884 6.76082 3.03592 6.76082 3.03008 6.76082C 2.38736 6.75502 1.89363 6.55208 1.52845 6.1404C 0.602355 5.1083 0.801014 3.12818 0.803935 3.11079Z"/>
<path id="path1_fill" d="M 11.9992 3.60526C 11.9992 3.60237 11.9992 3.59947 11.9992 3.59657C 11.9992 3.57337 11.9963 3.55018 11.9963 3.52409C 11.9787 2.95006 11.9408 1.60775 10.6728 1.17868C 10.6641 1.17578 10.6524 1.17288 10.6436 1.16998C 9.32606 0.836576 8.23051 0.0827961 8.21883 0.0740986C 8.04062 -0.0505649 7.79522 -0.00707709 7.6696 0.169771C 7.54397 0.346619 7.5878 0.590148 7.766 0.714811C 7.81567 0.749601 8.9784 1.55267 10.4333 1.92376C 11.114 2.16439 11.1899 2.88628 11.2104 3.54728C 11.2104 3.57337 11.2104 3.59657 11.2133 3.61976C 11.2162 3.88068 11.1987 4.28367 11.152 4.5156C 10.6787 4.78232 8.82357 5.70425 6.00145 5.70425C 3.19102 5.70425 1.32421 4.77942 0.848015 4.5127C 0.801272 4.28077 0.780822 3.87778 0.786665 3.61686C 0.786665 3.59367 0.789586 3.57047 0.789586 3.54438C 0.810036 2.88338 0.885994 2.16149 1.56669 1.92086C 3.02157 1.54977 4.18431 0.743802 4.23397 0.711912C 4.41218 0.587248 4.456 0.34372 4.33038 0.166872C 4.20476 -0.00997642 3.95936 -0.0534633 3.78115 0.0712002C 3.76946 0.0798976 2.67976 0.833677 1.35635 1.16708C 1.34466 1.16998 1.3359 1.17288 1.32713 1.17578C 0.059224 1.60775 0.0212453 2.95006 0.00371659 3.52119C 0.00371659 3.54728 0.00371652 3.57048 0.000795073 3.59367C 0.000795073 3.59657 0.000795073 3.59947 0.000795073 3.60237C -0.00212638 3.75312 -0.00504776 4.52719 0.149789 4.91568C 0.179003 4.99106 0.23159 5.05484 0.301704 5.09833C 0.389348 5.15631 2.48987 6.48412 6.00437 6.48412C 9.51887 6.48412 11.6194 5.15341 11.707 5.09833C 11.7742 5.05484 11.8297 4.99106 11.859 4.91568C 12.005 4.53009 12.0021 3.75602 11.9992 3.60526Z"/>
</defs>
</svg>
