<svg width="13" height="13" viewBox="0 0 13 13" version="1.1" xmlns="http://www.w3.org/2000/svg" xmlns:xlink="http://www.w3.org/1999/xlink">
<title>phone-call</title>
<desc>Created using Figma</desc>
<g id="Canvas" transform="translate(-1320 -2074)">
<g id="phone-call">
<g id="Group">
<g id="Group">
<g id="Vector">
<use xlink:href="#path0_fill" transform="translate(1320 2074.75)" fill="#197AE3"/>
</g>
<g id="Vector">
<use xlink:href="#path1_fill" transform="translate(1326.72 2076.36)" fill="#197AE3"/>
</g>
<g id="Vector">
<use xlink:href="#path2_fill" transform="translate(1326.83 2074)" fill="#197AE3"/>
</g>
</g>
</g>
</g>
</g>
<defs>
<path id="path0_fill" d="M 10.2796 7.30109C 10.0131 7.02397 9.69157 6.87581 9.35085 6.87581C 9.01288 6.87581 8.68865 7.02123 8.41113 7.29835L 7.54284 8.16263C 7.4714 8.12421 7.39996 8.08855 7.33127 8.05288C 7.23235 8.00349 7.13893 7.95685 7.05924 7.90746C 6.24591 7.39164 5.50677 6.71942 4.79786 5.84965C 4.45439 5.41614 4.22358 5.05123 4.05597 4.68082C 4.28128 4.47504 4.49011 4.26103 4.69344 4.05525C 4.77038 3.97842 4.84732 3.89885 4.92425 3.82203C 5.50128 3.24584 5.50128 2.49955 4.92425 1.92336L 4.17412 1.17432C 4.08894 1.08926 4.00102 1.00147 3.91858 0.913666C 3.75372 0.743554 3.58061 0.567954 3.40201 0.40333C 3.13548 0.139931 2.81674 3.76796e-09 2.48152 3.76796e-09C 2.1463 3.76796e-09 1.82206 0.139931 1.54729 0.40333C 1.54454 0.406074 1.54454 0.406074 1.54179 0.408817L 0.607565 1.34992C 0.255855 1.70112 0.0552702 2.12914 0.0113065 2.62576C -0.0546391 3.42693 0.181666 4.17323 0.363016 4.66161C 0.808149 5.86063 1.4731 6.97184 2.46503 8.16263C 3.66854 9.5976 5.11659 10.7308 6.77073 11.5292C 7.40271 11.8283 8.24626 12.1822 9.18874 12.2426C 9.24644 12.2453 9.30689 12.2481 9.36184 12.2481C 9.99657 12.2481 10.5296 12.0203 10.9473 11.5676C 10.95 11.5621 10.9555 11.5594 10.9583 11.5539C 11.1012 11.381 11.266 11.2246 11.4391 11.0573C 11.5573 10.9448 11.6782 10.8268 11.7963 10.7033C 12.0684 10.4207 12.2112 10.0915 12.2112 9.754C 12.2112 9.41377 12.0656 9.08727 11.7881 8.81289L 10.2796 7.30109ZM 11.2633 10.1903C 11.2605 10.1903 11.2605 10.193 11.2633 10.1903C 11.1561 10.3055 11.0462 10.4097 10.9281 10.525C 10.7494 10.6951 10.5681 10.8734 10.3977 11.0737C 10.1202 11.3701 9.79324 11.51 9.36459 11.51C 9.32337 11.51 9.27941 11.51 9.23819 11.5072C 8.42212 11.4551 7.66374 11.1368 7.09496 10.8652C 5.53975 10.1134 4.17412 9.04611 3.03931 7.69345C 2.10233 6.56577 1.47585 5.52315 1.06094 4.4037C 0.805402 3.72051 0.711978 3.18823 0.753195 2.68612C 0.780672 2.3651 0.90432 2.09896 1.13238 1.87123L 2.06936 0.935615C 2.204 0.809403 2.34688 0.74081 2.48701 0.74081C 2.66012 0.74081 2.80026 0.845072 2.88818 0.932872C 2.89093 0.935615 2.89368 0.938359 2.89643 0.941103C 3.06404 1.0975 3.22341 1.25938 3.39102 1.43223C 3.4762 1.52003 3.56413 1.60783 3.65205 1.69838L 4.40218 2.44742C 4.69344 2.73825 4.69344 3.00714 4.40218 3.29798C 4.3225 3.37754 4.24556 3.45711 4.16588 3.53394C 3.93507 3.7699 3.71525 3.9894 3.4762 4.20341C 3.4707 4.2089 3.46521 4.21164 3.46246 4.21713C 3.22615 4.45309 3.27012 4.68356 3.31958 4.83996C 3.32233 4.84819 3.32507 4.85642 3.32782 4.86465C 3.52291 5.33657 3.79768 5.78106 4.21534 6.3106L 4.21809 6.31335C 4.97646 7.24622 5.77605 7.97331 6.65807 8.53029C 6.77073 8.60162 6.88614 8.65924 6.99604 8.71412C 7.09496 8.76351 7.18839 8.81015 7.26807 8.85954C 7.27906 8.86502 7.29005 8.87326 7.30104 8.87874C 7.39447 8.92539 7.48239 8.94734 7.57307 8.94734C 7.80113 8.94734 7.94401 8.80466 7.99072 8.75802L 8.93045 7.81966C 9.02387 7.72637 9.17225 7.61388 9.34536 7.61388C 9.51572 7.61388 9.65585 7.72088 9.74103 7.81417C 9.74378 7.81692 9.74378 7.81692 9.74653 7.81966L 11.2605 9.33146C 11.5435 9.61132 11.5435 9.89941 11.2633 10.1903Z"/>
<path id="path1_fill" d="M 0.305334 0.734794C 1.02524 0.855518 1.6792 1.19574 2.20127 1.71705C 2.72334 2.23836 3.06131 2.89137 3.18496 3.61023C 3.21518 3.79132 3.3718 3.91753 3.55041 3.91753C 3.57239 3.91753 3.59162 3.91479 3.6136 3.91204C 3.81694 3.87912 3.95158 3.68706 3.9186 3.48402C 3.77023 2.61426 3.35807 1.82131 2.72884 1.193C 2.0996 0.564682 1.30551 0.153121 0.434478 0.00495905C 0.231146 -0.0279658 0.0415522 0.106477 0.00583163 0.30677C -0.0298889 0.507063 0.102002 0.701869 0.305334 0.734794Z"/>
<path id="path2_fill" d="M 6.16813 5.73458C 5.92358 4.30234 5.24764 2.99907 4.209 1.96193C 3.17035 0.9248 1.86518 0.24984 0.430862 0.00564702C 0.230277 -0.0300216 0.0406837 0.107165 0.00496315 0.307458C -0.0280096 0.510495 0.106629 0.699813 0.309962 0.735482C 1.59041 0.952237 2.75819 1.5586 3.68693 2.48324C 4.61566 3.41063 5.22016 4.57672 5.43723 5.8553C 5.46746 6.03639 5.62408 6.1626 5.80268 6.1626C 5.82466 6.1626 5.8439 6.15986 5.86588 6.15711C 6.06646 6.12693 6.20385 5.93487 6.16813 5.73458Z"/>
</defs>
</svg>
