<svg width="12" height="12" viewBox="0 0 12 12" version="1.1" xmlns="http://www.w3.org/2000/svg" xmlns:xlink="http://www.w3.org/1999/xlink">
<title>cancel (1)</title>
<desc>Created using Figma</desc>
<g id="Canvas" transform="translate(-2208 -662)">
<g id="cancel (1)">
<g id="Vector">
<use xlink:href="#path0_fill" transform="translate(2208 662)" fill="#8F9CAE"/>
</g>
</g>
</g>
<defs>
<path id="path0_fill" fill-rule="evenodd" d="M 6.81388 6L 11.8314 0.982453C 12.0562 0.757695 12.0562 0.393326 11.8314 0.168568C 11.6067 -0.0561895 11.2423 -0.0561895 11.0175 0.168568L 6 5.18612L 0.982453 0.169335C 0.757695 -0.0554224 0.393326 -0.0554224 0.168568 0.169335C -0.0561895 0.394093 -0.0561895 0.758462 0.168568 0.98322L 5.18612 6.00077L 0.169335 11.0175C -0.0554224 11.2423 -0.0554224 11.6067 0.169335 11.8314C 0.282098 11.9434 0.428613 12.0002 0.575894 12.0002C 0.723176 12.0002 0.870457 11.9442 0.982453 11.8314L 6 6.81388L 11.0175 11.8314C 11.1303 11.9434 11.2768 12.0002 11.4241 12.0002C 11.5714 12.0002 11.7187 11.9442 11.8307 11.8314C 12.0554 11.6067 12.0554 11.2423 11.8307 11.0175L 6.81388 6Z"/>
</defs>
</svg>
