<svg width="28" height="28" viewBox="0 0 28 28" version="1.1" xmlns="http://www.w3.org/2000/svg" xmlns:xlink="http://www.w3.org/1999/xlink">
<title>engineer</title>
<desc>Created using Figma</desc>
<g id="Canvas" transform="translate(-1269 -1071)">
<g id="engineer">
<g id="Group">
<g id="Group">
<g id="Vector">
<use xlink:href="#path0_fill" transform="translate(1269 1071)" fill="#197AE3"/>
</g>
</g>
</g>
</g>
</g>
<defs>
<path id="path0_fill" d="M 26.6 23.24C 23.8148 21.763 21.6784 20.9348 19.7765 20.6173L 19.9733 20.3467C 20.0667 20.2533 20.1133 20.1133 20.0667 19.9733L 19.6293 18.224C 20.786 16.5889 21.4667 14.5446 21.4667 12.6L 21.4667 10.7333L 21.9333 10.7333L 22.8667 10.7333C 23.1467 10.7333 23.3333 10.5467 23.3333 10.2667C 23.3333 9.9867 23.1467 9.80005 22.8667 9.80005L 22.4 9.80005L 22.4 9.33341C 22.4 5.64675 19.9733 2.52008 16.3333 1.49339L 16.3333 1.39998C 16.3333 0.653288 15.7267 0 14.9333 0L 13.0667 0C 12.32 0 11.6667 0.606641 11.6667 1.39998L 11.6667 1.49333C 8.02666 2.52003 5.59999 5.64669 5.59999 9.33335L 5.59999 9.79999L 5.13335 9.79999C 4.85335 9.79999 4.6667 9.98664 4.6667 10.2666C 4.6667 10.5466 4.85335 10.7333 5.13335 10.7333L 6.06669 10.7333L 6.53333 10.7333L 6.53333 12.6C 6.53333 14.5445 7.21397 16.5888 8.37066 18.224L 7.93331 19.9733C 7.93331 20.0667 7.93331 20.2533 8.02666 20.3467L 8.22348 20.6173C 6.32166 20.9349 4.18522 21.763 1.39998 23.24C 0.513346 23.6601 0 24.5467 0 25.5267L 0 27.5334C 0 27.8134 0.186646 28 0.466643 28L 11.6667 28L 11.8533 28L 16.1467 28L 16.3333 28L 27.5334 28C 27.8134 28 28 27.8134 28 27.5334L 28 25.5267C 28.0001 24.5933 27.44 23.7067 26.6 23.24ZM 13.7202 22.8081L 14.0027 22.1724L 14.7002 23.707L 15.1563 24.7333L 12.8801 24.7333L 13.7202 22.8081ZM 12.5253 25.6667L 15.4712 25.6667L 15.7378 27.0667L 12.2454 27.0667L 12.5253 25.6667ZM 18.9 19.1333L 19.0866 19.9733L 18.6099 20.6279C 18.5795 20.6528 18.5514 20.6829 18.5266 20.72L 16.5856 23.4076L 15.9697 24.2533L 14.7116 21.4226C 16.2154 21.2392 17.5578 20.4843 18.6421 19.3994C 18.6541 19.3875 18.6661 19.3757 18.6781 19.3637C 18.681 19.3607 18.6839 19.3578 18.6868 19.3549C 18.7587 19.2827 18.8298 19.209 18.9 19.1333ZM 18.292 3.41317C 18.3438 3.44764 18.3952 3.48267 18.446 3.51836C 19.0409 3.96165 19.59 4.48095 20.02 5.04L 17.8734 5.45999L 18.292 3.41317ZM 10.1267 5.45999L 7.98002 5.04C 8.41008 4.48089 8.95923 3.9616 9.55408 3.51831C 9.60484 3.48267 9.65622 3.44764 9.70803 3.41317L 10.1267 5.45999ZM 6.53333 9.33335C 6.53333 8.09155 6.84596 6.92002 7.41179 5.89622L 10.64 6.53339C 10.6867 6.53339 10.6867 6.53339 10.7334 6.53339C 10.8734 6.53339 10.9667 6.48674 11.1067 6.44003C 11.2467 6.34668 11.2934 6.16004 11.2467 6.02004L 10.6061 2.90205C 10.9435 2.7397 11.2976 2.60026 11.6667 2.48561L 11.6667 3.73336C 11.6667 4.01336 11.8534 4.20001 12.1334 4.20001C 12.4134 4.20001 12.6 4.01336 12.6 3.73336L 12.6 1.86668L 12.6 1.39998C 12.6 1.16663 12.7867 0.933341 13.0667 0.933341L 14.9333 0.933341C 15.1667 0.933341 15.4 1.11999 15.4 1.39998L 15.4 1.86663L 15.4 3.73331C 15.4 4.0133 15.5866 4.19995 15.8666 4.19995C 16.1466 4.19995 16.3333 4.0133 16.3333 3.73331L 16.3333 2.48561C 16.7147 2.60404 17.0802 2.74882 17.4277 2.91811L 16.8 5.97339C 16.8 6.11339 16.8466 6.30004 16.94 6.39339C 17.0333 6.48674 17.1266 6.53339 17.2666 6.53339C 17.3133 6.53339 17.3133 6.53339 17.36 6.53339L 20.5673 5.85814C 21.1464 6.89094 21.4666 8.0762 21.4666 9.33335L 21.4666 9.79999L 21 9.79999L 7.00003 9.79999L 6.53339 9.79999L 6.53339 9.33335L 6.53333 9.33335ZM 7.46667 10.7333L 20.5333 10.7333L 20.5333 12.6C 20.5333 14.6349 19.8353 16.4431 18.7872 17.8176L 18.76 17.8267C 18.7134 17.8733 18.6666 17.92 18.62 17.9667C 18.3852 18.2797 18.1374 18.5652 17.8785 18.8225C 16.7797 19.8462 15.469 20.4663 14.2062 20.5277C 14.1426 20.5004 14.0713 20.4867 14 20.4867C 13.9283 20.4867 13.8636 20.5007 13.8056 20.5283C 13.0326 20.4929 12.2414 20.2478 11.4914 19.8287C 10.7317 19.3922 10.0169 18.7629 9.37994 17.9667C 9.3333 17.92 9.28659 17.8733 9.23995 17.8267L 9.2127 17.8176C 8.16466 16.4431 7.46662 14.6348 7.46662 12.6L 7.46662 10.7333L 7.46667 10.7333ZM 13.2884 21.4227L 12.0303 24.2535L 11.4144 23.4077L 9.47335 20.7201C 9.4585 20.7052 9.44205 20.6905 9.42504 20.676L 8.91336 19.9734L 9.1 19.1334C 9.16327 19.2015 9.22744 19.2679 9.29221 19.3332C 10.3877 20.4536 11.7541 21.2356 13.2884 21.4227ZM 0.933341 25.5267C 0.933341 24.92 1.25999 24.36 1.82003 24.08C 4.79464 22.4997 6.93598 21.7066 8.84347 21.4697L 11.6283 25.2988L 11.2748 27.0666L 0.933341 27.0666L 0.933341 25.5267ZM 27.0667 27.0667L 16.7254 27.0667L 16.3718 25.2989L 19.1868 21.4283C 21.0876 21.7151 23.2672 22.5077 26.18 24.0334C 26.74 24.36 27.0667 24.9201 27.0667 25.5267L 27.0667 27.0667Z"/>
</defs>
</svg>
