<svg width="60" height="61" viewBox="0 0 60 61" version="1.1" xmlns="http://www.w3.org/2000/svg" xmlns:xlink="http://www.w3.org/1999/xlink">

<g id="Canvas" transform="translate(-1683 -1883)">

<g id="Vector">
<use xlink:href="#path0_stroke" transform="translate(1684 1900)" fill="#FFFFFF"/>
</g>
<g id="Rectangle">
<use xlink:href="#path1_fill" transform="translate(1689.27 1942.5)" fill="#FFFFFF"/>
</g>
<g id="Vector">
<use xlink:href="#path2_stroke" transform="translate(1691.82 1884)" fill="#FFFFFF"/>
</g>
<g id="Vector">
<use xlink:href="#path3_stroke" transform="translate(1715.19 1889.72)" fill="#FFFFFF"/>
</g>
</g>

<defs>
<path id="path0_stroke" d="M 6.04454 0.75L 32.9597 0.75L 32.9597 -0.75L 6.04454 -0.75L 6.04454 0.75ZM 32.9597 0.75C 35.8688 0.75 38.2542 3.16351 38.2542 6.17449L 39.7542 6.17449C 39.7542 2.36532 36.7272 -0.75 32.9597 -0.75L 32.9597 0.75ZM 38.2542 6.17449L 38.2542 33.6683L 39.7542 33.6683L 39.7542 6.17449L 38.2542 6.17449ZM 38.2542 33.6683C 38.2542 36.6792 35.8688 39.0927 32.9597 39.0927L 32.9597 40.5927C 36.7272 40.5927 39.7542 37.4774 39.7542 33.6683L 38.2542 33.6683ZM 32.9597 39.0927L 6.04454 39.0927L 6.04454 40.5927L 32.9597 40.5927L 32.9597 39.0927ZM 6.04454 39.0927C 3.13541 39.0927 0.75 36.6792 0.75 33.6683L -0.75 33.6683C -0.75 37.4774 2.27706 40.5927 6.04454 40.5927L 6.04454 39.0927ZM 0.75 33.6683L 0.75 6.17449L -0.75 6.17449L -0.75 33.6683L 0.75 33.6683ZM 0.75 6.17449C 0.75 3.16351 3.13541 0.75 6.04454 0.75L 6.04454 -0.75C 2.27706 -0.75 -0.75 2.36532 -0.75 6.17449L 0.75 6.17449Z"/>
<path id="path1_fill" d="M 0 0.747922C 0 0.334856 0.334856 0 0.747923 0L 28.2521 0C 28.6652 0 29 0.334856 29 0.747922C 29 1.16099 28.6652 1.49584 28.2521 1.49584L 0.747922 1.49584C 0.334856 1.49584 0 1.16099 0 0.747922Z"/>
<path id="path2_stroke" d="M 17.7554 0L 17.7554 -0.75L 17.2034 -0.75L 17.0393 -0.223041L 17.7554 0ZM 15.4431 3.28066L 15.8916 3.88179L 15.4431 3.28066ZM 5.61661 0L 6.33268 -0.223041L 6.16854 -0.75L 5.61661 -0.75L 5.61661 0ZM -8.55083e-07 0L -8.55083e-07 -0.75L -0.750001 -0.75L -0.750001 0L -8.55083e-07 0ZM -8.55083e-07 16.0021L -0.750001 16.0021L -0.750001 16.7521L -8.55083e-07 16.7521L -8.55083e-07 16.0021ZM 23.3707 16.0021L 23.3707 16.7521L 24.1207 16.7521L 24.1207 16.0021L 23.3707 16.0021ZM 23.3707 0L 24.1207 0L 24.1207 -0.75L 23.3707 -0.75L 23.3707 0ZM 17.0393 -0.223041C 16.6725 0.985066 15.9979 1.9426 14.9946 2.67954L 15.8916 3.88179C 17.0728 2.98882 18.018 1.64824 18.4714 0.223041L 17.0393 -0.223041ZM 14.9946 2.67954C 14.0037 3.43075 12.9133 3.79371 11.6811 3.78264L 11.6794 5.28264C 13.1524 5.27454 14.6979 4.76048 15.8916 3.88179L 14.9946 2.67954ZM 11.6808 3.78264C 10.4503 3.79141 9.36206 3.42751 8.37329 2.67649L 7.47521 3.87792C 8.66641 4.75645 10.2089 5.27186 11.6797 5.28264L 11.6808 3.78264ZM 8.37329 2.67649C 7.37208 1.93969 6.69892 0.98331 6.33268 -0.223041L 4.90054 0.223041C 5.35333 1.64618 6.29646 2.98518 7.47521 3.87792L 8.37329 2.67649ZM 5.61661 -0.75L -8.55083e-07 -0.75L -8.55083e-07 0.75L 5.61661 0.75L 5.61661 -0.75ZM -0.750001 0L -0.750001 16.0021L 0.749999 16.0021L 0.749999 0L -0.750001 0ZM -8.55083e-07 16.7521L 23.3707 16.7521L 23.3707 15.2521L -8.55083e-07 15.2521L -8.55083e-07 16.7521ZM 24.1207 16.0021L 24.1207 0L 22.6207 0L 22.6207 16.0021L 24.1207 16.0021ZM 23.3707 -0.75L 17.7554 -0.75L 17.7554 0.75L 23.3707 0.75L 23.3707 -0.75Z"/>
<path id="path3_stroke" d="M 0.0139754 -0.74987C -0.400166 -0.757588 -0.742151 -0.428116 -0.749869 -0.0139743C -0.757587 0.400167 -0.428115 0.742152 -0.0139732 0.74987L 0.0139754 -0.74987ZM 18.196 10.2778L 18.8032 9.83753L 18.8032 9.83753L 18.196 10.2778ZM 26.7716 20.4952C 27.1852 20.5182 27.5391 20.2016 27.5621 19.788C 27.5851 19.3744 27.2685 19.0205 26.8549 18.9975L 26.7716 20.4952ZM 1.08829e-06 0C -0.0139732 0.74987 -0.0142661 0.749864 -0.0145176 0.749859C -0.0145463 0.749859 -0.0147572 0.749855 -0.0148151 0.749853C -0.0149226 0.749851 -0.014884 0.749852 -0.0146719 0.749857C -0.0138001 0.749876 -0.0131765 0.74989 -0.0114512 0.749935C -0.00710098 0.750047 -0.0019903 0.75019 0.00658109 0.750477C 0.0255415 0.751104 0.0508808 0.752064 0.0878411 0.753862C 0.165469 0.757609 0.273931 0.763961 0.421792 0.775959C 0.725214 0.800438 1.15176 0.844677 1.70061 0.930231C 2.81482 1.10312 4.3345 1.42692 6.10424 2.06642C 9.68166 3.35265 14.0438 5.79986 17.5888 10.7181L 18.8032 9.83753C 15.0428 4.68089 10.307 1.9892 6.61273 0.655241C 4.74664 -0.0153487 3.08708 -0.371964 1.931 -0.551969C 1.34471 -0.642861 0.863354 -0.693188 0.542659 -0.719163C 0.378461 -0.732392 0.245811 -0.740238 0.160342 -0.744384C 0.115753 -0.746532 0.0790472 -0.747942 0.0563497 -0.748697C 0.0440922 -0.749102 0.0334707 -0.749404 0.027296 -0.749564C 0.0237588 -0.749655 0.0204217 -0.749734 0.0186485 -0.749773C 0.0175381 -0.749798 0.0163681 -0.749822 0.0158126 -0.749834C 0.0154232 -0.749842 0.0149635 -0.749851 0.0147688 -0.749855C 0.0143514 -0.749863 0.0139754 -0.74987 1.08829e-06 0ZM 17.5888 10.7181C 21.0103 15.4346 23.2152 17.8579 24.545 19.0777C 25.2362 19.7088 25.7468 20.064 26.0544 20.2379C 26.2326 20.3366 26.396 20.4053 26.4843 20.4352C 26.5444 20.4546 26.6119 20.4718 26.6428 20.4782C 26.6671 20.4829 26.6983 20.4878 26.7107 20.4895C 26.7216 20.4909 26.7365 20.4925 26.742 20.493C 26.7471 20.4935 26.7545 20.4941 26.757 20.4943C 26.7595 20.4945 26.7631 20.4947 26.7644 20.4948C 26.7656 20.4949 26.7674 20.495 26.768 20.495C 26.7698 20.4951 26.7716 20.4952 26.8133 19.7464C 26.8549 18.9975 26.8567 18.9976 26.8585 18.9977C 26.859 18.9978 26.8608 18.9979 26.862 18.998C 26.8608 18.9979 26.871 18.9986 26.8688 18.9984C 26.8667 18.9983 26.886 18.9999 26.8818 18.9995C 26.8781 18.9992 26.9121 19.003 26.9049 19.0021C 26.8998 19.0014 26.9486 19.0094 26.9394 19.0078C 26.9385 19.0074 26.9619 19.0139 26.9589 19.0123C 26.9208 19.0001 26.8886 18.9876 26.7895 18.9304C 26.5427 18.7926 26.1725 18.5369 25.5584 17.9718C 24.2777 16.7991 22.1739 14.4881 18.8032 9.83753L 17.5888 10.7181Z"/>
</defs>
</svg>
