<svg width="23" height="25" viewBox="0 0 23 25" version="1.1" xmlns="http://www.w3.org/2000/svg" xmlns:xlink="http://www.w3.org/1999/xlink">
<title>gas-station</title>
<desc>Created using Figma</desc>
<g id="Canvas" transform="translate(-1273 -444)">
<g id="gas-station">
<g id="Group">
<g id="Group">
<g id="Group">
<g id="Vector">
<use xlink:href="#path0_fill" transform="matrix(-1 0 0 1 1291.82 446.604)" fill="#FFFFFF"/>
</g>
<g id="Vector">
<use xlink:href="#path1_fill" transform="matrix(-1 0 0 1 1296 467.958)" fill="#FFFFFF"/>
</g>
<g id="Vector">
<use xlink:href="#path2_fill" transform="matrix(-1 0 0 1 1294.43 444)" fill="#FFFFFF"/>
</g>
</g>
</g>
</g>
</g>
</g>
<defs>
<path id="path0_fill" d="M 9.93184 8.9407e-09L 0.522744 8.9407e-09C 0.235227 8.9407e-09 1.79464e-08 0.234375 1.79464e-08 0.52085L 1.79464e-08 7.2917C 1.79464e-08 7.57818 0.235227 7.81255 0.522744 7.81255L 9.93184 7.81255C 10.2194 7.81255 10.4546 7.57818 10.4546 7.2917L 10.4546 0.52085C 10.4546 0.234375 10.2194 8.9407e-09 9.93184 8.9407e-09ZM 9.40915 6.77085L 1.04549 6.77085L 1.04549 1.0417L 9.40915 1.0417L 9.40915 6.77085Z"/>
<path id="path1_fill" d="M 18.2955 -3.8147e-07L 0.522744 -3.8147e-07C 0.235227 -3.8147e-07 8.97322e-09 0.234376 8.97322e-09 0.52085C 8.97322e-09 0.807276 0.235227 1.04165 0.522744 1.04165L 18.2955 1.04165C 18.583 1.04165 18.8182 0.807276 18.8182 0.520801C 18.8182 0.234375 18.583 -3.8147e-07 18.2955 -3.8147e-07Z"/>
<path id="path2_fill" d="M 20.6216 6.09897L 19.022 4.26045C 18.9593 4.18755 18.8704 4.14585 18.7763 4.15107C 18.2066 4.16147 18.0341 4.7188 18.3059 5.0313L 19.827 6.7813C 20.1825 7.18755 20.3863 7.43755 20.3863 7.81255L 18.9227 7.81255C 18.5777 7.81255 18.2954 8.0938 18.2954 8.43755L 18.2954 10.9375C 18.2954 11.5104 18.7659 11.9791 19.3408 11.9791L 20.3863 11.9791L 20.3863 19.7917C 20.3863 20.0781 20.1511 20.3125 19.8635 20.3125L 18.7083 20.3125C 18.4051 20.3125 18.2954 20.0312 18.2954 19.7917L 18.2954 12.9948C 18.2954 12.0781 17.4276 11.4583 16.6174 11.4583L 15.6817 11.4583L 15.6817 2.60415C 15.6818 1.16665 14.5109 0 13.0682 0L 2.61362 0C 1.17089 0 -1.79464e-08 1.16665 -1.79464e-08 2.60415L -1.79464e-08 22.8802C -1.79464e-08 23.4062 0.423409 23.4114 1.12909 23.4271C 1.5107 23.4323 2.03864 23.4375 2.61362 23.4375L 13.0682 23.4375C 13.6484 23.4375 14.1711 23.4322 14.5527 23.4271C 15.2584 23.4167 15.6818 23.4062 15.6818 22.8802L 15.6818 12.5L 16.6174 12.5C 16.9363 12.5 17.25 12.7448 17.25 12.9948L 17.25 19.7917C 17.25 20.6823 17.8772 21.3542 18.7084 21.3542L 19.8636 21.3542C 20.7313 21.3542 21.4318 20.6562 21.4318 19.7917L 21.4318 7.8125C 21.4318 7.03125 21.0032 6.53647 20.6216 6.09897ZM 14.6363 22.3854C 14.2913 22.3906 13.7634 22.3958 13.0682 22.3958L 2.61362 22.3958C 1.91838 22.3958 1.39044 22.3906 1.04544 22.3854L 1.04544 2.60415C 1.04544 1.73955 1.74588 1.04165 2.61362 1.04165L 13.0682 1.04165C 13.9359 1.04165 14.6363 1.73955 14.6363 2.60415L 14.6363 22.3854ZM 20.3863 10.9375L 19.3409 10.9375L 19.3409 8.85415L 20.3863 8.85415L 20.3863 10.9375Z"/>
</defs>
</svg>
