<svg width="28" height="28" viewBox="0 0 28 28" version="1.1" xmlns="http://www.w3.org/2000/svg" xmlns:xlink="http://www.w3.org/1999/xlink">
    <style>

    </style>
<title>gas-pipe</title>
<desc>Created using Figma</desc>
<g id="Canvas" transform="translate(-1269 -329)">
<g id="gas-pipe">
<g id="Group">
<g id="Group">
<g id="Group">
<g id="Vector">
<use xlink:href="#path0_fill" transform="translate(1269 329)" fill="#FFFFFF"/>
</g>
<g id="Vector">
<use xlink:href="#path1_fill" transform="translate(1279.73 345.333)" fill="#FFFFFF"/>
</g>
<g id="Vector">
<use xlink:href="#path2_fill" transform="translate(1279.73 334.6)" fill="#FFFFFF"/>
</g>
<g id="Vector">
<use xlink:href="#path3_fill" transform="translate(1287.2 334.6)" fill="#FFFFFF"/>
</g>
<g id="Vector">
<use xlink:href="#path4_fill" transform="translate(1280.67 332.267)" fill="#FFFFFF"/>
</g>
<g id="Vector">
<use xlink:href="#path5_fill" transform="translate(1283.47 330.867)" fill="#FFFFFF"/>
</g>
<g id="Vector">
<use xlink:href="#path6_fill" transform="translate(1286.27 332.267)" fill="#FFFFFF"/>
</g>
<g id="Vector">
<use xlink:href="#path7_fill" transform="translate(1281.85 333.641)" fill="#FFFFFF"/>
</g>
</g>
</g>
</g>
</g>
</g>
<defs>
<path id="path0_fill" d="M 27.5334 19.6L 21.9334 19.6L 21.9334 16.8L 27.5334 16.8C 27.8134 16.8 28 16.6134 28 16.3334C 28 16.0534 27.8134 15.8667 27.5334 15.8667L 21.9334 15.8667L 21.9334 14.4667C 21.9334 14.1867 21.7467 14.0001 21.4667 14.0001L 17.22 14.0001L 17.22 11.6901C 19.4406 10.7903 21 8.61684 21 6.06665C 21 2.70665 18.2934 0 14.9334 0C 11.5734 0 8.86665 2.70665 8.86665 6.06665C 8.86665 8.59895 10.4042 10.7599 12.6 11.671L 12.6 14L 8.4 14C 8.12 14 7.93335 14.1866 7.93335 14.4666L 7.93335 15.8798C 3.52822 16.1211 0 19.755 0 24.1734L 0 27.5334C 0 27.8134 0.186648 28 0.466648 28C 0.746648 28 0.933297 27.8134 0.933297 27.5334L 0.933297 24.1734C 0.933297 20.2534 4.05994 17.0334 7.9333 16.8L 7.9333 19.5066C 5.59995 19.7866 3.7333 21.7466 3.7333 24.1733L 3.7333 27.5333C 3.7333 27.8133 3.91995 27.9999 4.19995 27.9999C 4.47995 27.9999 4.66659 27.8133 4.66659 27.5333L 4.66659 24.1733C 4.66659 22.278 6.0982 20.702 7.93324 20.4704L 7.93324 21.9333C 7.93324 22.2133 8.11989 22.3999 8.39989 22.3999L 21.4665 22.3999C 21.7465 22.3999 21.9332 22.2133 21.9332 21.9333L 21.9332 20.5333L 27.5332 20.5333C 27.8132 20.5333 27.9998 20.3466 27.9998 20.0666C 27.9998 19.7866 27.8134 19.6 27.5334 19.6ZM 16.2793 11.0189C 16.2522 11.026 16.2252 11.034 16.1981 11.0407C 16.1928 11.0421 16.1874 11.0433 16.1821 11.0446C 15.7642 11.1474 15.3416 11.1991 14.919 11.1998C 14.903 11.1998 14.8871 11.1994 14.8712 11.1992C 14.8384 11.199 14.8056 11.1981 14.7728 11.1972C 13.9244 11.1706 13.1228 10.9344 12.4208 10.5375C 13.0276 9.75029 13.9572 9.33335 14.9333 9.33335C 15.9094 9.33335 16.839 9.75029 17.4458 10.5375C 17.0814 10.7436 16.6901 10.9063 16.2793 11.0189ZM 9.8 6.06665C 9.8 3.22 12.1334 0.933297 14.9334 0.933297C 17.78 0.933297 20.0667 3.21995 20.0667 6.06665C 20.0667 7.64548 19.3487 9.05177 18.2317 9.99152C 17.4289 8.98455 16.2543 8.4 14.9334 8.4C 13.6613 8.4 12.4616 8.97745 11.6512 10.0051C 10.5249 9.06538 9.8 7.65313 9.8 6.06665ZM 13.5334 11.9722C 13.5644 11.9795 13.5957 11.9861 13.627 11.9929C 13.6615 12.0005 13.6961 12.0079 13.7308 12.0148C 13.765 12.0217 13.7991 12.0282 13.8334 12.0344C 13.8645 12.0401 13.8957 12.0452 13.9269 12.0504C 13.9777 12.0589 14.0287 12.0666 14.0798 12.0738C 14.1157 12.0788 14.1515 12.0837 14.1876 12.0881C 14.218 12.0918 14.2486 12.0952 14.2792 12.0985C 14.3276 12.1036 14.3763 12.1081 14.4251 12.1122C 14.4491 12.1142 14.4732 12.1161 14.4973 12.1178C 14.5537 12.1218 14.6104 12.1249 14.6672 12.1273C 14.6873 12.1282 14.7074 12.1289 14.7275 12.1296C 14.7958 12.1318 14.8643 12.1334 14.9332 12.1334C 15.0024 12.1334 15.0711 12.1318 15.1396 12.1296C 15.1591 12.1289 15.1786 12.1282 15.198 12.1274C 15.2593 12.1248 15.3204 12.1215 15.3812 12.1171C 15.3948 12.1161 15.4083 12.115 15.4219 12.114C 15.482 12.1092 15.5419 12.1034 15.6015 12.0969C 15.6209 12.0948 15.6404 12.0926 15.6598 12.0903C 15.8885 12.0632 16.1132 12.0236 16.3333 11.972L 16.3333 14L 13.5333 14L 13.5333 11.9722L 13.5334 11.9722ZM 21 21.4666L 8.86665 21.4666L 8.86665 19.9733L 8.86665 16.3333L 8.86665 14.9333L 13.0666 14.9333L 16.8 14.9333L 21 14.9333L 21 16.3333L 21 20.0666L 21 21.4666Z"/>
<path id="path1_fill" d="M 7.9333 -4.27246e-07L 0.466649 -4.27246e-07C 0.186649 -4.27246e-07 -9.34601e-08 0.186649 -9.34601e-08 0.466649L -9.34601e-08 3.26665C -9.34601e-08 3.54665 0.186649 3.7333 0.466649 3.7333L 7.9333 3.7333C 8.2133 3.7333 8.39994 3.54665 8.39994 3.26665L 8.39994 0.466649C 8.4 0.186649 8.2133 -4.27246e-07 7.9333 -4.27246e-07ZM 7.46665 2.8L 0.933296 2.8L 0.933296 0.933352L 7.46665 0.933352L 7.46665 2.8Z"/>
<path id="path2_fill" d="M 0.933296 0.466648C 0.933296 0.233297 0.746649 8.34465e-08 0.466649 8.34465e-08C 0.186649 8.34465e-08 -9.34601e-08 0.186648 -9.34601e-08 0.466648C -9.34601e-08 0.746648 0.186649 0.933297 0.466649 0.933297C 0.746649 0.933352 0.933296 0.746648 0.933296 0.466648Z"/>
<path id="path3_fill" d="M 0.466649 0.933297C 0.746649 0.933297 0.933297 0.746648 0.933297 0.466648C 0.933297 0.233297 0.746649 5.34058e-08 0.466649 5.34058e-08C 0.186649 5.34058e-08 -6.67572e-07 0.186648 -6.67572e-07 0.466648C -6.67572e-07 0.746648 0.186649 0.933297 0.466649 0.933297Z"/>
<path id="path4_fill" d="M 0.466649 0.933297C 0.746649 0.933297 0.933297 0.746648 0.933297 0.466648C 0.933297 0.233297 0.746649 6.34193e-08 0.466649 6.34193e-08C 0.186649 6.34193e-08 -2.00272e-08 0.186648 -2.00272e-08 0.466648C -2.00272e-08 0.746648 0.186649 0.933297 0.466649 0.933297Z"/>
<path id="path5_fill" d="M 0.466648 0.933297C 0.746648 0.933297 0.933297 0.746648 0.933297 0.466648C 0.933297 0.233297 0.746648 -6.17504e-08 0.466648 -6.17504e-08C 0.186648 -6.17504e-08 -1.8692e-07 0.186648 -1.8692e-07 0.466648C -1.8692e-07 0.746648 0.186648 0.933297 0.466648 0.933297Z"/>
<path id="path6_fill" d="M 0.466648 0.933297C 0.746648 0.933297 0.933296 0.746648 0.933296 0.466648C 0.933296 0.233297 0.746648 6.34193e-08 0.466648 6.34193e-08C 0.186648 6.34193e-08 4.80652e-07 0.186648 4.80652e-07 0.466648C 4.80652e-07 0.746648 0.186648 0.933297 0.466648 0.933297Z"/>
<path id="path7_fill" d="M 1.70555 2.63885C 1.7989 2.77885 2.12555 2.77885 2.3122 2.6855C 2.49885 2.5455 2.54555 2.21885 2.35885 2.03215L 0.818848 0.165497C 0.678849 -0.0211516 0.3522 -0.0678545 0.165497 0.118849C -0.0211517 0.258849 -0.0678547 0.585497 0.118848 0.7722L 1.70555 2.63885Z"/>
</defs>
</svg>
