<svg width="68" height="57" viewBox="0 0 68 57" version="1.1" xmlns="http://www.w3.org/2000/svg" xmlns:xlink="http://www.w3.org/1999/xlink">

<g id="Canvas" transform="translate(-1930 -1708)">

<g id="Vector">
<use xlink:href="#path0_stroke" transform="translate(1931 1721.3)" fill="#FFFFFF"/>
</g>
<g id="Vector">
<use xlink:href="#path1_stroke" transform="translate(1938.83 1714.96)" fill="#FFFFFF"/>
</g>
<g id="Vector">
<use xlink:href="#path2_stroke" transform="translate(1937.7 1709)" fill="#FFFFFF"/>
</g>
<g id="Vector">
<use xlink:href="#path3_stroke" transform="translate(1931 1736.97)" fill="#FFFFFF"/>
</g>
</g>

<defs>
<path id="path0_stroke" d="M 6.46773 0.75L 59.5323 0.75L 59.5323 -0.75L 6.46773 -0.75L 6.46773 0.75ZM 59.5323 0.75C 62.6979 0.75 65.25 3.28603 65.25 6.39709L 66.75 6.39709C 66.75 2.44212 63.5107 -0.75 59.5323 -0.75L 59.5323 0.75ZM 65.25 6.39709L 65.25 36.2987L 66.75 36.2987L 66.75 6.39709L 65.25 6.39709ZM 65.25 36.2987C 65.25 39.4097 62.6979 41.9458 59.5323 41.9458L 59.5323 43.4458C 63.5107 43.4458 66.75 40.2536 66.75 36.2987L 65.25 36.2987ZM 59.5323 41.9458L 6.46773 41.9458L 6.46773 43.4458L 59.5323 43.4458L 59.5323 41.9458ZM 6.46773 41.9458C 3.30213 41.9458 0.75 39.4097 0.75 36.2987L -0.75 36.2987C -0.75 40.2536 2.48927 43.4458 6.46773 43.4458L 6.46773 41.9458ZM 0.75 36.2987L 0.75 6.39709L -0.75 6.39709L -0.75 36.2987L 0.75 36.2987ZM 0.75 6.39709C 0.75 3.28603 3.30213 0.75 6.46773 0.75L 6.46773 -0.75C 2.48927 -0.75 -0.75 2.44212 -0.75 6.39709L 0.75 6.39709Z"/>
<path id="path1_stroke" d="M 0 -2.44437e-07L 0 -0.75L -0.75 -0.75L -0.75 -2.44437e-07L 0 -2.44437e-07ZM 14.6212 -2.44437e-07L 15.3712 -2.44437e-07L 15.3712 -0.75L 14.6212 -0.75L 14.6212 -2.44437e-07ZM 14.6212 6.34102L 14.6212 7.09102L 15.3712 7.09102L 15.3712 6.34102L 14.6212 6.34102ZM 0 6.34102L -0.75 6.34102L -0.75 7.09102L 0 7.09102L 0 6.34102ZM 0 0.75L 14.6212 0.75L 14.6212 -0.75L 0 -0.75L 0 0.75ZM 13.8712 -2.44437e-07L 13.8712 6.34102L 15.3712 6.34102L 15.3712 -2.44437e-07L 13.8712 -2.44437e-07ZM 14.6212 5.59102L 0 5.59102L 0 7.09102L 14.6212 7.09102L 14.6212 5.59102ZM 0.75 6.34102L 0.75 -2.44437e-07L -0.75 -2.44437e-07L -0.75 6.34102L 0.75 6.34102Z"/>
<path id="path2_stroke" d="M 0.269938 0.75L 16.6012 0.75L 16.6012 -0.75L 0.269938 -0.75L 0.269938 0.75ZM 16.6012 0.75C 16.3439 0.75 16.1212 0.541493 16.1212 0.26699L 17.6212 0.26699C 17.6212 -0.302422 17.1567 -0.75 16.6012 -0.75L 16.6012 0.75ZM 16.1212 0.26699L 16.1212 5.69624L 17.6212 5.69624L 17.6212 0.26699L 16.1212 0.26699ZM 16.1212 5.69624C 16.1212 5.42173 16.3439 5.21323 16.6012 5.21323L 16.6012 6.71323C 17.1567 6.71323 17.6212 6.26565 17.6212 5.69624L 16.1212 5.69624ZM 16.6012 5.21323L 0.269938 5.21323L 0.269938 6.71323L 16.6012 6.71323L 16.6012 5.21323ZM 0.269938 5.21323C 0.527282 5.21323 0.75 5.42173 0.75 5.69624L -0.75 5.69624C -0.75 6.26565 -0.285571 6.71323 0.269938 6.71323L 0.269938 5.21323ZM 0.75 5.69624L 0.75 0.26699L -0.75 0.26699L -0.75 5.69624L 0.75 5.69624ZM 0.75 0.26699C 0.75 0.541493 0.527282 0.75 0.269938 0.75L 0.269938 -0.75C -0.285571 -0.75 -0.75 -0.302422 -0.75 0.26699L 0.75 0.26699Z"/>
<path id="path3_stroke" d="M 33 1.06796L 32.8927 0.325681L 32.8533 0.331377L 32.8147 0.34121L 33 1.06796ZM 0 1.06796C 0.185288 1.79471 0.185175 1.79474 0.185098 1.79476C 0.18512 1.79476 0.185078 1.79477 0.185122 1.79476C 0.185309 1.79471 0.185439 1.79468 0.185812 1.79458C 0.186756 1.79434 0.187865 1.79406 0.18974 1.79359C 0.19389 1.79255 0.199473 1.79115 0.207674 1.78912C 0.224888 1.78485 0.249237 1.77887 0.282906 1.77078C 0.351901 1.75419 0.451146 1.73083 0.583216 1.70116C 0.850814 1.64102 1.23399 1.5592 1.72236 1.46703C 2.70653 1.28111 4.0708 1.0611 5.66606 0.913669C 8.8721 0.615705 12.8402 0.606479 16.2588 1.77812L 16.7412 0.357803C 13.0847 -0.873467 8.80281 -0.882693 5.52762 -0.579929C 3.88226 -0.427 2.44812 -0.196462 1.44402 -0.0069226C 0.938254 0.0886378 0.529838 0.175766 0.254374 0.23765C 0.114913 0.268996 0.00476057 0.294911 -0.0677586 0.312345C -0.104847 0.321265 -0.134285 0.328487 -0.153169 0.333167C -0.163017 0.335608 -0.17106 0.337621 -0.176024 0.338869C -0.178706 0.339543 -0.181026 0.340129 -0.182371 0.34047C -0.183144 0.340665 -0.183874 0.340851 -0.184261 0.340949C -0.184504 0.341011 -0.184761 0.341076 -0.184882 0.341107C -0.185103 0.341163 -0.185288 0.34121 0 1.06796ZM 16.2588 1.77812C 19.9153 3.00939 24.1972 3.01862 27.4724 2.71585C 29.1177 2.56292 30.5519 2.33239 31.556 2.14285C 32.0617 2.04729 32.4702 1.96016 32.7456 1.89827C 32.8851 1.86693 32.9952 1.84101 33.0678 1.82358C 33.1048 1.81466 33.1343 1.80744 33.1532 1.80276C 33.163 1.80032 33.1711 1.7983 33.176 1.79706C 33.1787 1.79638 33.181 1.7958 33.1824 1.79545C 33.1831 1.79526 33.1839 1.79507 33.1843 1.79498C 33.1845 1.79491 33.1848 1.79485 33.1849 1.79482C 33.1851 1.79476 33.1853 1.79471 33 1.06796C 32.8147 0.34121 32.8148 0.341182 32.8149 0.341162C 32.8149 0.341167 32.8149 0.341157 32.8149 0.341168C 32.8147 0.341216 32.8146 0.341249 32.8142 0.341343C 32.8132 0.341582 32.8121 0.341862 32.8103 0.342334C 32.8061 0.343377 32.8005 0.344775 32.7923 0.346807C 32.7751 0.351073 32.7508 0.35705 32.7171 0.365144C 32.6481 0.381735 32.5489 0.405098 32.4168 0.434764C 32.1492 0.494903 31.766 0.576729 31.2776 0.668897C 30.2935 0.854812 28.9292 1.07482 27.3339 1.22226C 24.1279 1.52022 20.1598 1.52945 16.7412 0.357803L 16.2588 1.77812ZM 33 1.06796C 33.1073 1.81024 33.1073 1.81025 33.1073 1.81025C 33.1073 1.81024 33.1073 1.81024 33.1074 1.81023C 33.1077 1.81019 33.108 1.81015 33.1084 1.81008C 33.1095 1.80993 33.111 1.80972 33.1131 1.80941C 33.1177 1.80876 33.1241 1.80785 33.1331 1.80658C 33.1516 1.80398 33.1783 1.80026 33.2144 1.79533C 33.2875 1.78533 33.3939 1.77107 33.5335 1.75318C 33.8148 1.71713 34.2199 1.66769 34.7305 1.61235C 35.7558 1.50114 37.1792 1.36873 38.8146 1.28021C 42.094 1.10215 46.1188 1.09816 49.3411 1.80094L 49.6589 0.334981C 46.2785 -0.393305 42.0533 -0.397297 38.7334 -0.217589C 37.0691 -0.127226 35.6055 0.00868892 34.5688 0.121089C 34.0483 0.177548 33.6286 0.228729 33.3428 0.26535C 33.1989 0.283793 33.0863 0.298884 33.0112 0.309154C 32.9731 0.314355 32.9435 0.318489 32.9241 0.321221C 32.9141 0.322619 32.9063 0.323735 32.9013 0.324451C 32.8986 0.324825 32.8965 0.325133 32.8952 0.325322C 32.8945 0.325425 32.8938 0.325515 32.8935 0.325567C 32.8933 0.325597 32.8931 0.325625 32.893 0.32564C 32.8928 0.325664 32.8927 0.325681 33 1.06796ZM 49.3411 1.80094C 52.7215 2.52923 56.9467 2.53322 60.2666 2.35351C 61.9309 2.26315 63.3945 2.12724 64.4312 2.01484C 64.9517 1.95838 65.3714 1.9072 65.6572 1.87057C 65.801 1.85213 65.9137 1.83704 65.9888 1.82677C 66.0269 1.82157 66.0565 1.81744 66.0759 1.8147C 66.0859 1.81331 66.0937 1.81219 66.0987 1.81147C 66.1014 1.8111 66.1035 1.81079 66.1048 1.8106C 66.1056 1.8105 66.1062 1.81041 66.1065 1.81036C 66.1067 1.81033 66.1069 1.8103 66.107 1.81028C 66.1072 1.81026 66.1073 1.81024 66 1.06796C 65.8927 0.325681 65.8927 0.325675 65.8927 0.325673C 65.8927 0.32568 65.8927 0.325684 65.8926 0.325697C 65.8923 0.325732 65.892 0.325772 65.8916 0.325842C 65.8905 0.325998 65.889 0.326206 65.8869 0.326514C 65.8823 0.327163 65.8759 0.328078 65.8669 0.329344C 65.8484 0.33194 65.8217 0.335667 65.7856 0.340598C 65.7125 0.350593 65.6061 0.36485 65.4665 0.382743C 65.1852 0.418792 64.7801 0.468234 64.2695 0.523577C 63.2442 0.634781 61.8208 0.767191 60.1854 0.855712C 56.906 1.03377 52.8812 1.03776 49.6589 0.334981L 49.3411 1.80094Z"/>
</defs>
</svg>
