<svg width="19" height="28" viewBox="0 0 19 28" version="1.1" xmlns="http://www.w3.org/2000/svg" xmlns:xlink="http://www.w3.org/1999/xlink">
<title>light-bulb</title>
<desc>Created using Figma</desc>
<g id="Canvas" transform="translate(-1274 -554)">
<g id="light-bulb">
<g id="Group">
<g id="Group">
<g id="Vector">
<use xlink:href="#path0_fill" transform="translate(1274 554)" fill="#FFFFFF"/>
</g>
</g>
</g>
</g>
</g>
<defs>
<path id="path0_fill" d="M 18.9413 8.49335C 18.4669 4.06 14.8612 0.513352 10.4014 0.0466484C 10.1167 0.0466484 9.83208 0 9.49999 0C 9.1679 0 8.88324 0.0466484 8.59857 0.0466484C 4.1388 0.56 0.533074 4.10665 0.0586527 8.49335C -0.273437 11.48 0.817738 14.42 3.0002 16.4734C 4.18628 17.5934 4.94542 18.9 5.23009 20.16L 5.23009 25.6666C 5.23009 25.9466 5.41984 26.1333 5.70451 26.1333L 6.41617 26.1333L 7.27016 27.2533C 7.64968 27.72 8.17158 28 8.78833 28L 10.2117 28C 10.8284 28 11.3977 27.72 11.7299 27.2534L 12.5839 26.1334L 13.2955 26.1334C 13.5802 26.1334 13.77 25.9467 13.77 25.6667L 13.77 20.16C 14.0072 18.9 14.8137 17.5934 15.9998 16.4734C 18.1822 14.3734 19.2735 11.48 18.9413 8.49335ZM 7.60225 11.6666L 6.65335 11.6666C 6.13145 11.6666 5.70445 11.2466 5.70445 10.7333C 5.70445 10.2199 6.13145 9.79995 6.65335 9.79995C 7.17525 9.79995 7.60225 10.2199 7.60225 10.7333L 7.60225 11.6666ZM 10.4489 19.6L 8.55115 19.6L 8.55115 12.6L 10.4489 12.6L 10.4489 19.6ZM 12.8211 20.5334L 12.8211 21.4667L 11.3977 21.4667C 11.1131 21.4667 10.9233 21.6534 10.9233 21.9334C 10.9233 22.2134 11.1131 22.4 11.3977 22.4L 12.8211 22.4L 12.8211 23.3334L 9.97441 23.3334C 9.68975 23.3334 9.49999 23.52 9.49999 23.8C 9.49999 24.08 9.68975 24.2666 9.97441 24.2666L 12.8211 24.2666L 12.8211 25.2L 12.3466 25.2L 6.65335 25.2L 6.17893 25.2L 6.17893 24.2666L 7.60225 24.2666C 7.88691 24.2666 8.07667 24.08 8.07667 23.8C 8.07667 23.52 7.88691 23.3334 7.60225 23.3334L 6.17893 23.3334L 6.17893 22.4L 9.02557 22.4C 9.31024 22.4 9.49999 22.2134 9.49999 21.9334C 9.49999 21.6534 9.31024 21.4667 9.02557 21.4667L 6.17893 21.4667L 6.17893 20.5334L 12.8211 20.5334ZM 10.9707 26.6934C 10.781 26.9267 10.4963 27.0667 10.2117 27.0667L 8.78833 27.0667C 8.50367 27.0667 8.219 26.9267 8.02925 26.6934L 7.60225 26.1334L 11.3978 26.1334L 10.9707 26.6934ZM 15.3356 15.7734C 14.1495 16.94 13.2955 18.2467 12.916 19.6L 11.3977 19.6L 11.3977 12.6L 12.3466 12.6C 13.3904 12.6 14.2444 11.76 14.2444 10.7334C 14.2444 9.7067 13.3904 8.8667 12.3466 8.8667C 11.3029 8.8667 10.4489 9.7067 10.4489 10.7334L 10.4489 11.6667L 8.55115 11.6667L 8.55115 10.7334C 8.55115 9.7067 7.69716 8.8667 6.65341 8.8667C 5.60966 8.8667 4.75567 9.7067 4.75567 10.7334C 4.75567 11.76 5.60966 12.6 6.65341 12.6L 7.60231 12.6L 7.60231 19.6L 6.08402 19.6C 5.70445 18.2466 4.85046 16.94 3.66438 15.7734C 1.67173 13.9067 0.722832 11.2934 1.0075 8.5867C 1.48192 4.62006 4.70813 1.4467 8.74085 0.980055C 8.97809 0.980055 9.21527 0.933406 9.49994 0.933406C 9.7846 0.933406 10.0218 0.980055 10.259 0.980055C 14.2917 1.4467 17.5654 4.62006 17.9924 8.5867C 18.2772 11.2934 17.3283 13.9066 15.3356 15.7734ZM 11.3977 11.6666L 11.3977 10.7333C 11.3977 10.2199 11.8247 9.79995 12.3466 9.79995C 12.8685 9.79995 13.2955 10.2199 13.2955 10.7333C 13.2955 11.2466 12.8685 11.6666 12.3466 11.6666L 11.3977 11.6666Z"/>
</defs>
</svg>
