<svg width="25" height="24" viewBox="0 0 25 24" version="1.1" xmlns="http://www.w3.org/2000/svg" xmlns:xlink="http://www.w3.org/1999/xlink">
<title>navigation</title>
<desc>Created using Figma</desc>
<g id="Canvas" transform="translate(-1271 -1297)">
<g id="navigation">
<g id="Vector">
<use xlink:href="#path0_fill" transform="translate(1271 1297)" fill="#197AE3"/>
</g>
</g>
</g>
<defs>
<path id="path0_fill" d="M 24.8631 0.144894C 24.7203 -0.000299677 24.5 -0.0407635 24.3136 0.0434965L 0.282169 10.8878C 0.0889881 10.9754 -0.0238218 11.1758 0.00425965 11.3834C 0.0323411 11.5909 0.194535 11.7556 0.404178 11.7899L 11.1831 13.566L 12.4153 23.5811C 12.4414 23.7896 12.6036 23.9576 12.8142 23.9929C 12.8418 23.9976 12.8689 24 12.8961 24C 13.0776 24 13.2476 23.8996 13.3299 23.7353L 24.9498 0.687586C 25.0408 0.507165 25.0059 0.289612 24.8631 0.144894ZM 13.1817 21.8849L 12.1011 13.0986C 12.0749 12.8891 11.9117 12.7211 11.7002 12.6863L 2.11763 11.1068L 23.4745 1.46973L 13.1817 21.8849Z"/>
</defs>
</svg>
