<svg width="93" height="57" viewBox="0 0 93 57" version="1.1" xmlns="http://www.w3.org/2000/svg" xmlns:xlink="http://www.w3.org/1999/xlink">

<g id="Canvas" transform="translate(-1917 -1888)">

<g id="Vector">
<use xlink:href="#path0_stroke" transform="translate(1918.57 1889)" fill="#FFFFFF"/>
</g>
<g id="Vector">
<use xlink:href="#path1_stroke" transform="translate(1973.54 1900.58)" fill="#FFFFFF"/>
</g>
<g id="Vector">
<use xlink:href="#path2_stroke" transform="translate(1975.08 1904.93)" fill="#FFFFFF"/>
</g>
<g id="Vector">
<use xlink:href="#path3_stroke" transform="translate(1979.51 1922.3)" fill="#FFFFFF"/>
</g>
<g id="Vector">
<use xlink:href="#path4_stroke" transform="translate(1947.49 1916.52)" fill="#FFFFFF"/>
</g>
<g id="Vector">
<use xlink:href="#path5_stroke" transform="translate(1927.27 1916.52)" fill="#FFFFFF"/>
</g>
<g id="Vector">
<use xlink:href="#path6_stroke" transform="translate(1979.51 1909.29)" fill="#FFFFFF"/>
</g>
<g id="Vector">
<use xlink:href="#path7_stroke" transform="translate(1918 1943.99)" fill="#FFFFFF"/>
</g>
<g id="Vector">
<use xlink:href="#path8_stroke" transform="translate(1931.66 1922.39)" fill="#FFFFFF"/>
</g>
<g id="Vector">
<use xlink:href="#path9_stroke" transform="translate(1980.81 1894.84)" fill="#FFFFFF"/>
</g>
<g id="Vector">
<use xlink:href="#path10_stroke" transform="translate(1939.8 1899.35)" fill="#FFFFFF"/>
</g>
<g id="Vector">
<use xlink:href="#path11_stroke" transform="translate(1985.12 1913.63)" fill="#FFFFFF"/>
</g>
<g id="Vector">
<use xlink:href="#path8_stroke" transform="translate(1951.92 1922.39)" fill="#FFFFFF"/>
</g>
<g id="Vector">
<use xlink:href="#path12_stroke" transform="translate(1941.7 1900.59)" fill="#FFFFFF"/>
</g>
<g id="Vector">
<use xlink:href="#path13_stroke" transform="translate(1991.09 1922.29)" fill="#FFFFFF"/>
</g>
<g id="Vector">
<use xlink:href="#path14_stroke" transform="translate(1919.92 1918.14)" fill="#FFFFFF"/>
</g>
<g id="Vector">
<use xlink:href="#path15_stroke" transform="translate(1956.66 1918.24)" fill="#FFFFFF"/>
</g>
</g>

<defs>
<path id="path0_stroke" d="M 0.904573 0.75L 68.6806 0.75L 68.6806 -0.75L 0.904573 -0.75L 0.904573 0.75ZM 68.6806 0.75C 68.7666 0.75 68.8351 0.819492 68.8351 0.903714L 70.3351 0.903714C 70.3351 -0.010279 69.5937 -0.75 68.6806 -0.75L 68.6806 0.75ZM 68.8351 0.903714L 68.8351 4.9397L 70.3351 4.9397L 70.3351 0.903714L 68.8351 0.903714ZM 68.8351 4.9397C 68.8351 5.02392 68.7666 5.09341 68.6806 5.09341L 68.6806 6.59341C 69.5937 6.59341 70.3351 5.85369 70.3351 4.9397L 68.8351 4.9397ZM 68.6806 5.09341L 0.904573 5.09341L 0.904573 6.59341L 68.6806 6.59341L 68.6806 5.09341ZM 0.904573 5.09341C 0.818532 5.09341 0.75 5.02392 0.75 4.9397L -0.75 4.9397C -0.75 5.85369 -0.00855063 6.59341 0.904573 6.59341L 0.904573 5.09341ZM 0.75 4.9397L 0.75 0.903714L -0.75 0.903714L -0.75 4.9397L 0.75 4.9397ZM 0.75 0.903714C 0.75 0.819492 0.818532 0.75 0.904573 0.75L 0.904573 -0.75C -0.00855063 -0.75 -0.75 -0.0102789 -0.75 0.903714L 0.75 0.903714Z"/>
<path id="path1_stroke" d="M 0.904573 0.75L 34.0427 0.75L 34.0427 -0.75L 0.904573 -0.75L 0.904573 0.75ZM 34.0427 0.75C 34.1287 0.75 34.1973 0.819492 34.1973 0.903714L 35.6973 0.903714C 35.6973 -0.0102786 34.9558 -0.75 34.0427 -0.75L 34.0427 0.75ZM 34.1973 0.903714L 34.1973 3.44134L 35.6973 3.44134L 35.6973 0.903714L 34.1973 0.903714ZM 34.1973 3.44134C 34.1973 3.52556 34.1287 3.59505 34.0427 3.59505L 34.0427 5.09506C 34.9558 5.09506 35.6973 4.35533 35.6973 3.44134L 34.1973 3.44134ZM 34.0427 3.59505L 0.904573 3.59505L 0.904573 5.09506L 34.0427 5.09506L 34.0427 3.59505ZM 0.904573 3.59505C 0.818532 3.59505 0.75 3.52556 0.75 3.44134L -0.75 3.44134C -0.75 4.35533 -0.00855057 5.09506 0.904573 5.09506L 0.904573 3.59505ZM 0.75 3.44134L 0.75 0.903714L -0.75 0.903714L -0.75 3.44134L 0.75 3.44134ZM 0.75 0.903714C 0.75 0.819492 0.818532 0.75 0.904573 0.75L 0.904573 -0.75C -0.00855058 -0.75 -0.75 -0.0102786 -0.75 0.903714L 0.75 0.903714Z"/>
<path id="path2_stroke" d="M 0 -4.96425e-07L 0 -0.75L -0.75 -0.75L -0.75 -4.96425e-07L 0 -4.96425e-07ZM 31.9007 -4.96425e-07L 32.6507 -4.96425e-07L 32.6507 -0.75L 31.9007 -0.75L 31.9007 -4.96425e-07ZM 31.9007 39.0639L 31.9007 39.8139L 32.6507 39.8139L 32.6507 39.0639L 31.9007 39.0639ZM 0 39.0639L -0.75 39.0639L -0.75 39.8139L 0 39.8139L 0 39.0639ZM 0 0.75L 31.9007 0.75L 31.9007 -0.75L 0 -0.75L 0 0.75ZM 31.1507 -4.96425e-07L 31.1507 39.0639L 32.6507 39.0639L 32.6507 -4.96425e-07L 31.1507 -4.96425e-07ZM 31.9007 38.3139L 0 38.3139L 0 39.8139L 31.9007 39.8139L 31.9007 38.3139ZM 0.75 39.0639L 0.75 -4.96425e-07L -0.75 -4.96425e-07L -0.75 39.0639L 0.75 39.0639Z"/>
<path id="path3_stroke" d="M 23.1571 21.6982L 23.1571 22.4482L 23.9071 22.4482L 23.9071 21.6982L 23.1571 21.6982ZM 0 21.6982L -0.75 21.6982L -0.75 22.4482L 0 22.4482L 0 21.6982ZM 0.904573 0.75L 22.2525 0.75L 22.2525 -0.75L 0.904573 -0.75L 0.904573 0.75ZM 22.2525 0.75C 22.2937 0.75 22.3331 0.766367 22.362 0.795273L 23.4222 -0.265891C 23.1118 -0.575943 22.6911 -0.75 22.2525 -0.75L 22.2525 0.75ZM 22.362 0.795273C 22.3909 0.824157 22.4071 0.86318 22.4071 0.903713L 23.9071 0.903713C 23.9071 0.464887 23.7326 0.0441826 23.4222 -0.265891L 22.362 0.795273ZM 22.4071 0.903713L 22.4071 21.6982L 23.9071 21.6982L 23.9071 0.903713L 22.4071 0.903713ZM 23.1571 20.9482L 0 20.9482L 0 22.4482L 23.1571 22.4482L 23.1571 20.9482ZM 0.75 21.6982L 0.75 0.903713L -0.75 0.903713L -0.75 21.6982L 0.75 21.6982ZM 0.75 0.903713C 0.75 0.86318 0.766111 0.824157 0.795023 0.795273L -0.265133 -0.265891C -0.575501 0.0441826 -0.75 0.464887 -0.75 0.903713L 0.75 0.903713ZM 0.795023 0.795273C 0.823957 0.766367 0.863348 0.75 0.904573 0.75L 0.904573 -0.75C 0.465982 -0.75 0.0452142 -0.575943 -0.265133 -0.265891L 0.795023 0.795273Z"/>
<path id="path4_stroke" d="M 8.77435 0.903713L 8.02435 0.903713L 8.77435 0.903713ZM 8.77435 27.4819L 8.77435 28.2319L 9.52435 28.2319L 9.52435 27.4819L 8.77435 27.4819ZM 0 27.4819L -0.75 27.4819L -0.75 28.2319L 0 28.2319L 0 27.4819ZM 0.904573 0.75L 7.86978 0.75L 7.86978 -0.75L 0.904573 -0.75L 0.904573 0.75ZM 7.86978 0.75C 7.91101 0.75 7.9504 0.766369 7.97933 0.795273L 9.03949 -0.265891C 8.72914 -0.575945 8.30837 -0.75 7.86978 -0.75L 7.86978 0.75ZM 7.97933 0.795273C 8.00824 0.824153 8.02435 0.863174 8.02435 0.903713L 9.52435 0.903713C 9.52435 0.464893 9.34986 0.0441869 9.03949 -0.265891L 7.97933 0.795273ZM 8.02435 0.903713L 8.02435 27.4819L 9.52435 27.4819L 9.52435 0.903713L 8.02435 0.903713ZM 8.77435 26.7319L 0 26.7319L 0 28.2319L 8.77435 28.2319L 8.77435 26.7319ZM 0.75 27.4819L 0.75 0.903713L -0.75 0.903713L -0.75 27.4819L 0.75 27.4819ZM 0.75 0.903713C 0.75 0.863174 0.766113 0.824153 0.795021 0.795273L -0.265136 -0.265891C -0.575508 0.0441869 -0.75 0.464893 -0.75 0.903713L 0.75 0.903713ZM 0.795021 0.795273C 0.823952 0.766369 0.863345 0.75 0.904573 0.75L 0.904573 -0.75C 0.465985 -0.75 0.0452131 -0.575945 -0.265136 -0.265891L 0.795021 0.795273Z"/>
<path id="path5_stroke" d="M 8.77435 27.4819L 8.77435 28.2319L 9.52435 28.2319L 9.52435 27.4819L 8.77435 27.4819ZM 0 27.4819L -0.75 27.4819L -0.75 28.2319L 0 28.2319L 0 27.4819ZM 0.904573 0.75L 7.86978 0.75L 7.86978 -0.75L 0.904573 -0.75L 0.904573 0.75ZM 7.86978 0.75C 7.91101 0.75 7.9504 0.766369 7.97933 0.795273L 9.03949 -0.265891C 8.72914 -0.575945 8.30837 -0.75 7.86978 -0.75L 7.86978 0.75ZM 7.97933 0.795273C 8.00824 0.824153 8.02435 0.863174 8.02435 0.903713L 9.52435 0.903713C 9.52435 0.464893 9.34986 0.0441869 9.03949 -0.265891L 7.97933 0.795273ZM 8.02435 0.903713L 8.02435 27.4819L 9.52435 27.4819L 9.52435 0.903713L 8.02435 0.903713ZM 8.77435 26.7319L 0 26.7319L 0 28.2319L 8.77435 28.2319L 8.77435 26.7319ZM 0.75 27.4819L 0.75 0.903713L -0.75 0.903713L -0.75 27.4819L 0.75 27.4819ZM 0.75 0.903713C 0.75 0.863176 0.766112 0.824154 0.795021 0.795273L -0.265135 -0.265891C -0.575507 0.0441858 -0.75 0.464892 -0.75 0.903713L 0.75 0.903713ZM 0.795021 0.795273C 0.823954 0.766368 0.863346 0.75 0.904573 0.75L 0.904573 -0.75C 0.465984 -0.75 0.0452134 -0.575945 -0.265135 -0.265891L 0.795021 0.795273Z"/>
<path id="path6_stroke" d="M 0.904573 0.75L 22.2525 0.75L 22.2525 -0.75L 0.904573 -0.75L 0.904573 0.75ZM 22.2525 0.75C 22.3385 0.75 22.4071 0.819492 22.4071 0.903714L 23.9071 0.903714C 23.9071 -0.010279 23.1656 -0.75 22.2525 -0.75L 22.2525 0.75ZM 22.4071 0.903714L 22.4071 7.77194L 23.9071 7.77194L 23.9071 0.903714L 22.4071 0.903714ZM 22.4071 7.77194C 22.4071 7.85616 22.3385 7.92565 22.2525 7.92565L 22.2525 9.42565C 23.1656 9.42565 23.9071 8.68593 23.9071 7.77194L 22.4071 7.77194ZM 22.2525 7.92565L 0.904573 7.92565L 0.904573 9.42565L 22.2525 9.42565L 22.2525 7.92565ZM 0.904573 7.92565C 0.818532 7.92565 0.75 7.85616 0.75 7.77194L -0.75 7.77194C -0.75 8.68593 -0.00855059 9.42565 0.904573 9.42565L 0.904573 7.92565ZM 0.75 7.77194L 0.75 0.903714L -0.75 0.903714L -0.75 7.77194L 0.75 7.77194ZM 0.75 0.903714C 0.75 0.819492 0.818532 0.75 0.904573 0.75L 0.904573 -0.75C -0.00855059 -0.75 -0.75 -0.010279 -0.75 0.903714L 0.75 0.903714Z"/>
<path id="path7_stroke" d="M 0 -0.75C -0.414214 -0.75 -0.75 -0.414214 -0.75 0C -0.75 0.414214 -0.414214 0.75 0 0.75L 0 -0.75ZM 91 0.75C 91.4142 0.75 91.75 0.414214 91.75 0C 91.75 -0.414214 91.4142 -0.75 91 -0.75L 91 0.75ZM 0 0.75L 91 0.75L 91 -0.75L 0 -0.75L 0 0.75Z"/>
<path id="path8_stroke" d="M 0.75 -7.72216e-07C 0.75 -0.414214 0.414214 -0.750001 0 -0.750001C -0.414214 -0.750001 -0.75 -0.414214 -0.75 -7.72216e-07L 0.75 -7.72216e-07ZM -0.75 4.1607C -0.75 4.57491 -0.414214 4.9107 0 4.9107C 0.414214 4.9107 0.75 4.57491 0.75 4.1607L -0.75 4.1607ZM -0.75 -7.72216e-07L -0.75 4.1607L 0.75 4.1607L 0.75 -7.72216e-07L -0.75 -7.72216e-07Z"/>
<path id="path9_stroke" d="M -0.749987 3.3095e-07L -0.749987 5.73858L 0.750013 5.73858L 0.750013 3.3095e-07L -0.749987 3.3095e-07Z"/>
<path id="path10_stroke" d="M 3.79987 0.75C 4.21408 0.75 4.54987 0.414214 4.54987 0C 4.54987 -0.414214 4.21408 -0.75 3.79987 -0.75L 3.79987 0.75ZM 0 -0.75C -0.414214 -0.75 -0.75 -0.414214 -0.75 0C -0.75 0.414214 -0.414214 0.75 0 0.75L 0 -0.75ZM 3.79987 -0.75L 0 -0.75L 0 0.75L 3.79987 0.75L 3.79987 -0.75Z"/>
<path id="path11_stroke" d="M 11.9331 0.75C 12.3473 0.75 12.6831 0.414214 12.6831 0C 12.6831 -0.414214 12.3473 -0.75 11.9331 -0.75L 11.9331 0.75ZM -1.98759e-06 -0.75C -0.414216 -0.75 -0.750002 -0.414214 -0.750002 0C -0.750002 0.414214 -0.414216 0.75 -1.98759e-06 0.75L -1.98759e-06 -0.75ZM 11.9331 -0.75L -1.98759e-06 -0.75L -1.98759e-06 0.75L 11.9331 0.75L 11.9331 -0.75Z"/>
<path id="path12_stroke" d="M -0.75 4.96425e-07L -0.75 43.4017L 0.75 43.4017L 0.75 4.96425e-07L -0.75 4.96425e-07Z"/>
<path id="path13_stroke" d="M -0.75 -1.3238e-06L -0.75 21.7018L 0.75 21.7018L 0.75 -1.3238e-06L -0.75 -1.3238e-06Z"/>
<path id="path14_stroke" d="M 3.53349 0C 3.53349 -0.414214 3.1977 -0.75 2.78349 -0.75C 2.36927 -0.75 2.03349 -0.414214 2.03349 0L 3.53349 0ZM 2.78349 5.72412L 2.03349 5.72412L 2.03349 6.23105L 2.50387 6.42005L 2.78349 5.72412ZM 6.94452 9.83602L 7.68144 9.97548L 7.69452 9.90636L 7.69452 9.83602L 6.94452 9.83602ZM 2.78349 13.328L 2.61838 12.5964L 2.61784 12.5965L 2.78349 13.328ZM 1.72514 13.7545L 1.33723 13.1126L 1.33515 13.1139L 1.72514 13.7545ZM 0.377324 15.2005L -0.289139 14.8565L -0.294076 14.866L -0.298737 14.8757L 0.377324 15.2005ZM 1.42663 19.8383L 0.956004 20.4223L 0.962858 20.4278L 0.969841 20.4332L 1.42663 19.8383ZM 7.60835 19.449C 7.90244 19.1574 7.9044 18.6825 7.61272 18.3884C 7.32104 18.0943 6.84617 18.0923 6.55207 18.384L 7.60835 19.449ZM 2.03349 0L 2.03349 5.72412L 3.53349 5.72412L 3.53349 0L 2.03349 0ZM 2.78349 5.72412C 2.50387 6.42005 2.50371 6.41999 2.50357 6.41993C 2.50355 6.41992 2.50342 6.41987 2.50337 6.41985C 2.50336 6.41985 2.50323 6.41979 2.50325 6.4198C 2.50352 6.41991 2.50357 6.41993 2.5041 6.42015C 2.50563 6.42077 2.50719 6.4214 2.51017 6.42263C 2.51707 6.42546 2.52577 6.42907 2.53901 6.43465C 2.5674 6.44661 2.60562 6.46297 2.65812 6.48628C 2.76713 6.53463 2.91415 6.60223 3.09849 6.69443C 3.47579 6.88274 3.949 7.14121 4.43598 7.48093C 4.92817 7.82203 5.36423 8.18474 5.7031 8.62557C 6.0294 9.04369 6.19452 9.44722 6.19452 9.83602L 7.69452 9.83602C 7.69452 9.0048 7.33952 8.28434 6.88562 7.70273C 6.44429 7.14383 5.8401 6.63107 5.29203 6.24919C 4.73875 5.86595 4.1717 5.55394 3.7688 5.35253C 3.56306 5.24986 3.38499 5.16779 3.26645 5.11517C 3.20516 5.088 3.15398 5.06606 3.12143 5.05234C 3.10419 5.04508 3.08953 5.039 3.08068 5.03536C 3.07579 5.03335 3.07137 5.03155 3.0689 5.03054C 3.06744 5.02995 3.06598 5.02936 3.06524 5.02906C 3.06476 5.02886 3.06423 5.02865 3.06398 5.02855C 3.06381 5.02848 3.06359 5.02839 3.0635 5.02835C 3.06329 5.02827 3.06311 5.0282 2.78349 5.72412ZM 6.2076 9.69656C 6.11715 10.1745 5.62435 10.8215 4.83017 11.4394C 4.0616 12.0374 3.19232 12.4668 2.61838 12.5964L 2.94859 14.0596C 3.80026 13.8674 4.86767 13.3108 5.7513 12.6233C 6.60932 11.9557 7.48424 11.0175 7.68144 9.97548L 6.2076 9.69656ZM 2.61784 12.5965C 2.18636 12.6967 1.71753 12.8856 1.33723 13.1126L 2.11304 14.3964C 2.38795 14.2275 2.63381 14.1284 2.94913 14.0594L 2.61784 12.5965ZM 1.33515 13.1139C 0.677768 13.5223 0.0719074 14.1723 -0.289139 14.8565L 1.04379 15.5445C 1.29847 15.0357 1.62523 14.6852 2.11513 14.3952L 1.33515 13.1139ZM -0.298737 14.8757C -0.717152 15.7711 -0.844991 16.9011 -0.637176 17.8673L 0.825847 17.5363C 0.652747 16.8188 0.724343 16.186 1.05338 15.5252L -0.298737 14.8757ZM -0.637176 17.8673C -0.408879 18.8287 0.192892 19.7938 0.956004 20.4223L 1.89725 19.2544C 1.31563 18.7991 0.978464 18.2584 0.825847 17.5363L -0.637176 17.8673ZM 0.969841 20.4332C 3.28822 22.2135 6.01264 21.0316 7.60835 19.449L 6.55207 18.384C 5.16269 19.762 3.30273 20.3334 1.88342 19.2435L 0.969841 20.4332Z"/>
<path id="path15_stroke" d="M 5.03768 0C 5.03768 -0.414214 4.70189 -0.75 4.28768 -0.75C 3.87346 -0.75 3.53768 -0.414214 3.53768 0L 5.03768 0ZM 4.28768 5.72412L 4.56729 6.42005L 5.03768 6.23105L 5.03768 5.72412L 4.28768 5.72412ZM 0.126643 9.83602L -0.623357 9.83602L -0.623357 9.90636L -0.610278 9.97548L 0.126643 9.83602ZM 4.28768 13.328L 4.45332 12.5965L 4.45278 12.5964L 4.28768 13.328ZM 5.34602 13.7545L 5.73601 13.1139L 5.73392 13.1126L 5.34602 13.7545ZM 6.69384 15.2005L 7.36977 14.8755L 7.36517 14.8659L 7.3603 14.8565L 6.69384 15.2005ZM 5.65358 19.8329L 6.11037 20.4277L 6.11819 20.4217L 6.12585 20.4155L 5.65358 19.8329ZM 0.528139 18.3786C 0.23404 18.0869 -0.24083 18.0889 -0.532513 18.383C -0.824195 18.6771 -0.822236 19.1519 -0.528138 19.4436L 0.528139 18.3786ZM 3.53768 0L 3.53768 5.72412L 5.03768 5.72412L 5.03768 0L 3.53768 0ZM 4.28768 5.72412C 4.00806 5.0282 4.00787 5.02827 4.00767 5.02835C 4.00758 5.02839 4.00736 5.02848 4.00718 5.02855C 4.00694 5.02865 4.0064 5.02886 4.00592 5.02906C 4.00518 5.02936 4.00373 5.02995 4.00226 5.03054C 3.99979 5.03155 3.99538 5.03335 3.99048 5.03536C 3.98164 5.039 3.96698 5.04508 3.94974 5.05234C 3.91718 5.06606 3.866 5.088 3.80472 5.11517C 3.68618 5.16779 3.50811 5.24986 3.30236 5.35253C 2.89946 5.55394 2.33241 5.86595 1.77914 6.24919C 1.23107 6.63106 0.626873 7.14383 0.185543 7.70273C -0.268352 8.28434 -0.623357 9.0048 -0.623357 9.83602L 0.876643 9.83602C 0.876643 9.44722 1.04177 9.04369 1.36807 8.62557C 1.70693 8.18474 2.14299 7.82203 2.63518 7.48093C 3.12217 7.14121 3.59537 6.88274 3.97267 6.69443C 4.15702 6.60223 4.30403 6.53463 4.41305 6.48628C 4.46554 6.46297 4.50376 6.44661 4.53216 6.43465C 4.54539 6.42907 4.5541 6.42546 4.561 6.42263C 4.56398 6.4214 4.56553 6.42077 4.56706 6.42015C 4.56759 6.41993 4.56765 6.41991 4.56792 6.4198C 4.56794 6.41979 4.5678 6.41985 4.56779 6.41985C 4.56774 6.41987 4.56762 6.41992 4.56759 6.41993C 4.56745 6.41999 4.56729 6.42005 4.28768 5.72412ZM -0.610278 9.97548C -0.413078 11.0175 0.461843 11.9557 1.31986 12.6233C 2.20349 13.3108 3.27091 13.8674 4.12257 14.0596L 4.45278 12.5964C 3.87884 12.4668 3.00956 12.0374 2.24099 11.4394C 1.44681 10.8215 0.954018 10.1745 0.863564 9.69656L -0.610278 9.97548ZM 4.12203 14.0594C 4.43735 14.1284 4.68321 14.2275 4.95812 14.3964L 5.73392 13.1126C 5.35363 12.8856 4.8848 12.6967 4.45332 12.5965L 4.12203 14.0594ZM 4.95603 14.3952C 5.44593 14.6852 5.7727 15.0357 6.02738 15.5444L 7.3603 14.8565C 6.99925 14.1723 6.39339 13.5223 5.73601 13.1139L 4.95603 14.3952ZM 6.0179 15.5254C 6.34658 16.1849 6.41866 16.8164 6.24705 17.5328L 7.71061 17.8615C 7.91651 16.8968 7.78779 15.7691 7.36977 14.8755L 6.0179 15.5254ZM 6.24705 17.5328C 6.09586 18.2539 5.76057 18.7942 5.18131 19.2503L 6.12585 20.4155C 6.8858 19.7861 7.48429 18.8215 7.71061 17.8615L 6.24705 17.5328ZM 5.19679 19.238C 3.77747 20.3279 1.91752 19.7566 0.528139 18.3786L -0.528138 19.4436C 1.06757 21.0262 3.79199 22.208 6.11037 20.4277L 5.19679 19.238Z"/>
</defs>
</svg>
