<svg width="102" height="57" viewBox="0 0 102 57" version="1.1" xmlns="http://www.w3.org/2000/svg" xmlns:xlink="http://www.w3.org/1999/xlink">

<g id="Canvas" transform="translate(-1653 -1708)">

<g id="Vector">
<use xlink:href="#path0_stroke" transform="translate(1654 1712.79)" fill="#1C98F4"/>
</g>
<g id="Vector">
<use xlink:href="#path1_stroke" transform="translate(1728.93 1717.84)" fill="#1C98F4"/>
</g>
<g id="Vector">
<use xlink:href="#path2_stroke" transform="translate(1677.33 1709)" fill="#1C98F4"/>
</g>
<g id="Vector">
<use xlink:href="#path3_stroke" transform="translate(1658.63 1740.24)" fill="#1C98F4"/>
</g>
<g id="Vector">
<use xlink:href="#path4_stroke" transform="translate(1664.41 1743.11)" fill="#1C98F4"/>
</g>
<g id="Vector">
<use xlink:href="#path5_stroke" transform="translate(1710.88 1743.11)" fill="#1C98F4"/>
</g>
<g id="Vector">
<use xlink:href="#path6_stroke" transform="translate(1716.54 1739.09)" fill="#1C98F4"/>
</g>
<g id="Vector">
<use xlink:href="#path7_stroke" transform="translate(1670.65 1750.84)" fill="#1C98F4"/>
</g>
<g id="Vector">
<use xlink:href="#path8_stroke" transform="translate(1665.06 1745.3)" fill="#1C98F4"/>
</g>
<g id="Vector">
<use xlink:href="#path9_stroke" transform="translate(1726.28 1745.3)" fill="#1C98F4"/>
</g>
<g id="Vector">
<use xlink:href="#path10_stroke" transform="translate(1723.82 1712.79)" fill="#1C98F4"/>
</g>
<g id="Vector">
<use xlink:href="#path11_stroke" transform="translate(1655.21 1748.2)" fill="#1C98F4"/>
</g>
<g id="Vector">
<use xlink:href="#path12_stroke" transform="translate(1731.88 1750.84)" fill="#1C98F4"/>
</g>
<g id="Vector">
<use xlink:href="#path13_stroke" transform="translate(1742.56 1748.2)" fill="#1C98F4"/>
</g>
<g id="Vector">
<use xlink:href="#path14_stroke" transform="translate(1681.33 1748.2)" fill="#1C98F4"/>
</g>
<g id="Vector">
<use xlink:href="#path15_stroke" transform="translate(1667.63 1713.12)" fill="#1C98F4"/>
</g>
<g id="Vector">
<use xlink:href="#path15_stroke" transform="translate(1707.67 1713.12)" fill="#1C98F4"/>
</g>
<g id="Vector">
<use xlink:href="#path16_fill" transform="translate(1728.48 1734.44)" fill="#1C98F4"/>
</g>
</g>

<defs>
<path id="path0_stroke" d="M 14.1509 0.75L 52.0463 0.75L 52.0463 -0.75L 14.1509 -0.75L 14.1509 0.75ZM 52.0463 0.75C 59.4541 0.75 65.4472 6.69657 65.4472 14.0171L 66.9472 14.0171C 66.9472 5.85474 60.2691 -0.75 52.0463 -0.75L 52.0463 0.75ZM 65.4472 14.0171L 65.4472 16.8751L 66.9472 16.8751L 66.9472 14.0171L 65.4472 14.0171ZM 65.4472 16.8751C 65.4472 24.1956 59.4541 30.1422 52.0463 30.1422L 52.0463 31.6422C 60.2691 31.6422 66.9472 25.0374 66.9472 16.8751L 65.4472 16.8751ZM 52.0463 30.1422L 14.1509 30.1422L 14.1509 31.6422L 52.0463 31.6422L 52.0463 30.1422ZM 14.1509 30.1422C 6.74305 30.1422 0.75 24.1956 0.75 16.8751L -0.75 16.8751C -0.75 25.0374 5.9281 31.6422 14.1509 31.6422L 14.1509 30.1422ZM 0.75 16.8751L 0.75 14.0171L -0.75 14.0171L -0.75 16.8751L 0.75 16.8751ZM 0.75 14.0171C 0.75 6.69657 6.74305 0.75 14.1509 0.75L 14.1509 -0.75C 5.9281 -0.75 -0.75 5.85474 -0.75 14.0171L 0.75 14.0171Z"/>
<path id="path1_stroke" d="M 7.36843e-07 11.6533L -0.749999 11.6533L 7.36843e-07 11.6533ZM 1.00604 12.6498L 1.00604 13.3998L 1.00604 12.6498ZM 19.2535 12.6498L 19.2535 13.3998L 19.2535 12.6498ZM 19.7445 11.753L 20.3715 11.3416L 20.3711 11.3409L 19.7445 11.753ZM 12.3139 0.452424L 12.9405 0.0403662L 12.9404 0.0401933L 12.3139 0.452424ZM 11.4688 -0.749997L 1.00604 -0.749997L 1.00604 0.750003L 11.4688 0.750003L 11.4688 -0.749997ZM 1.00604 -0.749997C 0.542595 -0.749997 0.0967164 -0.567704 -0.23314 -0.240968L 0.822469 0.82472C 0.869949 0.777689 0.935845 0.750003 1.00604 0.750003L 1.00604 -0.749997ZM -0.23314 -0.240968C -0.563235 0.0860053 -0.749999 0.531001 -0.749999 0.996524L 0.750001 0.996524C 0.750001 0.933458 0.775227 0.871515 0.822469 0.82472L -0.23314 -0.240968ZM -0.749999 0.996524L -0.749999 11.6533L 0.750001 11.6533L 0.750001 0.996524L -0.749999 0.996524ZM -0.749999 11.6533C -0.749999 12.1188 -0.563235 12.5638 -0.23314 12.8908L 0.822469 11.8251C 0.775227 11.7783 0.750001 11.7164 0.750001 11.6533L -0.749999 11.6533ZM -0.23314 12.8908C 0.0967164 13.2176 0.542595 13.3998 1.00604 13.3998L 1.00604 11.8998C 0.935845 11.8998 0.869949 11.8722 0.822469 11.8251L -0.23314 12.8908ZM 1.00604 13.3998L 19.2535 13.3998L 19.2535 11.8998L 1.00604 11.8998L 1.00604 13.3998ZM 19.2535 13.3998C 19.6054 13.3998 19.9443 13.2614 20.1953 13.0128L 19.1397 11.9471C 19.1711 11.916 19.2122 11.8998 19.2535 11.8998L 19.2535 13.3998ZM 20.1953 13.0128C 20.4466 12.764 20.589 12.4249 20.589 12.0699L 19.089 12.0699C 19.089 12.0224 19.1081 11.9784 19.1397 11.9471L 20.1953 13.0128ZM 20.589 12.071C 20.5814 11.8495 20.4864 11.531 20.3715 11.3416L 19.1174 12.1644C 19.0991 12.1366 19.089 12.1033 19.089 12.0688L 20.589 12.071ZM 20.3711 11.3409L 12.9405 0.0403662L 11.6872 0.864482L 19.1178 12.165L 20.3711 11.3409ZM 12.9404 0.0401933C 12.7927 -0.173704 12.5301 -0.413451 12.3034 -0.541355L 11.5954 0.781057C 11.6639 0.811187 11.6518 0.800095 11.6873 0.864655L 12.9404 0.0401933ZM 12.3034 -0.541355C 12.0716 -0.658963 11.7272 -0.744873 11.4672 -0.749996L 11.4705 0.750001C 11.546 0.744142 11.532 0.740631 11.5954 0.781057L 12.3034 -0.541355Z"/>
<path id="path2_stroke" d="M 19.5453 3.78678L 19.5453 4.53678L 20.3341 4.53678L 20.2943 3.74892L 19.5453 3.78678ZM 15.5312 0L 15.5321 -0.75L 15.5312 -0.75L 15.5312 0ZM 4.01409 0L 4.01409 -0.750001L 4.01316 -0.749999L 4.01409 0ZM -1.47369e-06 3.78678L -0.749045 3.74892L -0.788864 4.53678L -1.47369e-06 4.53678L -1.47369e-06 3.78678ZM 20.2943 3.74892C 20.2329 2.5342 19.703 1.3907 18.8161 0.554055L 17.7868 1.64516C 18.3939 2.21791 18.7545 2.9983 18.7962 3.82464L 20.2943 3.74892ZM 18.8161 0.554055C 17.9573 -0.237702 16.7041 -0.73529 15.5321 -0.749999L 15.5303 0.749999C 16.4214 0.737843 17.1516 1.02752 17.7868 1.64516L 18.8161 0.554055ZM 15.5312 -0.75L 4.01409 -0.75L 4.01409 0.75L 15.5312 0.75L 15.5312 -0.75ZM 4.01316 -0.749999C 2.84121 -0.73529 1.58797 -0.237702 0.72918 0.554055L 1.7585 1.64516C 2.3937 1.02752 3.12383 0.737843 4.01501 0.749999L 4.01316 -0.749999ZM 0.72918 0.554055C -0.157686 1.3907 -0.687653 2.5342 -0.749045 3.74892L 0.749043 3.82464C 0.790806 2.9983 1.15137 2.21791 1.7585 1.64516L 0.72918 0.554055ZM -1.47369e-06 4.53678L 19.5453 4.53678L 19.5453 3.03678L -1.47369e-06 3.03678L -1.47369e-06 4.53678Z"/>
<path id="path3_stroke" d="M -0.75 0L -0.75 7.95623L 0.75 7.95623L 0.75 0L -0.75 0Z"/>
<path id="path4_stroke" d="M 0.75 4.95869L 0.75 7.29874e-07L -0.75 7.29874e-07L -0.75 4.95869L 0.75 4.95869Z"/>
<path id="path5_stroke" d="M -0.749987 7.29874e-07L -0.749987 4.95869L 0.750013 4.95869L 0.750013 7.29874e-07L -0.749987 7.29874e-07Z"/>
<path id="path6_stroke" d="M -0.750013 0L -0.750013 8.61194L 0.749987 8.61194L 0.749987 0L -0.750013 0Z"/>
<path id="path7_stroke" d="M 6.94014 3.8087C 6.94014 5.49128 5.56117 6.86741 3.84507 6.86741L 3.84507 8.36741C 6.37612 8.36741 8.44014 6.33311 8.44014 3.8087L 6.94014 3.8087ZM 3.84507 6.86741C 2.12898 6.86741 0.75 5.49128 0.75 3.8087L -0.75 3.8087C -0.75 6.33311 1.31402 8.36741 3.84507 8.36741L 3.84507 6.86741ZM 0.75 3.8087C 0.75 2.12613 2.12898 0.749999 3.84507 0.749999L 3.84507 -0.750001C 1.31402 -0.750001 -0.75 1.2843 -0.75 3.8087L 0.75 3.8087ZM 3.84507 0.749999C 5.56117 0.749999 6.94014 2.12613 6.94014 3.8087L 8.44014 3.8087C 8.44014 1.2843 6.37612 -0.750001 3.84507 -0.750001L 3.84507 0.749999Z"/>
<path id="path8_stroke" d="M 18.1313 9.35135C 18.1313 14.095 14.2471 17.9527 9.44064 17.9527L 9.44064 19.4527C 15.062 19.4527 19.6313 14.9369 19.6313 9.35135L 18.1313 9.35135ZM 9.44064 17.9527C 4.6342 17.9527 0.75 14.095 0.75 9.35135L -0.75 9.35135C -0.75 14.9369 3.81924 19.4527 9.44064 19.4527L 9.44064 17.9527ZM 0.75 9.35135C 0.75 4.60766 4.6342 0.749999 9.44064 0.749999L 9.44064 -0.750001C 3.81924 -0.750001 -0.75 3.76583 -0.75 9.35135L 0.75 9.35135ZM 9.44064 0.749999C 14.2471 0.749999 18.1313 4.60766 18.1313 9.35135L 19.6313 9.35135C 19.6313 3.76583 15.062 -0.750001 9.44064 -0.750001L 9.44064 0.749999Z"/>
<path id="path9_stroke" d="M 18.1313 9.35135C 18.1313 14.095 14.2471 17.9527 9.44065 17.9527L 9.44065 19.4527C 15.062 19.4527 19.6313 14.9369 19.6313 9.35135L 18.1313 9.35135ZM 9.44065 17.9527C 4.6342 17.9527 0.75 14.095 0.75 9.35135L -0.75 9.35135C -0.75 14.9369 3.81925 19.4527 9.44065 19.4527L 9.44065 17.9527ZM 0.75 9.35135C 0.75 4.60766 4.6342 0.749999 9.44065 0.749999L 9.44065 -0.750001C 3.81924 -0.750001 -0.75 3.76583 -0.75 9.35135L 0.75 9.35135ZM 9.44065 0.749999C 14.2471 0.749999 18.1313 4.60766 18.1313 9.35135L 19.6313 9.35135C 19.6313 3.76583 15.062 -0.750001 9.44065 -0.750001L 9.44065 0.749999Z"/>
<path id="path10_stroke" d="M 20.1751 0.45242L 20.8017 0.0403671L 20.8016 0.0401873L 20.1751 0.45242ZM 19.332 2.29967e-08L 19.332 0.75L 19.3322 0.75L 19.332 2.29967e-08ZM 1.00604 2.29967e-08L 1.00604 -0.75L 1.00604 2.29967e-08ZM 0 34.4139L -0.75 34.4139L 0 34.4139ZM 5.07646 35.4104L 5.07646 36.1604L 5.39575 36.1604L 5.61706 35.9302L 5.07646 35.4104ZM 18.7364 35.4104L 18.1958 35.9302L 18.4171 36.1604L 18.7364 36.1604L 18.7364 35.4104ZM 30.1811 35.4104L 30.1811 36.1604L 30.9311 36.1604L 30.9311 35.4104L 30.1811 35.4104ZM 30.1811 15.9663L 29.4311 15.966L 29.4311 15.9663L 30.1811 15.9663ZM 30.6448 15.0101L 20.8017 0.0403671L 19.5484 0.864473L 29.3914 15.8342L 30.6448 15.0101ZM 20.8016 0.0401873C 20.6542 -0.173301 20.3922 -0.412683 20.1661 -0.54053L 19.4568 0.781179C 19.5251 0.811336 19.5131 0.800249 19.5485 0.864653L 20.8016 0.0401873ZM 20.1661 -0.54053C 19.9349 -0.658137 19.5913 -0.744384 19.3318 -0.75L 19.3322 0.75C 19.4075 0.744313 19.3936 0.740781 19.4568 0.781179L 20.1661 -0.54053ZM 19.332 -0.75L 1.00604 -0.75L 1.00604 0.75L 19.332 0.75L 19.332 -0.75ZM 1.00604 -0.75C 0.542594 -0.75 0.0967157 -0.567707 -0.233141 -0.24097L 0.822468 0.824717C 0.869948 0.777686 0.935844 0.75 1.00604 0.75L 1.00604 -0.75ZM -0.233141 -0.24097C -0.563236 0.0860027 -0.75 0.530999 -0.75 0.996521L 0.75 0.996521C 0.75 0.933456 0.775226 0.871512 0.822468 0.824717L -0.233141 -0.24097ZM -0.75 0.996521L -0.75 34.4139L 0.75 34.4139L 0.75 0.996521L -0.75 0.996521ZM -0.75 34.4139C -0.75 34.8794 -0.563234 35.3244 -0.233141 35.6514L 0.822468 34.5857C 0.775224 34.5389 0.75 34.4769 0.75 34.4139L -0.75 34.4139ZM -0.233141 35.6514C 0.0967116 35.9781 0.542588 36.1604 1.00604 36.1604L 1.00604 34.6604C 0.93585 34.6604 0.869952 34.6327 0.822468 34.5857L -0.233141 35.6514ZM 1.00604 36.1604L 5.07646 36.1604L 5.07646 34.6604L 1.00604 34.6604L 1.00604 36.1604ZM 5.61706 35.9302C 6.44283 35.066 7.37803 34.4223 8.48415 33.9569L 7.89806 32.5762C 6.65609 33.1075 5.47204 33.9225 4.53586 34.8905L 5.61706 35.9302ZM 8.48415 33.9569C 9.5875 33.4845 10.7042 33.2575 11.9064 33.2613L 11.9064 31.7613C 10.5541 31.765 9.14279 32.0519 7.89806 32.5762L 8.48415 33.9569ZM 11.9064 33.2613C 13.1087 33.2575 14.2254 33.4845 15.3287 33.9569L 15.9148 32.5762C 14.6701 32.0519 13.2588 31.765 11.9064 31.7613L 11.9064 33.2613ZM 15.3287 33.9569C 16.4348 34.4223 17.3701 35.066 18.1958 35.9302L 19.277 34.8905C 18.3408 33.9225 17.1568 33.1075 15.9148 32.5762L 15.3287 33.9569ZM 18.7364 36.1604L 30.1811 36.1604L 30.1811 34.6604L 18.7364 34.6604L 18.7364 36.1604ZM 30.9311 35.4104L 30.9311 15.9663L 29.4311 15.9663L 29.4311 35.4104L 30.9311 35.4104ZM 30.9311 15.9665C 30.9232 15.6645 30.8043 15.2671 30.6448 15.0102L 29.3914 15.8341C 29.4448 15.901 29.4391 15.8817 29.4311 15.966L 30.9311 15.9665Z"/>
<path id="path11_stroke" d="M 0.471457 0.467L 0.999261 0.999844L 0.471457 0.467ZM 9.8833 5.68017L 9.8833 6.43017L 10.5739 6.43017L 10.6308 5.74188L 9.8833 5.68017ZM 12.4608 -0.749997L 1.60966 -0.749997L 1.60966 0.750003L 12.4608 0.750003L 12.4608 -0.749997ZM 1.60966 -0.749997C 0.986128 -0.749997 0.386712 -0.504712 -0.0563476 -0.0658436L 0.999261 0.999844C 1.15994 0.840684 1.37937 0.750003 1.60966 0.750003L 1.60966 -0.749997ZM -0.0563476 -0.0658436C -0.499648 0.373264 -0.75 0.970344 -0.75 1.59444L 0.75 1.59444C 0.75 1.37279 0.838822 1.15877 0.999261 0.999844L -0.0563476 -0.0658436ZM -0.75 1.59444L -0.75 4.08574L 0.75 4.08574L 0.75 1.59444L -0.75 1.59444ZM -0.75 4.08574C -0.75 4.70984 -0.499646 5.30691 -0.0563476 5.74601L 0.999261 4.68033C 0.83882 4.5214 0.75 4.30738 0.75 4.08574L -0.75 4.08574ZM -0.0563476 5.74601C 0.386706 6.18488 0.98612 6.43017 1.60966 6.43017L 1.60966 4.93017C 1.37938 4.93017 1.15995 4.83949 0.999261 4.68033L -0.0563476 5.74601ZM 1.60966 6.43017L 9.8833 6.43017L 9.8833 4.93017L 1.60966 4.93017L 1.60966 6.43017ZM 10.6308 5.74188C 10.7851 3.73855 11.5895 1.96605 13.0002 0.521017L 11.9213 -0.521012C 10.3489 1.12283 9.33327 3.36137 9.13584 5.61846L 10.6308 5.74188Z"/>
<path id="path12_stroke" d="M 6.94014 3.8087C 6.94014 5.49128 5.56117 6.86741 3.84507 6.86741L 3.84507 8.36741C 6.37613 8.36741 8.44014 6.33311 8.44014 3.8087L 6.94014 3.8087ZM 3.84507 6.86741C 2.12898 6.86741 0.75 5.49127 0.75 3.8087L -0.75 3.8087C -0.75 6.33311 1.31402 8.36741 3.84507 8.36741L 3.84507 6.86741ZM 0.75 3.8087C 0.75 2.12613 2.12898 0.749999 3.84507 0.749999L 3.84507 -0.750001C 1.31402 -0.750001 -0.75 1.2843 -0.75 3.8087L 0.75 3.8087ZM 3.84507 0.749999C 5.56117 0.749999 6.94014 2.12613 6.94014 3.8087L 8.44014 3.8087C 8.44014 1.2843 6.37613 -0.750001 3.84507 -0.750001L 3.84507 0.749999Z"/>
<path id="path13_stroke" d="M 11.4447 2.6762e-06L 12.1947 2.6762e-06L 12.1947 -0.749997L 11.4447 -0.749997L 11.4447 2.6762e-06ZM -9.82457e-07 2.6762e-06L -9.82457e-07 -0.749997L -1.76615 -0.749997L -0.539662 0.520834L -9.82457e-07 2.6762e-06ZM 2.57545 5.68017L 1.82798 5.7417L 1.88465 6.43017L 2.57545 6.43017L 2.57545 5.68017ZM 11.4447 -0.749997L -9.82457e-07 -0.749997L -9.82457e-07 0.750003L 11.4447 0.750003L 11.4447 -0.749997ZM -0.539662 0.520834C 0.870413 1.96614 1.67418 3.7386 1.82798 5.7417L 3.32292 5.61865C 3.12609 3.36183 2.11123 1.12331 0.53966 -0.520829L -0.539662 0.520834ZM 2.57545 6.43017L 9.83501 6.43017L 9.83501 4.93017L 2.57545 4.93017L 2.57545 6.43017ZM 9.83501 6.43017C 10.4585 6.43017 11.058 6.18488 11.501 5.74601L 10.4454 4.68033C 10.2847 4.83949 10.0653 4.93017 9.83501 4.93017L 9.83501 6.43017ZM 11.501 5.74601C 11.9443 5.30691 12.1947 4.70984 12.1947 4.08574L 10.6947 4.08574C 10.6947 4.30738 10.6058 4.5214 10.4454 4.68033L 11.501 5.74601ZM 12.1947 4.08574L 12.1947 2.6762e-06L 10.6947 2.6762e-06L 10.6947 4.08574L 12.1947 4.08574Z"/>
<path id="path14_stroke" d="M 47.5674 2.6762e-06L 48.1069 0.521017L 49.3344 -0.749997L 47.5674 -0.749997L 47.5674 2.6762e-06ZM 1.47369e-06 2.6762e-06L 1.47369e-06 -0.749997L -1.76615 -0.749997L -0.53966 0.520834L 1.47369e-06 2.6762e-06ZM 2.57545 5.68017L 1.82798 5.7417L 1.88465 6.43017L 2.57545 6.43017L 2.57545 5.68017ZM 44.9899 5.68017L 44.9899 6.43017L 45.6806 6.43017L 45.7374 5.74188L 44.9899 5.68017ZM 47.5674 -0.749997L 1.47369e-06 -0.749997L 1.47369e-06 0.750003L 47.5674 0.750003L 47.5674 -0.749997ZM -0.53966 0.520834C 0.870415 1.96614 1.67418 3.7386 1.82798 5.7417L 3.32292 5.61865C 3.12609 3.36183 2.11124 1.12331 0.539663 -0.520829L -0.53966 0.520834ZM 2.57545 6.43017L 44.9899 6.43017L 44.9899 4.93017L 2.57545 4.93017L 2.57545 6.43017ZM 45.7374 5.74188C 45.8917 3.73855 46.6961 1.96605 48.1069 0.521017L 47.0279 -0.521012C 45.4556 1.12283 44.4399 3.36137 44.2425 5.61846L 45.7374 5.74188Z"/>
<path id="path15_stroke" d="M 0.75 30.6669L 0.75 1.0644e-07L -0.75 1.0644e-07L -0.75 30.6669L 0.75 30.6669Z"/>
<path id="path16_fill" d="M 2 0.882353C 2 0.395043 1.55228 0 1 0C 0.447715 0 0 0.395043 0 0.882353L 0 2.11765C 0 2.60496 0.447715 3 1 3C 1.55228 3 2 2.60496 2 2.11765L 2 0.882353Z"/>
</defs>
</svg>
