<svg width="23" height="24" viewBox="0 0 23 24" version="1.1" xmlns="http://www.w3.org/2000/svg" xmlns:xlink="http://www.w3.org/1999/xlink">
<title>tools</title>
<desc>Created using Figma</desc>
<g id="Canvas" transform="translate(-1272 -500)">
<g id="tools">
<g id="Group">
<g id="Group">
<g id="Group">
<g id="Vector">
<use xlink:href="#path0_fill" transform="translate(1272 500)" fill="#FFFFFF"/>
</g>
<g id="Vector">
<use xlink:href="#path1_fill" transform="translate(1285.78 502.011)" fill="#FFFFFF"/>
</g>
</g>
</g>
</g>
</g>
</g>
<defs>
<path id="path0_fill" d="M 21.6606 18.1229C 21.1543 17.7507 20.5653 17.5614 19.9746 17.5493C 17.9143 16.1371 16.5606 15.0739 15.7671 14.2449L 13.9204 12.3156C 14.1163 12.2486 14.2896 12.2059 14.3894 12.2059C 14.5802 12.2059 14.6948 12.1264 14.7714 11.9674L 22.5408 3.89008C 23.1531 3.25041 23.1531 2.21092 22.5408 1.57126L 21.5075 0.491797C 20.8952 -0.147866 19.9002 -0.147866 19.2879 0.491797L 11.4043 8.68767C 11.2897 8.80747 11.2609 8.97215 11.318 9.11448C 11.3044 9.20266 11.2767 9.31356 11.2396 9.43514L 9.33777 7.44831C 7.92535 5.97276 6.93189 4.57673 6.16729 3.02225C 6.12716 2.23566 5.82502 1.49971 5.2812 0.931592C 4.63061 0.251918 3.71214 -0.0679374 2.79367 0.0120381C 2.67886 0.0520024 2.56405 0.131978 2.52579 0.211953C 2.44924 0.331893 2.44924 0.491797 2.52579 0.611737L 3.59733 2.61075C 3.36771 3.13047 2.83192 3.45033 2.29618 3.41036L 1.18634 1.49133C 1.14809 1.37139 0.99498 1.29141 0.880171 1.29141C 0.765362 1.25145 0.650553 1.33138 0.573999 1.45132C -0.344471 2.89059 -4.48225e-05 4.80963 1.37766 5.80911C 1.85232 6.16331 2.38708 6.36027 2.92866 6.40066C 2.93471 6.40333 2.94041 6.40661 2.94668 6.40881C 4.4392 7.20843 5.77865 8.24787 7.15635 9.68715L 8.80193 11.4063L 8.18963 12.0459C 8.03657 12.2058 8.03657 12.4457 8.18963 12.6057L 8.74453 13.1854L 2.06656 20.1619L 0.382681 21.3613C 0.306127 21.4413 0.229618 21.5212 0.229618 21.6412L 0 23.5602C 0 23.6801 0.0382546 23.8001 0.114809 23.8801C 0.191363 23.96 0.267872 24 0.382681 24C 0.420936 24 0.420936 24 0.420936 24L 2.25788 23.7601C 2.37269 23.7601 2.44924 23.6801 2.52575 23.6002L 3.61679 21.9286C 3.63738 21.9146 3.6567 21.899 3.67384 21.8811L 10.3527 14.8655L 10.9068 15.4444C 10.9833 15.5243 11.0599 15.5643 11.1747 15.5643C 11.2895 15.5643 11.4043 15.4843 11.4808 15.4444L 12.0632 14.8134L 13.6622 16.4838C 14.4651 17.3226 15.4972 18.8 16.873 20.9555C 16.9223 21.725 17.2237 22.4434 17.7571 23.0006C 18.3311 23.6003 19.0965 23.9201 19.9002 23.9201C 20.015 23.9201 20.1298 23.9201 20.2063 23.9201C 20.3212 23.9201 20.436 23.8401 20.5125 23.7202C 20.5891 23.6003 20.5891 23.4404 20.5125 23.3204L 19.4027 21.3614C 19.6706 20.8417 20.1681 20.5218 20.7421 20.5618L 21.8137 22.4808C 21.8519 22.6008 22.005 22.6808 22.1198 22.6808C 22.2729 22.6408 22.3877 22.6008 22.4643 22.4808C 23.3827 21.0415 23 19.1224 21.6606 18.1229ZM 13.0499 11.7661C 12.7821 11.8861 12.4376 12.086 12.208 12.3259C 12.0224 12.5198 11.9182 12.7797 11.8641 13.0461L 10.4476 11.5663C 10.7155 11.5263 10.9834 11.4064 11.1747 11.2065C 11.4426 10.9666 11.7105 10.3669 11.9018 9.80714L 13.5857 11.5663C 13.4596 11.6133 13.3315 11.6672 13.2061 11.7249C 13.1551 11.7257 13.1025 11.7387 13.0499 11.7661ZM 19.8237 1.05153C 20.1298 0.731677 20.6273 0.731677 20.9335 1.05153L 21.9668 2.13099C 22.2729 2.45085 22.2729 2.97057 21.9668 3.29042L 14.3703 11.1865L 12.2272 8.9476L 19.8237 1.05153ZM 0.91847 2.53077L 1.72213 3.97005C 1.79869 4.08999 1.91349 4.16997 2.0283 4.16997L 2.21967 4.16997C 3.09988 4.20993 3.90354 3.73017 4.28622 2.9306L 4.36278 2.73069C 4.43933 2.61075 4.43933 2.49081 4.36278 2.37087L 3.52082 0.851617C 3.98005 0.931592 4.40103 1.17147 4.74546 1.53129C 5.14003 1.97783 5.39265 2.54258 5.40758 3.14921C 5.40018 3.18 5.39601 3.21312 5.39601 3.25046C 5.39601 3.43562 5.37462 3.61623 5.33502 3.79033C 5.19066 4.36923 4.84448 4.87396 4.36273 5.20951C 3.59733 5.72923 2.56405 5.72923 1.79869 5.16954C 0.995024 4.56975 0.650598 3.49029 0.91847 2.53077ZM 4.20967 6.20894C 4.40103 6.12897 4.63065 6.00903 4.82197 5.88909C 5.39601 5.48931 5.77869 4.96953 6.00831 4.32987C 6.73542 5.60924 7.65389 6.80864 8.80198 8.00804L 10.923 10.2238C 10.8394 10.3884 10.7536 10.5269 10.6772 10.6068C 10.4476 10.8067 9.87356 10.7667 9.60568 10.7667C 9.51325 10.7667 9.42109 10.7964 9.34548 10.8546L 7.73044 9.16743C 6.5441 7.92807 5.43427 6.96855 4.20967 6.20894ZM 2.0283 22.9605L 0.803662 23.1204L 0.956725 21.881L 2.23505 20.9777L 2.89273 21.6647L 2.0283 22.9605ZM 3.36771 21.0415L 2.83192 20.4817L 9.29947 13.7651L 9.83526 14.3248L 3.36771 21.0415ZM 11.1747 14.5647L 9.0316 12.3258L 9.56738 11.7661L 11.697 13.9909C 11.6844 14.0108 11.6737 14.0315 11.6648 14.0526L 11.1747 14.5647ZM 12.6213 14.2768C 12.6771 14.1979 12.7055 14.1016 12.7055 14.005C 12.6911 13.885 12.6768 13.7314 12.6765 13.5735C 12.6762 13.3103 12.715 13.0355 12.8585 12.8856C 12.9086 12.8245 12.9952 12.7577 13.1031 12.6906C 13.104 12.6901 13.1049 12.6895 13.1058 12.689C 13.1489 12.6622 13.1955 12.6355 13.2444 12.609L 15.3461 14.8046C 16.0335 15.5627 17.2165 16.5198 18.9329 17.7158C 18.6824 17.8038 18.4412 17.9263 18.2163 18.083C 17.6526 18.4952 17.2349 19.0596 17.023 19.7115C 16.8024 19.3736 16.5903 19.0551 16.3864 18.7553L 16.9151 18.2029C 17.0682 18.043 17.0682 17.8031 16.9151 17.6432C 16.762 17.4833 16.5324 17.4833 16.3793 17.6432L 15.9364 18.1058C 15.7772 17.8805 15.6235 17.6679 15.4752 17.4683L 15.8435 17.0835C 15.9966 16.9236 15.9966 16.6837 15.8435 16.5238C 15.6905 16.3639 15.4608 16.3639 15.3077 16.5238L 14.9982 16.8471C 14.7236 16.5024 14.47 16.2083 14.2362 15.964L 12.6213 14.2768ZM 22.0815 21.4013L 21.2779 19.962C 21.2013 19.8421 21.0865 19.7621 20.9717 19.7621L 20.7803 19.7621C 19.9001 19.6821 19.0965 20.2019 18.7138 21.0015L 18.6372 21.2014C 18.5607 21.3213 18.5607 21.4413 18.6372 21.5612L 19.4792 23.0804C 19.0199 23.0005 18.5989 22.7606 18.2545 22.4008C 17.8674 21.9627 17.6172 21.4108 17.5937 20.8173C 17.6002 20.7881 17.6039 20.7567 17.6039 20.7216C 17.6039 20.2723 17.7248 19.8482 17.9326 19.4848C 17.9328 19.4843 17.933 19.4838 17.9333 19.4834C 17.9343 19.4817 17.9354 19.48 17.9365 19.4783C 18.1132 19.1802 18.3514 18.9217 18.6372 18.7226C 18.6829 18.6892 18.7292 18.6582 18.776 18.6293C 19.0749 18.4654 19.4178 18.3628 19.7853 18.3628C 19.8503 18.3628 19.9028 18.3496 19.9502 18.3239C 20.3926 18.3351 20.8325 18.4929 21.2012 18.7627C 22.005 19.3623 22.3495 20.4418 22.0815 21.4013Z"/>
<path id="path1_fill" d="M 0.114798 7.47629C 0.191352 7.55626 0.267861 7.59623 0.38267 7.59623C 0.497479 7.59623 0.574032 7.55626 0.650542 7.47629L 7.15639 0.67968C 7.30945 0.519776 7.30945 0.279897 7.15639 0.119946C 7.00333 -0.0400054 6.77371 -0.0399586 6.6206 0.119946L 0.114798 6.91655C -0.0382654 7.0765 -0.0382654 7.31638 0.114798 7.47629Z"/>
</defs>
</svg>
