<svg width="66" height="66" viewBox="0 0 66 66" version="1.1" xmlns="http://www.w3.org/2000/svg" xmlns:xlink="http://www.w3.org/1999/xlink">
<title>Group 46</title>
<desc>Created using Figma</desc>
<g id="Canvas" transform="translate(-15981 -1096)">
<g id="Group 46">
<g id="upload">
<g id="Group">
<g id="Group">
<g id="Vector">
<use xlink:href="#path0_fill" transform="translate(15998 1128.01)" fill="#197AE3"/>
</g>
<g id="Vector">
<use xlink:href="#path1_fill" transform="translate(16007.3 1114)" fill="#197AE3"/>
</g>
</g>
</g>
</g>
<g id="Ellipse 4">
<mask id="mask0_outline_ins">
<use xlink:href="#path2_fill" fill="white" transform="translate(15981 1096)"/>
</mask>
<g mask="url(#mask0_outline_ins)">
<use xlink:href="#path3_stroke_2x" transform="translate(15981 1096)" fill="#197AE3"/>
</g>
</g>
</g>
</g>
<defs>
<path id="path0_fill" d="M 31.0832 0.132814C 30.5739 0.132814 30.1664 0.531257 30.1664 1.02931L 30.1664 9.18411C 30.1664 11.4021 28.3192 13.2017 26.0577 13.2017L 5.94228 13.2017C 3.67402 13.2017 1.83362 11.3955 1.83362 9.18411L 1.83362 0.896496C 1.83362 0.398442 1.42615 -4.05317e-07 0.916808 -4.05317e-07C 0.40747 -4.05317e-07 0 0.398442 0 0.896496L 0 9.18411C 0 12.3916 2.66893 14.9947 5.94228 14.9947L 26.0577 14.9947C 29.3379 14.9947 32 12.3849 32 9.18411L 32 1.02931C 32 0.537897 31.5925 0.132814 31.0832 0.132814Z"/>
<path id="path1_fill" d="M 1.56027 7.23174L 5.82513 3.06137L 5.82513 21.2503C 5.82513 21.7483 6.2326 22.1468 6.74194 22.1468C 7.25127 22.1468 7.65874 21.7483 7.65874 21.2503L 7.65874 3.06137L 11.9236 7.23174C 12.1002 7.4044 12.3379 7.49737 12.5688 7.49737C 12.8065 7.49737 13.0374 7.41104 13.2139 7.23174C 13.5739 6.87978 13.5739 6.31532 13.2139 5.96336L 7.3871 0.265629C 7.21732 0.0996107 6.97963 -9.43702e-16 6.74194 -9.43702e-16C 6.49745 -9.43702e-16 6.26655 0.09297 6.09678 0.265629L 0.269949 5.96336C -0.0899828 6.31532 -0.0899828 6.87978 0.269949 7.23174C 0.62309 7.57705 1.20713 7.57705 1.56027 7.23174Z"/>
<path id="path2_fill" d="M 66 33C 66 51.2254 51.2254 66 33 66C 14.7746 66 0 51.2254 0 33C 0 14.7746 14.7746 0 33 0C 51.2254 0 66 14.7746 66 33Z"/>
<path id="path3_stroke_2x" d="M 65 33C 65 50.6731 50.6731 65 33 65L 33 67C 51.7777 67 67 51.7777 67 33L 65 33ZM 33 65C 15.3269 65 1 50.6731 1 33L -1 33C -1 51.7777 14.2223 67 33 67L 33 65ZM 1 33C 1 15.3269 15.3269 1 33 1L 33 -1C 14.2223 -1 -1 14.2223 -1 33L 1 33ZM 33 1C 50.6731 1 65 15.3269 65 33L 67 33C 67 14.2223 51.7777 -1 33 -1L 33 1Z"/>
</defs>
</svg>
