<svg width="66" height="66" viewBox="0 0 66 66" version="1.1" xmlns="http://www.w3.org/2000/svg" xmlns:xlink="http://www.w3.org/1999/xlink">
<title>Group 47</title>
<desc>Created using Figma</desc>
<g id="Canvas" transform="translate(-16342 -1096)">
<g id="Group 47">
<g id="sort">
<g id="Group">
<g id="Group">
<g id="Vector">
<use xlink:href="#path0_fill" transform="translate(16360 1115.01)" fill="#197AE3"/>
</g>
<g id="Vector">
<use xlink:href="#path1_fill" transform="translate(16376.3 1115)" fill="#197AE3"/>
</g>
</g>
</g>
</g>
<g id="Ellipse 4.1">
<mask id="mask0_outline_ins">
<use xlink:href="#path2_fill" fill="white" transform="translate(16342 1096)"/>
</mask>
<g mask="url(#mask0_outline_ins)">
<use xlink:href="#path3_stroke_2x" transform="translate(16342 1096)" fill="#197AE3"/>
</g>
</g>
</g>
</g>
<defs>
<path id="path0_fill" d="M 7.05289 27.2571L 7.05289 2.46554L 11.415 6.8224C 11.5573 6.96447 11.741 7.03551 11.9306 7.03551C 12.1203 7.03551 12.304 6.96447 12.4463 6.8224C 12.7308 6.53826 12.7308 6.08245 12.4463 5.7983L 6.84545 0.204228C 6.57282 -0.068076 6.09275 -0.068076 5.82011 0.204228L 0.213365 5.7983C -0.0711216 6.08245 -0.0711216 6.53826 0.213365 6.8224C 0.497851 7.10655 0.954214 7.10655 1.2387 6.8224L 5.60082 2.46554L 5.60082 27.2571C 5.60082 27.6596 5.9268 27.9852 6.32982 27.9852C 6.72691 27.9792 7.05289 27.6537 7.05289 27.2571Z"/>
<path id="path1_fill" d="M 5.80826 27.7809C 5.9505 27.923 6.13423 27.994 6.32389 27.994C 6.51355 27.994 6.69728 27.923 6.83952 27.7809L 12.4403 22.1869C 12.7248 21.9027 12.7248 21.4469 12.4403 21.1628C 12.1559 20.8786 11.6995 20.8786 11.415 21.1628L 7.05289 25.5196L 7.05289 0.728118C 7.05289 0.325581 6.72691 -2.25817e-08 6.32389 -2.25817e-08C 5.92087 -2.25817e-08 5.5949 0.325581 5.5949 0.728118L 5.5949 25.5196L 1.2387 21.1628C 0.954215 20.8786 0.497851 20.8786 0.213364 21.1628C -0.0711219 21.4469 -0.0711219 21.9027 0.213364 22.1869L 5.80826 27.7809Z"/>
<path id="path2_fill" d="M 66 33C 66 51.2254 51.2254 66 33 66C 14.7746 66 0 51.2254 0 33C 0 14.7746 14.7746 0 33 0C 51.2254 0 66 14.7746 66 33Z"/>
<path id="path3_stroke_2x" d="M 65 33C 65 50.6731 50.6731 65 33 65L 33 67C 51.7777 67 67 51.7777 67 33L 65 33ZM 33 65C 15.3269 65 1 50.6731 1 33L -1 33C -1 51.7777 14.2223 67 33 67L 33 65ZM 1 33C 1 15.3269 15.3269 1 33 1L 33 -1C 14.2223 -1 -1 14.2223 -1 33L 1 33ZM 33 1C 50.6731 1 65 15.3269 65 33L 67 33C 67 14.2223 51.7777 -1 33 -1L 33 1Z"/>
</defs>
</svg>
