<svg width="66" height="66" viewBox="0 0 66 66" version="1.1" xmlns="http://www.w3.org/2000/svg" xmlns:xlink="http://www.w3.org/1999/xlink">
<title>Group 48</title>
<desc>Created using Figma</desc>
<g id="Canvas" transform="translate(-16704 -1096)">
<g id="Group 48">
<g id="Group">
<g id="Group">
<g id="Vector">
<use xlink:href="#path0_fill" transform="translate(16729 1113)" fill="#197AE3"/>
</g>
</g>
</g>
<g id="Ellipse 4.5">
<mask id="mask0_outline_ins">
<use xlink:href="#path1_fill" fill="white" transform="translate(16704 1096)"/>
</mask>
<g mask="url(#mask0_outline_ins)">
<use xlink:href="#path2_stroke_2x" transform="translate(16704 1096)" fill="#197AE3"/>
</g>
</g>
<g id="Subtract">
<use xlink:href="#path3_fill" transform="translate(16750 1120)" fill="#197AE3"/>
</g>
<g id="Subtract">
<use xlink:href="#path4_fill" transform="matrix(-1 1.22465e-16 -1.22465e-16 -1 16723 1138)" fill="#197AE3"/>
</g>
</g>
</g>
<defs>
<path id="path0_fill" d="M 1.50505 31.9974C 1.14168 31.7731 7.4181 19.2681 7.20172 18.7198C 6.98534 18.1719 0.330921 16.1655 0.0057941 15.2009C -0.319333 14.2355 13.1448 -0.275829 13.4984 0.00399465C 13.8513 0.283818 7.6311 12.8723 7.80172 13.2812C 7.9716 13.6901 14.7921 15.7801 14.9976 16.8005C 15.2031 17.821 1.86806 32.2218 1.50505 31.9974Z"/>
<path id="path1_fill" d="M 66 33C 66 51.2254 51.2254 66 33 66C 14.7746 66 0 51.2254 0 33C 0 14.7746 14.7746 0 33 0C 51.2254 0 66 14.7746 66 33Z"/>
<path id="path2_stroke_2x" d="M 65 33C 65 50.6731 50.6731 65 33 65L 33 67C 51.7777 67 67 51.7777 67 33L 65 33ZM 33 65C 15.3269 65 1 50.6731 1 33L -1 33C -1 51.7777 14.2223 67 33 67L 33 65ZM 1 33C 1 15.3269 15.3269 1 33 1L 33 -1C 14.2223 -1 -1 14.2223 -1 33L 1 33ZM 33 1C 50.6731 1 65 15.3269 65 33L 67 33C 67 14.2223 51.7777 -1 33 -1L 33 1Z"/>
<path id="path3_fill" fill-rule="evenodd" d="M 0 18.0002C 1.86914 15.5828 3 12.4381 3 9.00012C 3 5.56213 1.86914 2.41748 0 0L 0 1.75403C 1.25781 3.80322 2 6.29175 2 9.00012C 2 11.7085 1.25781 14.197 0 16.2462L 0 18.0002Z"/>
<path id="path4_fill" fill-rule="evenodd" d="M 0 0L 0 1.75403C 1.25781 3.80322 2 6.29175 2 9.00012C 2 11.7085 1.25781 14.197 0 16.2462L 0 18.0002C 1.86914 15.5828 3 12.4381 3 9.00012C 3 5.56213 1.86914 2.41748 0 0Z"/>
</defs>
</svg>
