<svg width="66" height="66" viewBox="0 0 66 66" version="1.1" xmlns="http://www.w3.org/2000/svg" xmlns:xlink="http://www.w3.org/1999/xlink">
<title>Group 49</title>
<desc>Created using Figma</desc>
<g id="Canvas" transform="translate(-15982 -1273)">
<g id="Group 49">
<g id="security-badge">
<g id="Group">
<g id="Vector">
<use xlink:href="#path0_fill" transform="translate(16000 1288)" fill="#197AE3"/>
</g>
</g>
</g>
<g id="Ellipse 4.3">
<mask id="mask0_outline_ins">
<use xlink:href="#path1_fill" fill="white" transform="translate(15982 1273)"/>
</mask>
<g mask="url(#mask0_outline_ins)">
<use xlink:href="#path2_stroke_2x" transform="translate(15982 1273)" fill="#197AE3"/>
</g>
</g>
</g>
</g>
<defs>
<path id="path0_fill" d="M 29.986 6.0296C 29.975 5.55317 29.6322 5.14221 29.1535 5.07708C 26.9221 4.77186 24.7213 4.24085 22.564 3.45393C 20.4168 2.67077 18.0411 1.5775 15.4787 0.137617C 15.1533 -0.0453103 14.8473 -0.0464332 14.5223 0.137617C 11.9776 1.57677 9.61888 2.66774 7.45475 3.45393C 5.2967 4.23787 3.09704 4.77225 0.88335 5.07708C 0.404574 5.14294 0.0686412 5.55317 0.0153567 6.0296C -0.196997 15.0791 1.79331 22.4835 5.96705 28.2393C 8.24078 31.3746 11.0862 33.9194 14.5223 35.8598C 14.7879 36.054 15.2044 36.0393 15.5142 35.8598C 18.9242 33.887 21.7659 31.3606 24.0344 28.2393C 28.2137 22.4873 30.1877 15.0794 29.986 6.0296ZM 22.44 27.1279C 20.4682 29.8405 17.9942 32.1024 15.0007 33.9193C 12.0071 32.1024 9.52138 29.8488 7.56127 27.1279C 3.76429 21.8573 1.91081 15.1144 1.98144 6.89405C 4.0715 6.55875 6.14421 5.9942 8.21652 5.23555C 10.2888 4.47723 12.5561 3.43626 15.0007 2.11344C 17.4452 3.43626 19.6947 4.47723 21.767 5.23555C 23.8393 5.99425 25.9294 6.55875 28.0198 6.89405C 28.0905 15.1675 26.2253 21.9198 22.44 27.1279Z"/>
<path id="path1_fill" d="M 66 33C 66 51.2254 51.2254 66 33 66C 14.7746 66 0 51.2254 0 33C 0 14.7746 14.7746 0 33 0C 51.2254 0 66 14.7746 66 33Z"/>
<path id="path2_stroke_2x" d="M 65 33C 65 50.6731 50.6731 65 33 65L 33 67C 51.7777 67 67 51.7777 67 33L 65 33ZM 33 65C 15.3269 65 1 50.6731 1 33L -1 33C -1 51.7777 14.2223 67 33 67L 33 65ZM 1 33C 1 15.3269 15.3269 1 33 1L 33 -1C 14.2223 -1 -1 14.2223 -1 33L 1 33ZM 33 1C 50.6731 1 65 15.3269 65 33L 67 33C 67 14.2223 51.7777 -1 33 -1L 33 1Z"/>
</defs>
</svg>
