<svg width="66" height="66" viewBox="0 0 66 66" version="1.1" xmlns="http://www.w3.org/2000/svg" xmlns:xlink="http://www.w3.org/1999/xlink">
<title>Group 50</title>
<desc>Created using Figma</desc>
<g id="Canvas" transform="translate(-16343 -1273)">
<g id="Group 50">
<g id="hourglass">
<g id="Group">
<g id="Vector">
<use xlink:href="#path0_fill" transform="translate(16363 1289)" fill="#197AE3"/>
</g>
<g id="Vector">
<use xlink:href="#path1_fill" transform="translate(16370 1296.15)" fill="#197AE3"/>
</g>
<g id="Vector">
<use xlink:href="#path2_fill" transform="translate(16378.7 1309.9)" fill="#197AE3"/>
</g>
</g>
</g>
<g id="Ellipse 4.4">
<mask id="mask0_outline_ins">
<use xlink:href="#path3_fill" fill="white" transform="translate(16343 1273)"/>
</mask>
<g mask="url(#mask0_outline_ins)">
<use xlink:href="#path4_stroke_2x" transform="translate(16343 1273)" fill="#197AE3"/>
</g>
</g>
</g>
</g>
<defs>
<path id="path0_fill" d="M 26.46 31.9L 24.84 31.9L 24.84 29.7L 22.14 29.7L 22.14 24.0779C 22.14 22.5929 21.4153 21.2135 20.2019 20.3896L 14.4736 16.5L 20.2019 12.6104C 21.4153 11.7865 22.14 10.4071 22.14 8.9221L 22.14 3.3L 24.84 3.3L 24.84 1.1L 26.46 1.1C 26.7581 1.1 27 0.85415 27 0.55C 27 0.24585 26.7581 0 26.46 0L 24.84 0L 24.3 0L 2.7 0L 2.16 0L 0.54 0C 0.24192 0 0 0.24585 0 0.55C 0 0.85415 0.24192 1.1 0.54 1.1L 2.16 1.1L 2.16 3.3L 4.86 3.3L 4.86 8.9221C 4.86 10.4071 5.58468 11.7865 6.79806 12.6104L 12.5264 16.5L 6.79806 20.3896C 5.58468 21.2135 4.86 22.5929 4.86 24.0779L 4.86 29.7L 2.16 29.7L 2.16 31.9L 0.54 31.9C 0.24192 31.9 0 32.1459 0 32.45C 0 32.7542 0.24192 33 0.54 33L 2.16 33L 2.7 33L 24.3 33L 24.84 33L 26.46 33C 26.7581 33 27 32.7542 27 32.45C 27 32.1459 26.7581 31.9 26.46 31.9ZM 3.24 2.2L 3.24 1.1L 23.76 1.1L 23.76 2.2L 22.14 2.2L 4.86 2.2L 3.24 2.2ZM 7.39692 11.6952C 6.48486 11.0753 5.94 10.0386 5.94 8.9221L 5.94 3.3L 21.06 3.3L 21.06 8.9221C 21.06 10.0386 20.5151 11.0753 19.6031 11.6952L 13.5 15.8389L 7.39692 11.6952ZM 5.94 24.0779C 5.94 22.9614 6.48486 21.9247 7.39692 21.3048L 13.5 17.1611L 19.6031 21.3048C 20.5151 21.9247 21.06 22.9614 21.06 24.0779L 21.06 29.7L 5.94 29.7L 5.94 24.0779ZM 3.24 30.8L 4.86 30.8L 22.14 30.8L 23.76 30.8L 23.76 31.9L 3.24 31.9L 3.24 30.8Z"/>
<path id="path1_fill" d="M 1.57518 2.7148C 1.26522 2.50415 1.08 2.1516 1.08 1.7721L 1.08 0.55C 1.08 0.24585 0.83808 0 0.54 0C 0.24192 0 0 0.24585 0 0.55L 0 1.7721C 0 2.52065 0.36504 3.2153 0.97632 3.63L 3.48084 5.3306C 3.57264 5.39275 3.67686 5.423 3.78 5.423C 3.95442 5.423 4.1256 5.3372 4.22982 5.17825C 4.39506 4.92525 4.3281 4.58425 4.08024 4.4154L 1.57518 2.7148Z"/>
<path id="path2_fill" d="M 3.34415 1.79331L 0.839631 0.0927145C 0.591231 -0.0761355 0.256431 -0.00793531 0.0906509 0.245065C -0.0745891 0.498065 -0.00762885 0.839065 0.240231 1.00792L 2.74475 2.70851C 3.05525 2.91916 3.24047 3.27117 3.24047 3.65122L 3.24047 4.87331C 3.24047 5.17746 3.48239 5.42332 3.78047 5.42332C 4.07855 5.42332 4.32047 5.17746 4.32047 4.87331L 4.32047 3.65122C 4.32047 2.90212 3.95543 2.20801 3.34415 1.79331Z"/>
<path id="path3_fill" d="M 66 33C 66 51.2254 51.2254 66 33 66C 14.7746 66 0 51.2254 0 33C 0 14.7746 14.7746 0 33 0C 51.2254 0 66 14.7746 66 33Z"/>
<path id="path4_stroke_2x" d="M 65 33C 65 50.6731 50.6731 65 33 65L 33 67C 51.7777 67 67 51.7777 67 33L 65 33ZM 33 65C 15.3269 65 1 50.6731 1 33L -1 33C -1 51.7777 14.2223 67 33 67L 33 65ZM 1 33C 1 15.3269 15.3269 1 33 1L 33 -1C 14.2223 -1 -1 14.2223 -1 33L 1 33ZM 33 1C 50.6731 1 65 15.3269 65 33L 67 33C 67 14.2223 51.7777 -1 33 -1L 33 1Z"/>
</defs>
</svg>
