<svg width="66" height="66" viewBox="0 0 66 66" version="1.1" xmlns="http://www.w3.org/2000/svg" xmlns:xlink="http://www.w3.org/1999/xlink">
<title>Group 51</title>
<desc>Created using Figma</desc>
<g id="Canvas" transform="translate(-16704 -1274)">
<g id="Group 51">
<g id="sinusoid">
<g id="Vector">
<use xlink:href="#path0_fill" transform="translate(16722 1292)" fill="#197AE3"/>
</g>
</g>
<g id="Ellipse 4.5">
<mask id="mask0_outline_ins">
<use xlink:href="#path1_fill" fill="white" transform="translate(16704 1274)"/>
</mask>
<g mask="url(#mask0_outline_ins)">
<use xlink:href="#path2_stroke_2x" transform="translate(16704 1274)" fill="#197AE3"/>
</g>
</g>
</g>
</g>
<defs>
<path id="path0_fill" d="M 0.526289 0C 0.231431 0.00448747 -0.00411351 0.246917 5.4472e-05 0.541701L 5.4472e-05 30.4581C -0.00411351 30.7531 0.231752 30.9958 0.526823 30.9999C 0.821895 31.0041 1.0646 30.7683 1.06877 30.4733C 1.06887 30.4683 1.06887 30.4633 1.06877 30.4582L 1.06877 24.3612C 2.32461 24.2153 3.54551 23.4298 3.83641 22.0185C 3.83748 22.0144 3.83812 22.0103 3.83887 22.0062L 4.9249 16.0342L 11.3194 16.0342L 12.4055 22.0063C 12.4065 22.0105 12.407 22.0145 12.4079 22.0186C 13.0566 25.1613 18.1503 25.1614 18.7981 22.0186C 18.7992 22.0145 18.7999 22.0104 18.8008 22.0063L 19.8866 16.0342L 26.2811 16.0342L 27.3671 22.0063C 27.4946 22.7072 28.5464 22.5161 28.419 21.8152L 27.3676 16.0344L 29.1683 16.0344L 29.0118 16.1909C 28.7989 16.3953 28.7919 16.7334 28.9964 16.9463C 29.2008 17.1591 29.5391 17.1661 29.752 16.9617C 29.7572 16.9566 29.7623 16.9515 29.7674 16.9463L 30.7601 15.9538C 30.9411 15.8343 31.0319 15.6172 30.9899 15.4045C 30.966 15.2663 30.8888 15.1428 30.7746 15.061L 29.7672 14.0539C 29.6666 13.9504 29.5283 13.8919 29.3838 13.8919C 29.0886 13.8921 28.8495 14.1315 28.8498 14.4266C 28.8499 14.5708 28.9082 14.7087 29.0117 14.8093L 29.1682 14.9658L 27.1732 14.9658L 26.2814 10.0622C 26.2814 10.0602 26.2801 10.0581 26.2799 10.0561C 25.9622 8.4187 24.4899 7.5601 23.0838 7.5601C 21.6777 7.5601 20.2056 8.41859 19.8873 10.0559C 19.8873 10.058 19.8862 10.06 19.886 10.0622L 18.9943 14.9658L 12.2109 14.9658L 11.3191 10.0626C 11.3191 10.0606 11.3181 10.0585 11.3178 10.0565C 11.0001 8.41913 9.52785 7.56052 8.12174 7.56052C 6.71564 7.56052 5.24348 8.41891 4.92533 10.0563C 4.92533 10.0584 4.92426 10.0605 4.92404 10.0626L 4.03231 14.9662L 1.06813 14.9662L 1.06813 0.542235C 1.07229 0.247238 0.83643 0.00470115 0.541251 0.000534222C 0.536014 0.000427378 0.530778 0.000427378 0.525541 0.000534222L 0.526289 0ZM 8.12228 8.62854C 9.12045 8.62854 10.0525 9.14535 10.2691 10.2586L 11.1251 14.9658L 5.11919 14.9658L 5.97502 10.2596L 5.97502 10.2586C 6.19197 9.14524 7.1242 8.62854 8.12228 8.62854ZM 23.0841 8.62854C 24.0822 8.62854 25.0143 9.14535 25.2309 10.2586L 26.0869 14.9658L 20.0811 14.9658L 20.9369 10.2596L 20.9369 10.2586C 21.1537 9.14524 22.086 8.62854 23.0841 8.62854ZM 1.06877 16.0341L 3.83866 16.0341L 2.78918 21.8048C 2.60846 22.6767 1.90204 23.1654 1.06877 23.2879L 1.06877 16.0341ZM 12.4055 16.0341L 18.8002 16.0341L 17.7507 21.8052C 17.3285 23.8409 13.8777 23.8408 13.455 21.8052C 13.4549 21.8052 12.4055 16.0341 12.4055 16.0341Z"/>
<path id="path1_fill" d="M 66 33C 66 51.2254 51.2254 66 33 66C 14.7746 66 0 51.2254 0 33C 0 14.7746 14.7746 0 33 0C 51.2254 0 66 14.7746 66 33Z"/>
<path id="path2_stroke_2x" d="M 65 33C 65 50.6731 50.6731 65 33 65L 33 67C 51.7777 67 67 51.7777 67 33L 65 33ZM 33 65C 15.3269 65 1 50.6731 1 33L -1 33C -1 51.7777 14.2223 67 33 67L 33 65ZM 1 33C 1 15.3269 15.3269 1 33 1L 33 -1C 14.2223 -1 -1 14.2223 -1 33L 1 33ZM 33 1C 50.6731 1 65 15.3269 65 33L 67 33C 67 14.2223 51.7777 -1 33 -1L 33 1Z"/>
</defs>
</svg>
