<svg width="27" height="40" viewBox="0 0 27 40" version="1.1" xmlns="http://www.w3.org/2000/svg" xmlns:xlink="http://www.w3.org/1999/xlink">
<title>Group</title>
<desc>Created using Figma</desc>
<g id="Canvas" transform="translate(-17335 -123)">
<g id="Group">
<g id="Vector">
<use xlink:href="#path0_fill" transform="translate(17335 123)" fill="#197AE3"/>
</g>
<g id="Vector">
<use xlink:href="#path1_fill" transform="translate(17343.5 140.587)" fill="#197AE3"/>
</g>
</g>
</g>
<defs>
<path id="path0_fill" d="M 19.3431 7.57677L 19.3431 0.638298C 19.3431 0.285787 19.0506 0 18.6899 0L 8.3101 0C 7.94936 0 7.6569 0.285787 7.6569 0.638298L 7.6569 7.57677C 3.37879 7.90332 2.87051e-07 11.4094 2.87051e-07 15.6723L 2.87051e-07 31.592C 2.87051e-07 34.6066 2.34246 37.0959 5.34205 37.4151L 5.34205 39.3617C 5.34205 39.7142 5.63451 40 5.99525 40L 21.0048 40C 21.3655 40 21.658 39.7142 21.658 39.3617L 21.658 37.4151C 24.6575 37.0959 27 34.6066 27 31.592L 27 15.6723C 27 11.4094 23.6211 7.9034 19.3431 7.57677ZM 18.0367 1.2766L 18.0367 7.55174L 14.1532 7.55174L 14.1532 6.09949C 14.8493 5.84094 15.3462 5.184 15.3462 4.41421C 15.3462 3.4194 14.518 2.61013 13.5 2.61013C 12.482 2.61013 11.6538 3.4194 11.6538 4.41421C 11.6538 5.184 12.1507 5.84094 12.8468 6.09949L 12.8468 7.55183L 8.9633 7.55183L 8.9633 1.2766L 18.0367 1.2766ZM 13.5 4.94162C 13.2024 4.94162 12.9602 4.70502 12.9602 4.41413C 12.9602 4.12323 13.2024 3.88664 13.5 3.88664C 13.7976 3.88664 14.0398 4.12323 14.0398 4.41413C 14.0398 4.70502 13.7976 4.94162 13.5 4.94162ZM 8.3101 8.82834L 18.6899 8.82834C 22.3314 8.82834 25.3315 11.5585 25.6621 15.034L 5.8788 15.034C 5.51806 15.034 5.2256 15.3197 5.2256 15.6723C 5.2256 16.0248 5.51806 16.3106 5.8788 16.3106L 25.6936 16.3106L 25.6936 30.9537L 1.3064 30.9537L 1.3064 16.3106L 3.266 16.3106C 3.62674 16.3106 3.9192 16.0248 3.9192 15.6723C 3.9192 15.3197 3.62674 15.034 3.266 15.034L 1.33793 15.034C 1.66854 11.5586 4.66855 8.82834 8.3101 8.82834ZM 6.64845 38.7234L 6.64845 37.4505L 20.3516 37.4505L 20.3516 38.7234L 6.64845 38.7234ZM 21.0048 36.1739L 5.99525 36.1739C 3.63153 36.1739 1.67184 34.4556 1.35291 32.2303L 25.6471 32.2303C 25.3282 34.4556 23.3685 36.1739 21.0048 36.1739Z"/>
<path id="path1_fill" d="M 5.0184 12.09C 6.4213 12.09 7.64697 11.6134 8.56275 10.7115C 9.51042 9.77821 10.0477 8.45038 10.0368 7.06843C 10.0165 4.50664 8.15794 2.21728 8.07886 2.12102C 7.9504 1.96494 7.7547 1.87711 7.54959 1.88281C 7.34466 1.88894 7.15463 1.98877 7.03627 2.15234C 7.03627 2.15234 6.98357 2.22519 6.90475 2.33404C 6.58495 1.65285 6.11133 0.822128 5.48713 0.193702C 5.36416 0.0698726 5.19502 1.76612e-07 5.01849 1.76612e-07C 4.84195 1.76612e-07 4.67281 0.0698726 4.54983 0.193702C 3.92564 0.822128 3.45202 1.65285 3.13222 2.33404C 3.05348 2.22519 3.0007 2.15234 3.0007 2.15234C 2.88243 1.98877 2.69231 1.88894 2.48738 1.88281C 2.28323 1.87583 2.08648 1.96485 1.95811 2.12102C 1.87903 2.21719 0.0204548 4.50664 0.000162032 7.06843C -0.0107246 8.45038 0.526468 9.77821 1.47422 10.7115C 2.38983 11.6133 3.6155 12.09 5.0184 12.09ZM 2.47614 3.63864L 2.63169 3.85353C 2.82173 4.116 2.97188 4.32341 3.33628 4.30034C 3.59311 4.28417 3.81625 4.12221 3.90621 3.88664C 3.90813 3.88153 3.91336 3.86732 3.92111 3.84451C 4.03807 3.50204 4.41388 2.48817 5.0184 1.64408C 5.62291 2.48817 5.99863 3.50204 6.11569 3.84451C 6.12353 3.8674 6.12866 3.88162 6.13058 3.88664C 6.24363 4.18272 6.56152 4.35336 6.87775 4.28783C 7.12815 4.23609 7.21498 4.11617 7.40519 3.85345L 7.56065 3.63864C 8.0489 4.41745 8.71969 5.73047 8.73032 7.0783C 8.73859 8.12238 8.33953 9.11881 7.63538 9.81225C 6.97025 10.4672 6.06535 10.8134 5.0184 10.8134C 3.97145 10.8134 3.06646 10.4672 2.40141 9.81225C 1.69726 9.11881 1.2982 8.12238 1.30648 7.0783C 1.3171 5.7303 1.98798 4.41728 2.47614 3.63864Z"/>
</defs>
</svg>
