<svg width="37" height="35" viewBox="0 0 37 35" version="1.1" xmlns="http://www.w3.org/2000/svg" xmlns:xlink="http://www.w3.org/1999/xlink">
<title>recycling</title>
<desc>Created using Figma</desc>
<g id="Canvas" transform="translate(-17969 -128)">
<g id="recycling">
<g id="Group">
<g id="Group">
<g id="Vector">
<use xlink:href="#path0_fill" transform="translate(17969 139.795)" fill="#197AE3"/>
</g>
</g>
</g>
<g id="Group">
<g id="Group">
<g id="Vector">
<use xlink:href="#path1_fill" transform="translate(17976.4 128)" fill="#197AE3"/>
</g>
</g>
</g>
<g id="Group">
<g id="Group">
<g id="Vector">
<use xlink:href="#path2_fill" transform="translate(17986.2 142.838)" fill="#197AE3"/>
</g>
</g>
</g>
</g>
</g>
<defs>
<path id="path0_fill" d="M 12.9549 12.7824L 6.26013 12.7824L 8.88133 7.6497L 11.3323 9.61094C 11.7975 9.98077 12.4783 9.5437 12.3195 8.97215L 9.85715 0.443603C 9.76641 0.152258 9.48269 -0.0383301 9.17632 0.0065326L 0.529779 1.22802C -0.0489262 1.3065 -0.196475 2.0573 0.302871 2.35988L 2.87864 3.88406L 0.779452 7.61597C 0.26883 8.51249 0.0191568 9.50998 0.0191568 10.5297C 0.0191568 11.2918 0.166705 12.0539 0.450314 12.7599L 2.25451 17.6462C 2.98077 20.1678 4.17222 21.3221 6.18067 21.3221L 12.9663 21.3221C 13.3067 21.3221 13.5791 21.0531 13.5791 20.7169L 13.5791 13.3989C 13.5677 13.0514 13.2953 12.7824 12.9549 12.7824ZM 1.58507 12.3005C 1.35816 11.7402 1.24465 11.135 1.24465 10.5186C 1.24465 9.70046 1.4489 8.9048 1.84601 8.18752L 4.2403 3.92892C 4.39913 3.64872 4.30839 3.27889 4.01339 3.11078L 2.41344 2.18064L 8.79059 1.28412L 10.5721 7.43673L 9.05153 6.21514C 8.74516 5.96855 8.29124 6.06941 8.10976 6.41686L 3.1397 16.1669L 1.58507 12.3005ZM 12.3422 20.0893L 6.16928 20.0893C 4.85305 20.0893 3.775 19.0807 3.70691 17.7918L 5.64728 14.0039L 12.3421 14.0039L 12.3421 20.0893L 12.3422 20.0893Z"/>
<path id="path1_fill" d="M 22.4359 3.48603L 20.0984 5.34642L 17.273 2.09644C 16.6035 1.32316 15.7411 0.729232 14.7765 0.381783C 14.0503 0.112816 13.2787 -0.010425 12.5071 0.000711868L 7.01508 0.000711868C 4.31452 -0.021772 3.08903 0.48254 2.39682 2.34293L 0.0365698 8.61877C -0.0769373 8.9326 0.0819942 9.27995 0.399644 9.40329L 7.33273 11.9472C 7.65048 12.0593 8.00217 11.9024 8.12706 11.5886L 10.4533 5.39118L 14.4247 9.60502L 11.7128 11.1852C 11.1908 11.4878 11.3838 12.2723 11.9851 12.3171L 20.9381 12.9895C 21.2444 13.0119 21.5281 12.8101 21.5848 12.5075L 23.4231 4.0911C 23.548 3.53089 22.8898 3.12745 22.4359 3.48603ZM 7.18529 10.5913L 1.40961 8.48429L 3.54284 2.78C 3.99677 1.55841 5.33566 0.91961 6.57254 1.30068L 9.50011 4.40504L 7.18529 10.5913ZM 20.4842 11.7455L 14.0163 11.2524L 15.707 10.2551C 16.0475 10.0533 16.1155 9.59388 15.8432 9.31367L 8.30865 1.32316L 12.5298 1.23354C 13.1425 1.2223 13.7553 1.32316 14.334 1.53613C 15.1056 1.81634 15.7978 2.28703 16.3311 2.90334L 19.5423 6.60163C 19.758 6.84822 20.1324 6.88184 20.3934 6.68011L 21.8458 5.52576L 20.4842 11.7455Z"/>
<path id="path2_fill" d="M 19.6877 7.02688C 19.6763 7.01564 19.6763 7.0045 19.665 6.99326C 19.665 6.98201 15.3418 0.280341 15.3418 0.280341C 15.1489 0.000132411 14.7631 -0.0894881 14.4793 0.100995L 8.93057 3.75442C 8.6242 3.95614 8.5675 4.35959 8.79441 4.6398L 12.9248 9.73892L 6.82 9.73892L 6.82 7.30709C 6.82 6.74677 6.12779 6.48894 5.74206 6.90364L 0.18191 12.9778C 0.18191 12.9778 0.181909 12.989 0.170526 12.989C 0.159144 13.0002 0.147868 13.0226 0.136486 13.0339L 0.125102 13.0451C 0.113719 13.0563 0.102444 13.0787 0.0910613 13.09C 0.0796787 13.1012 0.0796776 13.1012 0.0796776 13.1123C 0.068295 13.1236 0.0682956 13.1347 0.0682956 13.146C 0.056913 13.1572 0.0569135 13.1683 0.0569135 13.1796C 0.0569135 13.1908 0.0455299 13.1908 0.0455299 13.2132C 0.0341472 13.2245 0.0341478 13.2356 0.0341478 13.2468C 0.0341478 13.2581 0.0227657 13.2581 0.0227657 13.2692C 0.0227657 13.2803 0.0113821 13.2916 0.0113821 13.3028C 0.0113821 13.3141 0.0113826 13.3141 1.29858e-08 13.3252C 1.29858e-08 13.3364 1.29858e-08 13.3476 1.29858e-08 13.3588C 1.29858e-08 13.3701 1.29858e-08 13.3701 1.29858e-08 13.3924C 1.29858e-08 13.4037 1.29858e-08 13.4148 1.29858e-08 13.4261C 1.29858e-08 13.4373 1.29858e-08 13.4484 1.29858e-08 13.4597C 1.29858e-08 13.4709 1.29858e-08 13.4709 1.29858e-08 13.4933C 1.29858e-08 13.5157 1.29858e-08 13.5157 1.29858e-08 13.5269C 1.29858e-08 13.5382 -5.58776e-07 13.5382 0.0113821 13.5493C 0.0113821 13.5606 0.0227657 13.5717 0.0227657 13.5829C 0.0227657 13.5942 0.0341478 13.5942 0.0341478 13.6053C 0.0341478 13.6164 0.0455299 13.6277 0.0455299 13.6389C 0.0455299 13.6502 0.0569135 13.6502 0.0569135 13.6726C 0.0682962 13.6838 0.0682956 13.6949 0.0682956 13.7062C 0.0796782 13.7174 0.0796776 13.7286 0.0796776 13.7398C 0.0910603 13.751 0.0910613 13.751 0.0910613 13.7622C 0.102444 13.7734 0.102443 13.7958 0.125102 13.807L 0.136486 13.8183C 0.147868 13.8295 0.159144 13.8519 0.170526 13.8631C 0.170526 13.8631 0.170527 13.8744 0.18191 13.8744L 5.73067 19.9597C 6.10513 20.3744 6.80862 20.1055 6.80862 19.5563L 6.80862 17.1244L 11.3475 17.1244C 12.7318 17.1244 14.0482 16.6088 15.0467 15.6674C 16.6693 14.1432 18.0877 12.0588 19.1316 9.53719C 19.1543 9.49233 19.3699 8.98802 19.4154 8.87602C 19.5175 8.65192 19.5969 8.41657 19.6536 8.18123C 19.6991 8.01312 19.7217 7.83378 19.7331 7.65454C 19.7558 7.50892 19.7558 7.40805 19.7558 7.30709C 19.7558 7.2286 19.733 7.13898 19.6877 7.02688ZM 14.1956 14.7037C 13.4353 15.4209 12.4141 15.8131 11.3475 15.8131L 6.1846 15.8131C 5.84418 15.8131 5.57185 16.0821 5.57185 16.4183L 5.57185 17.8753L 1.46421 13.3701L 5.57185 8.86488L 5.57185 10.333C 5.57185 10.6692 5.84418 10.9381 6.1846 10.9381L 16.0452 10.9381C 16.4083 10.9381 16.7715 10.8933 17.1005 10.7924C 16.2948 12.3838 15.2963 13.6727 14.1956 14.7037ZM 18.0309 8.74154C 18.0195 8.75278 18.0195 8.75278 18.0195 8.76392C 17.577 9.34671 16.8508 9.72768 16.0565 9.72768L 14.502 9.72768L 10.1787 4.39321L 14.6382 1.45696L 18.5075 7.46384C 18.4735 7.94588 18.3033 8.38295 18.0309 8.74154Z"/>
</defs>
</svg>
