<svg width="36" height="36" viewBox="0 0 36 36" version="1.1" xmlns="http://www.w3.org/2000/svg" xmlns:xlink="http://www.w3.org/1999/xlink">
<title>worldwide</title>
<desc>Created using Figma</desc>
<g id="Canvas" transform="translate(-17654 -127)">
<g id="worldwide">
<g id="Group">
<g id="Group">
<g id="Vector">
<use xlink:href="#path0_fill" transform="translate(17654 127)" fill="#197AE3"/>
</g>
</g>
</g>
<g id="Group">
<g id="Group">
<g id="Vector">
<use xlink:href="#path1_fill" transform="translate(17673.9 144.247)" fill="#197AE3"/>
</g>
</g>
</g>
<g id="Group">
<g id="Group">
<g id="Vector">
<use xlink:href="#path2_fill" transform="translate(17685.5 135.821)" fill="#197AE3"/>
</g>
</g>
</g>
<g id="Group">
<g id="Group">
<g id="Vector">
<use xlink:href="#path3_fill" transform="translate(17666.3 135.104)" fill="#197AE3"/>
</g>
</g>
</g>
<g id="Group">
<g id="Group">
<g id="Vector">
<use xlink:href="#path4_fill" transform="translate(17671.2 152.1)" fill="#197AE3"/>
</g>
</g>
</g>
</g>
</g>
<defs>
<path id="path0_fill" d="M 35.0383 12.1836C 35.5065 11.4275 35.8566 10.5754 35.8566 9.71712C 35.8566 7.72017 34.232 6.0956 32.235 6.0956C 32.0032 6.0956 31.7765 6.11838 31.5565 6.16029C 28.1322 2.24149 23.212 0 18 0C 13.192 0 8.67185 1.87228 5.27203 5.27203C 1.87228 8.67185 0 13.192 0 18C 0 22.808 1.87228 27.3281 5.27203 30.728C 8.67185 34.1277 13.192 36 18 36C 22.808 36 27.3281 34.1277 30.728 30.728C 34.1277 27.3281 36 22.808 36 18C 36 16.0073 35.6759 14.0516 35.0383 12.1836ZM 32.235 7.52991C 33.4411 7.52991 34.4223 8.51112 34.4223 9.71719C 34.4223 10.9673 33.1009 12.4893 32.2345 13.3121C 31.3679 12.4909 30.0478 10.9718 30.0478 9.71719C 30.0478 8.51105 31.029 7.52991 32.235 7.52991ZM 30.16 6.75169C 29.2259 7.40735 28.6135 8.49171 28.6135 9.71712C 28.6135 12.1641 31.4568 14.5607 31.781 14.826C 31.9131 14.934 32.074 14.988 32.235 14.988C 32.3961 14.988 32.557 14.934 32.6891 14.826C 32.8208 14.7182 33.3678 14.259 33.9712 13.5878C 34.2995 14.7786 34.493 16.0032 34.5485 17.247L 28.3888 17.247C 28.2838 12.8288 27.2572 8.69175 25.4701 5.52783C 24.6921 4.15034 23.8048 3.0195 22.8395 2.15508C 25.6196 3.00298 28.1478 4.5765 30.16 6.75169ZM 17.2829 1.63181L 17.2829 17.247L 9.04563 17.247C 9.10055 15.0304 9.39755 12.8946 9.91406 10.9363C 10.7503 12.589 12.3255 13.9155 12.5618 14.1088C 12.6939 14.2169 12.8549 14.2709 13.0159 14.2709C 13.1769 14.2709 13.3379 14.2169 13.47 14.1088C 13.7942 13.8436 16.6374 11.447 16.6374 9C 16.6374 7.00305 15.0128 5.37848 13.0159 5.37848C 12.7515 5.37848 12.4938 5.40773 12.2452 5.46187C 13.685 3.23578 15.4354 1.90603 17.2829 1.63181ZM 10.8287 9C 10.8287 7.79393 11.8099 6.81272 13.016 6.81272C 14.222 6.81272 15.2032 7.79393 15.2032 9C 15.2032 10.2501 13.8819 11.7721 13.0154 12.5949C 12.1488 11.7737 10.8287 10.2545 10.8287 9ZM 13.1588 2.15655C 12.1942 3.02084 11.3075 4.15118 10.5299 5.5279C 8.7428 8.69182 7.71616 12.8288 7.61119 17.247L 1.45209 17.247C 1.7723 10.1263 6.6086 4.16208 13.1588 2.15655ZM 1.44942 18.6813L 7.60971 18.6813C 7.70527 23.1263 8.73316 27.2911 10.5299 30.4721C 11.3075 31.8488 12.1942 32.9791 13.1588 33.8434C 6.58666 31.8312 1.74023 25.8336 1.44942 18.6813ZM 17.2829 34.3683C 15.231 34.0636 13.2985 32.4574 11.7788 29.7668C 10.1005 26.7956 9.1383 22.8811 9.04416 18.6813L 17.2828 18.6813L 17.2828 22.4397C 15.6106 22.7595 14.3426 24.2321 14.3426 25.9961C 14.3426 28.1391 16.5233 30.2435 17.2828 30.9113L 17.2828 34.3683L 17.2829 34.3683ZM 17.9636 29.5909C 17.097 28.7698 15.7769 27.2506 15.7769 25.996C 15.7769 24.7899 16.7581 23.8087 17.9642 23.8087C 19.1703 23.8087 20.1515 24.7899 20.1515 25.996C 20.1514 27.2461 18.83 28.7681 17.9636 29.5909ZM 18.7172 34.3683L 18.7172 30.8477C 19.5331 30.1179 21.5857 28.0754 21.5857 25.9961C 21.5857 24.2574 20.3539 22.8014 18.7172 22.4538L 18.7172 1.63181C 20.7691 1.93648 22.7016 3.5427 24.2213 6.23327C 25.8901 9.18759 26.851 13.0744 26.9544 17.247L 23.5936 17.247C 23.1975 17.247 22.8765 17.5681 22.8765 17.9641C 22.8765 18.3602 23.1975 18.6812 23.5936 18.6812L 26.9558 18.6812C 26.8618 22.881 25.8996 26.7955 24.2213 29.7667C 22.7015 32.4574 20.7691 34.0636 18.7172 34.3683ZM 22.8412 33.8434C 23.8058 32.9792 24.6925 31.8488 25.4701 30.4721C 27.2668 27.2911 28.2948 23.1264 28.3903 18.6813L 34.5506 18.6813C 34.2598 25.8336 29.4133 31.8312 22.8412 33.8434Z"/>
<path id="path1_fill" d="M 1.14743 2.57492e-08L 0.717118 2.57492e-08C 0.321048 2.57492e-08 3.77655e-07 0.321047 3.77655e-07 0.717118C 3.77655e-07 1.11319 0.321048 1.43423 0.717118 1.43423L 1.14743 1.43423C 1.5435 1.43423 1.86455 1.11319 1.86455 0.717118C 1.86455 0.321047 1.5435 2.57492e-08 1.14743 2.57492e-08Z"/>
<path id="path2_fill" d="M 0.717118 -2.14577e-07C 0.321048 -2.14577e-07 3.43323e-07 0.321047 3.43323e-07 0.717117L 3.43323e-07 1.00399C 3.43323e-07 1.40006 0.321048 1.72111 0.717118 1.72111C 1.11319 1.72111 1.43424 1.40006 1.43424 1.00399L 1.43424 0.717117C 1.43424 0.321047 1.11319 -2.14577e-07 0.717118 -2.14577e-07Z"/>
<path id="path3_fill" d="M 0.717117 -3.86238e-08C 0.321047 -3.86238e-08 5.23567e-07 0.321047 5.23567e-07 0.717117L 5.23567e-07 1.00399C 5.23567e-07 1.40006 0.321047 1.72111 0.717117 1.72111C 1.11319 1.72111 1.43423 1.40006 1.43423 1.00399L 1.43423 0.717117C 1.43423 0.321047 1.11319 -3.86238e-08 0.717117 -3.86238e-08Z"/>
<path id="path4_fill" d="M 0.717118 -1.0643e-06C 0.321047 -1.0643e-06 2.57492e-08 0.321046 2.57492e-08 0.717116L 2.57492e-08 1.00399C 2.57492e-08 1.40006 0.321047 1.72111 0.717118 1.72111C 1.11319 1.72111 1.43423 1.40006 1.43423 1.00399L 1.43423 0.717116C 1.43423 0.321046 1.11319 -1.0643e-06 0.717118 -1.0643e-06Z"/>
</defs>
</svg>
