<svg width="66" height="66" viewBox="0 0 66 66" version="1.1" xmlns="http://www.w3.org/2000/svg" xmlns:xlink="http://www.w3.org/1999/xlink">
<g id="Canvas" fill="none">
<g id="Group 4">
<g id="Ellipse 4">
<circle cx="33" cy="33" r="32.5" stroke="#197AE3"/>
</g>
<g id="percent">
<g id="Group">
<g id="Vector">
<path d="M 9.31087e-09 26.5263L 26.5263 9.31087e-09L 27.5682 1.04189L 1.04189 27.5682L 9.31087e-09 26.5263Z" transform="translate(19.2168 19.2159)" fill="#197AE3"/>
</g>
<g id="Vector_2">
<path d="M 4.42105 8.8421C 6.85926 8.8421 8.8421 6.85926 8.8421 4.42105C 8.8421 1.98284 6.85926 0 4.42105 0C 1.98284 0 0 1.98284 0 4.42105C 0 6.85926 1.98284 8.8421 4.42105 8.8421ZM 4.42105 1.47368C 6.04653 1.47368 7.36842 2.79558 7.36842 4.42105C 7.36842 6.04653 6.04653 7.36842 4.42105 7.36842C 2.79558 7.36842 1.47368 6.04653 1.47368 4.42105C 1.47368 2.79558 2.79558 1.47368 4.42105 1.47368Z" transform="translate(19 19)" fill="#197AE3"/>
</g>
<g id="Vector_3">
<path d="M 4.42105 0C 1.98284 0 0 1.98284 0 4.42105C 0 6.85926 1.98284 8.8421 4.42105 8.8421C 6.85926 8.8421 8.8421 6.85926 8.8421 4.42105C 8.8421 1.98284 6.85926 0 4.42105 0ZM 4.42105 7.36842C 2.79558 7.36842 1.47368 6.04653 1.47368 4.42105C 1.47368 2.79558 2.79558 1.47368 4.42105 1.47368C 6.04653 1.47368 7.36842 2.79558 7.36842 4.42105C 7.36842 6.04653 6.04653 7.36842 4.42105 7.36842Z" transform="translate(38.1582 38.1578)" fill="#197AE3"/>
</g>
</g>
</g>
</g>
</g>
</svg>

