<svg width="66" height="66" viewBox="0 0 66 66" version="1.1" xmlns="http://www.w3.org/2000/svg" xmlns:xlink="http://www.w3.org/1999/xlink">
<g id="Canvas" fill="none">
<g id="Group 8">
<g id="Ellipse 4.4">
<circle cx="33" cy="33" r="32.5" stroke="#197AE3"/>
</g>
<g id="document">
<g id="Group">
<g id="Group_2">
<g id="Vector">
<path d="M 5.0167e-08 0L 5.0167e-08 32L 24.9342 32L 25 32L 25 0L 5.0167e-08 0ZM 23.56 30.6405L 1.30195 30.6405L 1.30195 1.35948L 23.56 1.35948L 23.56 30.6405Z" transform="translate(20 17)" fill="#197AE3"/>
</g>
<g id="Vector_2">
<path d="M 9.65939 0L 0 0L 0 1.35948L 9.65939 1.35948L 9.65939 0Z" transform="translate(23.4277 24.5555)" fill="#197AE3"/>
</g>
<g id="Vector_3">
<path d="M 7.87743 0.947713L 6.91741 -4.98653e-08L 2.7354 4.08497L 0.960021 2.31373L -8.02672e-07 3.26797L 2.7354 5.98693L 7.87743 0.947713Z" transform="translate(34.1094 20.6798)" fill="#197AE3"/>
</g>
<g id="Vector_4">
<path d="M 9.65939 0L 0 0L 0 1.35948L 9.65939 1.35948L 9.65939 0Z" transform="translate(23.4277 33.34)" fill="#197AE3"/>
</g>
<g id="Vector_5">
<path d="M 7.87743 0.954248L 6.91741 3.98923e-07L 2.7354 4.15686L 0.960021 2.31373L -8.02672e-07 3.26797L 2.7354 5.99346L 7.87743 0.954248Z" transform="translate(34.1094 29.4576)" fill="#197AE3"/>
</g>
<g id="Vector_6">
<path d="M 9.65939 0L 0 0L 0 1.35948L 9.65939 1.35948L 9.65939 0Z" transform="translate(23.4277 42.1241)" fill="#197AE3"/>
</g>
<g id="Vector_7">
<path d="M 7.87743 0.954249L 6.91741 0L 2.7354 4.15686L 0.960021 2.31373L -8.02672e-07 3.26797L 2.7354 6.05883L 7.87743 0.954249Z" transform="translate(34.1094 38.2418)" fill="#197AE3"/>
</g>
</g>
</g>
</g>
</g>
</g>
</svg>

