<svg width="66" height="66" viewBox="0 0 66 66" version="1.1" xmlns="http://www.w3.org/2000/svg" xmlns:xlink="http://www.w3.org/1999/xlink">
<g id="Canvas" fill="none">
<g id="Group 6">
<g id="Ellipse 4.5">
<circle cx="33" cy="33" r="32.5" stroke="#197AE3"/>
</g>
<g id="credit-card">
<g id="Group">
<g id="Group_2">
<g id="Vector">
<path d="M 32.9946 8.27311L 29.3313 8.27311L 29.3313 3.041C 29.3313 1.3642 27.983 -6.73059e-08 26.3258 -6.73059e-08L 3.00544 -6.73059e-08C 1.34824 7.10772e-05 0 1.36427 0 3.04107L 0 16.6856C 0 18.3624 1.34824 19.7266 3.00544 19.7266L 6.66886 19.7266L 6.66886 24.959C 6.66886 26.6358 8.0171 28 9.6743 28L 32.9946 28C 34.6518 28 36 26.6358 36 24.959L 36 11.3141C 36 9.63731 34.6518 8.27311 32.9946 8.27311ZM 1.71738 3.04107C 1.71738 2.32244 2.29521 1.73778 3.00544 1.73778L 26.3258 1.73778C 27.0361 1.73778 27.6139 2.32244 27.6139 3.04107L 27.6139 4.25416L 1.71738 4.25416L 1.71738 3.04107ZM 6.66886 11.3141L 6.66886 17.9888L 3.00544 17.9888C 2.29521 17.9888 1.71738 17.4042 1.71738 16.6855L 1.71738 10.0162L 6.95707 10.0162C 6.7725 10.4101 6.66886 10.8501 6.66886 11.3141ZM 1.71738 8.27852L 1.71738 5.99193L 27.6139 5.99193L 27.6139 8.27311L 9.6743 8.27311C 9.61622 8.27311 9.5587 8.27518 9.50147 8.27852L 1.71738 8.27852ZM 32.9946 26.2623L 9.6743 26.2623C 8.96407 26.2623 8.38624 25.6776 8.38624 24.959L 8.38624 11.3141C 8.38624 10.6313 8.9081 10.0706 9.56918 10.0162L 28.4723 10.0162C 28.5041 10.0162 28.5352 10.0142 28.5659 10.0108L 32.9945 10.0108C 33.7047 10.0108 34.2825 10.5955 34.2825 11.3141L 34.2825 24.959L 34.2826 24.959C 34.2826 25.6776 33.7048 26.2623 32.9946 26.2623Z" transform="translate(15 19)" fill="#197AE3"/>
</g>
</g>
</g>
<g id="Group_3">
<g id="Group_4">
<g id="Vector_2">
<path d="M 9.31296 0.000498238C 8.33618 0.000498238 7.43801 0.345337 6.72933 0.919971C 6.00279 0.327764 5.09745 -4.34232e-08 4.13979 -4.34232e-08C 1.85709 -4.34232e-08 -3.86238e-07 1.87907 -3.86238e-07 4.18878C -3.86238e-07 6.49848 1.85709 8.37755 4.13979 8.37755C 5.09752 8.37755 6.00279 8.04979 6.72933 7.45773C 7.43801 8.03236 8.33618 8.37727 9.31296 8.37727C 11.5954 8.37727 13.4523 6.49834 13.4523 4.18885C 13.4523 1.87935 11.5954 0.000498238 9.31296 0.000498238ZM 5.63857 6.11388C 5.21606 6.45238 4.6928 6.63978 4.13972 6.63978C 2.80399 6.63985 1.71731 5.54031 1.71731 4.18885C 1.71731 2.83732 2.80399 1.73778 4.13972 1.73778C 4.6928 1.73778 5.21599 1.92524 5.63857 2.26368C 5.34213 2.84052 5.17359 3.4949 5.17359 4.18871C 5.17359 4.88258 5.3422 5.53697 5.63857 6.11388ZM 9.31296 6.63949C 7.97752 6.63949 6.89105 5.5401 6.89105 4.18878C 6.89105 2.83753 7.97759 1.7382 9.31296 1.7382C 10.6484 1.7382 11.7349 2.8376 11.7349 4.18878C 11.7349 5.54017 10.6484 6.63949 9.31296 6.63949Z" transform="translate(29.6074 32.9478)" fill="#197AE3"/>
</g>
</g>
</g>
</g>
</g>
</g>
</svg>

