<svg width="66" height="66" viewBox="0 0 66 66" version="1.1" xmlns="http://www.w3.org/2000/svg" xmlns:xlink="http://www.w3.org/1999/xlink">
<g id="Canvas" fill="none">
<g id="Group 7">
<g id="&#208;&#179;&#208;&#176;&#208;&#183;&#208;&#190;&#208;&#178;&#208;&#190;&#208;&#183;">
<g id="Vector">
<path d="M 5.80187 0L 21.339 0C 24.5432 0 27.1408 2.62437 27.1408 5.86169L 27.1408 7.05686C 27.1408 10.2942 24.5432 12.9185 21.339 12.9185L 5.80187 12.9185C 2.59758 12.9185 0 10.2942 0 7.05686L 0 5.86169C 0 2.62437 2.59758 0 5.80187 0Z" stroke-miterlimit="10" transform="translate(13 23.5836)" stroke="#197AE3"/>
</g>
<g id="Vector_2">
<path d="M 4.70221 1.07175e-06L 0.412475 1.07175e-06C 0.30308 1.07175e-06 0.198166 0.0439058 0.120812 0.122057C 0.0434582 0.200209 3.02105e-07 0.306205 3.02105e-07 0.416728L 3.02105e-07 4.87321C 3.02105e-07 4.98373 0.0434582 5.08973 0.120812 5.16788C 0.198166 5.24603 0.30308 5.28994 0.412475 5.28994L 7.89393 5.28994C 7.9576 5.28994 8.01866 5.26438 8.06368 5.2189C 8.1087 5.17342 8.134 5.11173 8.134 5.0474L 8.134 5.0474C 8.13406 5.00037 8.12059 4.95432 8.09522 4.91488L 5.04869 0.189196C 5.01113 0.130973 4.95976 0.0831631 4.89924 0.0501195C 4.83873 0.0170759 4.77099 -0.000152739 4.70221 1.07175e-06L 4.70221 1.07175e-06Z" stroke-miterlimit="10" transform="translate(43.7227 25.6973)" stroke="#197AE3"/>
</g>
<g id="Vector_3">
<path d="M 8.01355 1.58356C 7.99241 1.1568 7.80985 0.754528 7.50358 0.459836C 7.19731 0.165144 6.79072 0.000533812 6.36778 0L 1.64577 0C 1.22283 0.000533812 0.816242 0.165144 0.509973 0.459836C 0.203705 0.754528 0.0211462 1.1568 -6.04211e-07 1.58356L 8.01355 1.58356Z" stroke-miterlimit="10" transform="translate(22.5625 22)" stroke="#197AE3"/>
</g>
<g id="Vector_4">
<path d="M 0 0L 0 3.32715" stroke-miterlimit="10" transform="translate(14.8984 35.0645)" stroke="#197AE3"/>
</g>
<g id="Vector_5">
<path d="M 0 2.07363L 0 3.0522e-07" stroke-miterlimit="10" transform="translate(17.2676 36.2654)" stroke="#197AE3"/>
</g>
<g id="Vector_6">
<path d="M 1.34277e-05 3.0522e-07L 1.34277e-05 2.07363" stroke-miterlimit="10" transform="translate(36.3184 36.2654)" stroke="#197AE3"/>
</g>
<g id="Vector_7">
<path d="M -1.34277e-05 0L -1.34277e-05 3.60136" stroke-miterlimit="10" transform="translate(38.6406 34.5852)" stroke="#197AE3"/>
</g>
<g id="Vector_8">
<path d="M 3.15295 1.59273C 3.15295 2.47237 2.44714 3.18546 1.57648 3.18546C 0.705813 3.18546 1.76228e-07 2.47237 1.76228e-07 1.59273C 1.76228e-07 0.71309 0.705813 -6.1044e-07 1.57648 -6.1044e-07C 2.44714 -6.1044e-07 3.15295 0.71309 3.15295 1.59273Z" stroke-miterlimit="10" transform="translate(19.8281 39.4967)" stroke="#197AE3"/>
</g>
<g id="Vector_9">
<path d="M 7.74132 3.91057C 7.74132 6.07032 6.00837 7.82114 3.87066 7.82114C 1.73295 7.82114 6.29386e-08 6.07032 6.29386e-08 3.91057C 6.29386e-08 1.75082 1.73295 -4.0696e-07 3.87066 -4.0696e-07C 6.00837 -4.0696e-07 7.74132 1.75082 7.74132 3.91057Z" stroke-miterlimit="10" transform="translate(17.5332 37.179)" stroke="#197AE3"/>
</g>
<g id="Vector_10">
<path d="M 7.74132 3.91057C 7.74132 6.07032 6.00837 7.82114 3.87066 7.82114C 1.73295 7.82114 0 6.07032 0 3.91057C 0 1.75082 1.73295 -4.0696e-07 3.87066 -4.0696e-07C 6.00837 -4.0696e-07 7.74132 1.75082 7.74132 3.91057Z" stroke-miterlimit="10" transform="translate(42.6367 37.179)" stroke="#197AE3"/>
</g>
<g id="Vector_11">
<path d="M 12.3074 6.44927L 8.27176 0.189194C 8.23428 0.131089 8.18304 0.0833548 8.12268 0.0503175C 8.06232 0.0172802 7.99476 -1.48885e-05 7.92611 9.61682e-09L 0.412474 9.61682e-09C 0.303079 9.61682e-09 0.198166 0.0439048 0.120812 0.122056C 0.0434579 0.200208 0 0.306204 0 0.416727L 0 14.3913C 0 14.5018 0.0434579 14.6078 0.120812 14.6859C 0.198166 14.7641 0.303079 14.808 0.412474 14.808L 2.08135 14.808C 2.44254 14.4249 2.87699 14.1199 3.35835 13.9115C 3.83971 13.7031 4.35794 13.5956 4.88163 13.5956C 5.40533 13.5956 5.92356 13.7031 6.40492 13.9115C 6.88628 14.1199 7.32073 14.4249 7.68192 14.808L 12.3742 14.808L 12.3742 6.67681C 12.3743 6.59602 12.351 6.51697 12.3074 6.44927L 12.3074 6.44927Z" stroke-miterlimit="10" transform="translate(41.625 23.5836)" stroke="#197AE3"/>
</g>
<g id="Vector_12">
<path d="M 5.10891 1.11914e-06L 0.659959 1.11914e-06C 0.484927 1.11914e-06 0.317063 0.0702487 0.193297 0.195291C 0.0695307 0.320334 0 0.489928 0 0.666765L 0 1.70858C 0 1.88542 0.0695307 2.05501 0.193297 2.18005C 0.317063 2.3051 0.484927 2.37535 0.659959 2.37535L 4.05215 2.37535C 4.12425 1.48453 4.49737 0.645857 5.10891 1.11914e-06L 5.10891 1.11914e-06Z" stroke-miterlimit="10" transform="translate(13.4941 38.3916)" stroke="#197AE3"/>
</g>
<g id="Vector_13">
<path d="M 3.15295 1.59273C 3.15295 2.47237 2.44714 3.18546 1.57648 3.18546C 0.705814 3.18546 -2.01404e-07 2.47237 -2.01404e-07 1.59273C -2.01404e-07 0.71309 0.705814 -6.1044e-07 1.57648 -6.1044e-07C 2.44714 -6.1044e-07 3.15295 0.71309 3.15295 1.59273Z" stroke-miterlimit="10" transform="translate(44.9297 39.4967)" stroke="#197AE3"/>
</g>
<g id="Vector_14">
<path d="M 4.69231 1.11914e-06L -4.02807e-07 1.11914e-06C 0.611237 0.645977 0.984053 1.48464 1.05593 2.37535L 4.03235 2.37535C 4.20738 2.37535 4.37525 2.3051 4.49901 2.18005C 4.62278 2.05501 4.69231 1.88542 4.69231 1.70858L 4.69231 1.11914e-06Z" stroke-miterlimit="10" transform="translate(49.3066 38.3916)" stroke="#197AE3"/>
</g>
<g id="Vector_15">
<path d="M 19.5026 1.11914e-06L 6.04211e-07 1.11914e-06C 0.611238 0.645977 0.984054 1.48464 1.05593 2.37535L 18.4459 2.37535C 18.518 1.48453 18.8911 0.645857 19.5026 1.11914e-06Z" stroke-miterlimit="10" transform="translate(24.2051 38.3916)" stroke="#197AE3"/>
</g>
<g id="Vector_16">
<path d="M 0 12.8244L 0 4.45113e-08" stroke-miterlimit="10" transform="translate(18.5879 23.7244)" stroke="#197AE3"/>
</g>
<g id="Vector_17">
<path d="M 0 12.8244L 0 4.45113e-08" stroke-miterlimit="10" transform="translate(35.0059 23.7244)" stroke="#197AE3"/>
</g>
<g id="Vector_18">
<path d="M 0.819999 0.368984C 0.819999 0.1652 0.636436 0 0.41 0C 0.183563 0 0 0.1652 0 0.368984L 0 0.885562C 0 1.08935 0.183563 1.25455 0.41 1.25455C 0.636436 1.25455 0.819999 1.08935 0.819999 0.885562L 0.819999 0.368984Z" transform="translate(43.5371 32.6375)" fill="#1C98F4"/>
</g>
</g>
<g id="Ellipse 4.3">
<circle cx="33" cy="33" r="32.5" stroke="#197AE3"/>
</g>
</g>
</g>
</svg>

