<svg width="66" height="66" viewBox="0 0 66 66" version="1.1" xmlns="http://www.w3.org/2000/svg" xmlns:xlink="http://www.w3.org/1999/xlink">
<g id="Canvas" fill="none">
<g id="Group 9">
<g id="Ellipse 4.5">
<circle cx="33" cy="33" r="32.5" stroke="#197AE3"/>
</g>
<g id="valve">
<g id="Group">
<g id="Group_2">
<g id="Group_3">
<g id="Vector">
<path d="M 0.181604 0.183085C -0.0610446 0.42663 -0.0604424 0.820879 0.182862 1.06382C 0.304214 1.18458 0.463463 1.24567 0.622166 1.24567C 0.782073 1.24567 0.941377 1.18464 1.06267 1.06256C 1.30532 0.818416 1.30472 0.424166 1.06142 0.181332C 0.817511 -0.0610635 0.423651 -0.0604059 0.181604 0.183085Z" transform="translate(35.4629 28.9268)" fill="#197AE3"/>
</g>
<g id="Vector_2">
<path d="M 0.182479 0.182728C -0.0608262 0.425561 -0.0608262 0.820522 0.182479 1.06341C 0.30383 1.18488 0.46308 1.24597 0.622385 1.24597C 0.78169 1.24597 0.940939 1.18494 1.06229 1.06341C 1.3056 0.819865 1.3056 0.425616 1.06229 0.18218C 0.819041 -0.0608177 0.425182 -0.060818 0.182479 0.182728Z" transform="translate(29.3008 28.9333)" fill="#197AE3"/>
</g>
<g id="Vector_3">
<path d="M 0.622836 1.24565C 0.96693 1.24504 1.24507 0.965972 1.24441 0.622195C 1.24381 0.278308 0.965016 -0.000655807 0.621578 1.09261e-06C 0.278086 0.000603251 3.20435e-07 0.279676 3.20435e-07 0.623454C 0.00065657 0.967231 0.279398 1.2463 0.622836 1.24565Z" transform="translate(32.373 21.4913)" fill="#197AE3"/>
</g>
<g id="Vector_4">
<path d="M 0.627211 1.2457C 0.629071 1.2457 0.630328 1.2457 0.632188 1.2457C 0.632789 1.2457 0.632788 1.2457 0.633445 1.2457C 0.976937 1.2451 1.25502 0.965424 1.25442 0.621537C 1.25316 0.277814 0.974422 -0.000600929 0.630329 1.22885e-06C 0.625954 1.22885e-06 0.621633 1.22885e-06 0.617258 1.22885e-06C 0.276281 0.00251934 -3.2711e-07 0.280278 -3.2711e-07 0.622851C -3.2711e-07 0.966683 0.278742 1.2457 0.622234 1.2457C 0.624094 1.2457 0.625352 1.2457 0.627211 1.2457Z" transform="translate(32.377 30.2111)" fill="#197AE3"/>
</g>
<g id="Vector_5">
<path d="M 0.621817 1.24528C 0.781724 1.24528 0.941029 1.18485 1.06233 1.06277C 1.30497 0.819229 1.30497 0.42498 1.06172 0.182091C 0.818419 -0.0607973 0.42456 -0.0607972 0.181912 0.182694C -0.0607369 0.426184 -0.0607376 0.820488 0.182512 1.06338C 0.303864 1.18485 0.463169 1.24528 0.621817 1.24528Z" transform="translate(29.2969 22.7723)" fill="#197AE3"/>
</g>
<g id="Vector_6">
<path d="M 0.623493 1.2457C 0.966985 1.2451 1.24507 0.966027 1.24447 0.621538C 1.24387 0.277705 0.965071 -0.00060125 0.620978 9.0848e-07C 0.277485 0.000603067 -0.000601069 0.279676 4.93496e-07 0.62411C 0.000656744 0.967943 0.279399 1.24636 0.623493 1.2457Z" transform="translate(36.7324 25.8436)" fill="#197AE3"/>
</g>
<g id="Vector_7">
<path d="M 0.621578 -1.40329e-07C 0.278086 -1.40329e-07 -1.73569e-07 0.278964 -1.73569e-07 0.622851C -1.73569e-07 0.96723 0.278742 1.2457 0.622836 1.2457C 0.966328 1.2457 1.24441 0.966683 1.24441 0.622248C 1.24441 0.278307 0.965672 -1.40329e-07 0.621578 -1.40329e-07Z" transform="translate(28.0215 25.8538)" fill="#197AE3"/>
</g>
<g id="Vector_8">
<path d="M 27.3778 17.9689L 19.5355 17.9689C 19.3065 17.0747 18.4947 16.4118 17.5311 16.4118L 17.4222 16.4118L 17.4222 14.1155C 19.8225 12.8712 21.4667 10.3613 21.4667 7.47404C 21.4666 3.35282 18.1171 4.5941e-09 14 4.5941e-09C 9.88291 4.5941e-09 6.53335 3.35282 6.53335 7.47404C 6.53335 10.3613 8.17759 12.8712 10.5778 14.1155L 10.5778 16.4118L 10.4689 16.4118C 9.50529 16.4118 8.69351 17.0748 8.46459 17.9689L 0.622234 17.9689C 0.278578 17.9689 0 18.2478 0 18.5917L 0 24.8201C 0 25.164 0.278578 25.4429 0.622234 25.4429L 8.46453 25.4429C 8.69345 26.3371 9.50523 27 10.4689 27L 17.5311 27C 18.4948 27 19.3065 26.337 19.5355 25.4429L 27.3778 25.4429C 27.7214 25.4429 28 25.164 28 24.8201L 28 18.5917C 28 18.2478 27.7214 17.9689 27.3778 17.9689ZM 8.4 24.1972L 1.24447 24.1972L 1.24447 19.2145L 8.4 19.2145L 8.4 24.1972ZM 7.77777 7.47404C 7.77777 4.03966 10.5691 1.24565 14 1.24565C 17.4309 1.24565 20.2222 4.03966 20.2222 7.47404C 20.2222 10.9084 17.4309 13.7024 14 13.7024C 10.5691 13.7024 7.77777 10.9084 7.77777 7.47404ZM 16.1778 14.6235L 16.1778 16.4118L 11.8222 16.4118L 11.8222 14.6235C 12.5115 14.8343 13.2427 14.9481 14 14.9481C 14.7573 14.9481 15.4885 14.8343 16.1778 14.6235ZM 18.3555 18.5917L 18.3555 23.481L 16.1778 23.481C 15.8341 23.481 15.5555 23.7599 15.5555 24.1038C 15.5555 24.4478 15.8341 24.7267 16.1778 24.7267L 18.3555 24.7267L 18.3555 24.8201L 18.3555 24.9291C 18.3555 25.3842 17.9857 25.7544 17.5311 25.7544L 10.4689 25.7544C 10.0143 25.7544 9.64441 25.3842 9.64441 24.9291L 9.64441 24.8201L 9.64441 20.6783L 11.2 20.6783C 11.5437 20.6783 11.8222 20.3994 11.8222 20.0554C 11.8222 19.7115 11.5437 19.4326 11.2 19.4326L 9.64447 19.4326L 9.64447 18.5917L 9.64447 18.4827C 9.64447 18.0277 10.0143 17.6575 10.4689 17.6575L 11.2 17.6575L 16.8 17.6575L 17.5311 17.6575C 17.9857 17.6575 18.3556 18.0277 18.3556 18.4827L 18.3556 18.5917L 18.3555 18.5917ZM 26.7555 24.1972L 19.6 24.1972L 19.6 19.2145L 26.7555 19.2145L 26.7555 24.1972Z" transform="translate(19 19)" fill="#197AE3"/>
</g>
<g id="Vector_9">
<path d="M 0.182239 4.14919C 0.303755 4.27077 0.463005 4.33165 0.6222 4.33165C 0.781395 4.33165 0.940701 4.27077 1.06216 4.14919L 4.12832 1.07999C 4.17743 1.03083 4.21604 0.975381 4.24536 0.916369C 4.37125 0.680378 4.33477 0.380284 4.13582 0.181736C 4.13522 0.181736 4.13522 0.181736 4.13522 0.181736C 3.89257 -0.0611523 3.49805 -0.0606046 3.2554 0.183543C 3.23566 0.203305 3.21811 0.22438 3.20159 0.246003L 0.182184 3.26834C -0.0607376 3.51156 -0.0607372 3.90592 0.182239 4.14919Z" transform="translate(32.3789 22.7653)" fill="#197AE3"/>
</g>
<g id="Vector_10">
<path d="M 1.65927 -7.7515e-07L 0.622234 -7.7515e-07C 0.278578 -7.7515e-07 3.00407e-07 0.278909 3.00407e-07 0.622851C 3.00407e-07 0.966792 0.278578 1.2457 0.622234 1.2457L 1.65927 1.2457C 2.00293 1.2457 2.28151 0.966792 2.28151 0.622851C 2.28145 0.278909 2.00293 -7.7515e-07 1.65927 -7.7515e-07Z" transform="translate(32.1855 38.4325)" fill="#197AE3"/>
</g>
</g>
</g>
</g>
</g>
</g>
</g>
</svg>

