<svg width="55" height="41" viewBox="0 0 55 41" version="1.1" xmlns="http://www.w3.org/2000/svg" xmlns:xlink="http://www.w3.org/1999/xlink">
<title>battery</title>
<desc>Created using Figma</desc>
<g id="Canvas" transform="translate(-19536 -1330)">
<g id="battery">
<g id="Group">
<g id="Group">
<g id="Group">
<g id="Vector">
<use xlink:href="#path0_fill" transform="translate(19536 1330)" fill="#197AE3"/>
</g>
<g id="Vector">
<use xlink:href="#path1_fill" transform="translate(19571.5 1348.22)" fill="#197AE3"/>
</g>
<g id="Vector">
<use xlink:href="#path2_fill" transform="translate(19544 1352.78)" fill="#197AE3"/>
</g>
</g>
</g>
</g>
</g>
</g>
<defs>
<path id="path0_fill" d="M 53.854 6.83333L 50.4165 6.83333L 50.4165 2.27774C 50.4165 1.01977 49.3905 0 48.1249 0L 41.2499 0C 39.9843 0 38.9583 1.01977 38.9583 2.27774L 38.9583 6.83333L 35.5208 6.83333C 33.9361 6.83333 33.2842 8.15558 33.2292 9.11107L 33.2292 10.25L 21.7708 10.25L 21.7708 9.11107C 21.7708 7.4289 21.1715 6.83333 19.4792 6.83333L 16.0417 6.83333L 16.0417 2.27774C 16.0416 1.01977 15.0156 0 13.75 0L 6.87499 0C 5.60934 0 4.58336 1.01977 4.58336 2.27774L 4.58336 6.83333L 1.14587 6.83333C 0.513046 6.83333 0 7.34327 0 7.97226L 0 13.6667C 0 14.2957 0.513046 14.8056 1.14587 14.8056L 2.29173 14.8056L 2.29173 37.5833C 2.29173 39.2758 4.02649 41 5.72923 41L 49.2708 41C 50.9735 41 52.7083 39.2758 52.7083 37.5833L 52.7083 14.8056L 53.8541 14.8056C 54.487 14.8056 55 14.2957 55 13.6667L 55 7.97226C 54.9999 7.34327 54.4869 6.83333 53.854 6.83333ZM 41.2499 2.27774L 48.1249 2.27774L 48.1249 6.83333L 41.2499 6.83333L 41.2499 2.27774ZM 6.87499 2.27774L 13.75 2.27774L 13.75 6.83333L 6.87499 6.83333L 6.87499 2.27774ZM 52.7083 12.5277L 51.5624 12.5277C 50.9296 12.5277 50.4165 13.0377 50.4165 13.6667L 50.4165 37.5833C 50.4165 38.0195 49.7096 38.7223 49.2707 38.7223L 5.72912 38.7223C 5.2903 38.7223 4.58325 38.0196 4.58325 37.5833L 4.58325 13.6667C 4.58325 13.0377 4.07021 12.5277 3.43739 12.5277L 2.29163 12.5277L 2.29163 9.11107L 19.4791 9.11107L 19.4791 11.3888C 19.4791 12.0178 19.9921 12.5277 20.625 12.5277L 34.3749 12.5277C 35.0078 12.5277 35.5208 12.0178 35.5208 11.3888L 35.5208 9.17824C 35.5274 9.15635 35.5312 9.13382 35.5323 9.11107L 52.7083 9.11107L 52.7083 12.5277Z"/>
<path id="path1_fill" d="M 1.14587 6.83344L 4.58336 6.83344L 4.58336 10.2501C 4.58336 10.8791 5.09641 11.389 5.72923 11.389C 6.36205 11.389 6.87509 10.8791 6.87509 10.2501L 6.87509 6.83344L 10.3126 6.83344C 10.9454 6.83344 11.4585 6.3235 11.4585 5.69452C 11.4585 5.06553 10.9454 4.55559 10.3126 4.55559L 6.87509 4.55559L 6.87509 1.13892C 6.87509 0.509937 6.36205 3.91006e-08 5.72923 3.91006e-08C 5.09641 3.91006e-08 4.58336 0.509937 4.58336 1.13892L 4.58336 4.55559L 1.14587 4.55559C 0.513047 4.55559 -1.59979e-06 5.06553 -1.59979e-06 5.69452C -1.59979e-06 6.3235 0.513047 6.83344 1.14587 6.83344Z"/>
<path id="path2_fill" d="M 10.3126 8.34147e-07L 1.14587 8.34147e-07C 0.513046 8.34147e-07 3.9339e-08 0.509938 3.9339e-08 1.13892C 3.9339e-08 1.76791 0.513046 2.27785 1.14587 2.27785L 10.3125 2.27785C 10.9453 2.27785 11.4583 1.76791 11.4583 1.13892C 11.4583 0.509938 10.9454 8.34147e-07 10.3126 8.34147e-07Z"/>
</defs>
</svg>
