<svg width="51" height="51" viewBox="0 0 51 51" version="1.1" xmlns="http://www.w3.org/2000/svg" xmlns:xlink="http://www.w3.org/1999/xlink">
<title>eco</title>
<desc>Created using Figma</desc>
<g id="Canvas" transform="translate(-19224 -1239)">
<g id="eco">
<g id="Group">
<g id="Group">
<g id="Vector">
<use xlink:href="#path0_fill" transform="translate(19244.7 1259.66)" fill="#197AE3"/>
</g>
</g>
</g>
<g id="Group">
<g id="Group">
<g id="Vector">
<use xlink:href="#path1_fill" transform="translate(19224 1259.66)" fill="#197AE3"/>
</g>
</g>
</g>
<g id="Group">
<g id="Group">
<g id="Vector">
<use xlink:href="#path2_fill" transform="translate(19235.8 1280.89)" fill="#197AE3"/>
</g>
</g>
</g>
<g id="Group">
<g id="Group">
<g id="Vector">
<use xlink:href="#path3_fill" transform="translate(19233.3 1278.73)" fill="#197AE3"/>
</g>
</g>
</g>
<g id="Group">
<g id="Group">
<g id="Vector">
<use xlink:href="#path4_fill" transform="translate(19229.4 1239)" fill="#197AE3"/>
</g>
</g>
</g>
<g id="Group">
<g id="Group">
<g id="Vector">
<use xlink:href="#path5_fill" transform="translate(19254.9 1239)" fill="#197AE3"/>
</g>
</g>
</g>
<g id="Group">
<g id="Group">
<g id="Vector">
<use xlink:href="#path6_fill" transform="translate(19240 1239)" fill="#197AE3"/>
</g>
</g>
</g>
<g id="Group">
<g id="Group">
<g id="Vector">
<use xlink:href="#path7_fill" transform="translate(19248.5 1255.97)" fill="#197AE3"/>
</g>
</g>
</g>
<g id="Group">
<g id="Group">
<g id="Vector">
<use xlink:href="#path8_fill" transform="translate(19251.6 1258.42)" fill="#197AE3"/>
</g>
</g>
</g>
<g id="Group">
<g id="Group">
<g id="Vector">
<use xlink:href="#path9_fill" transform="translate(19243.4 1258.39)" fill="#197AE3"/>
</g>
</g>
</g>
</g>
</g>
<defs>
<path id="path0_fill" d="M 29.6215 1.49256L 29.6137 1.46537C 29.5338 1.13487 29.2887 0.863529 28.9591 0.754258C 28.8367 0.713618 25.9141 -0.236852 21.7411 0.0558987C 17.8996 0.325242 12.221 1.74527 6.98319 6.98122C 1.74546 12.2173 0.325049 17.8938 0.0558136 21.7338C -0.236738 25.9055 0.714056 28.8268 0.75471 28.9491C 0.853755 29.2475 1.08802 29.4816 1.38645 29.5806C 1.49257 29.6159 3.70344 30.3351 7.0097 30.3351C 7.51658 30.3351 8.04947 30.3181 8.60419 30.2793C 12.4455 30.01 18.124 28.5901 23.3618 23.3543C 32.6294 14.0896 30.2022 3.51771 29.6215 1.49256ZM 19.3884 2.36912C 20.1761 2.21712 20.9783 2.10994 21.7951 2.04928C 23.8135 1.89946 25.5233 2.07438 26.6876 2.2726C 26.6379 2.30676 26.5902 2.34522 26.5461 2.38934L 19.3884 9.54456L 19.3884 2.36912ZM 17.3956 2.86099L 17.3956 11.5367L 10.7166 18.2134L 10.7166 6.43955C 10.7166 6.40697 10.7148 6.3749 10.7117 6.34313C 12.7786 4.7435 15.012 3.58037 17.3956 2.86099ZM 2.04369 21.8731C 2.40081 16.7805 4.53676 12.2441 8.39234 8.38989C 8.50225 8.28012 8.61275 8.17205 8.72376 8.06497L 8.72376 20.1613C 8.72376 20.1755 8.72525 20.1893 8.72585 20.2033L 2.26759 26.6594C 2.07378 25.5168 1.90499 23.8518 2.04369 21.8731ZM 8.55008 28.2858C 6.54417 28.4346 4.84286 28.2627 3.67893 28.0659L 6.79158 24.9543C 6.79497 24.9543 6.79816 24.9548 6.80154 24.9548L 18.2898 24.9548C 15.3396 26.906 12.0791 28.0238 8.55008 28.2858ZM 21.9527 21.9454C 21.5989 22.299 21.2392 22.638 20.874 22.9627L 8.78394 22.9627L 14.5672 17.1814L 25.6398 17.1814C 24.7239 18.7702 23.5216 20.3769 21.9527 21.9454ZM 26.6504 15.1892L 16.56 15.1892L 27.9552 3.79791C 27.9977 3.75538 28.0347 3.70956 28.0679 3.66195C 28.4812 6.06522 28.7422 10.4342 26.6504 15.1892Z"/>
<path id="path1_fill" d="M 23.3573 6.98116C 18.1195 1.74521 12.441 0.325177 8.59943 0.0558344C 4.42668 -0.236717 1.50385 0.713653 1.38149 0.754194C 1.05187 0.863565 0.806746 1.1349 0.726832 1.4654L 0.71906 1.4926C 0.138341 3.51785 -2.28886 14.0898 6.97883 23.3543C 9.9191 26.2936 13.2867 28.3366 16.988 29.4266C 17.0819 29.4543 17.1768 29.4674 17.2701 29.4674C 17.7005 29.4674 18.0976 29.1863 18.2254 28.7526C 18.381 28.2249 18.0791 27.6711 17.5513 27.5157C 14.1732 26.5208 11.0902 24.6467 8.38808 21.9456C 6.03282 19.5912 4.50161 17.1504 3.52959 14.8137L 13.4048 14.8137L 18.2142 19.6214C 18.4088 19.816 18.6638 19.9132 18.9188 19.9132C 19.1737 19.9132 19.4288 19.816 19.6233 19.6214C 20.0124 19.2325 20.0124 18.6017 19.6233 18.2127L 18.5248 17.1147L 18.5248 5.53981C 19.7183 6.35222 20.8604 7.30269 21.9481 8.38993C 22.3372 8.7789 22.9681 8.7789 23.3573 8.38993C 23.7466 8.00095 23.7465 7.37023 23.3573 6.98116ZM 8.46002 2.04323C 8.89636 2.07381 9.32841 2.11844 9.75648 2.17512L 9.75648 8.34939L 3.73745 2.3324C 3.71453 2.30949 3.69051 2.28807 3.666 2.26785C 4.8093 2.07372 6.47743 1.90408 8.46002 2.04323ZM 2.82203 12.8216L 2.82203 12.8215C 1.69437 9.02424 1.92803 5.67588 2.2701 3.67682C 2.28854 3.69874 2.30757 3.72045 2.32819 3.74117L 11.4117 12.8217L 2.82203 12.8217L 2.82203 12.8216ZM 16.532 15.1226L 11.7492 10.3415L 11.7492 2.53889C 13.4143 2.93045 15.0102 3.5307 16.532 4.33703L 16.532 15.1226Z"/>
<path id="path2_fill" d="M 7.01735 2.89294C 5.09185 2.32587 3.2638 1.41693 1.58392 0.191544C 1.13931 -0.132783 0.516048 -0.0353644 0.191611 0.408992C -0.132827 0.853348 -0.0353763 1.4765 0.409131 1.80083C 2.27445 3.16169 4.30826 4.17202 6.45407 4.80394C 6.54804 4.83164 6.6429 4.84478 6.73616 4.84478C 7.16662 4.84478 7.5637 4.56368 7.69154 4.12999C 7.84708 3.60216 7.54526 3.04833 7.01735 2.89294Z"/>
<path id="path3_fill" d="M 1.70188 0.294208L 1.69839 0.290722C 1.30929 -0.0980525 0.68024 -0.0963586 0.290935 0.292515C -0.0981713 0.681489 -0.096378 1.31401 0.292728 1.70298C 0.487331 1.89752 0.742317 1.99474 0.997303 1.99474C 1.25229 1.99474 1.50738 1.89752 1.70188 1.70298C 2.09098 1.31401 2.09098 0.683282 1.70188 0.294208Z"/>
<path id="path4_fill" d="M 7.38813 12.6502L 1.99276 12.6502L 1.99276 8.31726L 5.70944 8.31726C 6.25977 8.31726 6.70587 7.87131 6.70587 7.32117C 6.70587 6.77103 6.25977 6.32508 5.70944 6.32508L 1.99276 6.32508L 1.99276 1.99218L 7.38803 1.99218C 7.93836 1.99218 8.38446 1.54623 8.38446 0.996091C 8.38446 0.44595 7.93836 -4.73106e-12 7.38803 -4.73106e-12L 0.99643 -4.73106e-12C 0.446101 -4.73106e-12 5.16947e-08 0.44595 5.16947e-08 0.996091L 5.16947e-08 13.6461C 5.16947e-08 14.1963 0.446101 14.6422 0.99643 14.6422L 7.38813 14.6422C 7.93846 14.6422 8.38456 14.1963 8.38456 13.6461C 8.38456 13.096 7.93846 12.6502 7.38813 12.6502Z"/>
<path id="path5_fill" d="M 7.32356 0C 3.28533 0 -7.0548e-07 3.28421 -7.0548e-07 7.32107C -7.0548e-07 11.3579 3.28533 14.6421 7.32356 14.6421C 11.3618 14.6421 14.6471 11.3579 14.6471 7.32107C 14.6471 3.28421 11.3618 0 7.32356 0ZM 7.32356 12.6501C 4.38419 12.6501 1.99276 10.2595 1.99276 7.32107C 1.99276 4.3826 4.38409 1.99208 7.32356 1.99208C 10.263 1.99208 12.6544 4.3826 12.6544 7.32107C 12.6544 10.2595 10.2629 12.6501 7.32356 12.6501Z"/>
<path id="path6_fill" d="M 11.0894 11.0858C 9.01109 13.1635 5.62901 13.1635 3.55065 11.0858C 1.4722 9.00815 1.4722 5.62732 3.55065 3.54957C 5.62901 1.47182 9.01099 1.47182 11.0894 3.54957C 11.4785 3.93854 12.1095 3.93854 12.4987 3.54957C 12.8878 3.1606 12.8878 2.52987 12.4987 2.1408C 9.64323 -0.7136 4.99707 -0.7136 2.1416 2.1408C -0.713868 4.9953 -0.713868 9.63997 2.1416 12.4944C 3.56929 13.9217 5.44467 14.6353 7.32015 14.6353C 9.19563 14.6353 11.071 13.9216 12.4988 12.4945C 12.8879 12.1055 12.8879 11.4748 12.4988 11.0857C 12.1096 10.6968 11.4786 10.6968 11.0894 11.0858Z"/>
<path id="path7_fill" d="M 0.996429 1.7023e-07C 0.446101 1.7023e-07 -6.81153e-07 0.44595 -6.81153e-07 0.996091L -6.81153e-07 3.81293C -6.81153e-07 4.36308 0.446101 4.80903 0.996429 4.80903C 1.54676 4.80903 1.99286 4.36308 1.99286 3.81293L 1.99286 0.996091C 1.99276 0.44595 1.54666 1.7023e-07 0.996429 1.7023e-07Z"/>
<path id="path8_fill" d="M 3.73284 0.291767C 3.34363 -0.0973058 2.71279 -0.0972062 2.32369 0.291767L 0.291867 2.3228C -0.0972393 2.71177 -0.0973389 3.34249 0.291867 3.73147C 0.486469 3.926 0.741457 4.02322 0.996444 4.02322C 1.25143 4.02322 1.50651 3.9259 1.70102 3.73147L 3.73274 1.70044C 4.12195 1.31137 4.12204 0.680641 3.73284 0.291767Z"/>
<path id="path9_fill" d="M 3.73613 2.32625L 1.70102 0.29173C 1.31181 -0.0973426 0.680973 -0.0971434 0.291867 0.29173C -0.0972387 0.680704 -0.0973383 1.31143 0.291867 1.7004L 2.32698 3.73492C 2.52158 3.92945 2.77656 4.02667 3.03155 4.02667C 3.28654 4.02667 3.54162 3.92935 3.73613 3.73492C 4.12523 3.34594 4.12533 2.71522 3.73613 2.32625Z"/>
</defs>
</svg>
