<svg width="50" height="54" viewBox="0 0 50 54" version="1.1" xmlns="http://www.w3.org/2000/svg" xmlns:xlink="http://www.w3.org/1999/xlink">
<title>reload</title>
<desc>Created using Figma</desc>
<g id="Canvas" transform="translate(-18882 -1330)">
<g id="reload">
<g id="Group">
<g id="Group">
<g id="Vector">
<use xlink:href="#path0_fill" transform="translate(18882 1330)" fill="#197AE3"/>
</g>
<g id="Vector">
<use xlink:href="#path1_fill" transform="translate(18888.2 1350.42)" fill="#197AE3"/>
</g>
</g>
</g>
</g>
</g>
<defs>
<path id="path0_fill" d="M 9.97774 10.7084C 17.89 3.49676 29.7311 3.38649 37.7528 9.96955L 31.3945 10.2121C 30.5737 10.2452 29.939 10.9289 29.9718 11.7559C 30.0047 12.5609 30.6613 13.1894 31.4492 13.1894C 31.4711 13.1894 31.4821 13.1894 31.504 13.1894L 41.2657 12.8255C 42.0646 12.7924 42.6884 12.1419 42.6884 11.3369L 42.6884 11.2266C 42.6884 11.2046 42.6884 11.1935 42.6884 11.1715L 42.6884 11.1605L 42.3273 1.43473C 42.2944 0.607707 41.605 -0.0318532 40.7951 0.0012275C 39.9744 0.0343082 39.3396 0.717976 39.3725 1.54499L 39.6023 7.64287C 35.6297 4.36788 30.7379 2.47125 25.5068 2.20661C 19.0282 1.8758 12.8012 4.11426 7.99693 8.50297C 1.38695 14.5347 -1.41463 23.7091 0.686555 32.4424C 0.850711 33.1261 1.45261 33.5782 2.12018 33.5782C 2.24056 33.5782 2.34999 33.5671 2.47038 33.5341C 3.25832 33.3356 3.75079 32.5306 3.5538 31.7367C 1.71526 24.0619 4.16665 16.0013 9.97774 10.7084Z"/>
<path id="path1_fill" d="M 42.1507 1.13543C 41.9537 0.341494 41.1548 -0.154718 40.3669 0.0437661C 39.5789 0.24225 39.0865 1.04721 39.2834 1.84115C 41.1329 9.51588 38.6706 17.5765 32.8595 22.8695C 28.7775 26.5855 23.6559 28.416 18.5561 28.416C 13.6862 28.416 8.82718 26.7509 4.90934 23.4649L 11.3442 22.8805C 12.1541 22.8033 12.756 22.0866 12.6794 21.2595C 12.6027 20.4325 11.8914 19.8371 11.0706 19.9143L 1.3417 20.7964C 0.531871 20.8736 -0.0700314 21.5903 0.00657433 22.4174L 0.882069 32.2203C 0.947731 32.9922 1.59341 33.5766 2.34852 33.5766C 2.3923 33.5766 2.43607 33.5766 2.47985 33.5656C 3.28968 33.4884 3.89158 32.7716 3.81497 31.9446L 3.28968 25.9791C 7.26223 29.221 12.1322 31.1066 17.3304 31.3712C 17.7463 31.3933 18.1621 31.4043 18.5671 31.4043C 24.597 31.4043 30.3315 29.1769 34.8403 25.0748C 41.4503 19.0431 44.2519 9.87977 42.1507 1.13543Z"/>
</defs>
</svg>
