<svg width="45" height="51" viewBox="0 0 45 51" version="1.1" xmlns="http://www.w3.org/2000/svg" xmlns:xlink="http://www.w3.org/1999/xlink">
<title>shield</title>
<desc>Created using Figma</desc>
<g id="Canvas" transform="translate(-19542 -1239)">
<g id="shield">
<g id="Group 2">
<g id="Group">
<g id="Group">
<g id="Vector">
<use xlink:href="#path0_fill" transform="translate(19552.7 1256)" fill="#197AE3"/>
</g>
</g>
</g>
<g id="Group">
<g id="Group">
<g id="Vector">
<use xlink:href="#path1_fill" transform="translate(19542 1239)" fill="#197AE3"/>
</g>
</g>
</g>
</g>
</g>
</g>
<defs>
<path id="path0_fill" d="M 25.3999 0.310781C 24.982 -0.103594 24.3027 -0.103594 23.8849 0.310781L 9.64346 14.4335L 1.82843 6.68578C 1.41057 6.27141 0.731251 6.27141 0.313393 6.68578C -0.104464 7.10016 -0.104464 7.77382 0.313393 8.18819L 8.88479 16.6882C 9.09482 16.8943 9.36904 16.9984 9.64336 16.9984C 9.91768 16.9984 10.1919 16.8944 10.3998 16.6882L 25.3998 1.81319C 25.8177 1.39872 25.8177 0.725156 25.3999 0.310781Z"/>
<path id="path1_fill" d="M 44.235 6.4196L 22.8065 0.0446001C 22.6051 -0.0148667 22.3929 -0.0148667 22.1914 0.0446001L 0.762891 6.4196C 0.310681 6.55348 0 6.96785 0 7.43751L 0 30.8126C 0 40.2093 14.4471 48.5669 22.1829 50.9533C 22.2857 50.9852 22.3929 51 22.5 51C 22.6071 51 22.7143 50.9852 22.8171 50.9533C 30.5529 48.5648 45 40.2092 45 30.8125L 45 7.43751C 45 6.96785 44.6893 6.55557 44.235 6.4196ZM 42.8572 30.8125C 42.8572 38.2733 30.9365 46.1188 22.5 48.8239C 14.0636 46.1188 2.14282 38.2733 2.14282 30.8125L 2.14282 8.22801L 22.5 2.17176L 42.8572 8.22801L 42.8572 30.8125Z"/>
</defs>
</svg>
