<svg width="40" height="55" viewBox="0 0 40 55" version="1.1" xmlns="http://www.w3.org/2000/svg" xmlns:xlink="http://www.w3.org/1999/xlink">
<title>text-document</title>
<desc>Created using Figma</desc>
<g id="Canvas" transform="translate(-19224 -1331)">
<g id="text-document">
<g id="Group">
<g id="Vector">
<use xlink:href="#path0_fill" transform="translate(19224 1331)" fill="#197AE3"/>
</g>
</g>
</g>
</g>
<defs>
<path id="path0_fill" d="M 30.5557 0L 3.31811 0C 1.48926 0 5.96622e-08 1.51459 5.96622e-08 3.37292L 5.96622e-08 51.6266C 5.96622e-08 53.4877 1.48926 55 3.31811 55L 36.6817 55C 38.5121 55 40 53.4877 40 51.6266L 40 10.4293L 30.5557 0ZM 31.3388 5.04716L 35.4784 9.61946L 31.3388 9.61946L 31.3388 5.04716ZM 37.2132 51.6267C 37.2132 51.9238 36.9739 52.1677 36.6802 52.1677L 3.31811 52.1677C 3.02486 52.1677 2.78693 51.9238 2.78693 51.6267L 2.78693 3.37292C 2.78693 3.07512 3.02486 2.83377 3.31811 2.83377L 28.5505 2.83377L 28.5505 11.0362C 28.5505 11.8172 29.1765 12.4503 29.9454 12.4503L 37.2132 12.4503L 37.2132 51.6267ZM 7.70309 15.0641L 31.3686 15.0641C 31.9451 15.0641 32.4127 15.5393 32.4127 16.1252C 32.4127 16.7111 31.9451 17.1864 31.3686 17.1864L 7.70309 17.1864C 7.12671 17.1864 6.659 16.7111 6.659 16.1252C 6.659 15.5395 7.12671 15.0641 7.70309 15.0641ZM 32.4127 23.2559C 32.4127 23.8417 31.9451 24.3171 31.3686 24.3171L 7.70309 24.3171C 7.12671 24.3171 6.659 23.8418 6.659 23.2559C 6.659 22.67 7.12671 22.1948 7.70309 22.1948L 31.3686 22.1948C 31.9451 22.1948 32.4127 22.6702 32.4127 23.2559ZM 32.4127 30.1531C 32.4127 30.739 31.9451 31.2143 31.3686 31.2143L 7.70309 31.2143C 7.12671 31.2143 6.659 30.739 6.659 30.1531C 6.659 29.5672 7.12671 29.092 7.70309 29.092L 31.3686 29.092C 31.9451 29.092 32.4127 29.5672 32.4127 30.1531ZM 32.4127 37.1678C 32.4127 37.7537 31.9451 38.2289 31.3686 38.2289L 7.70309 38.2289C 7.12671 38.2289 6.659 37.7537 6.659 37.1678C 6.659 36.5819 7.12671 36.1067 7.70309 36.1067L 31.3686 36.1067C 31.9451 36.1067 32.4127 36.5819 32.4127 37.1678Z"/>
</defs>
</svg>
