<svg width="50" height="51" viewBox="0 0 50 51" version="1.1" xmlns="http://www.w3.org/2000/svg" xmlns:xlink="http://www.w3.org/1999/xlink">
<title>wallet</title>
<desc>Created using Figma</desc>
<g id="Canvas" transform="translate(-18882 -1239)">
<g id="wallet">
<g id="Group">
<g id="Vector">
<use xlink:href="#path0_fill" transform="translate(18882 1239)" fill="#197AE3"/>
</g>
</g>
</g>
</g>
<defs>
<path id="path0_fill" d="M 50 23.7579L 47.5767 23.7579L 47.5767 12.5019C 47.5767 9.80339 45.4026 7.60806 42.7302 7.60806L 39.4481 7.60806L 36.0895 1.51031C 35.5776 0.578417 34.6034 0 33.5469 0C 33.0545 0 32.5659 0.128233 32.1346 0.369925L 19.2447 7.60791L 4.84654 7.60791C 2.17411 7.60791 -8.63014e-10 9.80324 -8.63014e-10 12.5018L -8.63014e-10 46.1061C -8.63014e-10 48.8047 2.17411 51 4.84654 51L 42.7302 51C 45.4026 51 47.5767 48.8047 47.5767 46.1061L 47.5767 36.2371L 50 36.2371L 50 23.7579ZM 42.7302 9.56551C 44.2229 9.56551 45.4423 10.7106 45.6061 12.1758L 41.9634 12.1758L 40.5268 9.56551L 42.7302 9.56551ZM 33.0777 2.08081C 33.5323 1.82343 34.144 2.00344 34.395 2.46063L 39.7456 12.1749L 15.0999 12.1749L 33.0777 2.08081ZM 45.6381 46.1061C 45.6381 47.725 44.3333 49.0425 42.73 49.0425L 4.84654 49.0425C 3.24329 49.0425 1.93852 47.725 1.93852 46.1061L 1.93852 12.5019C 1.93852 10.883 3.24329 9.56551 4.84654 9.56551L 15.759 9.56551L 11.1102 12.176L 5.45239 12.176C 4.91637 12.176 4.48306 12.6145 4.48306 13.1548C 4.48306 13.6951 4.91637 14.1336 5.45239 14.1336L 7.62364 14.1336L 43.0413 14.1336L 45.6381 14.1336L 45.6381 23.7588L 38.5495 23.7588C 35.2577 23.7588 32.5786 26.4642 32.5786 29.788L 32.5786 30.209C 32.5786 33.533 35.2578 36.2382 38.5495 36.2382L 45.6381 36.2382L 45.6381 46.1061ZM 48.0613 34.2797L 47.5767 34.2797L 38.5495 34.2797C 36.326 34.2797 34.5171 32.4533 34.5171 30.2079L 34.5171 29.787C 34.5171 27.5417 36.3258 25.7152 38.5495 25.7152L 47.5767 25.7152L 48.0613 25.7152L 48.0613 34.2797ZM 41.5185 30.0778C 41.5185 31.272 40.5608 32.2389 39.3783 32.2389C 38.1957 32.2389 37.2381 31.2718 37.2381 30.0778C 37.2381 28.8838 38.1959 27.9168 39.3783 27.9168C 40.5609 27.9166 41.5185 28.8846 41.5185 30.0778Z"/>
</defs>
</svg>
