<svg width="76" height="76" viewBox="0 0 76 76" version="1.1" xmlns="http://www.w3.org/2000/svg" xmlns:xlink="http://www.w3.org/1999/xlink">
<g id="Canvas" fill="none">
<g id="Group">
<g id="Group_2">
<g id="Group_3">
<g id="Group_4">
<g id="Vector">
<path d="M 40.5069 18.9L 36.4 18.9L 36.4 17.5932C 36.4 16.7684 35.7318 16.1001 34.907 16.1001L 32.2932 16.1001C 31.4684 16.1001 30.8001 16.7684 30.8001 17.5932L 30.8001 18.9L 27.0852 18.9L 25.7469 15.3305C 27.9529 13.8166 29.4001 11.2775 29.4001 8.39997C 29.4001 3.76093 25.6391 0 21 0C 16.3609 0 12.6 3.76093 12.6 8.39997C 12.6 11.2775 14.0472 13.8166 16.2532 15.3305L 14.9149 18.9L 11.2 18.9L 11.2 17.5932C 11.2 16.7684 10.5317 16.1001 9.70692 16.1001L 7.09313 16.1001C 6.26832 16.1001 5.60004 16.7684 5.60004 17.5932L 5.60004 18.9002L 1.49308 18.9002C 0.668272 18.9002 0 19.5684 0 20.3932L 0 25.807C 0 26.6318 0.668272 27.3001 1.49308 27.3001L 5.59996 27.3001L 5.59996 28.6071C 5.59996 29.4319 6.26823 30.1001 7.09305 30.1001L 9.70684 30.1001C 10.5316 30.1001 11.1999 29.4319 11.1999 28.6071L 11.1999 27.3L 15.0512 27.3L 28.8941 41.7837C 29.1539 42.0555 29.582 42.0735 29.8637 41.8245L 35.4637 36.8748C 35.766 36.6076 35.7805 36.1407 35.4951 35.8554L 26.9399 27.3L 30.8001 27.3L 30.8001 28.607C 30.8001 29.4318 31.4684 30.1001 32.2932 30.1001L 34.907 30.1001C 35.7318 30.1001 36.4 29.4318 36.4 28.607L 36.4 27.3L 40.5069 27.3C 41.3317 27.3 42 26.6317 42 25.8069L 42 20.3931C 42.0001 19.5683 41.3317 18.9 40.5069 18.9ZM 1.49308 25.9001C 1.44146 25.9001 1.40001 25.8586 1.40001 25.807L 1.40001 20.3932C 1.40001 20.3416 1.44154 20.3002 1.49308 20.3002L 5.59996 20.3002L 5.59996 25.9002L 1.49308 25.9002L 1.49308 25.9001ZM 9.8 28.607C 9.8 28.6586 9.75846 28.7 9.70692 28.7L 7.09313 28.7C 7.0415 28.7 7.00006 28.6585 7.00006 28.607L 7.00006 26.6001L 7.00006 19.6001L 7.00006 17.5932C 7.00006 17.5416 7.04159 17.5001 7.09313 17.5001L 9.70692 17.5001C 9.75855 17.5001 9.8 17.5417 9.8 17.5932L 9.8 28.607ZM 14.035 9.10001L 15.4 9.10001C 15.7867 9.10001 16.1 8.7866 16.1 8.40005C 16.1 8.0135 15.7866 7.70009 15.4 7.70009L 14.035 7.70009C 14.3862 4.16291 17.3704 1.40009 21 1.40009C 24.6296 1.40009 27.6138 4.16291 27.965 7.70009L 26.6 7.70009C 26.2133 7.70009 25.9 8.0135 25.9 8.40005C 25.9 8.7866 26.2134 9.10001 26.6 9.10001L 27.965 9.10001C 27.6366 12.4069 25.0069 15.0366 21.7 15.3651L 21.7 14C 21.7 13.6134 21.3866 13.3 21 13.3C 20.6134 13.3 20.3 13.6134 20.3 14L 20.3 15.3651C 16.9931 15.0366 14.3634 12.4069 14.035 9.10001ZM 17.4499 16.1264C 18.5774 16.5683 19.7745 16.7999 21 16.7999C 22.2255 16.7999 23.4226 16.5683 24.5501 16.1264L 25.59 18.9L 16.4101 18.9L 17.4499 16.1264ZM 25.2499 25.8999C 24.6263 25.8999 24.3139 26.654 24.7549 27.0949L 33.9788 36.3187L 29.4411 40.3295L 15.8566 26.1163C 15.7245 25.9781 15.5416 25.8999 15.3505 25.8999L 11.2002 25.8999L 11.2002 20.3L 15.4 20.3L 26.6 20.3L 30.8 20.3L 30.8 25.9L 25.2499 25.9L 25.2499 25.8999ZM 35 28.607C 35 28.6586 34.9585 28.7 34.907 28.7L 32.2932 28.7C 32.2415 28.7 32.2001 28.6585 32.2001 28.607L 32.2001 26.6041C 32.2001 26.6027 32.2003 26.6013 32.2003 26.5999L 32.2003 19.6C 32.2003 19.5985 32.2002 19.5972 32.2001 19.5958L 32.2001 17.5931C 32.2001 17.5415 32.2416 17.5001 32.2932 17.5001L 34.907 17.5001C 34.9586 17.5001 35 17.5416 35 17.5931L 35 19.5999L 35 26.5998L 35 28.607ZM 40.6001 25.8069C 40.6001 25.8585 40.5585 25.8999 40.507 25.8999L 36.4001 25.8999L 36.4001 20.3L 40.507 20.3C 40.5586 20.3 40.6001 20.3415 40.6001 20.3931L 40.6001 25.8069Z" transform="translate(18 19)" fill="#197AE3"/>
</g>
<g id="Vector_2">
<path d="M 2.09997 6.99996C 3.25938 6.99996 4.19995 6.05939 4.19995 4.89999C 4.19995 3.98611 3.61533 3.2085 2.79994 2.92003L 2.79994 0.699962C 2.79994 0.313328 2.48653 -1.24711e-07 2.09997 -1.24711e-07C 1.71342 -1.24711e-07 1.40001 0.313411 1.40001 0.699962L 1.40001 2.92003C 0.584624 3.2085 9.16244e-08 3.98602 9.16244e-08 4.89999C 9.16244e-08 6.05931 0.940568 6.99996 2.09997 6.99996ZM 2.09997 4.19994C 2.48619 4.19994 2.79994 4.51377 2.79994 4.8999C 2.79994 5.28604 2.48611 5.59987 2.09997 5.59987C 1.71384 5.59987 1.40001 5.28604 1.40001 4.8999C 1.40001 4.51377 1.71376 4.19994 2.09997 4.19994Z" transform="translate(36.9004 22.5001)" fill="#197AE3"/>
</g>
</g>
</g>
</g>
<g id="Ellipse 8.5">
<circle cx="38" cy="38" r="37.5" stroke="#197AE3"/>
</g>
</g>
</g>
</svg>

