<svg width="44" height="44" viewBox="0 0 44 44" version="1.1" xmlns="http://www.w3.org/2000/svg" xmlns:xlink="http://www.w3.org/1999/xlink">
<title>Group 17</title>
<desc>Created using Figma</desc>
<g id="Canvas" transform="translate(-5779 7998)">
<g id="Group 17">
<g id="explosion">
<g id="Group">
<g id="Group">
<g id="Group">
<g id="Vector">
<use xlink:href="#path0_fill" transform="translate(5795.18 -7969.96)" fill="#197AE3"/>
</g>
<g id="Vector">
<use xlink:href="#path1_fill" transform="translate(5789.45 -7987.96)" fill="#197AE3"/>
</g>
<g id="Vector">
<use xlink:href="#path2_fill" transform="translate(5794.91 -7989.06)" fill="#197AE3"/>
</g>
<g id="Vector">
<use xlink:href="#path3_fill" transform="translate(5799 -7988.78)" fill="#197AE3"/>
</g>
<g id="Vector">
<use xlink:href="#path4_fill" transform="translate(5800.91 -7982.97)" fill="#197AE3"/>
</g>
<g id="Vector">
<use xlink:href="#path5_fill" transform="translate(5802.55 -7977.99)" fill="#197AE3"/>
</g>
<g id="Vector">
<use xlink:href="#path6_fill" transform="translate(5807.45 -7986.57)" fill="#197AE3"/>
</g>
<g id="Vector">
<use xlink:href="#path7_fill" transform="translate(5803.64 -7991)" fill="#197AE3"/>
</g>
<g id="Vector">
<use xlink:href="#path8_fill" transform="translate(5805.82 -7978.82)" fill="#197AE3"/>
</g>
<g id="Vector">
<use xlink:href="#path9_fill" transform="translate(5807.46 -7972.46)" fill="#197AE3"/>
</g>
<g id="Vector">
<use xlink:href="#path10_fill" transform="translate(5813.45 -7975.5)" fill="#197AE3"/>
</g>
<g id="Vector">
<use xlink:href="#path11_fill" transform="translate(5792.18 -7976.88)" fill="#197AE3"/>
</g>
<g id="Vector">
<use xlink:href="#path12_fill" transform="translate(5787 -7982.7)" fill="#197AE3"/>
</g>
<g id="Vector">
<use xlink:href="#path13_fill" transform="translate(5787 -7976.61)" fill="#197AE3"/>
</g>
<g id="Vector">
<use xlink:href="#path14_fill" transform="translate(5789.18 -7969.41)" fill="#197AE3"/>
</g>
</g>
</g>
</g>
</g>
<g id="Ellipse 4">
<mask id="mask0_outline_ins">
<use xlink:href="#path15_fill" fill="white" transform="translate(5779 -7998)"/>
</mask>
<g mask="url(#mask0_outline_ins)">
<use xlink:href="#path16_stroke_2x" transform="translate(5779 -7998)" fill="#197AE3"/>
</g>
</g>
<g id="Vector">
<use xlink:href="#path17_stroke" transform="translate(5785 -7990)" fill="#197AE3"/>
</g>
</g>
</g>
<defs>
<path id="path0_fill" d="M 8.62643 0.804937C 8.26927 0.804937 7.92138 0.859523 7.58793 0.967619C 7.02941 0.355211 6.23679 -1.96945e-07 5.39384 -1.96945e-07C 3.94016 -1.96945e-07 2.72706 1.04977 2.47296 2.43108C 1.08513 2.5787 3.23432e-08 3.7566 3.23432e-08 5.18322C 3.23432e-08 6.48494 0.918337 7.60126 2.15462 7.88292C 2.53496 9.11003 3.66924 9.96417 4.98978 9.96417C 6.46386 9.96417 7.69074 8.88523 7.92072 7.47528C 8.15083 7.52395 8.38625 7.54882 8.6263 7.54882C 10.4866 7.54882 12 6.03629 12 4.17715C 12 2.31747 10.4867 0.804937 8.62643 0.804937ZM 8.62643 6.44165C 8.27801 6.44165 7.94351 6.36595 7.63165 6.21564L 6.74392 5.78917L 6.85652 6.77951C 6.86447 6.85037 6.86884 6.92216 6.86884 6.99517C 6.86884 8.02181 6.02589 8.85699 4.98991 8.85699C 4.06522 8.85699 3.28558 8.20237 3.13628 7.29956L 3.06541 6.87148L 2.63869 6.83961C 1.7707 6.77413 1.09109 6.04664 1.09109 5.18322C 1.09109 4.2675 1.84316 3.52252 2.76786 3.52252C 2.81979 3.52252 2.87119 3.52521 2.9218 3.52951L 3.51517 3.57334L 3.51517 2.969C 3.51517 1.94236 4.35786 1.10717 5.39384 1.10717C 6.02562 1.10717 6.61144 1.41909 6.96118 1.94183L 7.22216 2.33213L 7.64358 2.13261C 7.95145 1.98619 8.28225 1.91211 8.62643 1.91211C 9.8851 1.91211 10.9092 2.9284 10.9092 4.17715C 10.9093 5.4259 9.8851 6.44165 8.62643 6.44165Z"/>
<path id="path1_fill" d="M 5.52335 10.7866C 5.62298 10.9688 5.80884 11.0715 6.00067 11.0715C 6.09023 11.0715 6.18124 11.0493 6.2651 11.0017C 6.5282 10.853 6.62332 10.5162 6.4768 10.2492L 1.02229 0.285156C 0.876561 0.0181438 0.544438 -0.0791962 0.280542 0.0700405C 0.0174414 0.218739 -0.0776777 0.55553 0.0688429 0.822543L 5.52335 10.7866Z"/>
<path id="path2_fill" d="M 3.83269 17.2863C 3.89125 17.5415 4.11553 17.714 4.36326 17.714C 4.40433 17.714 4.44606 17.7092 4.48766 17.6993C 4.78123 17.6301 4.96339 17.3323 4.8949 17.0344L 1.07662 0.427546C 1.00813 0.130283 0.713897 -0.0547169 0.421651 0.0145235C 0.12808 0.083764 -0.0540774 0.381565 0.0144136 0.679501L 3.83269 17.2863Z"/>
<path id="path3_fill" d="M 1.09033 9.9632C 1.10172 9.9632 1.11325 9.96266 1.12491 9.96213C 1.42563 9.94317 1.65416 9.68046 1.63521 9.37513L 1.0898 0.518134C 1.07086 0.21267 0.815969 -0.00836174 0.511402 0.000242901C 0.210678 0.0192 -0.0178464 0.28191 0.00109791 0.587375L 0.546509 9.44437C 0.564526 9.73773 0.804444 9.9632 1.09033 9.9632Z"/>
<path id="path4_fill" d="M 0.481884 10.5145C 0.503478 10.5172 0.525072 10.5183 0.546401 10.5183C 0.819173 10.5183 1.05459 10.3112 1.08731 10.0296L 2.17826 0.61904C 2.2135 0.315189 1.99955 0.0401093 1.70015 0.00434628C 1.40261 -0.0339712 1.13023 0.185447 1.09473 0.489299L 0.00377114 9.89981C -0.0313355 10.2037 0.182616 10.4787 0.481884 10.5145Z"/>
<path id="path5_fill" d="M 3.90344 0.255781L 0.0852931 6.34491C -0.0763299 6.60278 -0.00147977 6.94494 0.25248 7.10937C 0.34336 7.16772 0.444706 7.19582 0.544859 7.19582C 0.725161 7.19582 0.90149 7.10494 1.00562 6.93957L 4.82376 0.850441C 4.98539 0.592571 4.91053 0.250403 4.65657 0.0859735C 4.40248 -0.0771112 4.06533 -0.00141725 3.90344 0.255781Z"/>
<path id="path6_fill" d="M 5.48869 0.0957168C 5.23936 -0.0761071 4.90035 -0.0102278 4.73078 0.242265L 0.0944509 7.16174C -0.0749883 7.41463 -0.010208 7.75895 0.238718 7.93091C 0.332777 7.99585 0.439556 8.02664 0.545008 8.02664C 0.719482 8.02664 0.891039 7.9418 0.996756 7.7845L 5.63309 0.865025C 5.80239 0.611995 5.73774 0.267675 5.48869 0.0957168Z"/>
<path id="path7_fill" d="M 0.341125 14.0758C 0.408158 14.1033 0.477445 14.1162 0.545406 14.1162C 0.76108 14.1162 0.96536 13.9854 1.05147 13.7703L 6.23321 0.761573C 6.34608 0.477754 6.21109 0.155618 5.93196 0.0409343C 5.65203 -0.0748249 5.33488 0.0636559 5.22161 0.346399L 0.0398695 13.3551C -0.0730016 13.6389 0.0619936 13.9612 0.341125 14.0758Z"/>
<path id="path8_fill" d="M 6.40288 0.194926L 0.130184 7.66805C -0.0650881 7.90051 -0.0375321 8.25035 0.191655 8.44866C 0.294192 8.53739 0.419914 8.58055 0.545106 8.58055C 0.69931 8.58055 0.852719 8.51467 0.960556 8.38587L 7.23325 0.912741C 7.42852 0.680282 7.40097 0.33045 7.17178 0.13214C 6.94299 -0.0661704 6.59842 -0.0380716 6.40288 0.194926Z"/>
<path id="path9_fill" d="M 4.58168 0.110706L 0.218121 3.43209C -0.0228562 3.61535 -0.0716089 3.96236 0.109223 4.20678C 0.216266 4.35225 0.38014 4.42848 0.546003 4.42848C 0.659669 4.42848 0.774528 4.39232 0.872827 4.3177L 5.23638 0.99631C 5.47736 0.813058 5.52611 0.46605 5.34528 0.221624C 5.16498 -0.023339 4.82358 -0.0725463 4.58168 0.110706Z"/>
<path id="path10_fill" d="M 3.4307 0.213864C 3.24536 -0.0271998 2.90211 -0.0715677 2.66524 0.117062L 0.210691 2.05458C -0.0271066 2.24214 -0.0700293 2.58982 0.114777 2.83142C 0.222349 2.97138 0.383311 3.04492 0.545729 3.04492C 0.662839 3.04492 0.780876 3.00701 0.880234 2.92822L 3.33478 0.990702C 3.57258 0.803013 3.6155 0.455466 3.4307 0.213864Z"/>
<path id="path11_fill" d="M 0.224624 0.106079C -0.0188707 0.285566 -0.0729214 0.632037 0.104466 0.879152L 4.46802 6.96828C 4.5748 7.11751 4.74106 7.19643 4.90957 7.19643C 5.02059 7.19643 5.13306 7.16188 5.23003 7.09049C 5.47353 6.911 5.52758 6.56453 5.35019 6.31742L 0.986637 0.228292C 0.809116 -0.0193599 0.46825 -0.0739462 0.224624 0.106079Z"/>
<path id="path12_fill" d="M 3.67854 5.0679C 3.78637 5.19388 3.93819 5.25868 4.09107 5.25868C 4.21759 5.25868 4.3449 5.21431 4.44797 5.12356C 4.6757 4.92297 4.7002 4.57381 4.50308 4.34242L 0.957705 0.190685C 0.760578 -0.0390854 0.416003 -0.0655712 0.188274 0.135024C -0.0394559 0.33562 -0.0639643 0.68478 0.133163 0.916164L 3.67854 5.0679Z"/>
<path id="path13_fill" d="M 8.27953 7.06721L 0.91588 0.147741C 0.694774 -0.0603834 0.349934 -0.0469385 0.145124 0.177454C -0.0594222 0.401847 -0.0461744 0.752083 0.174931 0.95967L 7.53858 7.87914C 7.6435 7.9781 7.77638 8.02676 7.90899 8.02676C 8.05551 8.02676 8.20163 7.96734 8.30934 7.84943C 8.51388 7.62517 8.5005 7.2748 8.27953 7.06721Z"/>
<path id="path14_fill" d="M 4.2869 1.42049L 0.741525 0.0366176C 0.460805 -0.072016 0.145242 0.0690192 0.0364778 0.354451C -0.0716241 0.639883 0.0686701 0.960404 0.349921 1.07025L 3.89529 2.45412C 3.95981 2.47899 4.02578 2.49082 4.0911 2.49082C 4.31008 2.49082 4.51675 2.35624 4.60034 2.13615C 4.70857 1.85072 4.56815 1.53019 4.2869 1.42049Z"/>
<path id="path15_fill" d="M 44 22C 44 34.1503 34.1503 44 22 44C 9.84974 44 0 34.1503 0 22C 0 9.84974 9.84974 0 22 0C 34.1503 0 44 9.84974 44 22Z"/>
<path id="path16_stroke_2x" d="M 43 22C 43 33.598 33.598 43 22 43L 22 45C 34.7025 45 45 34.7025 45 22L 43 22ZM 22 43C 10.402 43 1 33.598 1 22L -1 22C -1 34.7025 9.29745 45 22 45L 22 43ZM 1 22C 1 10.402 10.402 1 22 1L 22 -1C 9.29745 -1 -1 9.29745 -1 22L 1 22ZM 22 1C 33.598 1 43 10.402 43 22L 45 22C 45 9.29745 34.7025 -1 22 -1L 22 1Z"/>
<path id="path17_stroke" d="M -0.33576 0.370493L 31.6642 29.3705L 32.3358 28.6295L 0.33576 -0.370493L -0.33576 0.370493Z"/>
</defs>
</svg>
