<svg width="44" height="44" viewBox="0 0 44 44" version="1.1" xmlns="http://www.w3.org/2000/svg" xmlns:xlink="http://www.w3.org/1999/xlink">
<title>Group 8</title>
<desc>Created using Figma</desc>
<g id="Canvas" transform="translate(-5547 7648)">
<g id="Group 8">
<g id="Ellipse 4">
<mask id="mask0_outline_ins">
<use xlink:href="#path0_fill" fill="white" transform="translate(5547 -7648)"/>
</mask>
<g mask="url(#mask0_outline_ins)">
<use xlink:href="#path1_stroke_2x" transform="translate(5547 -7648)" fill="#197AE3"/>
</g>
</g>
<g id="valve">
<g id="Vector">
<use xlink:href="#path2_fill" transform="translate(5555 -7637)" fill="#197AE3"/>
</g>
</g>
</g>
</g>
<defs>
<path id="path0_fill" d="M 44 22C 44 34.1503 34.1503 44 22 44C 9.84974 44 0 34.1503 0 22C 0 9.84974 9.84974 0 22 0C 34.1503 0 44 9.84974 44 22Z"/>
<path id="path1_stroke_2x" d="M 43 22C 43 33.598 33.598 43 22 43L 22 45C 34.7025 45 45 34.7025 45 22L 43 22ZM 22 43C 10.402 43 1 33.598 1 22L -1 22C -1 34.7025 9.29745 45 22 45L 22 43ZM 1 22C 1 10.402 10.402 1 22 1L 22 -1C 9.29745 -1 -1 9.29745 -1 22L 1 22ZM 22 1C 33.598 1 43 10.402 43 22L 45 22C 45 9.29745 34.7025 -1 22 -1L 22 1Z"/>
<path id="path2_fill" d="M 27.5464 12.8617L 26.2954 12.8617C 26.2873 12.8617 26.2797 12.8584 26.274 12.8523L 25.5898 12.1247C 25.4127 11.9364 25.1774 11.8328 24.927 11.8328L 23.6458 11.8328L 23.6458 11.8006C 23.6458 11.251 23.2253 10.8038 22.7084 10.8038L 21.7408 10.8038C 21.2239 10.8038 20.8035 11.251 20.8035 11.8006L 20.8035 11.8328L 19.5222 11.8328C 19.2718 11.8328 19.0365 11.9364 18.8594 12.1247L 18.1753 12.8522C 18.1695 12.8584 18.1619 12.8616 18.1539 12.8616L 16.3888 12.8616L 16.3888 10.9847C 16.3888 10.9762 16.392 10.9679 16.3977 10.9619L 17.0818 10.2344C 17.2588 10.0461 17.3564 9.79585 17.3564 9.52955L 17.3564 8.16718L 17.3866 8.16718C 17.9035 8.16718 18.324 7.72004 18.324 7.17039L 18.324 6.14146C 18.324 5.59181 17.9035 5.14468 17.3866 5.14468L 15.4212 5.14468L 15.4212 4.5659L 19.3218 4.5659C 19.7393 4.5659 20.1341 4.37175 20.4047 4.03336C 20.6753 3.6951 20.7916 3.24713 20.7239 2.80443C 20.6139 2.08552 19.9889 1.5434 19.27 1.5434L 15.7783 1.5434L 15.6184 1.03331C 15.4247 0.41524 14.8828 0 14.2702 0L 13.7298 0C 13.1172 0 12.5753 0.41524 12.3816 1.03331L 12.2217 1.5434L 8.72995 1.5434C 8.01114 1.5434 7.38613 2.08552 7.27613 2.80436C 7.2084 3.24713 7.32469 3.6951 7.59526 4.0333C 7.86594 4.37175 8.2606 4.56584 8.67819 4.56584L 12.5788 4.56584L 12.5788 5.14461L 10.6134 5.14461C 10.0965 5.14461 9.67603 5.59175 9.67603 6.14139L 9.67603 7.17033C 9.67603 7.71997 10.0965 8.16711 10.6134 8.16711L 10.6436 8.16711L 10.6436 9.52962C 10.6436 9.79592 10.7412 10.0462 10.9182 10.2344L 11.6025 10.962C 11.608 10.968 11.6113 10.9763 11.6113 10.9847L 11.6113 12.8617L 9.8462 12.8617C 9.8381 12.8617 9.83054 12.8584 9.82485 12.8523L 9.14058 12.1247C 8.96351 11.9364 8.7282 11.8328 8.47783 11.8328L 7.19654 11.8328L 7.19654 11.8006C 7.19654 11.251 6.77606 10.8038 6.25918 10.8038L 5.29158 10.8038C 4.7747 10.8038 4.35421 11.251 4.35421 11.8006L 4.35421 11.8328L 3.07292 11.8328C 2.82256 11.8328 2.58725 11.9364 2.41012 12.1247L 1.72602 12.8522C 1.72028 12.8584 1.71266 12.8617 1.70461 12.8617L 0.453564 12.8617C 0.203076 12.8617 0 13.0776 0 13.344L 0 17.4598C 0 17.7262 0.203076 17.9421 0.453564 17.9421L 1.70461 17.9421C 1.71272 17.9421 1.72028 17.9454 1.72596 17.9515L 2.41024 18.6791C 2.58731 18.8673 2.82262 18.971 3.07298 18.971L 4.35421 18.971L 4.35421 19.0032C 4.35421 19.5528 4.7747 19.9999 5.29158 19.9999L 6.25918 19.9999C 6.77606 19.9999 7.19654 19.5528 7.19654 19.0032L 7.19654 18.971L 8.47783 18.971C 8.7282 18.971 8.96351 18.8673 9.14064 18.679L 9.82473 17.9515C 9.83048 17.9454 9.8381 17.9421 9.84614 17.9421L 18.1538 17.9421C 18.1619 17.9421 18.1695 17.9455 18.1751 17.9515L 18.8594 18.6792C 19.0365 18.8674 19.2718 18.9711 19.5222 18.9711L 20.8035 18.9711L 20.8035 19.0032C 20.8035 19.5529 21.2239 20 21.7408 20L 22.7084 20C 23.2253 20 23.6458 19.5529 23.6458 19.0032L 23.6458 18.971L 24.9271 18.971C 25.1774 18.971 25.4128 18.8673 25.5899 18.679L 26.274 17.9515C 26.2797 17.9454 26.2873 17.9421 26.2954 17.9421L 27.5464 17.9421C 27.7969 17.9421 28 17.7262 28 17.4598L 28 13.3441C 28 13.0776 27.7969 12.8617 27.5464 12.8617ZM 24.9271 12.7974C 24.9352 12.7974 24.9427 12.8007 24.9484 12.8068L 25.6327 13.5344C 25.8098 13.7227 26.0451 13.8263 26.2954 13.8263L 27.0929 13.8263L 27.0929 15.434L 23.6458 15.434L 23.6458 12.7974L 24.9271 12.7974ZM 8.28631 3.40841C 8.18695 3.28417 8.14618 3.12475 8.17152 2.95928C 8.21023 2.70623 8.45552 2.50803 8.72995 2.50803L 12.5486 2.50803C 12.7439 2.50803 12.9171 2.37523 12.9789 2.17826L 13.2421 1.33839C 13.3122 1.11479 13.5082 0.964563 13.7298 0.964563L 14.2702 0.964563C 14.4918 0.964563 14.6878 1.11479 14.7579 1.33839L 15.0211 2.17826C 15.0829 2.37523 15.2562 2.50803 15.4514 2.50803L 19.27 2.50803C 19.5445 2.50803 19.7898 2.70623 19.8285 2.95928C 19.8538 3.12475 19.8131 3.28423 19.7137 3.40841C 19.6157 3.53099 19.4729 3.60127 19.3218 3.60127L 8.67819 3.60127C 8.52712 3.60127 8.38434 3.53099 8.28631 3.40841ZM 13.486 4.5659L 14.514 4.5659L 14.514 5.14468L 13.486 5.14468L 13.486 4.5659ZM 10.5832 7.17039L 10.5832 6.14146C 10.5832 6.12377 10.5967 6.1093 10.6134 6.1093L 17.3866 6.1093C 17.4033 6.1093 17.4168 6.12377 17.4168 6.14146L 17.4168 7.17039C 17.4168 7.18808 17.4033 7.20255 17.3866 7.20255L 10.6134 7.20255C 10.5967 7.20255 10.5832 7.18808 10.5832 7.17039ZM 8.47783 12.7974C 8.48594 12.7974 8.49349 12.8007 8.49918 12.8068L 9.18346 13.5344C 9.36053 13.7227 9.59584 13.8263 9.8462 13.8263L 12.0648 13.8263C 12.3153 13.8263 12.5184 13.6104 12.5184 13.344L 12.5184 10.9847C 12.5184 10.7184 12.4208 10.4681 12.2438 10.28L 11.5595 9.55232C 11.554 9.54634 11.5507 9.53804 11.5507 9.52962L 11.5507 8.16718L 16.4492 8.16718L 16.4492 9.52968C 16.4492 9.5381 16.446 9.5464 16.4403 9.55245L 15.7562 10.28C 15.5791 10.4682 15.4816 10.7185 15.4816 10.9848L 15.4816 13.344C 15.4816 13.6104 15.6847 13.8263 15.9351 13.8263L 18.1538 13.8263C 18.4042 13.8263 18.6395 13.7227 18.8166 13.5344L 19.5007 12.8068C 19.5064 12.8007 19.5141 12.7975 19.5221 12.7975L 20.8035 12.7975L 20.8035 15.4341L 7.19654 15.4341L 7.19654 12.7975L 8.47783 12.7975L 8.47783 12.7974ZM 1.70461 13.8263C 1.95498 13.8263 2.19029 13.7227 2.36742 13.5344L 3.05152 12.8068C 3.05726 12.8007 3.06488 12.7975 3.07292 12.7975L 4.35421 12.7975L 4.35421 15.4341L 0.907127 15.4341L 0.907127 13.8264L 1.70461 13.8264L 1.70461 13.8263ZM 3.07292 18.0064C 3.06482 18.0064 3.05726 18.003 3.05158 17.997L 2.3673 17.2693C 2.19029 17.0811 1.95492 16.9774 1.70461 16.9774L 0.907127 16.9774L 0.907127 16.3987L 4.35421 16.3987L 4.35421 18.0064L 3.07292 18.0064ZM 6.28942 19.0032C 6.28942 19.0208 6.27587 19.0353 6.25918 19.0353L 5.29158 19.0353C 5.27489 19.0353 5.26134 19.0208 5.26134 19.0032L 5.26134 11.8006C 5.26134 11.7829 5.27489 11.7685 5.29158 11.7685L 6.25918 11.7685C 6.27587 11.7685 6.28942 11.7829 6.28942 11.8006L 6.28942 19.0032ZM 19.5222 18.0064C 19.5141 18.0064 19.5064 18.003 19.5008 17.997L 18.8165 17.2693C 18.6395 17.0811 18.4042 16.9774 18.1538 16.9774L 9.84614 16.9774C 9.59578 16.9774 9.36047 17.0811 9.18333 17.2694L 8.49924 17.9969C 8.49349 18.003 8.48587 18.0063 8.47783 18.0063L 7.19654 18.0063L 7.19654 16.3986L 20.8035 16.3986L 20.8035 18.0063L 19.5222 18.0063L 19.5222 18.0064ZM 22.7387 19.0032C 22.7387 19.0208 22.7251 19.0353 22.7084 19.0353L 21.7408 19.0353C 21.7241 19.0353 21.7106 19.0208 21.7106 19.0032L 21.7106 11.8006C 21.7106 11.7829 21.7241 11.7685 21.7408 11.7685L 22.7084 11.7685C 22.7251 11.7685 22.7387 11.7829 22.7387 11.8006L 22.7387 19.0032ZM 26.2954 16.9774C 26.045 16.9774 25.8097 17.0811 25.6326 17.2694L 24.9485 17.9969C 24.9427 18.003 24.9351 18.0063 24.9271 18.0063L 23.6458 18.0063L 23.6458 16.3986L 27.0929 16.3986L 27.0929 16.9774L 26.2954 16.9774L 26.2954 16.9774Z"/>
</defs>
</svg>
