<svg width="44" height="44" viewBox="0 0 44 44" version="1.1" xmlns="http://www.w3.org/2000/svg" xmlns:xlink="http://www.w3.org/1999/xlink">
<title>Group 9</title>
<desc>Created using Figma</desc>
<g id="Canvas" transform="translate(-5547 7453)">
<g id="Group 9">
<g id="Ellipse 4.1">
<mask id="mask0_outline_ins">
<use xlink:href="#path0_fill" fill="white" transform="translate(5547 -7453)"/>
</mask>
<g mask="url(#mask0_outline_ins)">
<use xlink:href="#path1_stroke_2x" transform="translate(5547 -7453)" fill="#197AE3"/>
</g>
</g>
<g id="&#208;&#183;&#208;&#176;&#208;&#191;&#209;&#128;&#208;&#176;&#208;&#178;&#208;&#186;&#208;&#176; &#208;&#177;&#208;&#176;&#208;&#187;&#208;&#187;&#208;&#190;&#208;&#189;&#208;&#190;&#208;&#178;">
<g id="Vector">
<use xlink:href="#path2_stroke" transform="translate(5560 -7436.86)" fill="#197AE3"/>
</g>
<g id="Vector">
<use xlink:href="#path3_stroke" transform="translate(5563.41 -7444)" fill="#197AE3"/>
</g>
<g id="Vector">
<use xlink:href="#path4_stroke" transform="translate(5565.23 -7430.16)" fill="#197AE3"/>
</g>
</g>
</g>
</g>
<defs>
<path id="path0_fill" d="M 44 22C 44 34.1503 34.1503 44 22 44C 9.84974 44 0 34.1503 0 22C 0 9.84974 9.84974 0 22 0C 34.1503 0 44 9.84974 44 22Z"/>
<path id="path1_stroke_2x" d="M 43 22C 43 33.598 33.598 43 22 43L 22 45C 34.7025 45 45 34.7025 45 22L 43 22ZM 22 43C 10.402 43 1 33.598 1 22L -1 22C -1 34.7025 9.29745 45 22 45L 22 43ZM 1 22C 1 10.402 10.402 1 22 1L 22 -1C 9.29745 -1 -1 9.29745 -1 22L 1 22ZM 22 1C 33.598 1 43 10.402 43 22L 45 22C 45 9.29745 34.7025 -1 22 -1L 22 1Z"/>
<path id="path2_stroke" d="M 2.63451 0.5L 14.3655 0.5L 14.3655 -0.5L 2.63451 -0.5L 2.63451 0.5ZM 14.3655 0.5C 15.5233 0.5 16.5 1.4887 16.5 2.75649L 17.5 2.75649C 17.5 0.979546 16.1177 -0.5 14.3655 -0.5L 14.3655 0.5ZM 16.5 2.75649L 16.5 15.0306L 17.5 15.0306L 17.5 2.75649L 16.5 2.75649ZM 16.5 15.0306C 16.5 16.2984 15.5233 17.2871 14.3655 17.2871L 14.3655 18.2871C 16.1177 18.2871 17.5 16.8075 17.5 15.0306L 16.5 15.0306ZM 14.3655 17.2871L 2.63451 17.2871L 2.63451 18.2871L 14.3655 18.2871L 14.3655 17.2871ZM 2.63451 17.2871C 1.47674 17.2871 0.5 16.2984 0.5 15.0306L -0.5 15.0306C -0.5 16.8075 0.882285 18.2871 2.63451 18.2871L 2.63451 17.2871ZM 0.5 15.0306L 0.5 2.75649L -0.5 2.75649L -0.5 15.0306L 0.5 15.0306ZM 0.5 2.75649C 0.5 1.4887 1.47674 0.5 2.63451 0.5L 2.63451 -0.5C 0.882285 -0.5 -0.5 0.979546 -0.5 2.75649L 0.5 2.75649Z"/>
<path id="path3_stroke" d="M 7.73868 0L 7.73868 -0.5L 7.36812 -0.5L 7.26031 -0.145471L 7.73868 0ZM 2.448 0L 2.92637 -0.145472L 2.81856 -0.5L 2.448 -0.5L 2.448 0ZM -3.72688e-07 0L -3.72688e-07 -0.5L -0.5 -0.5L -0.5 0L -3.72688e-07 0ZM -3.72688e-07 7.14386L -0.5 7.14386L -0.5 7.64386L -3.72688e-07 7.64386L -3.72688e-07 7.14386ZM 10.1861 7.14386L 10.1861 7.64386L 10.6861 7.64386L 10.6861 7.14386L 10.1861 7.14386ZM 10.1861 0L 10.6861 0L 10.6861 -0.5L 10.1861 -0.5L 10.1861 0ZM 7.26031 -0.145471C 7.10948 0.370782 6.84469 0.756136 6.42727 1.06732L 7.03447 1.86187C 7.5692 1.44541 8.01038 0.804809 8.21705 0.145471L 7.26031 -0.145471ZM 6.42727 1.06732C 6.01927 1.38736 5.59891 1.53086 5.0914 1.52351L 5.09028 2.52351C 5.76185 2.51749 6.49033 2.26946 7.03447 1.86187L 6.42727 1.06732ZM 5.09122 1.52351C 4.58444 1.52988 4.1649 1.38601 3.75775 1.06605L 3.14982 1.86004C 3.69282 2.26757 4.41988 2.51625 5.09046 2.52351L 5.09122 1.52351ZM 3.75775 1.06605C 3.3412 0.754918 3.07699 0.37003 2.92637 -0.145472L 1.96963 0.145472C 2.17599 0.803857 2.61623 1.4437 3.14982 1.86004L 3.75775 1.06605ZM 2.448 -0.5L -3.72688e-07 -0.5L -3.72688e-07 0.5L 2.448 0.5L 2.448 -0.5ZM -0.5 0L -0.5 7.14386L 0.5 7.14386L 0.5 0L -0.5 0ZM -3.72688e-07 7.64386L 10.1861 7.64386L 10.1861 6.64386L -3.72688e-07 6.64386L -3.72688e-07 7.64386ZM 10.6861 7.14386L 10.6861 0L 9.68612 0L 9.68612 7.14386L 10.6861 7.14386ZM 10.1861 -0.5L 7.73868 -0.5L 7.73868 0.5L 10.1861 0.5L 10.1861 -0.5Z"/>
<path id="path4_stroke" d="M 11.768 -0.5L 3 -0.5L 3 0.5L 11.768 0.5L 11.768 -0.5ZM -0.5 3L -0.5 11.1608L 0.5 11.1608L 0.5 3L -0.5 3ZM 3 -0.5C 1.067 -0.5 -0.5 1.067 -0.5 3L 0.5 3C 0.5 1.61929 1.61929 0.5 3 0.5L 3 -0.5Z"/>
</defs>
</svg>
