<svg width="44" height="44" viewBox="0 0 44 44" version="1.1" xmlns="http://www.w3.org/2000/svg" xmlns:xlink="http://www.w3.org/1999/xlink">
<title>Group 7</title>
<desc>Created using Figma</desc>
<g id="Canvas" transform="translate(-6010 7648)">
<g id="Group 7">
<g id="Ellipse 4.2">
<mask id="mask0_outline_ins">
<use xlink:href="#path0_fill" fill="white" transform="translate(6010 -7648)"/>
</mask>
<g mask="url(#mask0_outline_ins)">
<use xlink:href="#path1_stroke_2x" transform="translate(6010 -7648)" fill="#197AE3"/>
</g>
</g>
<g id="Vector">
<use xlink:href="#path2_stroke" transform="translate(6016 -7640)" fill="#197AE3"/>
</g>
<g id="wind">
<g id="Group">
<g id="Group">
<g id="Vector">
<use xlink:href="#path3_fill" transform="matrix(-1 1.22465e-16 1.22465e-16 1 6047 -7636)" fill="#197AE3"/>
</g>
</g>
</g>
<g id="Group">
<g id="Group">
<g id="Vector">
<use xlink:href="#path4_fill" transform="matrix(-1 1.22465e-16 1.22465e-16 1 6044.44 -7622.43)" fill="#197AE3"/>
</g>
</g>
</g>
<g id="Group">
<g id="Group">
<g id="Vector">
<use xlink:href="#path5_fill" transform="matrix(-1 1.22465e-16 1.22465e-16 1 6045.72 -7625.67)" fill="#197AE3"/>
</g>
</g>
</g>
<g id="Group">
<g id="Group">
<g id="Vector">
<use xlink:href="#path6_fill" transform="matrix(-1 1.22465e-16 1.22465e-16 1 6046.34 -7622.43)" fill="#197AE3"/>
</g>
</g>
</g>
</g>
</g>
</g>
<defs>
<path id="path0_fill" d="M 44 22C 44 34.1503 34.1503 44 22 44C 9.84974 44 0 34.1503 0 22C 0 9.84974 9.84974 0 22 0C 34.1503 0 44 9.84974 44 22Z"/>
<path id="path1_stroke_2x" d="M 43 22C 43 33.598 33.598 43 22 43L 22 45C 34.7025 45 45 34.7025 45 22L 43 22ZM 22 43C 10.402 43 1 33.598 1 22L -1 22C -1 34.7025 9.29745 45 22 45L 22 43ZM 1 22C 1 10.402 10.402 1 22 1L 22 -1C 9.29745 -1 -1 9.29745 -1 22L 1 22ZM 22 1C 33.598 1 43 10.402 43 22L 45 22C 45 9.29745 34.7025 -1 22 -1L 22 1Z"/>
<path id="path2_stroke" d="M -0.33576 0.370493L 31.6642 29.3705L 32.3358 28.6295L 0.33576 -0.370493L -0.33576 0.370493Z"/>
<path id="path3_fill" d="M 24.899 7.52541e-08C 22.6377 7.52541e-08 20.798 1.8203 20.798 4.05779C 20.798 4.3685 21.0527 4.62042 21.3667 4.62042C 21.6807 4.62042 21.9353 4.36844 21.9353 4.05779C 21.9353 2.44082 23.2648 1.1253 24.8989 1.1253C 26.5331 1.1253 27.8627 2.44082 27.8627 4.05779C 27.8627 5.67471 26.5331 6.99023 24.8989 6.99023L 0.568615 6.99023C 0.2546 6.99023 0 7.2422 0 7.55285C 0 7.8635 0.2546 8.11547 0.568615 8.11547L 24.899 8.11547C 27.1603 8.11547 29 6.29517 29 4.05774C 29 1.82036 27.1603 7.52541e-08 24.899 7.52541e-08Z"/>
<path id="path4_fill" d="M 16.4681 -8.20954e-07L 0.568615 -8.20954e-07C 0.254543 -8.20954e-07 -6.91414e-08 0.251972 -6.91414e-08 0.562623C -6.91414e-08 0.873329 0.2546 1.12525 0.568615 1.12525L 16.4681 1.12525C 17.6322 1.12525 18.5791 2.06224 18.5791 3.214C 18.5791 4.36575 17.6322 5.30275 16.4681 5.30275C 16.1541 5.30275 15.8995 5.55472 15.8995 5.86537C 15.8995 6.17608 16.1541 6.428 16.4681 6.428C 18.2592 6.428 19.7164 4.98616 19.7164 3.21394C 19.7164 1.44173 18.2592 -8.20954e-07 16.4681 -8.20954e-07Z"/>
<path id="path5_fill" d="M 22.4482 1.64191e-07L 0.568615 1.64191e-07C 0.254543 1.64191e-07 -5.01275e-08 0.251973 -5.01275e-08 0.562624C -5.01275e-08 0.873274 0.2546 1.12525 0.568615 1.12525L 22.4482 1.12525C 24.7287 1.12525 26.5838 2.9609 26.5838 5.21728C 26.5838 5.52799 26.8385 5.7799 27.1524 5.7799C 27.4665 5.7799 27.7211 5.52793 27.7211 5.21728C 27.7212 2.34044 25.3557 1.64191e-07 22.4482 1.64191e-07Z"/>
<path id="path6_fill" d="M 0.549294 -8.20954e-07C -0.182503 -8.20954e-07 -0.183693 1.1253 0.549294 1.1253C 1.28103 1.1253 1.28228 -8.20954e-07 0.549294 -8.20954e-07Z"/>
</defs>
</svg>
