<svg width="44" height="44" viewBox="0 0 44 44" version="1.1" xmlns="http://www.w3.org/2000/svg" xmlns:xlink="http://www.w3.org/1999/xlink">
<title>Group 5</title>
<desc>Created using Figma</desc>
<g id="Canvas" transform="translate(-5547 7843)">
<g id="Group 5">
<g id="photographer">
<g id="Group">
<g id="Group">
<g id="Vector">
<use xlink:href="#path0_fill" transform="translate(5554 -7826.88)" fill="#197AE3"/>
</g>
</g>
</g>
<g id="Group">
<g id="Group">
<g id="Vector">
<use xlink:href="#path1_fill" transform="translate(5582.5 -7816.35)" fill="#197AE3"/>
</g>
</g>
</g>
<g id="Group">
<g id="Group">
<g id="Vector">
<use xlink:href="#path2_fill" transform="translate(5554.01 -7836)" fill="#197AE3"/>
</g>
</g>
</g>
</g>
<g id="Ellipse 4">
<mask id="mask0_outline_ins">
<use xlink:href="#path3_fill" fill="white" transform="translate(5547 -7843)"/>
</mask>
<g mask="url(#mask0_outline_ins)">
<use xlink:href="#path4_stroke_2x" transform="translate(5547 -7843)" fill="#197AE3"/>
</g>
</g>
</g>
</g>
<defs>
<path id="path0_fill" d="M 0.948809 7.86778e-08L 0.612129 7.86778e-08C 0.274043 7.86778e-08 2.78309e-12 0.274042 2.78309e-12 0.612127C 2.78309e-12 0.950212 0.274043 1.22425 0.612129 1.22425L 0.948809 1.22425C 1.28689 1.22425 1.56094 0.950212 1.56094 0.612127C 1.56094 0.274042 1.28689 7.86778e-08 0.948809 7.86778e-08Z"/>
<path id="path1_fill" d="M 0.886171 8.58304e-08L 0.61213 8.58304e-08C 0.274044 8.58304e-08 -4.29153e-07 0.274041 -4.29153e-07 0.612126C -4.29153e-07 0.950211 0.274044 1.22425 0.61213 1.22425L 0.886171 1.22425C 1.22426 1.22425 1.4983 0.950211 1.4983 0.612126C 1.4983 0.274041 1.22426 8.58304e-08 0.886171 8.58304e-08Z"/>
<path id="path2_fill" d="M 29.3764 9.12254L 23.2586 9.12254C 23.0146 7.92507 22.0691 6.97966 20.8717 6.73562L 20.8717 0.612126C 20.8717 0.274042 20.5976 0 20.2596 0C 19.9215 0 19.6474 0.274042 19.6474 0.612126L 19.6474 6.73568C 18.4499 6.97972 17.5045 7.92512 17.2605 9.1226L 12.7281 9.1226C 12.484 7.92512 11.5386 6.97972 10.3412 6.73568L 10.3412 0.617869C 10.3412 0.279784 10.0671 0.00574216 9.72902 0.00574216C 9.39094 0.00574216 9.11689 0.279784 9.11689 0.617869L 9.11689 6.73568C 7.91941 6.97972 6.974 7.92512 6.72996 9.1226L 2.86072 9.1226C 2.52264 9.1226 2.24859 9.39664 2.24859 9.73473C 2.24859 10.0728 2.52264 10.3469 2.86072 10.3469L 6.7299 10.3469C 6.97395 11.5443 7.91941 12.4897 9.11684 12.7338L 9.11684 17.2662C 7.91935 17.5103 6.97395 18.4556 6.7299 19.6531L 0.612129 19.6531C 0.274043 19.6531 -3.14321e-11 19.9272 -3.14321e-11 20.2653C -3.14321e-11 20.6034 0.274043 20.8774 0.612129 20.8774L 6.7299 20.8774C 6.97395 22.0749 7.91941 23.0203 9.11684 23.2643L 9.11684 29.3879C 9.11684 29.726 9.39088 30 9.72896 30C 10.0671 30 10.3411 29.726 10.3411 29.3879L 10.3411 23.2642C 11.5386 23.0202 12.484 22.0748 12.728 20.8773L 17.2604 20.8773C 17.5044 22.0748 18.4499 23.0202 19.6473 23.2642L 19.6473 29.382C 19.6473 29.7201 19.9213 29.9941 20.2594 29.9941C 20.5975 29.9941 20.8716 29.7201 20.8716 29.382L 20.8716 23.2642C 22.069 23.0202 23.0145 22.0748 23.2585 20.8773L 27.1277 20.8773C 27.4658 20.8773 27.7398 20.6032 27.7398 20.2652C 27.7399 19.9271 27.4658 19.6531 27.1277 19.6531L 23.2586 19.6531C 23.0145 18.4556 22.069 17.5102 20.8716 17.2662L 20.8716 12.7337C 22.0691 12.4897 23.0145 11.5443 23.2586 10.3468L 29.3763 10.3468C 29.7144 10.3468 29.9885 10.0728 29.9885 9.73467C 29.9885 9.39658 29.7145 9.12254 29.3764 9.12254ZM 7.89258 9.73467C 7.89258 8.72211 8.71641 7.89829 9.72896 7.89829C 10.7415 7.89829 11.5654 8.72211 11.5654 9.73467C 11.5654 10.7472 10.7415 11.571 9.72896 11.571C 8.71641 11.571 7.89258 10.7473 7.89258 9.73467ZM 9.72896 22.1016C 8.71641 22.1016 7.89258 21.2778 7.89258 20.2652C 7.89258 19.2527 8.71641 18.4288 9.72896 18.4288C 10.7415 18.4288 11.5654 19.2527 11.5654 20.2652C 11.5654 21.2778 10.7416 22.1016 9.72896 22.1016ZM 17.2604 19.6531L 12.728 19.6531C 12.484 18.4556 11.5385 17.5102 10.3411 17.2662L 10.3411 12.7337C 11.5386 12.4897 12.484 11.5443 12.728 10.3468L 17.2604 10.3468C 17.5045 11.5443 18.4499 12.4897 19.6474 12.7337L 19.6474 17.2662C 18.4499 17.5102 17.5045 18.4556 17.2604 19.6531ZM 22.0959 20.2652C 22.0959 21.2778 21.2721 22.1016 20.2596 22.1016C 19.247 22.1016 18.4232 21.2778 18.4232 20.2652C 18.4232 19.2527 19.247 18.4288 20.2596 18.4288C 21.2721 18.4288 22.0959 19.2526 22.0959 20.2652ZM 20.2596 11.571C 19.247 11.571 18.4232 10.7472 18.4232 9.73467C 18.4232 8.72211 19.247 7.89829 20.2596 7.89829C 21.2721 7.89829 22.0959 8.72211 22.0959 9.73467C 22.0959 10.7473 21.2721 11.571 20.2596 11.571Z"/>
<path id="path3_fill" d="M 44 22C 44 34.1503 34.1503 44 22 44C 9.84974 44 0 34.1503 0 22C 0 9.84974 9.84974 0 22 0C 34.1503 0 44 9.84974 44 22Z"/>
<path id="path4_stroke_2x" d="M 43 22C 43 33.598 33.598 43 22 43L 22 45C 34.7025 45 45 34.7025 45 22L 43 22ZM 22 43C 10.402 43 1 33.598 1 22L -1 22C -1 34.7025 9.29745 45 22 45L 22 43ZM 1 22C 1 10.402 10.402 1 22 1L 22 -1C 9.29745 -1 -1 9.29745 -1 22L 1 22ZM 22 1C 33.598 1 43 10.402 43 22L 45 22C 45 9.29745 34.7025 -1 22 -1L 22 1Z"/>
</defs>
</svg>
