<svg width="44" height="44" viewBox="0 0 44 44" version="1.1" xmlns="http://www.w3.org/2000/svg" xmlns:xlink="http://www.w3.org/1999/xlink">
<title>Group 10</title>
<desc>Created using Figma</desc>
<g id="Canvas" transform="translate(-6010 7843)">
<g id="Group 10">
<g id="Ellipse 4.2">
<mask id="mask0_outline_ins">
<use xlink:href="#path0_fill" fill="white" transform="translate(6010 -7843)"/>
</mask>
<g mask="url(#mask0_outline_ins)">
<use xlink:href="#path1_stroke_2x" transform="translate(6010 -7843)" fill="#197AE3"/>
</g>
</g>
<g id="Rectangle 27">
<mask id="mask1_outline_ins">
<use xlink:href="#path2_fill" fill="white" transform="translate(6025 -7831)"/>
</mask>
<g mask="url(#mask1_outline_ins)">
<use xlink:href="#path3_stroke_2x" transform="translate(6025 -7831)" fill="#197AE3"/>
</g>
</g>
<g id="Vector">
<use xlink:href="#path4_stroke" transform="translate(6028.5 -7833.5)" fill="#197AE3"/>
</g>
<g id="Rectangle 28">
<use xlink:href="#path5_fill" transform="translate(6023 -7829)" fill="#197AE3"/>
</g>
<g id="Rectangle 28.1">
<use xlink:href="#path5_fill" transform="translate(6040 -7829)" fill="#197AE3"/>
</g>
<g id="Rectangle 28.3">
<use xlink:href="#path6_fill" transform="matrix(-1.83697e-16 -1 1 -1.83697e-16 6026 -7809)" fill="#197AE3"/>
</g>
</g>
</g>
<defs>
<path id="path0_fill" d="M 44 22C 44 34.1503 34.1503 44 22 44C 9.84974 44 0 34.1503 0 22C 0 9.84974 9.84974 0 22 0C 34.1503 0 44 9.84974 44 22Z"/>
<path id="path1_stroke_2x" d="M 43 22C 43 33.598 33.598 43 22 43L 22 45C 34.7025 45 45 34.7025 45 22L 43 22ZM 22 43C 10.402 43 1 33.598 1 22L -1 22C -1 34.7025 9.29745 45 22 45L 22 43ZM 1 22C 1 10.402 10.402 1 22 1L 22 -1C 9.29745 -1 -1 9.29745 -1 22L 1 22ZM 22 1C 33.598 1 43 10.402 43 22L 45 22C 45 9.29745 34.7025 -1 22 -1L 22 1Z"/>
<path id="path2_fill" d="M 0 2C 0 0.895431 0.895431 0 2 0L 12 0C 13.1046 0 14 0.895431 14 2L 14 18C 14 19.1046 13.1046 20 12 20L 2 20C 0.895431 20 0 19.1046 0 18L 0 2Z"/>
<path id="path3_stroke_2x" d="M 2 1L 12 1L 12 -1L 2 -1L 2 1ZM 13 2L 13 18L 15 18L 15 2L 13 2ZM 12 19L 2 19L 2 21L 12 21L 12 19ZM 1 18L 1 2L -1 2L -1 18L 1 18ZM 2 19C 1.44772 19 1 18.5523 1 18L -1 18C -1 19.6569 0.343146 21 2 21L 2 19ZM 13 18C 13 18.5523 12.5523 19 12 19L 12 21C 13.6569 21 15 19.6569 15 18L 13 18ZM 12 1C 12.5523 1 13 1.44772 13 2L 15 2C 15 0.343146 13.6569 -1 12 -1L 12 1ZM 2 -1C 0.343146 -1 -1 0.343146 -1 2L 1 2C 1 1.44772 1.44772 1 2 1L 2 -1Z"/>
<path id="path4_stroke" d="M 5.31102 0L 5.31102 -0.5L 5.00117 -0.5L 4.86327 -0.222523L 5.31102 0ZM 1.68005 0L 2.12781 -0.222524L 1.98991 -0.5L 1.68005 -0.5L 1.68005 0ZM -2.55774e-07 0L -2.55774e-07 -0.5L -0.5 -0.5L -0.5 0L -2.55774e-07 0ZM -2.55774e-07 3L -0.5 3L -0.5 3.5L -2.55774e-07 3.5L -2.55774e-07 3ZM 6.99069 3L 6.99069 3.5L 7.49069 3.5L 7.49069 3L 6.99069 3ZM 6.99069 0L 7.49069 0L 7.49069 -0.5L 6.99069 -0.5L 6.99069 0ZM 4.86327 -0.222523C 4.8046 -0.104482 4.66368 0.0423564 4.40757 0.162116L 4.83116 1.06797C 5.22851 0.882162 5.57209 0.598161 5.75877 0.222523L 4.86327 -0.222523ZM 4.40757 0.162116C 4.13465 0.293443 3.84728 0.352656 3.49416 0.349756L 3.49348 1.34976C 3.94955 1.34741 4.45064 1.24221 4.83116 1.06797L 4.40757 0.162116ZM 3.49405 0.349756C 3.14146 0.352243 2.85474 0.292892 2.58244 0.161621L 2.15819 1.06717C 2.53797 1.2414 3.03816 1.34689 3.49359 1.34976L 3.49405 0.349756ZM 2.58244 0.161621C 2.32697 0.0419318 2.18638 -0.104663 2.12781 -0.222524L 1.2323 0.222524C 1.41872 0.597626 1.76159 0.881357 2.15819 1.06717L 2.58244 0.161621ZM 1.68005 -0.5L -2.55774e-07 -0.5L -2.55774e-07 0.5L 1.68005 0.5L 1.68005 -0.5ZM -0.5 0L -0.5 3L 0.5 3L 0.5 0L -0.5 0ZM -2.55774e-07 3.5L 6.99069 3.5L 6.99069 2.5L -2.55774e-07 2.5L -2.55774e-07 3.5ZM 7.49069 3L 7.49069 0L 6.49069 0L 6.49069 3L 7.49069 3ZM 6.99069 -0.5L 5.31102 -0.5L 5.31102 0.5L 6.99069 0.5L 6.99069 -0.5Z"/>
<path id="path5_fill" d="M 0 0L 1 0L 1 16L 0 16L 0 0Z"/>
<path id="path6_fill" d="M 0 0L 1 0L 1 12L 0 12L 0 0Z"/>
</defs>
</svg>
