<svg width="44" height="44" viewBox="0 0 44 44" version="1.1" xmlns="http://www.w3.org/2000/svg" xmlns:xlink="http://www.w3.org/1999/xlink">
<title>Group 6</title>
<desc>Created using Figma</desc>
<g id="Canvas" transform="translate(-6010 7453)">
<g id="Group 6">
<g id="Ellipse 4.2">
<mask id="mask0_outline_ins">
<use xlink:href="#path0_fill" fill="white" transform="translate(6010 -7453)"/>
</mask>
<g mask="url(#mask0_outline_ins)">
<use xlink:href="#path1_stroke_2x" transform="translate(6010 -7453)" fill="#197AE3"/>
</g>
</g>
<g id="Vector">
<use xlink:href="#path2_stroke" transform="translate(6023 -7442)" fill="#197AE3"/>
</g>
</g>
</g>
<defs>
<path id="path0_fill" d="M 44 22C 44 34.1503 34.1503 44 22 44C 9.84974 44 0 34.1503 0 22C 0 9.84974 9.84974 0 22 0C 34.1503 0 44 9.84974 44 22Z"/>
<path id="path1_stroke_2x" d="M 43 22C 43 33.598 33.598 43 22 43L 22 45C 34.7025 45 45 34.7025 45 22L 43 22ZM 22 43C 10.402 43 1 33.598 1 22L -1 22C -1 34.7025 9.29745 45 22 45L 22 43ZM 1 22C 1 10.402 10.402 1 22 1L 22 -1C 9.29745 -1 -1 9.29745 -1 22L 1 22ZM 22 1C 33.598 1 43 10.402 43 22L 45 22C 45 9.29745 34.7025 -1 22 -1L 22 1Z"/>
<path id="path2_stroke" d="M 16.4263 7.94201L 16.7915 7.60051L 16.4263 7.94201ZM 1.57371 7.94201L 1.2085 7.60051L 1.57371 7.94201ZM 9.73042 0.781148L 9.36521 1.12264L 9.73042 0.781148ZM 7.90436 0.439651L 3.53211 5.11553L 4.26253 5.79853L 8.63479 1.12264L 7.90436 0.439651ZM 3.53211 5.11553L 1.2085 7.60051L 1.93892 8.2835L 4.26253 5.79853L 3.53211 5.11553ZM 2.30413 10.125L 4.0625 10.125L 4.0625 9.125L 2.30413 9.125L 2.30413 10.125ZM 4.5625 10.625L 4.5625 21L 5.5625 21L 5.5625 10.625L 4.5625 10.625ZM 6.0625 22.5L 11.9375 22.5L 11.9375 21.5L 6.0625 21.5L 6.0625 22.5ZM 13.4375 21L 13.4375 10.625L 12.4375 10.625L 12.4375 21L 13.4375 21ZM 9.36521 1.12264L 16.0611 8.2835L 16.7915 7.60051L 10.0956 0.439651L 9.36521 1.12264ZM 15.6959 9.125L 13.9375 9.125L 13.9375 10.125L 15.6959 10.125L 15.6959 9.125ZM 16.0611 8.2835C 16.3598 8.603 16.1333 9.125 15.6959 9.125L 15.6959 10.125C 17.0081 10.125 17.6877 8.55899 16.7915 7.60051L 16.0611 8.2835ZM 13.4375 10.625C 13.4375 10.3489 13.6614 10.125 13.9375 10.125L 13.9375 9.125C 13.1091 9.125 12.4375 9.79657 12.4375 10.625L 13.4375 10.625ZM 11.9375 22.5C 12.7659 22.5 13.4375 21.8284 13.4375 21L 12.4375 21C 12.4375 21.2761 12.2136 21.5 11.9375 21.5L 11.9375 22.5ZM 4.5625 21C 4.5625 21.8284 5.23407 22.5 6.0625 22.5L 6.0625 21.5C 5.78636 21.5 5.5625 21.2761 5.5625 21L 4.5625 21ZM 4.0625 10.125C 4.33864 10.125 4.5625 10.3489 4.5625 10.625L 5.5625 10.625C 5.5625 9.79657 4.89093 9.125 4.0625 9.125L 4.0625 10.125ZM 1.2085 7.60051C 0.31225 8.559 0.991901 10.125 2.30413 10.125L 2.30413 9.125C 1.86672 9.125 1.64017 8.603 1.93892 8.2835L 1.2085 7.60051ZM 4.26253 5.79853C 4.26253 5.79853 4.26253 5.79853 4.26253 5.79853C 4.26254 5.79853 4.26252 5.79854 4.26253 5.79854C 4.26252 5.79855 4.26275 5.7983 4.26299 5.79804C 4.23964 5.09259 3.53272 5.11488 3.53206 5.11559C 3.53219 5.11544 3.53209 5.11555 3.53221 5.11543C 3.53213 5.11551 3.53212 5.11552 3.5321 5.11555C 3.53211 5.11553 3.53211 5.11553 3.53211 5.11553C 3.53211 5.11553 3.53211 5.11553 3.53211 5.11553C 3.53211 5.11554 3.53211 5.11553 3.53211 5.11553C 3.53208 5.11557 3.53214 5.11551 3.53213 5.11551C 3.53209 5.11555 3.53219 5.11544 3.53242 5.1152C 3.53272 5.11488 4.23964 5.09259 4.26227 5.79881C 4.26324 5.79777 4.2625 5.79856 4.26251 5.79855C 4.26253 5.79853 4.26253 5.79854 4.26253 5.79853C 4.26253 5.79853 4.26253 5.79853 4.26253 5.79853C 4.26253 5.79853 4.26253 5.79853 4.26253 5.79853L 3.53211 5.11553L 3.53211 5.11553C 3.53211 5.11553 3.53211 5.11553 3.53211 5.11553C 3.53211 5.11554 3.53212 5.11552 3.53212 5.11553C 3.53213 5.11552 3.5319 5.11576 3.53165 5.11603C 3.555 5.82147 4.26192 5.79918 4.26258 5.79847C 4.26245 5.79862 4.26255 5.79851 4.26243 5.79864C 4.26252 5.79855 4.26252 5.79854 4.26255 5.79852C 4.26253 5.79853 4.26253 5.79853 4.26253 5.79853C 4.26253 5.79853 4.26253 5.79853 4.26253 5.79853L 4.26253 5.79853C 4.26253 5.79853 4.26253 5.79853 4.26253 5.79853C 4.26257 5.79849 4.26251 5.79856 4.26251 5.79855C 4.26255 5.79851 4.26245 5.79862 4.26223 5.79886C 4.26192 5.79918 3.555 5.82147 3.53237 5.11525C 3.5314 5.11629 3.53214 5.1155 3.53213 5.11551C 3.53211 5.11553 3.53212 5.11553 3.53211 5.11553C 3.53211 5.11553 3.53211 5.11553 3.53211 5.11553C 3.53211 5.11553 3.53211 5.11553 3.53211 5.11553L 4.26253 5.79853ZM 8.63479 1.12264C 8.8324 0.911308 9.1676 0.911308 9.36521 1.12264L 10.0956 0.439651C 9.50279 -0.194361 8.49721 -0.194361 7.90436 0.439651L 8.63479 1.12264Z"/>
</defs>
</svg>
