<svg width="76" height="76" viewBox="0 0 76 76" version="1.1" xmlns="http://www.w3.org/2000/svg" xmlns:xlink="http://www.w3.org/1999/xlink">
<title>Group 11</title>
<desc>Created using Figma</desc>
<g id="Canvas" transform="translate(-18816 -181)">
<g id="Group 11">
<g id="Group">
<g id="phone-call 2">
<g id="Group">
<g id="Group">
<g id="Vector">
<use xlink:href="#path0_fill" transform="translate(18836 205.909)" fill="#197AE3"/>
</g>
<g id="Vector">
<use xlink:href="#path1_fill" transform="translate(18853.1 209.985)" fill="#197AE3"/>
</g>
<g id="Vector">
<use xlink:href="#path2_fill" transform="translate(18853.3 204)" fill="#197AE3"/>
</g>
</g>
</g>
</g>
<g id="Ellipse 8">
<mask id="mask0_outline_ins">
<use xlink:href="#path3_fill" fill="white" transform="translate(18816 181)"/>
</mask>
<g mask="url(#mask0_outline_ins)">
<use xlink:href="#path4_stroke_2x" transform="translate(18816 181)" fill="#197AE3"/>
</g>
</g>
</g>
</g>
</g>
<defs>
<path id="path0_fill" d="M 26.0943 18.5335C 25.4178 17.8301 24.6017 17.454 23.7368 17.454C 22.8789 17.454 22.0558 17.8231 21.3513 18.5266L 19.1472 20.7205C 18.9659 20.623 18.7845 20.5325 18.6101 20.4419C 18.359 20.3166 18.1219 20.1981 17.9196 20.0728C 15.855 18.7634 13.9787 17.057 12.1792 14.8491C 11.3073 13.7487 10.7214 12.8223 10.2959 11.8821C 10.8679 11.3597 11.398 10.8165 11.9141 10.2941C 12.1094 10.0991 12.3047 9.89709 12.5 9.70208C 13.9648 8.23945 13.9648 6.345 12.5 4.88238L 10.5958 2.98097C 10.3796 2.76506 10.1564 2.54218 9.94717 2.3193C 9.52867 1.88748 9.08925 1.44173 8.63587 1.02384C 7.95929 0.355209 7.15019 9.56481e-09 6.29924 9.56481e-09C 5.44829 9.56481e-09 4.62524 0.355209 3.92773 1.02384C 3.92076 1.0308 3.92076 1.0308 3.91378 1.03777L 1.54228 3.42672C 0.649477 4.31823 0.140301 5.40475 0.0287012 6.66539C -0.138699 8.69913 0.461152 10.5936 0.921503 11.8333C 2.05146 14.877 3.73941 17.6978 6.25739 20.7205C 9.31245 24.3631 12.9883 27.2396 17.1872 29.2664C 18.7915 30.0256 20.9328 30.9241 23.3253 31.0773C 23.4717 31.0843 23.6252 31.0912 23.7647 31.0912C 25.3759 31.0912 26.7291 30.5131 27.7893 29.3639C 27.7962 29.35 27.8102 29.343 27.8172 29.3291C 28.1799 28.8903 28.5984 28.4933 29.0378 28.0685C 29.3377 27.7829 29.6446 27.4834 29.9445 27.17C 30.6351 26.4526 30.9978 25.6168 30.9978 24.7601C 30.9978 23.8965 30.6281 23.0677 29.9236 22.3712L 26.0943 18.5335ZM 28.5914 25.8676C 28.5844 25.8676 28.5844 25.8745 28.5914 25.8676C 28.3194 26.1601 28.0404 26.4248 27.7404 26.7173C 27.2871 27.1491 26.8267 27.6018 26.3943 28.1103C 25.6898 28.8625 24.8598 29.2177 23.7717 29.2177C 23.667 29.2177 23.5554 29.2177 23.4508 29.2107C 21.3792 29.0784 19.4541 28.2704 18.0103 27.5809C 14.0624 25.6725 10.5958 22.9632 7.71517 19.5295C 5.33669 16.667 3.74638 14.0203 2.69316 11.1786C 2.04448 9.44438 1.80733 8.09319 1.91196 6.81862C 1.98171 6.00373 2.29558 5.32813 2.87451 4.75005L 5.25299 2.37502C 5.59476 2.05464 5.95746 1.88052 6.31319 1.88052C 6.75262 1.88052 7.10834 2.14518 7.33154 2.36806C 7.33852 2.37502 7.34549 2.38199 7.35247 2.38895C 7.77794 2.78595 8.18249 3.19688 8.60797 3.63567C 8.82419 3.85854 9.0474 4.08142 9.2706 4.31126L 11.1748 6.21267C 11.9141 6.95095 11.9141 7.63351 11.1748 8.37179C 10.9725 8.57377 10.7772 8.77575 10.5749 8.97076C 9.98902 9.56974 9.43102 10.1269 8.82419 10.6702C 8.81025 10.6841 8.7963 10.6911 8.78932 10.705C 8.18947 11.304 8.30107 11.889 8.42662 12.286C 8.43359 12.3069 8.44057 12.3278 8.44754 12.3487C 8.94277 13.5467 9.64027 14.675 10.7005 16.0192L 10.7074 16.0262C 12.6326 18.3942 14.6623 20.2399 16.9013 21.6538C 17.1872 21.8349 17.4802 21.9812 17.7592 22.1205C 18.0103 22.2458 18.2474 22.3642 18.4497 22.4896C 18.4776 22.5035 18.5055 22.5244 18.5334 22.5383C 18.7706 22.6568 18.9938 22.7125 19.2239 22.7125C 19.8029 22.7125 20.1656 22.3503 20.2841 22.2319L 22.6696 19.8499C 22.9067 19.6131 23.2834 19.3275 23.7228 19.3275C 24.1553 19.3275 24.511 19.5992 24.7272 19.836C 24.7342 19.8429 24.7342 19.8429 24.7412 19.8499L 28.5844 23.6876C 29.3028 24.398 29.3028 25.1293 28.5914 25.8676Z"/>
<path id="path1_fill" d="M 0.77508 1.86525C 2.60253 2.1717 4.26259 3.03535 5.58784 4.35867C 6.91309 5.682 7.77102 7.33964 8.08489 9.16444C 8.16162 9.62412 8.5592 9.9445 9.01257 9.9445C 9.06837 9.9445 9.1172 9.93754 9.173 9.93058C 9.68915 9.847 10.0309 9.35946 9.94722 8.84406C 9.57057 6.63619 8.52432 4.62334 6.92704 3.02838C 5.32977 1.43342 3.31399 0.388692 1.10291 0.0125884C 0.586755 -0.0709902 0.105479 0.270289 0.0148034 0.778725C -0.0758718 1.28716 0.258928 1.78167 0.77508 1.86525Z"/>
<path id="path2_fill" d="M 15.6576 14.557C 15.0368 10.9213 13.3209 7.61302 10.6844 4.98029C 8.04782 2.34757 4.73468 0.634209 1.09373 0.0143348C 0.58455 -0.0762087 0.103274 0.272035 0.0125988 0.780471C -0.0711014 1.29587 0.270675 1.77645 0.786826 1.86699C 4.03718 2.41722 7.00156 3.95646 9.35912 6.30362C 11.7167 8.65775 13.2512 11.6178 13.8022 14.8635C 13.8789 15.3231 14.2765 15.6435 14.7299 15.6435C 14.7857 15.6435 14.8345 15.6366 14.8903 15.6296C 15.3995 15.553 15.7482 15.0654 15.6576 14.557Z"/>
<path id="path3_fill" d="M 76 38C 76 58.9868 58.9868 76 38 76C 17.0132 76 0 58.9868 0 38C 0 17.0132 17.0132 0 38 0C 58.9868 0 76 17.0132 76 38Z"/>
<path id="path4_stroke_2x" d="M 74 38C 74 57.8823 57.8823 74 38 74L 38 78C 60.0914 78 78 60.0914 78 38L 74 38ZM 38 74C 18.1177 74 2 57.8823 2 38L -2 38C -2 60.0914 15.9086 78 38 78L 38 74ZM 2 38C 2 18.1177 18.1177 2 38 2L 38 -2C 15.9086 -2 -2 15.9086 -2 38L 2 38ZM 38 2C 57.8823 2 74 18.1177 74 38L 78 38C 78 15.9086 60.0914 -2 38 -2L 38 2Z"/>
</defs>
</svg>
