<svg width="76" height="76" viewBox="0 0 76 76" version="1.1" xmlns="http://www.w3.org/2000/svg" xmlns:xlink="http://www.w3.org/1999/xlink">
<title>Group 13</title>
<desc>Created using Figma</desc>
<g id="Canvas" transform="translate(-19320 -181)">
<g id="Group 13">
<g id="Group">
<g id="Ellipse 8.2">
<mask id="mask0_outline_ins">
<use xlink:href="#path0_fill" fill="white" transform="translate(19320 181)"/>
</mask>
<g mask="url(#mask0_outline_ins)">
<use xlink:href="#path1_stroke_2x" transform="translate(19320 181)" fill="#197AE3"/>
</g>
</g>
<g id="text-documents">
<g id="Group">
<g id="Group">
<g id="Vector">
<use xlink:href="#path2_fill" transform="translate(19342 201)" fill="#197AE3"/>
</g>
<g id="Vector">
<use xlink:href="#path3_fill" transform="translate(19351.2 207.556)" fill="#197AE3"/>
</g>
<g id="Vector">
<use xlink:href="#path4_fill" transform="translate(19351.2 212.58)" fill="#197AE3"/>
</g>
<g id="Vector">
<use xlink:href="#path5_fill" transform="translate(19351.2 217.603)" fill="#197AE3"/>
</g>
<g id="Vector">
<use xlink:href="#path6_fill" transform="translate(19351.2 222.627)" fill="#197AE3"/>
</g>
</g>
</g>
</g>
</g>
</g>
</g>
<defs>
<path id="path0_fill" d="M 76 38C 76 58.9868 58.9868 76 38 76C 17.0132 76 0 58.9868 0 38C 0 17.0132 17.0132 0 38 0C 58.9868 0 76 17.0132 76 38Z"/>
<path id="path1_stroke_2x" d="M 74 38C 74 57.8823 57.8823 74 38 74L 38 78C 60.0914 78 78 60.0914 78 38L 74 38ZM 38 74C 18.1177 74 2 57.8823 2 38L -2 38C -2 60.0914 15.9086 78 38 78L 38 74ZM 2 38C 2 18.1177 18.1177 2 38 2L 38 -2C 15.9086 -2 -2 15.9086 -2 38L 2 38ZM 38 2C 57.8823 2 74 18.1177 74 38L 78 38C 78 15.9086 60.0914 -2 38 -2L 38 2Z"/>
<path id="path2_fill" d="M 28.3403 0L 7.7407 0C 6.2743 0 5.08095 1.18433 5.08095 2.63879L 5.08095 4.32404L 2.65967 4.32404C 1.19327 4.32404 -7.75703e-08 5.50836 -7.75703e-08 6.96283L -7.75703e-08 34.3612C -7.75703e-08 35.8157 1.19327 37 2.65967 37L 23.2599 37C 24.7264 37 25.9197 35.8157 25.9197 34.3612L 25.9197 32.676L 28.3403 32.676C 29.8069 32.676 31 31.4916 31 30.0373L 31 2.63879C 31 1.18433 29.8069 0 28.3403 0ZM 23.792 34.3612C 23.792 34.6519 23.5528 34.889 23.2599 34.889L 2.65967 34.889C 2.36682 34.889 2.12766 34.6518 2.12766 34.3612L 2.12766 6.96283C 2.12766 6.6719 2.36682 6.43501 2.65967 6.43501L 5.08095 6.43501L 5.08095 30.0372C 5.08095 31.4916 6.2743 32.6759 7.7407 32.6759L 23.792 32.6759L 23.792 34.3612ZM 28.8723 30.0373C 28.8723 30.3279 28.6337 30.5651 28.3403 30.5651L 7.7407 30.5651C 7.44716 30.5651 7.20876 30.3279 7.20876 30.0373L 7.20876 2.63879C 7.20876 2.34794 7.44723 2.11097 7.7407 2.11097L 28.3402 2.11097C 28.6337 2.11097 28.8723 2.34802 28.8723 2.63879L 28.8723 30.0373L 28.8723 30.0373Z"/>
<path id="path3_fill" d="M 16.6673 2.37873e-07L 1.06395 2.37873e-07C 0.4764 2.37873e-07 9.40246e-09 0.473028 9.40246e-09 1.05541C 9.40246e-09 1.63894 0.476477 2.11097 1.06395 2.11097L 16.6671 2.11097C 17.2547 2.11097 17.731 1.63886 17.731 1.05541C 17.7311 0.473104 17.2547 2.37873e-07 16.6673 2.37873e-07Z"/>
<path id="path4_fill" d="M 16.6673 5.31717e-07L 1.06395 5.31717e-07C 0.4764 5.31717e-07 9.40246e-09 0.472874 9.40246e-09 1.05541C 9.40246e-09 1.63878 0.476477 2.11097 1.06395 2.11097L 16.6671 2.11097C 17.2547 2.11097 17.731 1.63871 17.731 1.05541C 17.7311 0.472951 17.2547 5.31717e-07 16.6673 5.31717e-07Z"/>
<path id="path5_fill" d="M 16.6673 3.26493e-07L 1.06395 3.26493e-07C 0.4764 3.26493e-07 9.40246e-09 0.473104 9.40246e-09 1.05564C 9.40246e-09 1.63894 0.476477 2.11105 1.06395 2.11105L 16.6671 2.11105C 17.2547 2.11105 17.731 1.63894 17.731 1.05564C 17.7311 0.473104 17.2547 3.26493e-07 16.6673 3.26493e-07Z"/>
<path id="path6_fill" d="M 16.6673 5.78359e-07L 1.06395 5.78359e-07C 0.4764 5.78359e-07 9.40246e-09 0.473105 9.40246e-09 1.05541C 9.40246e-09 1.63909 0.476477 2.11097 1.06395 2.11097L 16.6671 2.11097C 17.2547 2.11097 17.731 1.63894 17.731 1.05541C 17.7311 0.473105 17.2547 5.78359e-07 16.6673 5.78359e-07Z"/>
</defs>
</svg>
