<svg width="76" height="76" viewBox="0 0 76 76" version="1.1" xmlns="http://www.w3.org/2000/svg" xmlns:xlink="http://www.w3.org/1999/xlink">
<g id="Canvas" fill="none">
<g id="Group 2">
<g id="Ellipse 8.3">
<circle cx="38" cy="38" r="37" stroke-width="2" stroke="#197AE3"/>
</g>
<g id="Group">
<g id="Vector">
<path d="M 33.4106 5.62499L 17.1489 0L 17.001 0L 16.8532 0L 0.591316 5.62499C 0.295623 5.81246 -1.26888e-08 6.18749 -1.26888e-08 6.56252L -1.26888e-08 38.4375C -1.26888e-08 38.8125 0.295693 39.1875 0.591316 39.375L 16.8532 45L 17.001 45L 17.1488 45L 33.4106 39.3749C 33.7063 39.1875 34.002 38.8124 34.002 38.4374L 34.002 6.56252C 34.002 6.18749 33.7063 5.81246 33.4106 5.62499ZM 10.3484 4.31243L 10.3484 21.1874L 9.60921 22.1249L 8.72221 20.9999C 8.42651 20.6249 7.98301 20.6249 7.68739 20.9999L 6.80038 22.1249L 6.06118 21.1874L 5.91337 5.81246L 10.3484 4.31243ZM 1.47832 37.6874L 1.47832 7.31248L 4.43504 6.37496L 4.43504 21.75C 4.43504 21.9375 4.58286 22.3125 4.58286 22.5L 6.06118 24.3749C 6.35687 24.75 6.80038 24.75 7.096 24.3749L 7.98301 23.2499L 8.87002 24.3749C 9.01783 24.5624 9.16571 24.5624 9.46133 24.5624C 9.75696 24.5624 9.90484 24.5624 10.0526 24.3749L 11.5311 22.5C 11.6789 22.3125 11.6789 22.1249 11.6789 21.75L 11.6789 3.75002L 16.114 2.25008L 16.2618 42.75L 1.47832 37.6874ZM 28.0886 5.62499L 28.0886 21L 27.3494 21.9375L 26.4624 20.8125C 26.1667 20.4374 25.7232 20.4374 25.4276 20.8125L 24.5406 21.9375L 23.8014 20.9999L 23.6535 4.12496L 28.0886 5.62499ZM 17.7402 42.7499L 17.7402 2.06244L 22.1752 3.56238L 22.1752 21.3749C 22.1752 21.5623 22.323 21.9374 22.323 22.1248L 23.8014 23.9998C 24.097 24.3748 24.5406 24.3748 24.8362 23.9998L 25.7232 22.8748L 26.6102 23.9998C 26.758 24.1873 26.9059 24.1873 27.2015 24.1873C 27.4971 24.1873 27.645 24.1873 27.7928 23.9998L 29.2711 22.1248C 29.419 21.9374 29.419 21.7498 29.419 21.3749L 29.419 5.99993L 32.3757 6.93746L 32.5236 37.6873L 17.7402 42.7499Z" transform="translate(21 15.4824)" fill="#197AE3"/>
</g>
<g id="Rectangle">
<path d="M 0 3.82382L 10.9473 0L 13.6576 34.0003L 1 34.0003L 0 3.82382Z" transform="translate(22.4785 18.9706)" fill="white"/>
</g>
<g id="Rectangle_2">
<path d="M 0 3.62098L 10.8682 0L 13.5785 34.0003L 0.920859 34.0003L 0 3.62098Z" transform="translate(53.0488 18.6947) scale(-1 1)" fill="white"/>
</g>
<g id="Ellipse">
<circle cx="1.13503" cy="1.13503" r="1.13503" transform="translate(24.5312 28.5568)" fill="#197AE3"/>
</g>
<g id="Ellipse_2">
<circle cx="1.13503" cy="1.13503" r="1.13503" transform="translate(49.2402 33.7007)" fill="#197AE3"/>
</g>
</g>
</g>
</g>
</svg>

