<svg width="76" height="76" viewBox="0 0 76 76" version="1.1" xmlns="http://www.w3.org/2000/svg" xmlns:xlink="http://www.w3.org/1999/xlink">
<g id="Canvas" fill="none">
<g id="Group 16">
<g id="Ellipse 8.2">
<circle cx="38" cy="38" r="37" stroke-width="2" stroke="#197AE3"/>
</g>
<g id="document">
<g id="Group">
<g id="Group_2">
<g id="Vector">
<path d="M 17.6176 4.20518e-07L 0.971481 4.20518e-07C 0.434066 4.20518e-07 -6.93871e-08 0.434056 -6.93871e-08 0.971457C -6.93871e-08 1.50886 0.434066 1.94291 0.971481 1.94291L 17.6176 1.94291C 18.155 1.94291 18.589 1.50886 18.589 0.971457C 18.589 0.434056 18.155 4.20518e-07 17.6176 4.20518e-07Z" transform="translate(27.1074 48.565)" fill="#197AE3"/>
</g>
</g>
</g>
<g id="Group_3">
<g id="Group_4">
<g id="Vector_2">
<path d="M 8.36438 -8.41036e-07L 0.971481 -8.41036e-07C 0.434066 -8.41036e-07 -6.93871e-08 0.434055 -6.93871e-08 0.971456C -6.93871e-08 1.50197 0.434066 1.94291 0.971481 1.94291L 8.36438 1.94291C 8.90179 1.94291 9.33586 1.50886 9.33586 0.971456C 9.33586 0.434055 8.90179 -8.41036e-07 8.36438 -8.41036e-07Z" transform="translate(27.1074 42.5502)" fill="#197AE3"/>
</g>
</g>
</g>
<g id="Group_5">
<g id="Group_6">
<g id="Vector_3">
<path d="M 8.36438 -4.20518e-07L 0.971481 -4.20518e-07C 0.434066 -4.20518e-07 -6.93871e-08 0.434055 -6.93871e-08 0.971457C -6.93871e-08 1.50886 0.434066 1.94291 0.971481 1.94291L 8.36438 1.94291C 8.90179 1.94291 9.33586 1.50886 9.33586 0.971457C 9.33586 0.434055 8.90179 -4.20518e-07 8.36438 -4.20518e-07Z" transform="translate(27.1074 36.5285)" fill="#197AE3"/>
</g>
</g>
</g>
<g id="Group_7">
<g id="Group_8">
<g id="Vector_4">
<path d="M 14.8478 4.20518e-07L 0.971481 4.20518e-07C 0.434066 4.20518e-07 -6.93871e-08 0.434055 -6.93871e-08 0.971456C -6.93871e-08 1.50197 0.434066 1.94291 0.971481 1.94291L 14.8478 1.94291C 15.3852 1.94291 15.8193 1.50886 15.8193 0.971456C 15.8193 0.434055 15.3852 4.20518e-07 14.8478 4.20518e-07Z" transform="translate(27.1074 30.5138)" fill="#197AE3"/>
</g>
</g>
</g>
<g id="Group_9">
<g id="Group_10">
<g id="Vector_5">
<path d="M 11.6784 -2.10259e-07L 0.971481 -2.10259e-07C 0.434066 -2.10259e-07 -1.68211e-08 0.434055 -1.68211e-08 0.971457C -1.68211e-08 1.50886 0.434066 1.94291 0.971481 1.94291L 11.6784 1.94291C 12.2159 1.94291 12.6499 1.50886 12.6499 0.971457C 12.6499 0.434055 12.2159 -2.10259e-07 11.6784 -2.10259e-07Z" transform="translate(33.0449 24.4921)" fill="#197AE3"/>
</g>
</g>
</g>
<g id="Group_11">
<g id="Group_12">
<g id="Vector_6">
<path d="M 34.0432 4.82972C 32.8167 3.60335 30.5844 3.65846 29.42 4.82972L 26.7949 7.45472L 26.7949 2.81102C 26.7949 1.26083 25.5341 0 23.9839 0L 7.90275 0C 7.15175 0 6.44898 0.28937 5.91845 0.819882L 0.819902 5.91142C 0.289377 6.44193 0 7.15157 0 7.89567L 0 32.189C 0 33.7392 1.26086 35 2.81109 35L 23.9907 35C 25.541 35 26.8018 33.7392 26.8018 32.189L 26.8018 16.6939L 34.05 9.44587C 35.3178 8.17815 35.3178 6.10433 34.0432 4.82972ZM 6.16649 3.32087L 6.16649 6.16634L 3.32095 6.16634L 6.16649 3.32087ZM 24.8589 32.189L 24.852 32.189C 24.852 32.6644 24.4662 33.0502 23.9907 33.0502L 2.81109 33.0502C 2.33569 33.0502 1.94985 32.6644 1.94985 32.189L 1.94985 8.10925L 7.14486 8.10925C 7.68228 8.10925 8.11634 7.6752 8.11634 7.13779L 8.11634 1.94291L 23.9976 1.94291C 24.473 1.94291 24.8589 2.32874 24.8589 2.80413L 24.8589 9.39075L 14.6067 19.6427C 14.4275 19.8219 14.3242 20.0699 14.3242 20.3317L 14.3242 23.5768C 14.3242 24.1142 14.7582 24.5482 15.2957 24.5482L 18.5477 24.5482C 18.8026 24.5482 19.0507 24.4449 19.2367 24.2657L 24.8589 18.6437L 24.8589 32.189ZM 32.6721 8.0748L 18.1412 22.5984L 16.2671 22.5984L 16.2671 20.7244L 30.798 6.20079C 31.301 5.69783 32.1691 5.69783 32.6721 6.20079C 33.1888 6.71752 33.1888 7.55807 32.6721 8.0748Z" transform="translate(23 20)" fill="#197AE3"/>
</g>
</g>
</g>
</g>
</g>
</g>
</svg>

