<svg width="76" height="76" viewBox="0 0 76 76" version="1.1" xmlns="http://www.w3.org/2000/svg" xmlns:xlink="http://www.w3.org/1999/xlink">
<g id="Canvas" fill="none">
<g id="Group 2">
<g id="Ellipse 8.3">
<circle cx="38" cy="38" r="37" stroke-width="2" stroke="#197AE3"/>
</g>
<g id="Group">
<g id="Vector">
<path d="M 32.8042 20.9321C 36.8307 17.0736 39.1063 13.0595 37.4592 10.2376C 36.8347 9.16773 35.367 7.89212 31.9214 7.89212C 30.2182 7.89212 28.2372 8.20079 26.0944 8.77862C 24.7093 3.68591 22.3845 0 19.205 0C 15.956 0 13.5992 3.84875 12.2259 9.11457C 9.95366 8.4774 7.85405 8.13568 6.06208 8.13568C 2.61645 8.13568 1.14861 9.41115 0.524231 10.4812C -0.701647 12.5814 0.238909 15.6322 3.17303 19.0716C 3.70301 19.6929 4.28887 20.3173 4.92334 20.9404C 4.3517 21.5098 3.82115 22.0799 3.33722 22.6471C 0.403107 26.0865 -0.53759 29.1372 0.68843 31.2375C 1.31296 32.3075 2.78065 33.5829 6.22642 33.5829C 7.9601 33.5829 9.9821 33.2626 12.1696 32.6648C 13.5342 38.0433 15.9108 42 19.2051 42C 22.4307 42 24.7768 38.2069 26.1544 32.9998C 28.2113 33.5389 30.1139 33.8266 31.7575 33.8266C 35.2031 33.8266 36.6709 32.5512 37.2953 31.4812C 38.5212 29.3808 37.5806 26.3301 34.6465 22.8907C 34.0909 22.2395 33.4741 21.5849 32.8042 20.9321ZM 31.9214 10.1421C 33.763 10.1421 35.0301 10.5755 35.4895 11.3626C 36.1797 12.5451 35.276 14.7934 33.072 17.3771C 32.4971 18.051 31.848 18.7299 31.1393 19.4076C 29.9987 18.4235 28.7457 17.453 27.4037 16.5144C 27.2426 14.6051 26.9795 12.7331 26.6165 10.9749C 28.5943 10.4342 30.4052 10.1421 31.9214 10.1421ZM 22.1303 25.9743C 21.0065 26.6161 19.871 27.2101 18.7414 27.7517C 17.7775 27.2768 16.8111 26.7648 15.8532 26.2177C 14.9449 25.699 14.0645 25.1612 13.2142 24.6101C 13.1342 23.4325 13.0921 22.2258 13.0921 20.9999C 13.0921 19.7113 13.1373 18.4432 13.2256 17.2088C 14.123 16.6225 15.0544 16.0509 16.0174 15.5007C 16.9214 14.9844 17.8331 14.4987 18.7431 14.0464C 19.818 14.5664 20.8973 15.1339 21.9664 15.7443C 23.0946 16.3885 24.1823 17.0615 25.2188 17.7544C 25.2833 18.8162 25.3181 19.8999 25.3181 20.9997C 25.3181 22.0371 25.2876 23.0603 25.2302 24.0643C 24.239 24.7218 23.2036 25.3613 22.1303 25.9743ZM 24.9866 26.8986C 24.8571 28.021 24.6916 29.1074 24.4892 30.1438C 23.4757 29.8029 22.4319 29.4055 21.3731 28.9572C 22.0047 28.6273 22.6371 28.2828 23.2676 27.9228C 23.8455 27.5929 24.4192 27.2508 24.9866 26.8986ZM 16.0956 28.9284C 15.337 29.2392 14.5878 29.5223 13.8529 29.7771C 13.7132 29.0223 13.5908 28.2447 13.4887 27.445C 13.8926 27.6888 14.3016 27.9295 14.7159 28.1662C 15.1752 28.4285 15.6354 28.682 16.0956 28.9284ZM 10.8546 22.9845C 9.93462 22.3108 9.06443 21.6242 8.2568 20.9311C 9.06543 20.2292 9.9366 19.5334 10.8612 18.8503C 10.8324 19.5673 10.8173 20.2851 10.8173 20.9997C 10.8173 21.6598 10.83 22.3223 10.8546 22.9845ZM 13.5144 14.3575C 13.6208 13.5528 13.7469 12.7698 13.8915 12.0119C 14.6209 12.2691 15.3643 12.5551 16.1162 12.8667C 15.7039 13.089 15.2915 13.3174 14.8801 13.5524C 14.4183 13.8161 13.963 14.0847 13.5144 14.3575ZM 21.357 12.838C 22.4056 12.3891 23.4397 11.9905 24.446 11.6458C 24.6554 12.6857 24.8281 13.7758 24.9633 14.9049C 24.356 14.5272 23.7359 14.1568 23.1037 13.7957C 22.5222 13.4638 21.9396 13.1444 21.357 12.838ZM 27.5689 19.4266C 28.2228 19.9217 28.8478 20.4233 29.441 20.9281C 28.8479 21.4275 28.2257 21.9232 27.5737 22.4126C 27.5862 21.9412 27.5926 21.47 27.5926 21C 27.5926 20.4766 27.5845 19.9515 27.5689 19.4266ZM 15.148 7.32808C 16.308 4.14828 17.8246 2.24999 19.205 2.24999C 20.5854 2.24999 22.102 4.14828 23.2619 7.32808C 23.504 7.99154 23.7256 8.69663 23.9272 9.43604C 22.2487 9.99966 20.5005 10.7081 18.7304 11.545C 17.2556 10.8672 15.7993 10.2796 14.3895 9.79294C 14.6154 8.92332 14.8676 8.09701 15.148 7.32808ZM 2.49391 11.6062C 2.95324 10.8191 4.22034 10.3857 6.06208 10.3857C 7.66909 10.3857 9.60735 10.7143 11.7239 11.3187C 11.4319 12.7982 11.2094 14.3535 11.0579 15.9403C 9.4278 17.0534 7.92129 18.2155 6.57813 19.3948C 5.97265 18.8023 5.41381 18.2094 4.91126 17.6205C 2.70744 15.0371 1.80385 12.7887 2.49391 11.6062ZM 6.22627 31.3329C 4.38469 31.3329 3.11744 30.8995 2.65797 30.1125C 1.9679 28.9299 2.8715 26.6815 5.07546 24.0981C 5.53507 23.5592 6.04146 23.017 6.58794 22.4747C 7.92741 23.6374 9.42439 24.7818 11.0406 25.8777C 11.1849 27.4478 11.3988 28.9889 11.6804 30.4581C 9.64474 31.0251 7.78055 31.3329 6.22627 31.3329ZM 23.2619 34.6718C 22.102 37.8516 20.5854 39.7499 19.205 39.7499C 17.8246 39.7499 16.308 37.8516 15.148 34.6718C 14.8454 33.8421 14.5754 32.946 14.3363 31.9996C 15.7608 31.5166 17.2342 30.9306 18.7282 30.2504C 20.5201 31.0904 22.2881 31.7976 23.9824 32.3557C 23.7661 33.1709 23.5266 33.9464 23.2619 34.6718ZM 35.3253 30.356C 34.8661 31.1431 33.5988 31.5765 31.7573 31.5765C 30.2952 31.5765 28.5583 31.3038 26.6629 30.7998C 27.0137 29.0493 27.2669 27.1904 27.4196 25.2973C 28.726 24.3862 29.9719 23.43 31.1204 22.4512C 31.7722 23.0824 32.3727 23.7142 32.9078 24.3417C 35.1119 26.9252 36.0155 29.1735 35.3253 30.356Z" transform="translate(19 17)" fill="#197AE3"/>
</g>
<g id="Vector_2">
<path d="M 2.27462 4.49998C 3.53086 4.49998 4.54924 3.49263 4.54924 2.24999C 4.54924 1.00736 3.53086 0 2.27462 0C 1.01838 0 0 1.00736 0 2.24999C 0 3.49263 1.01838 4.49998 2.27462 4.49998Z" transform="translate(35.9316 35.7032)" fill="#197AE3"/>
</g>
</g>
</g>
</g>
</svg>

