<svg width="76" height="76" viewBox="0 0 76 76" version="1.1" xmlns="http://www.w3.org/2000/svg" xmlns:xlink="http://www.w3.org/1999/xlink">
<title>Group 14</title>
<desc>Created using Figma</desc>
<g id="Canvas" transform="translate(-19572 -181)">
<g id="Group 14">
<g id="Group">
<g id="Ellipse 8.3">
<mask id="mask0_outline_ins">
<use xlink:href="#path0_fill" fill="white" transform="translate(19572 181)"/>
</mask>
<g mask="url(#mask0_outline_ins)">
<use xlink:href="#path1_stroke_2x" transform="translate(19572 181)" fill="#197AE3"/>
</g>
</g>
<g id="pipe">
<g id="Group">
<g id="Group">
<g id="Group">
<g id="Vector">
<use xlink:href="#path2_fill" transform="translate(19590 204)" fill="#197AE3"/>
</g>
<g id="Vector">
<use xlink:href="#path3_fill" transform="translate(19610.7 213.903)" fill="#197AE3"/>
</g>
<g id="Vector">
<use xlink:href="#path4_fill" transform="translate(19610.7 216.732)" fill="#197AE3"/>
</g>
</g>
</g>
</g>
</g>
</g>
</g>
</g>
<defs>
<path id="path0_fill" d="M 76 38C 76 58.9868 58.9868 76 38 76C 17.0132 76 0 58.9868 0 38C 0 17.0132 17.0132 0 38 0C 58.9868 0 76 17.0132 76 38Z"/>
<path id="path1_stroke_2x" d="M 74 38C 74 57.8823 57.8823 74 38 74L 38 78C 60.0914 78 78 60.0914 78 38L 74 38ZM 38 74C 18.1177 74 2 57.8823 2 38L -2 38C -2 60.0914 15.9086 78 38 78L 38 74ZM 2 38C 2 18.1177 18.1177 2 38 2L 38 -2C 15.9086 -2 -2 15.9086 -2 38L 2 38ZM 38 2C 57.8823 2 74 18.1177 74 38L 78 38C 78 15.9086 60.0914 -2 38 -2L 38 2Z"/>
<path id="path2_fill" d="M 38.6667 13.439L 36 13.439C 35.2666 13.439 34.6666 14.0756 34.6666 14.8536L 34.6666 15.5609L 25.3333 15.5609L 25.3333 5.65849L 26 5.65849C 26.7333 5.65849 27.3333 5.02192 27.3333 4.24385L 27.3333 1.41464C 27.3333 0.636577 26.7333 -8.74386e-08 26 -8.74386e-08L 14 -8.74386e-08C 13.2666 -8.74386e-08 12.6666 0.636577 12.6666 1.41464L 12.6666 4.24393C 12.6666 5.022 13.2666 5.65858 14 5.65858L 14.6666 5.65858L 14.6666 15.561L 5.33337 15.561L 5.33337 14.8536C 5.33337 14.0756 4.73337 13.439 4.00002 13.439L 1.33334 13.439C 0.599992 13.439 0 14.0756 0 14.8536L 0 27.5854C 0 28.3634 0.599992 29 1.33334 29L 4.00002 29C 4.73337 29 5.33337 28.3634 5.33337 27.5854L 5.33337 26.8781L 34.6666 26.8781L 34.6666 27.5854C 34.6666 28.3634 35.2666 29 36 29L 38.6667 29C 39.4 29 40 28.3634 40 27.5854L 40 14.8536C 40 14.0756 39.3999 13.439 38.6667 13.439ZM 14 1.41464L 26 1.41464L 26 4.24393L 24.6666 4.24393L 15.3333 4.24393L 14 4.24393L 14 1.41464ZM 4.00002 27.5854L 1.33334 27.5854L 1.33334 14.8536L 4.00002 14.8536L 4.00002 16.2683L 4.00002 26.1707L 4.00002 27.5854ZM 5.33337 25.4634L 5.33337 16.9756L 15.3334 16.9756C 15.7334 16.9756 16 16.6927 16 16.2683L 16 5.65849L 20.6667 5.65849L 20.6667 7.78042C 20.6667 8.2048 20.9333 8.4877 21.3333 8.4877C 21.7333 8.4877 21.9999 8.2048 21.9999 7.78042L 21.9999 5.65849L 23.9999 5.65849L 23.9999 16.2683C 23.9999 16.6927 24.2665 16.9756 24.6665 16.9756L 34.6666 16.9756L 34.6666 18.3902L 31.9999 18.3902C 31.5999 18.3902 31.3332 18.6731 31.3332 19.0975C 31.3332 19.5219 31.5999 19.8048 31.9999 19.8048L 34.6666 19.8048L 34.6666 25.4633L 5.33337 25.4633L 5.33337 25.4634ZM 38.6667 27.5854L 36 27.5854L 36 26.1707L 36 16.2683L 36 14.8536L 38.6667 14.8536L 38.6667 27.5854Z"/>
<path id="path3_fill" d="M 0.666631 1.41456C 1.06663 1.41456 1.33326 1.13166 1.33326 0.70728C 1.33326 0.282895 1.06663 -5.04058e-07 0.666631 -5.04058e-07C 0.266636 -5.04058e-07 -7.1748e-07 0.282895 -7.1748e-07 0.70728C -7.1748e-07 1.13166 0.333275 1.41456 0.666631 1.41456Z"/>
<path id="path4_fill" d="M 7.33326 5.65849L 1.33326 5.65849L 1.33326 0.70728C 1.33326 0.282895 1.06663 6.17214e-07 0.666631 6.17214e-07C 0.266637 6.17214e-07 -1.55131e-07 0.282895 -1.55131e-07 0.70728L -1.55131e-07 6.36586C -1.55131e-07 6.79024 0.266637 7.07314 0.666631 7.07314L 7.33326 7.07314C 7.73325 7.07314 7.99989 6.79024 7.99989 6.36586C 7.99989 5.94147 7.73325 5.65849 7.33326 5.65849Z"/>
</defs>
</svg>
