<svg width="76" height="76" viewBox="0 0 76 76" version="1.1" xmlns="http://www.w3.org/2000/svg" xmlns:xlink="http://www.w3.org/1999/xlink">
<title>Group 15</title>
<desc>Created using Figma</desc>
<g id="Canvas" transform="translate(-19824 -181)">
<g id="Group 15">
<g id="Group">
<g id="Ellipse 8.4">
<mask id="mask0_outline_ins">
<use xlink:href="#path0_fill" fill="white" transform="translate(19824 181)"/>
</mask>
<g mask="url(#mask0_outline_ins)">
<use xlink:href="#path1_stroke_2x" transform="translate(19824 181)" fill="#197AE3"/>
</g>
</g>
<g id="gas-station 2">
<g id="Vector">
<use xlink:href="#path2_fill" transform="matrix(-1 0 0 1 19880 204)" fill="#197AE3"/>
</g>
</g>
</g>
</g>
</g>
<defs>
<path id="path0_fill" d="M 76 38C 76 58.9868 58.9868 76 38 76C 17.0132 76 0 58.9868 0 38C 0 17.0132 17.0132 0 38 0C 58.9868 0 76 17.0132 76 38Z"/>
<path id="path1_stroke_2x" d="M 74 38C 74 57.8823 57.8823 74 38 74L 38 78C 60.0914 78 78 60.0914 78 38L 74 38ZM 38 74C 18.1177 74 2 57.8823 2 38L -2 38C -2 60.0914 15.9086 78 38 78L 38 74ZM 2 38C 2 18.1177 18.1177 2 38 2L 38 -2C 15.9086 -2 -2 15.9086 -2 38L 2 38ZM 38 2C 57.8823 2 74 18.1177 74 38L 78 38C 78 15.9086 60.0914 -2 38 -2L 38 2Z"/>
<path id="path2_fill" d="M 38.996 3.96602L 38.6715 0.71128C 38.6508 0.50284 38.5483 0.311162 38.3867 0.17855C 38.2251 0.045938 38.0176 -0.0170767 37.81 0.00398673L 32.3567 0.551724C 29.8909 0.799396 27.5679 1.90417 25.8157 3.66271L 21.626 7.86733L 21.5546 7.79571C 21.3271 7.56744 20.9843 7.50109 20.6886 7.62791L 9.72126 12.3331C 9.62899 12.3727 9.54512 12.4297 9.47411 12.5009L 4.95339 17.0376C 4.71761 17.2742 4.65595 17.6342 4.79955 17.9362C 4.93117 18.213 5.20893 18.386 5.50969 18.386C 5.53706 18.386 5.5647 18.3845 5.59242 18.3816L 5.90804 18.3482L 0.230553 24.0456C -0.0768511 24.3541 -0.0768511 24.8542 0.230553 25.1627L 6.00643 30.959C 6.15406 31.1072 6.35424 31.1904 6.56299 31.1904C 6.77175 31.1904 6.97193 31.1072 7.11956 30.959L 12.4519 25.6079L 15.3576 28.5238L 13.2373 30.6516C 12.9299 30.9601 12.9299 31.4602 13.2373 31.7687C 13.391 31.9229 13.5924 32 13.7939 32C 13.9953 32 14.1968 31.9229 14.3504 31.7687L 21.417 24.677C 23.7347 22.3512 25.1255 19.291 25.3602 16.0213C 25.3697 15.8893 25.573 12.2008 25.573 12.2008C 25.5855 11.9764 25.5021 11.7572 25.3437 11.5984L 25.0436 11.2972L 29.4124 6.91298C 30.2626 6.05982 31.3896 5.52384 32.5858 5.40369L 38.2911 4.83068C 38.7238 4.78715 39.0393 4.40011 38.996 3.96602ZM 10.4797 13.7257L 20.8178 9.29043L 23.9818 12.4656L 23.8486 14.8646L 7.63852 16.5769L 10.4797 13.7257ZM 6.56299 29.2834L 1.90024 24.6042L 8.39596 18.0855L 18.8187 16.9845L 6.56299 29.2834ZM 20.304 23.5599L 16.4707 27.4068L 13.565 24.4908L 21.3068 16.7216L 23.7367 16.4649C 23.4199 19.1447 22.2206 21.6364 20.304 23.5599ZM 25.5761 6.13705L 26.1912 7.91147L 25.3593 8.74638L 24.7441 6.97196L 25.5761 6.13705ZM 23.5076 8.21294L 24.1227 9.98737L 23.9307 10.1801L 22.739 8.98422L 23.5076 8.21294ZM 32.4292 3.83166C 30.8724 3.98796 29.4058 4.68552 28.2994 5.79582L 27.4277 6.67057L 26.8125 4.89606L 26.9286 4.77951C 28.4247 3.27821 30.4081 2.33492 32.5133 2.12341L 37.1834 1.6544L 37.3513 3.33728L 32.4292 3.83166Z"/>
</defs>
</svg>
