<svg width="39" height="38" viewBox="0 0 39 38" version="1.1" xmlns="http://www.w3.org/2000/svg" xmlns:xlink="http://www.w3.org/1999/xlink">
<g id="Canvas" fill="none">
<g id="eco">
<g id="Group">
<g id="Group_2">
<g id="Vector">
<path d="M 22.071 1.1121L 22.0652 1.09184C 22.0057 0.845585 21.823 0.643414 21.5774 0.561996C 21.4863 0.531715 19.3086 -0.176478 16.1993 0.04165C 13.337 0.242337 9.10591 1.3004 5.20319 5.20169C 1.30054 9.10306 0.242194 13.3326 0.0415868 16.1938C -0.176394 19.3021 0.532044 21.4788 0.562336 21.5699C 0.636134 21.7923 0.810682 21.9667 1.03304 22.0405C 1.11211 22.0667 2.75944 22.6026 5.22294 22.6026C 5.60062 22.6026 5.99767 22.59 6.41099 22.561C 9.27318 22.3604 13.5042 21.3024 17.4069 17.4012C 24.3122 10.4981 22.5037 2.62104 22.071 1.1121ZM 14.4464 1.76523C 15.0333 1.65197 15.631 1.57211 16.2396 1.52691C 17.7435 1.41529 19.0174 1.54561 19.885 1.69331C 19.8479 1.71876 19.8124 1.74741 19.7795 1.78029L 14.4464 7.11163L 14.4464 1.76523ZM 12.9615 2.13172L 12.9615 8.596L 7.98497 13.5708L 7.98497 4.79809C 7.98497 4.77382 7.98363 4.74992 7.98133 4.72625C 9.52138 3.53437 11.1855 2.66772 12.9615 2.13172ZM 1.52276 16.2976C 1.78885 12.5031 3.38035 9.12302 6.25315 6.25129C 6.33504 6.1695 6.41738 6.08897 6.50008 6.00919L 6.50008 15.0221C 6.50008 15.0327 6.5012 15.043 6.50164 15.0535L 1.68958 19.8638C 1.54518 19.0125 1.41941 17.7719 1.52276 16.2976ZM 6.37068 21.0757C 4.87607 21.1866 3.60842 21.0585 2.74118 20.9118L 5.06042 18.5934C 5.06294 18.5934 5.06532 18.5937 5.06784 18.5937L 13.6277 18.5937C 11.4295 20.0476 9.00018 20.8805 6.37068 21.0757ZM 16.357 16.3515C 16.0934 16.6149 15.8254 16.8675 15.5533 17.1095L 6.54493 17.1095L 10.8541 12.8018L 19.1043 12.8018C 18.4218 13.9856 17.526 15.1828 16.357 16.3515ZM 19.8573 11.3174L 12.3389 11.3174L 20.8294 2.82982C 20.8611 2.79812 20.8887 2.76398 20.9134 2.72851C 21.2214 4.51918 21.4159 7.77447 19.8573 11.3174Z" transform="translate(15.3945 15.3974)" fill="#197AE3"/>
</g>
</g>
</g>
<g id="Group_3">
<g id="Group_4">
<g id="Vector_2">
<path d="M 17.4036 5.20164C 13.5009 1.30035 9.26978 0.242289 6.40744 0.0416021C 3.29832 -0.176378 1.12052 0.531741 1.02935 0.561948C 0.783748 0.64344 0.601108 0.845611 0.541564 1.09187L 0.535773 1.11213C 0.103078 2.62114 -1.70544 10.4982 5.19994 17.4012C 7.39073 19.5913 9.89996 21.1136 12.6578 21.9257C 12.7278 21.9463 12.7985 21.9561 12.8679 21.9561C 13.1887 21.9561 13.4845 21.7466 13.5798 21.4235C 13.6957 21.0303 13.4707 20.6176 13.0775 20.5019C 10.5604 19.7606 8.26332 18.3642 6.24997 16.3516C 4.49506 14.5973 3.35415 12.7788 2.6299 11.0377L 9.98794 11.0377L 13.5714 14.6199C 13.7164 14.7648 13.9064 14.8373 14.0964 14.8373C 14.2864 14.8373 14.4764 14.7648 14.6214 14.6199C 14.9113 14.3301 14.9113 13.8601 14.6214 13.5702L 13.8028 12.7521L 13.8028 4.1277C 14.6921 4.73303 15.5431 5.44122 16.3536 6.25131C 16.6435 6.54114 17.1136 6.54114 17.4036 6.25131C 17.6936 5.96149 17.6935 5.49154 17.4036 5.20164ZM 6.30358 1.52241C 6.62869 1.54519 6.95061 1.57844 7.26957 1.62067L 7.26957 6.22111L 2.78478 1.73787C 2.7677 1.72079 2.74981 1.70484 2.73154 1.68977C 3.58342 1.54512 4.82634 1.41873 6.30358 1.52241ZM 2.10269 9.55337L 2.10269 9.55329C 1.26247 6.72394 1.43658 4.22908 1.69146 2.73959C 1.70519 2.75592 1.71937 2.7721 1.73474 2.78754L 8.50291 9.55344L 2.10269 9.55344L 2.10269 9.55337ZM 12.318 11.2678L 8.75438 7.7054L 8.75438 1.89172C 9.995 2.18347 11.1841 2.63071 12.318 3.23151L 12.318 11.2678Z" transform="translate(0 15.3974)" fill="#197AE3"/>
</g>
</g>
</g>
<g id="Group_5">
<g id="Group_6">
<g id="Vector_3">
<path d="M 5.22864 2.15553C 3.79395 1.733 2.43186 1.05575 1.18018 0.142719C 0.848905 -0.0989366 0.384508 -0.0263499 0.142769 0.304739C -0.0989696 0.635827 -0.026359 1.10014 0.304844 1.34179C 1.69469 2.35577 3.21009 3.10857 4.80894 3.57941C 4.87895 3.60004 4.94963 3.60984 5.01912 3.60984C 5.33986 3.60984 5.63572 3.40039 5.73098 3.07724C 5.84687 2.68396 5.62199 2.27131 5.22864 2.15553Z" transform="translate(8.78711 31.2133)" fill="#197AE3"/>
</g>
</g>
</g>
<g id="Group_7">
<g id="Group_8">
<g id="Vector_4">
<path d="M 1.26807 0.219214L 1.26547 0.216616C 0.975551 -0.0730587 0.506848 -0.0717966 0.216776 0.217952C -0.0731476 0.507776 -0.0718114 0.979063 0.218112 1.26889C 0.363111 1.41384 0.553101 1.48627 0.743092 1.48627C 0.933083 1.48627 1.12315 1.41384 1.26807 1.26889C 1.558 0.979063 1.558 0.509111 1.26807 0.219214Z" transform="translate(6.91406 29.6035)" fill="#197AE3"/>
</g>
</g>
</g>
<g id="Group_9">
<g id="Group_10">
<g id="Vector_5">
<path d="M 5.5049 9.4256L 1.48481 9.4256L 1.48481 6.19717L 4.25411 6.19717C 4.66416 6.19717 4.99656 5.86489 4.99656 5.45498C 4.99656 5.04508 4.66416 4.7128 4.25411 4.7128L 1.48481 4.7128L 1.48481 1.48437L 5.50483 1.48437C 5.91488 1.48437 6.24727 1.15209 6.24727 0.742185C 6.24727 0.332276 5.91488 0 5.50483 0L 0.742441 0C 0.332391 0 3.85178e-08 0.332276 3.85178e-08 0.742185L 3.85178e-08 10.1677C 3.85178e-08 10.5776 0.332391 10.9099 0.742441 10.9099L 5.5049 10.9099C 5.91495 10.9099 6.24735 10.5776 6.24735 10.1677C 6.24735 9.7578 5.91495 9.4256 5.5049 9.4256Z" transform="translate(4.00391 0)" fill="#197AE3"/>
</g>
</g>
</g>
<g id="Group_11">
<g id="Group_12">
<g id="Vector_6">
<path d="M 5.4568 0C 2.4479 0 -5.25654e-07 2.44706 -5.25654e-07 5.45491C -5.25654e-07 8.46276 2.4479 10.9098 5.4568 10.9098C 8.46569 10.9098 10.9136 8.46276 10.9136 5.45491C 10.9136 2.44706 8.46569 0 5.4568 0ZM 5.4568 9.42552C 3.26667 9.42552 1.48481 7.64435 1.48481 5.45491C 1.48481 3.26546 3.26659 1.4843 5.4568 1.4843C 7.647 1.4843 9.42878 3.26546 9.42878 5.45491C 9.42878 7.64435 7.64692 9.42552 5.4568 9.42552Z" transform="translate(23.0449 0.00012207)" fill="#197AE3"/>
</g>
</g>
</g>
<g id="Group_13">
<g id="Group_14">
<g id="Vector_7">
<path d="M 8.26276 8.26C 6.71418 9.80812 4.19418 9.80812 2.6456 8.26C 1.09694 6.71195 1.09694 4.1929 2.6456 2.64478C 4.19418 1.09665 6.7141 1.09665 8.26276 2.64478C 8.55268 2.9346 9.0228 2.9346 9.3128 2.64478C 9.60272 2.35495 9.60272 1.885 9.3128 1.5951C 7.18518 -0.531701 3.72332 -0.531701 1.59571 1.5951C -0.531904 3.72198 -0.531904 7.18272 1.59571 9.30952C 2.65948 10.373 4.05683 10.9047 5.45425 10.9047C 6.85168 10.9047 8.24902 10.3729 9.31287 9.3096C 9.60279 9.01977 9.60279 8.54982 9.31287 8.25992C 9.02287 7.97017 8.55276 7.97018 8.26276 8.26Z" transform="translate(11.8906 0.00259399)" fill="#197AE3"/>
</g>
</g>
</g>
<g id="Group_15">
<g id="Group_16">
<g id="Vector_8">
<path d="M 0.742441 1.26838e-07C 0.33239 1.26838e-07 -5.07528e-07 0.332276 -5.07528e-07 0.742185L -5.07528e-07 2.84101C -5.07528e-07 3.25092 0.33239 3.58319 0.742441 3.58319C 1.15249 3.58319 1.48488 3.25092 1.48488 2.84101L 1.48488 0.742185C 1.48481 0.332276 1.15242 1.26838e-07 0.742441 1.26838e-07Z" transform="translate(18.2637 12.6438)" fill="#197AE3"/>
</g>
</g>
</g>
<g id="Group_17">
<g id="Group_18">
<g id="Vector_9">
<path d="M 2.78134 0.217395C 2.49134 -0.0725023 2.02131 -0.0724281 1.73138 0.217395L 0.21747 1.73071C -0.0724531 2.02053 -0.0725273 2.49048 0.21747 2.78031C 0.362469 2.92526 0.552461 2.99769 0.742452 2.99769C 0.932442 2.99769 1.12251 2.92518 1.26743 2.78031L 2.78127 1.26699C 3.07127 0.977095 3.07134 0.507144 2.78134 0.217395Z" transform="translate(20.5566 14.4709)" fill="#197AE3"/>
</g>
</g>
</g>
<g id="Group_19">
<g id="Group_20">
<g id="Vector_10">
<path d="M 2.78379 1.73328L 1.26743 0.217368C 0.977433 -0.0725297 0.507394 -0.0723813 0.217471 0.217368C -0.0724527 0.507191 -0.0725269 0.977142 0.217471 1.26697L 1.73383 2.78288C 1.87883 2.92783 2.06882 3.00026 2.25881 3.00026C 2.4488 3.00026 2.63887 2.92775 2.78379 2.78288C 3.07372 2.49305 3.07379 2.0231 2.78379 1.73328Z" transform="translate(14.4434 14.4465)" fill="#197AE3"/>
</g>
</g>
</g>
</g>
</g>
</svg>

