<svg width="41" height="41" viewBox="0 0 41 41" version="1.1" xmlns="http://www.w3.org/2000/svg" xmlns:xlink="http://www.w3.org/1999/xlink">
<g id="Canvas" fill="none">
<g id="efficiency">
<g id="Group">
<g id="Group_2">
<g id="Vector">
<path d="M 39.7988 15.4391L 36.3561 15.4391C 36.074 14.555 35.7172 13.695 35.2893 12.868L 37.725 10.4323C 37.9503 10.207 38.0769 9.9015 38.0769 9.58295C 38.0769 9.26432 37.9503 8.95882 37.725 8.73364L 32.2666 3.2752C 31.7976 2.8061 31.0371 2.8061 30.5679 3.2752L 28.1322 5.71085C 27.305 5.28299 26.4451 4.92625 25.5609 4.64405L 25.5609 1.20117C 25.5609 0.537805 25.0231 0 24.3598 0L 16.6404 0C 15.977 0 15.4392 0.537805 15.4392 1.20117L 15.4392 4.64389C 14.5552 4.92601 13.6952 5.28283 12.8682 5.71069L 10.4325 3.27504C 9.9634 2.80594 9.2029 2.80594 8.7338 3.27504L 3.2752 8.73348C 3.04994 8.95874 2.92341 9.26424 2.92341 9.58279C 2.92341 9.90142 3.04994 10.2068 3.2752 10.4321L 5.71093 12.8678C 5.28315 13.6949 4.92633 14.5548 4.64413 15.4389L 1.20117 15.4389C 0.537805 15.4389 0 15.9767 0 16.6401L 0 24.3595C 0 25.0229 0.537805 25.5607 1.20117 25.5607L 4.64397 25.5607C 4.92617 26.4448 5.28299 27.3046 5.71085 28.1318L 3.27512 30.5675C 3.04986 30.7928 2.92333 31.0983 2.92333 31.4169C 2.92333 31.7354 3.04994 32.041 3.27512 32.2662L 8.7338 37.7247C 9.2029 38.1937 9.9634 38.1937 10.4325 37.7247L 12.8682 35.2891C 13.6954 35.7169 14.5552 36.0737 15.4392 36.3559L 15.4392 39.7988C 15.4392 40.4622 15.977 41 16.6404 41L 24.3598 41C 25.0231 41 25.5609 40.4622 25.5609 39.7988L 25.5609 36.3561C 26.4451 36.0739 27.305 35.7172 28.1322 35.2893L 30.5679 37.725C 31.0369 38.194 31.7975 38.194 32.2666 37.725L 37.725 32.2664C 38.1941 31.7974 38.1941 31.0368 37.725 30.5677L 35.2893 28.132C 35.7172 27.3049 36.074 26.4451 36.3562 25.5609L 39.7988 25.5609C 40.4622 25.5609 41 25.0231 41 24.3598L 41 16.6402C 41 15.9769 40.4623 15.4391 39.7988 15.4391ZM 38.5977 23.1585L 35.4526 23.1585C 34.9045 23.1585 34.4258 23.5296 34.2893 24.0604C 33.9586 25.3457 33.4463 26.5807 32.7665 27.7309C 32.4876 28.2028 32.5636 28.8037 32.9513 29.1914L 35.177 31.417L 31.4172 35.1769L 29.1915 32.9513C 28.8039 32.5637 28.2031 32.4877 27.7311 32.7664C 26.5809 33.446 25.3458 33.9584 24.0603 34.2893C 23.5295 34.4259 23.1585 34.9045 23.1585 35.4525L 23.1585 38.5977L 17.8415 38.5977L 17.8415 35.4526C 17.8415 34.9045 17.4705 34.426 16.9397 34.2894C 15.6545 33.9586 14.4195 33.4462 13.2692 32.7665C 12.7972 32.4875 12.1964 32.5637 11.8088 32.9513L 9.58311 35.177L 5.82312 31.417L 8.04873 29.1914C 8.43631 28.8038 8.51238 28.203 8.23355 27.7311C 7.55393 26.5807 7.04151 25.3457 6.71063 24.0603C 6.57401 23.5295 6.09547 23.1585 5.54741 23.1585L 2.40234 23.1585L 2.40234 17.8414L 5.54741 17.8414C 6.09547 17.8414 6.57401 17.4704 6.71063 16.9396C 7.04159 15.6542 7.55393 14.4191 8.23355 13.2689C 8.51238 12.797 8.43631 12.1961 8.04873 11.8086L 5.82312 9.58287L 9.58303 5.82312L 11.8086 8.04873C 12.1962 8.43631 12.797 8.51238 13.269 8.23355C 14.4193 7.55393 15.6543 7.04159 16.9397 6.71071C 17.4705 6.57409 17.8415 6.09555 17.8415 5.54749L 17.8415 2.40234L 23.1586 2.40234L 23.1586 5.54741C 23.1586 6.09555 23.5296 6.57401 24.0604 6.71063C 25.3459 7.04151 26.581 7.55385 27.7312 8.23347C 28.2031 8.5123 28.8039 8.43623 29.1916 8.04865L 31.4173 5.82304L 35.177 9.58279L 32.9514 11.8085C 32.5638 12.1961 32.4878 12.797 32.7667 13.2689C 33.4464 14.4191 33.9587 15.654 34.2895 16.9394C 34.4261 17.4702 34.9046 17.8413 35.4527 17.8413L 38.5977 17.8413L 38.5977 23.1585Z" fill="#197AE3"/>
</g>
</g>
</g>
<g id="Group_3">
<g id="Group_4">
<g id="Vector_2">
<path d="M 7.94671 0.260432C 7.42709 -0.151971 6.67163 -0.0652449 6.25907 0.454382L 2.90179 4.68323C 2.76638 4.66073 2.62824 4.64847 2.48819 4.64847C 1.11653 4.64847 0.00032086 5.76444 5.47409e-07 7.13658C 0.00032086 8.50816 1.11653 9.62389 2.48819 9.62389C 3.15268 9.62389 3.77728 9.36524 4.24702 8.8955C 4.717 8.42568 4.97574 7.80067 4.97557 7.13634C 4.97566 6.80122 4.90959 6.47618 4.78395 6.17588L 8.1405 1.948C 8.55306 1.42853 8.46626 0.672914 7.94671 0.260432Z" transform="translate(18.0117 13.3638)" fill="#197AE3"/>
</g>
</g>
</g>
</g>
</g>
</svg>

