<svg width="39" height="40" viewBox="0 0 39 40" version="1.1" xmlns="http://www.w3.org/2000/svg" xmlns:xlink="http://www.w3.org/1999/xlink">
<g id="Canvas" fill="none">
<g id="wallet">
<g id="Group">
<g id="Vector">
<path d="M 39 18.6336L 37.1098 18.6336L 37.1098 9.80542C 37.1098 7.68893 35.414 5.9671 33.3295 5.9671L 30.7695 5.9671L 28.1498 1.18456C 27.7505 0.45366 26.9907 0 26.1666 0C 25.7825 0 25.4014 0.100575 25.065 0.290137L 15.0108 5.96698L 3.7803 5.96698C 1.69581 5.96698 -6.73151e-10 7.68882 -6.73151e-10 9.8053L -6.73151e-10 36.1617C -6.73151e-10 38.2782 1.69581 40 3.7803 40L 33.3295 40C 35.414 40 37.1098 38.2782 37.1098 36.1617L 37.1098 28.4213L 39 28.4213L 39 18.6336ZM 33.3295 7.50236C 34.4939 7.50236 35.445 8.40048 35.5727 9.54968L 32.7315 9.54968L 31.6109 7.50236L 33.3295 7.50236ZM 25.8006 1.63201C 26.1552 1.43014 26.6323 1.57133 26.8281 1.92991L 31.0015 9.54897L 11.7779 9.54897L 25.8006 1.63201ZM 35.5977 36.1617C 35.5977 37.4314 34.58 38.4647 33.3294 38.4647L 3.7803 38.4647C 2.52977 38.4647 1.51205 37.4314 1.51205 36.1617L 1.51205 9.80542C 1.51205 8.5357 2.52977 7.50236 3.7803 7.50236L 12.292 7.50236L 8.66596 9.5498L 4.25287 9.5498C 3.83477 9.5498 3.49678 9.89369 3.49678 10.3175C 3.49678 10.7413 3.83477 11.0852 4.25287 11.0852L 5.94644 11.0852L 33.5722 11.0852L 35.5977 11.0852L 35.5977 18.6344L 30.0686 18.6344C 27.501 18.6344 25.4113 20.7562 25.4113 23.3632L 25.4113 23.6933C 25.4113 26.3004 27.5011 28.4221 30.0686 28.4221L 35.5977 28.4221L 35.5977 36.1617ZM 37.4878 26.886L 37.1098 26.886L 30.0686 26.886C 28.3342 26.886 26.9234 25.4536 26.9234 23.6925L 26.9234 23.3623C 26.9234 21.6013 28.3341 20.1688 30.0686 20.1688L 37.1098 20.1688L 37.4878 20.1688L 37.4878 26.886ZM 32.3844 23.5905C 32.3844 24.527 31.6374 25.2854 30.7151 25.2854C 29.7927 25.2854 29.0457 24.5269 29.0457 23.5905C 29.0457 22.654 29.7928 21.8955 30.7151 21.8955C 31.6375 21.8954 32.3844 22.6546 32.3844 23.5905Z" fill="#197AE3"/>
</g>
</g>
</g>
</g>
</svg>

