<svg width="65" height="65" viewBox="0 0 65 65" version="1.1" xmlns="http://www.w3.org/2000/svg" xmlns:xlink="http://www.w3.org/1999/xlink">
<title>Group</title>
<desc>Created using Figma</desc>
<g id="Canvas" transform="translate(-17452 -2854)">
<g id="Group">
<g id="delivery">
<g id="Group">
<g id="Group">
<g id="Vector">
<use xlink:href="#path0_fill" transform="translate(17464 2875)" fill="#197AE3"/>
</g>
</g>
</g>
<g id="Group">
<g id="Group">
<g id="Vector">
<use xlink:href="#path1_fill" transform="translate(17474.5 2894.8)" fill="#197AE3"/>
</g>
</g>
</g>
<g id="Group">
<g id="Group">
<g id="Vector">
<use xlink:href="#path2_fill" transform="translate(17497.7 2894.8)" fill="#197AE3"/>
</g>
</g>
</g>
<g id="Group">
<g id="Group">
<g id="Vector">
<use xlink:href="#path3_fill" transform="translate(17480.8 2892.16)" fill="#197AE3"/>
</g>
</g>
</g>
<g id="Group">
<g id="Group">
<g id="Vector">
<use xlink:href="#path4_fill" transform="translate(17465.4 2889.52)" fill="#197AE3"/>
</g>
</g>
</g>
<g id="Group">
<g id="Group">
<g id="Vector">
<use xlink:href="#path5_fill" transform="translate(17474.5 2878.3)" fill="#197AE3"/>
</g>
</g>
</g>
<g id="Group">
<g id="Group">
<g id="Vector">
<use xlink:href="#path6_fill" transform="translate(17480.1 2880.94)" fill="#197AE3"/>
</g>
</g>
</g>
</g>
<g id="Ellipse 6">
<mask id="mask0_outline_ins">
<use xlink:href="#path7_fill" fill="white" transform="translate(17452 2854)"/>
</mask>
<g mask="url(#mask0_outline_ins)">
<use xlink:href="#path8_stroke_2x" transform="translate(17452 2854)" fill="#197AE3"/>
</g>
</g>
</g>
</g>
<defs>
<path id="path0_fill" d="M 39.0599 10.5984L 37.9723 6.50456C 38.2696 6.44512 38.4927 6.19687 38.4927 5.89946L 38.4927 5.2394C 38.4927 3.80628 37.2537 2.64039 35.7308 2.64039L 30.7767 2.64039L 30.7767 1.2789C 30.7767 0.573681 30.1671 -2.73258e-07 29.4176 -2.73258e-07L 4.1649 -2.73258e-07C 3.41546 -2.73258e-07 2.8058 0.573681 2.8058 1.2789L 2.8058 12.5001C 2.8058 12.8418 3.10021 13.119 3.46345 13.119C 3.8266 13.119 4.12109 12.8419 4.12109 12.5001L 4.12109 1.2789C 4.12109 1.2562 4.1407 1.23768 4.1649 1.23768L 29.4175 1.23768C 29.4417 1.23768 29.4613 1.25628 29.4613 1.2789L 29.4613 12.5003C 29.4613 12.842 29.7557 13.1191 30.119 13.1191C 30.4821 13.1191 30.7766 12.8421 30.7766 12.5003L 30.7766 11.7988L 38.5343 11.7988C 38.5349 11.7988 38.5354 11.7989 38.536 11.7989C 38.5366 11.7989 38.5372 11.7988 38.5378 11.7988C 39.4924 11.7995 40.3029 12.389 40.5813 13.2015L 38.5365 13.2015C 38.1733 13.2015 37.8788 13.4785 37.8788 13.8203L 37.8788 15.1404C 37.8788 16.2096 38.8032 17.0794 39.9394 17.0794L 40.6847 17.0794L 40.6847 19.8021L 38.9652 19.8021C 38.4003 18.2673 36.8498 17.1618 35.0291 17.1618C 33.2084 17.1618 31.6579 18.2673 31.0931 19.8021L 30.7765 19.8021L 30.7765 15.1404C 30.7765 14.7986 30.4821 14.5215 30.1188 14.5215C 29.7557 14.5215 29.4612 14.7985 29.4612 15.1404L 29.4612 19.802L 15.8171 19.802C 15.2522 18.2671 13.7017 17.1617 11.881 17.1617C 10.0603 17.1617 8.50977 18.2671 7.94499 19.802L 4.1649 19.802C 4.1407 19.802 4.12109 19.7834 4.12109 19.7608L 4.12109 18.3993L 6.97078 18.3993C 7.33394 18.3993 7.62843 18.1223 7.62843 17.7805C 7.62843 17.4387 7.33402 17.1617 6.97078 17.1617L 3.46394 17.1617C 3.46378 17.1617 3.46369 17.1617 3.46353 17.1617C 3.46337 17.1617 3.46328 17.1617 3.46312 17.1617L 0.657646 17.1617C 0.294493 17.1617 0 17.4387 0 17.7805C 0 18.1223 0.294411 18.3993 0.657646 18.3993L 2.80588 18.3993L 2.80588 19.7608C 2.80588 20.466 3.41554 21.0397 4.16498 21.0397L 7.71727 21.0397C 7.71711 21.0534 7.71612 21.0671 7.71612 21.0809C 7.71612 23.2418 9.58455 25 11.881 25C 14.1775 25 16.0459 23.2418 16.0459 21.0809C 16.0459 21.0671 16.0449 21.0534 16.0448 21.0397L 30.8654 21.0397C 30.8652 21.0534 30.8642 21.0671 30.8642 21.0809C 30.8642 23.2418 32.7327 25 35.0291 25C 37.3256 25 39.194 23.2418 39.194 21.0809C 39.194 21.0671 39.1931 21.0534 39.1929 21.0397L 41.3424 21.0397C 41.7055 21.0397 42 20.7626 42 20.4208L 42 13.8202C 42.0001 12.1905 40.7223 10.8365 39.0599 10.5984ZM 30.7767 3.87799L 35.7308 3.87799C 36.5285 3.87799 37.1775 4.48872 37.1775 5.2394L 37.1775 5.28062L 30.7767 5.28062L 30.7767 3.87799ZM 30.7767 10.5612L 30.7767 6.51822L 36.6202 6.51822L 37.6943 10.5612L 30.7767 10.5612ZM 11.881 23.7626C 10.3097 23.7626 9.03133 22.5597 9.03133 21.081C 9.03133 19.6024 10.3097 18.3995 11.881 18.3995C 13.4523 18.3995 14.7307 19.6024 14.7307 21.081C 14.7307 22.5597 13.4523 23.7626 11.881 23.7626ZM 35.0293 23.7626C 33.458 23.7626 32.1796 22.5597 32.1796 21.081C 32.1796 19.6024 33.458 18.3995 35.0293 18.3995C 36.6006 18.3995 37.879 19.6024 37.879 21.081C 37.879 22.5597 36.6006 23.7626 35.0293 23.7626ZM 40.6849 15.8417L 39.9395 15.8417C 39.5286 15.8417 39.1942 15.5271 39.1942 15.1404L 39.1942 14.439L 40.6848 14.439L 40.6848 15.8417L 40.6849 15.8417Z"/>
<path id="path1_fill" d="M 1.3591 -1.16841e-06C 0.609658 -1.16841e-06 -1.4019e-07 0.573682 -1.4019e-07 1.2789C -1.4019e-07 1.98411 0.609658 2.55779 1.3591 2.55779C 2.10854 2.55779 2.71819 1.98411 2.71819 1.2789C 2.71819 0.573682 2.10854 -1.16841e-06 1.3591 -1.16841e-06Z"/>
<path id="path2_fill" d="M 1.3591 -1.16841e-06C 0.609658 -1.16841e-06 -1.1015e-06 0.573682 -1.1015e-06 1.2789C -1.1015e-06 1.98411 0.609658 2.55779 1.3591 2.55779C 2.10854 2.55779 2.71819 1.98411 2.71819 1.2789C 2.71819 0.573682 2.10854 -1.16841e-06 1.3591 -1.16841e-06Z"/>
<path id="path3_fill" d="M 10.4781 4.14599e-07L 0.657646 4.14599e-07C 0.294493 4.14599e-07 4.10558e-07 0.277038 4.10558e-07 0.618839C 4.10558e-07 0.960639 0.294411 1.23768 0.657646 1.23768L 10.4781 1.23768C 10.8413 1.23768 11.1358 0.960639 11.1358 0.618839C 11.1358 0.277038 10.8414 4.14599e-07 10.4781 4.14599e-07Z"/>
<path id="path4_fill" d="M 9.07522 -9.04579e-07L 0.657646 -9.04579e-07C 0.294493 -9.04579e-07 -5.88299e-08 0.277037 -5.88299e-08 0.618837C -5.88299e-08 0.960638 0.294411 1.23768 0.657646 1.23768L 9.07522 1.23768C 9.43837 1.23768 9.73286 0.960638 9.73286 0.618837C 9.73286 0.277037 9.43837 -9.04579e-07 9.07522 -9.04579e-07Z"/>
<path id="path5_fill" d="M 6.26933 -5.27671e-07C 2.81245 -5.27671e-07 -1.4019e-07 2.64649 -1.4019e-07 5.89938C -1.4019e-07 9.15228 2.81245 11.7988 6.26933 11.7988C 9.72622 11.7988 12.5387 9.15228 12.5387 5.89938C 12.5387 2.64649 9.72622 -5.27671e-07 6.26933 -5.27671e-07ZM 6.26933 10.5612C 3.53769 10.5612 1.31529 8.46991 1.31529 5.89946C 1.31529 3.32901 3.53769 1.23775 6.26933 1.23775C 9.00098 1.23775 11.2234 3.32901 11.2234 5.89946C 11.2234 8.46991 9.00098 10.5612 6.26933 10.5612Z"/>
<path id="path6_fill" d="M 3.22703 4.80173L 1.31529 3.0028L 1.31529 0.618838C 1.31529 0.277114 1.02088 -3.86331e-07 0.657645 -3.86331e-07C 0.29441 -3.86331e-07 -4.20571e-07 0.277037 -4.20571e-07 0.618838L -4.20571e-07 3.25915C -4.20571e-07 3.42325 0.0692347 3.58057 0.19261 3.69666L 2.29696 5.67684C 2.42534 5.79764 2.59367 5.85808 2.76192 5.85808C 2.93016 5.85808 3.09857 5.79772 3.22687 5.67684C 3.48387 5.43515 3.48387 5.04341 3.22703 4.80173Z"/>
<path id="path7_fill" d="M 65 32.5C 65 50.4493 50.4493 65 32.5 65C 14.5507 65 0 50.4493 0 32.5C 0 14.5507 14.5507 0 32.5 0C 50.4493 0 65 14.5507 65 32.5Z"/>
<path id="path8_stroke_2x" d="M 64 32.5C 64 49.897 49.897 64 32.5 64L 32.5 66C 51.0015 66 66 51.0015 66 32.5L 64 32.5ZM 32.5 64C 15.103 64 1 49.897 1 32.5L -1 32.5C -1 51.0015 13.9985 66 32.5 66L 32.5 64ZM 1 32.5C 1 15.103 15.103 1 32.5 1L 32.5 -1C 13.9985 -1 -1 13.9985 -1 32.5L 1 32.5ZM 32.5 1C 49.897 1 64 15.103 64 32.5L 66 32.5C 66 13.9985 51.0015 -1 32.5 -1L 32.5 1Z"/>
</defs>
</svg>
