<svg width="65" height="65" viewBox="0 0 65 65" version="1.1" xmlns="http://www.w3.org/2000/svg" xmlns:xlink="http://www.w3.org/1999/xlink">
<title>Group</title>
<desc>Created using Figma</desc>
<g id="Canvas" transform="translate(-18226 -2854)">
<g id="Group">
<g id="pipes">
<g id="Group">
<g id="Group">
<g id="Vector">
<use xlink:href="#path0_fill" transform="translate(18243 2871)" fill="#197AE3"/>
</g>
</g>
</g>
</g>
<g id="Ellipse 6.2">
<mask id="mask0_outline_ins">
<use xlink:href="#path1_fill" fill="white" transform="translate(18226 2854)"/>
</mask>
<g mask="url(#mask0_outline_ins)">
<use xlink:href="#path2_stroke_2x" transform="translate(18226 2854)" fill="#197AE3"/>
</g>
</g>
</g>
</g>
<defs>
<path id="path0_fill" d="M 29.8792 1.57626L 26.7966 1.57626L 26.7966 1.12075C 26.7966 0.502065 26.2948 0 25.6758 0L 23.7139 0C 23.0949 0 22.5932 0.502065 22.5932 1.12075L 22.5932 1.58285C 11.1043 1.85716 1.85693 11.1044 1.58262 22.5932L 1.12076 22.5932C 0.501638 22.5932 5.84944e-12 23.0949 5.84944e-12 23.714L 5.84944e-12 25.6759C 5.84944e-12 26.295 0.501638 26.7966 1.12076 26.7966L 1.57628 26.7966L 1.57628 29.8793C 1.57628 30.4984 2.07791 31 2.69703 31L 9.91318 31C 10.5319 31 11.0339 30.4982 11.0339 29.8793L 11.0339 26.7966L 11.4895 26.7966C 12.1081 26.7966 12.6102 26.2949 12.6102 25.6759L 12.6102 23.714C 12.6102 23.095 12.1081 22.5932 11.4895 22.5932L 10.52 22.5932C 10.788 16.0417 16.0416 10.7882 22.5932 10.5202L 22.5932 11.4894C 22.5932 12.1085 23.0948 12.6101 23.7139 12.6101L 25.6758 12.6101C 26.2949 12.6101 26.7966 12.1085 26.7966 11.4894L 26.7966 11.0338L 29.8792 11.0338C 30.4984 11.0338 31 10.5322 31 9.9131L 31 2.69701C 31 2.07833 30.4982 1.57626 29.8792 1.57626ZM 9.98306 29.8793C 9.98306 29.9177 9.95166 29.9491 9.91318 29.9491L 2.69697 29.9491C 2.65824 29.9491 2.62709 29.918 2.62709 29.8793L 2.62709 26.7966L 9.98306 26.7966L 9.98306 29.8793ZM 11.5593 23.714L 11.5593 25.6759C 11.5593 25.7143 11.5279 25.7457 11.4895 25.7457L 11.0339 25.7457L 1.57628 25.7457L 1.12076 25.7457C 1.08203 25.7457 1.05087 25.7146 1.05087 25.6759L 1.05087 23.714C 1.05087 23.6752 1.08203 23.6441 1.12076 23.6441L 1.57615 23.6441L 10.5084 23.6441L 11.4895 23.6441C 11.5279 23.6441 11.5593 23.6755 11.5593 23.714ZM 9.46745 22.5932L 2.63361 22.5932C 2.90749 11.6848 11.6847 2.90765 22.5932 2.63378L 22.5932 9.46756C 15.4609 9.73669 9.73652 15.4611 9.46745 22.5932ZM 25.7457 11.4894C 25.7457 11.5281 25.7145 11.5592 25.6758 11.5592L 23.7139 11.5592C 23.6752 11.5592 23.644 11.5281 23.644 11.4894L 23.644 10.5085L 23.644 1.57639L 23.644 1.12075C 23.644 1.08227 23.6754 1.05086 23.7139 1.05086L 25.6758 1.05086C 25.7143 1.05086 25.7457 1.08227 25.7457 1.12075L 25.7457 1.57626L 25.7457 11.0338L 25.7457 11.4894ZM 29.9491 9.9131C 29.9491 9.95183 29.918 9.98298 29.8792 9.98298L 26.7966 9.98298L 26.7966 2.62713L 29.8792 2.62713C 29.9177 2.62713 29.9491 2.65853 29.9491 2.69701L 29.9491 9.9131Z"/>
<path id="path1_fill" d="M 65 32.5C 65 50.4493 50.4493 65 32.5 65C 14.5507 65 0 50.4493 0 32.5C 0 14.5507 14.5507 0 32.5 0C 50.4493 0 65 14.5507 65 32.5Z"/>
<path id="path2_stroke_2x" d="M 64 32.5C 64 49.897 49.897 64 32.5 64L 32.5 66C 51.0015 66 66 51.0015 66 32.5L 64 32.5ZM 32.5 64C 15.103 64 1 49.897 1 32.5L -1 32.5C -1 51.0015 13.9985 66 32.5 66L 32.5 64ZM 1 32.5C 1 15.103 15.103 1 32.5 1L 32.5 -1C 13.9985 -1 -1 13.9985 -1 32.5L 1 32.5ZM 32.5 1C 49.897 1 64 15.103 64 32.5L 66 32.5C 66 13.9985 51.0015 -1 32.5 -1L 32.5 1Z"/>
</defs>
</svg>
