<svg width="66" height="66" viewBox="0 0 66 66" version="1.1" xmlns="http://www.w3.org/2000/svg" xmlns:xlink="http://www.w3.org/1999/xlink">
<title>Group 8</title>
<desc>Created using Figma</desc>
<g id="Canvas" transform="translate(-14565 -1063)">
<g id="Group 8">
<g id="Ellipse 4">
<mask id="mask0_outline_ins">
<use xlink:href="#path0_fill" fill="white" transform="translate(14565 1063)"/>
</mask>
<g mask="url(#mask0_outline_ins)">
<use xlink:href="#path1_stroke_2x" transform="translate(14565 1063)" fill="#197AE3"/>
</g>
</g>
<g id="thermometer">
<g id="Group">
<g id="Group">
<g id="Vector">
<use xlink:href="#path2_fill" transform="translate(14596 1097.88)" fill="#197AE3"/>
</g>
</g>
</g>
<g id="Group">
<g id="Group">
<g id="Vector">
<use xlink:href="#path3_fill" transform="translate(14598.7 1091)" fill="#197AE3"/>
</g>
</g>
</g>
<g id="Group">
<g id="Group">
<g id="Vector">
<use xlink:href="#path4_fill" transform="translate(14598.7 1084.13)" fill="#197AE3"/>
</g>
</g>
</g>
<g id="Group">
<g id="Group">
<g id="Vector">
<use xlink:href="#path5_fill" transform="translate(14592 1080)" fill="#197AE3"/>
</g>
</g>
</g>
</g>
</g>
</g>
<defs>
<path id="path0_fill" d="M 66 33C 66 51.2254 51.2254 66 33 66C 14.7746 66 0 51.2254 0 33C 0 14.7746 14.7746 0 33 0C 51.2254 0 66 14.7746 66 33Z"/>
<path id="path1_stroke_2x" d="M 65 33C 65 50.6731 50.6731 65 33 65L 33 67C 51.7777 67 67 51.7777 67 33L 65 33ZM 33 65C 15.3269 65 1 50.6731 1 33L -1 33C -1 51.7777 14.2223 67 33 67L 33 65ZM 1 33C 1 15.3269 15.3269 1 33 1L 33 -1C 14.2223 -1 -1 14.2223 -1 33L 1 33ZM 33 1C 50.6731 1 65 15.3269 65 33L 67 33C 67 14.2223 51.7777 -1 33 -1L 33 1Z"/>
<path id="path2_fill" d="M 5.9994 5.03562e-07L 0.666621 5.03562e-07C 0.298658 5.03562e-07 -4.42461e-07 0.308035 -4.42461e-07 0.687551C -4.42461e-07 1.06707 0.298658 1.3751 0.666621 1.3751L 5.9994 1.3751C 6.36736 1.3751 6.66602 1.06707 6.66602 0.687551C 6.66602 0.308035 6.36736 5.03562e-07 5.9994 5.03562e-07Z"/>
<path id="path3_fill" d="M 3.33304 4.79957e-07L 0.666621 4.79957e-07C 0.298658 4.79957e-07 5.34004e-07 0.308035 5.34004e-07 0.687551C 5.34004e-07 1.06707 0.298658 1.37504 0.666621 1.37504L 3.33304 1.37504C 3.701 1.37504 3.99966 1.067 3.99966 0.687486C 3.99966 0.30797 3.701 4.79957e-07 3.33304 4.79957e-07Z"/>
<path id="path4_fill" d="M 3.33304 0L 0.666621 0C 0.298658 0 5.34004e-07 0.308035 5.34004e-07 0.687551C 5.34004e-07 1.06707 0.298658 1.3751 0.666621 1.3751L 3.33304 1.3751C 3.701 1.3751 3.99966 1.06707 3.99966 0.687551C 3.99966 0.308035 3.701 0 3.33304 0Z"/>
<path id="path5_fill" d="M 8.39499 21.1594C 8.15501 21.0521 8.00034 20.8087 8.00034 20.5406L 8.00034 2.06259C 8.00034 0.925393 7.10312 0 6.00054 0C 4.89796 0 4.00074 0.925393 4.00074 2.06259L 4.00074 20.5406C 4.00074 20.8101 3.84607 21.0535 3.60347 21.1607C 0.913048 22.3708 -0.501436 25.2942 0.162497 28.2739C 0.665135 30.5235 2.39827 32.3138 4.57805 32.8322C 5.05001 32.945 5.52327 33 5.9926 33C 7.34847 33 8.66165 32.538 9.73354 31.658C 11.1734 30.4768 12 28.7098 12 26.8137C 12 24.3633 10.5841 22.144 8.39499 21.1594ZM 8.90431 30.5799C 7.78174 31.5012 6.31526 31.834 4.8794 31.4902C 3.21825 31.0956 1.84639 29.6779 1.46374 27.9632C 0.945106 25.6407 2.04637 23.3609 4.13816 22.4203C 4.8634 22.0944 5.33404 21.356 5.33404 20.5406L 5.33404 2.06259C 5.33404 1.68307 5.63401 1.37504 6.00066 1.37504C 6.36731 1.37504 6.66728 1.68307 6.66728 2.06259L 6.66728 20.5406C 6.66728 21.3574 7.13793 22.0944 7.86316 22.4217C 9.56699 23.1862 10.6669 24.9105 10.6669 26.8137C 10.6668 28.2891 10.0242 29.6628 8.90431 30.5799Z"/>
</defs>
</svg>
