<svg width="66" height="66" viewBox="0 0 66 66" version="1.1" xmlns="http://www.w3.org/2000/svg" xmlns:xlink="http://www.w3.org/1999/xlink">
<title>Group 10</title>
<desc>Created using Figma</desc>
<g id="Canvas" transform="translate(-15288 -1063)">
<g id="Group 10">
<g id="Ellipse 4.2">
<mask id="mask0_outline_ins">
<use xlink:href="#path0_fill" fill="white" transform="translate(15288 1063)"/>
</mask>
<g mask="url(#mask0_outline_ins)">
<use xlink:href="#path1_stroke_2x" transform="translate(15288 1063)" fill="#197AE3"/>
</g>
</g>
<g id="piston">
<g id="Group">
<g id="Group">
<g id="Group">
<g id="Vector">
<use xlink:href="#path2_fill" transform="translate(15310 1079)" fill="#197AE3"/>
</g>
<g id="Vector">
<use xlink:href="#path3_fill" transform="translate(15317.3 1102.83)" fill="#197AE3"/>
</g>
<g id="Vector">
<use xlink:href="#path4_fill" transform="translate(15320.3 1095.65)" fill="#197AE3"/>
</g>
</g>
</g>
</g>
</g>
</g>
</g>
<defs>
<path id="path0_fill" d="M 66 33C 66 51.2254 51.2254 66 33 66C 14.7746 66 0 51.2254 0 33C 0 14.7746 14.7746 0 33 0C 51.2254 0 66 14.7746 66 33Z"/>
<path id="path1_stroke_2x" d="M 65 33C 65 50.6731 50.6731 65 33 65L 33 67C 51.7777 67 67 51.7777 67 33L 65 33ZM 33 65C 15.3269 65 1 50.6731 1 33L -1 33C -1 51.7777 14.2223 67 33 67L 33 65ZM 1 33C 1 15.3269 15.3269 1 33 1L 33 -1C 14.2223 -1 -1 14.2223 -1 33L 1 33ZM 33 1C 50.6731 1 65 15.3269 65 33L 67 33C 67 14.2223 51.7777 -1 33 -1L 33 1Z"/>
<path id="path2_fill" d="M 21.4765 1.64861C 13.9524 -0.550985 7.28718 -0.550244 0.503045 1.65508C 0.202882 1.75236 0.000137471 2.02722 -2.93733e-08 2.33704L -2.93733e-08 16.6296C -2.93733e-08 17.0265 0.328351 17.3482 0.733359 17.3482C 2.52341 17.3482 4.52321 16.1446 5.56313 14.4897L 7.33338 14.4897L 7.33338 21.0173C 6.15342 21.2243 5.40693 21.9565 5.19497 23.1127L 2.20001 23.1127C 1.795 23.1127 1.46665 23.4344 1.46665 23.8313L 1.46665 31.0171C 1.46665 31.414 1.795 31.7357 2.20001 31.7357L 6.25606 31.7357C 7.55407 33.2009 9.22827 34 11.0117 34L 11.0851 34C 12.8546 33.9784 14.5376 33.1578 15.7549 31.7365L 19.8 31.7365C 20.205 31.7365 20.5334 31.4147 20.5334 31.0179L 20.5334 23.832C 20.5334 23.4351 20.205 23.1134 19.8 23.1134L 16.7742 23.1134C 16.5054 22.1016 15.6991 21.3116 14.6666 21.0482L 14.6666 14.4896L 16.4362 14.4896C 17.4819 16.1682 19.4428 17.3482 21.2666 17.3482C 21.6716 17.3482 22 17.0264 22 16.6296L 22 2.33704C 22 2.0194 21.7871 1.73949 21.4765 1.64861ZM 15.4 23.8312C 15.4 24.2281 15.7284 24.5498 16.1334 24.5498L 19.0668 24.5498L 19.0668 30.2985L 15.4001 30.2985C 15.1693 30.2985 14.9519 30.405 14.8135 30.5859C 13.8601 31.8262 12.4925 32.5469 11.0647 32.5641L 11.0119 32.5641C 9.5767 32.5641 8.21565 31.8578 7.1736 30.5715C 7.03452 30.3999 6.82305 30.2999 6.5994 30.2999L 2.93343 30.2999L 2.93343 24.5512L 5.8668 24.5512C 6.27181 24.5512 6.60016 24.2295 6.60016 23.8326C 6.60016 22.7986 7.01156 22.3955 8.06681 22.3955C 8.47181 22.3955 8.80017 22.0738 8.80017 21.6769L 8.80017 14.4911L 13.2002 14.4911L 13.2002 21.677C 13.201 22.0733 13.5291 22.3941 13.9335 22.3941C 14.7434 22.3941 15.4 23.0375 15.4 23.8312ZM 20.5334 15.8219C 19.33 15.5409 18.1193 14.6133 17.5224 13.4477L 17.5224 13.4484C 17.3979 13.2056 17.1441 13.0524 16.8668 13.0525L 5.13337 13.0525C 4.85603 13.0524 4.60228 13.2056 4.47777 13.4484C 3.89112 14.5924 2.66201 15.5323 1.46672 15.8197L 1.46672 10.1789L 20.5334 10.1789L 20.5334 15.8219ZM 20.5334 8.74101L 1.46665 8.74101L 1.46665 5.86666L 20.5334 5.86666L 20.5334 8.74101L 20.5334 8.74101ZM 20.5334 4.42952L 1.46665 4.42952L 1.46665 2.8594C 7.62302 0.962347 13.7089 0.965244 20.5334 2.87591L 20.5334 4.42952L 20.5334 4.42952Z"/>
<path id="path3_fill" d="M 3.66666 9.53927e-07C 1.64258 0.0023588 0.00240622 1.6096 -4.19618e-08 3.59288C -4.19618e-08 5.57718 1.64162 7.18577 3.66666 7.18577C 5.69169 7.18577 7.33331 5.57718 7.33331 3.59288C 7.33331 1.60859 5.69169 9.53927e-07 3.66666 9.53927e-07ZM 3.66666 5.74863C 2.45163 5.74863 1.46665 4.78346 1.46665 3.59288C 1.46665 2.40231 2.45163 1.43714 3.66666 1.43714C 4.88168 1.43714 5.86666 2.40231 5.86666 3.59288C 5.86666 4.78346 4.88168 5.74863 3.66666 5.74863Z"/>
<path id="path4_fill" d="M 0.733359 4.31155C 1.13837 4.31155 1.46672 3.98981 1.46672 3.59295L 1.46672 0.718604C 1.46672 0.321745 1.13837 -2.46705e-08 0.733359 -2.46705e-08C 0.328352 -2.46705e-08 -1.67847e-08 0.321745 -1.67847e-08 0.718604L -1.67847e-08 3.59295C -1.67847e-08 3.98988 0.328352 4.31155 0.733359 4.31155Z"/>
</defs>
</svg>
