<svg width="66" height="66" viewBox="0 0 66 66" version="1.1" xmlns="http://www.w3.org/2000/svg" xmlns:xlink="http://www.w3.org/1999/xlink">
<title>Group 7</title>
<desc>Created using Figma</desc>
<g id="Canvas" transform="translate(-14566 -1223)">
<g id="Group 7">
<g id="Ellipse 4.3">
<mask id="mask0_outline_ins">
<use xlink:href="#path0_fill" fill="white" transform="translate(14566 1223)"/>
</mask>
<g mask="url(#mask0_outline_ins)">
<use xlink:href="#path1_stroke_2x" transform="translate(14566 1223)" fill="#197AE3"/>
</g>
</g>
<g id="Group 5">
<g id="sound-waves">
<g id="Group">
<g id="Group">
<g id="Vector">
<use xlink:href="#path2_fill" transform="matrix(5.42741e-16 1 -1 5.59569e-16 14603.7 1238)" fill="#197AE3"/>
</g>
</g>
</g>
</g>
</g>
<g id="Vector">
<use xlink:href="#path3_stroke" transform="translate(14609 1244.5)" fill="#197AE3"/>
</g>
</g>
</g>
<defs>
<path id="path0_fill" d="M 66 33C 66 51.2254 51.2254 66 33 66C 14.7746 66 0 51.2254 0 33C 0 14.7746 14.7746 0 33 0C 51.2254 0 66 14.7746 66 33Z"/>
<path id="path1_stroke_2x" d="M 65 33C 65 50.6731 50.6731 65 33 65L 33 67C 51.7777 67 67 51.7777 67 33L 65 33ZM 33 65C 15.3269 65 1 50.6731 1 33L -1 33C -1 51.7777 14.2223 67 33 67L 33 65ZM 1 33C 1 15.3269 15.3269 1 33 1L 33 -1C 14.2223 -1 -1 14.2223 -1 33L 1 33ZM 33 1C 50.6731 1 65 15.3269 65 33L 67 33C 67 14.2223 51.7777 -1 33 -1L 33 1Z"/>
<path id="path2_fill" d="M 34.8 8.86364L 31.2 8.86364L 31.2 4.43182C 31.2 3.2079 29.5884 2.21591 27.6 2.21591C 25.6116 2.21591 24 3.2079 24 4.43182L 24 12.5568C 24 12.9653 23.4636 13.2955 22.8 13.2955C 22.1364 13.2955 21.6 12.9653 21.6 12.5568L 21.6 2.21591C 21.6 0.991989 19.9884 0 18 0C 16.0116 0 14.4 0.991989 14.4 2.21591L 14.4 15.5114C 14.4 15.9198 13.8636 16.25 13.2 16.25C 12.5364 16.25 12 15.9198 12 15.5114L 12 6.64773C 12 5.42381 10.3884 4.43182 8.4 4.43182C 6.4116 4.43182 4.8 5.42381 4.8 6.64773L 4.8 8.86364L 1.2 8.86364C 0.5364 8.86364 0 9.19381 0 9.60227C 0 10.0107 0.5364 10.3409 1.2 10.3409L 6 10.3409C 6.6636 10.3409 7.2 10.0107 7.2 9.60227L 7.2 6.64773C 7.2 6.23926 7.7364 5.90909 8.4 5.90909C 9.0636 5.90909 9.6 6.23926 9.6 6.64773L 9.6 15.5114C 9.6 16.7353 11.2116 17.7273 13.2 17.7273C 15.1884 17.7273 16.8 16.7353 16.8 15.5114L 16.8 2.21591C 16.8 1.80744 17.3364 1.47727 18 1.47727C 18.6636 1.47727 19.2 1.80744 19.2 2.21591L 19.2 12.5568C 19.2 13.7807 20.8116 14.7727 22.8 14.7727C 24.7884 14.7727 26.4 13.7807 26.4 12.5568L 26.4 4.43182C 26.4 4.02335 26.9364 3.69318 27.6 3.69318C 28.2636 3.69318 28.8 4.02335 28.8 4.43182L 28.8 9.60227C 28.8 10.0107 29.3364 10.3409 30 10.3409L 34.8 10.3409C 35.4636 10.3409 36 10.0107 36 9.60227C 36 9.19381 35.4636 8.86364 34.8 8.86364Z"/>
<path id="path3_stroke" d="M -0.75 0L -0.75 22L 0.75 22L 0.75 0L -0.75 0Z"/>
</defs>
</svg>
