<svg width="66" height="66" viewBox="0 0 66 66" version="1.1" xmlns="http://www.w3.org/2000/svg" xmlns:xlink="http://www.w3.org/1999/xlink">
<title>Group 6</title>
<desc>Created using Figma</desc>
<g id="Canvas" transform="translate(-14927 -1223)">
<g id="Group 6">
<g id="Ellipse 4.4">
<mask id="mask0_outline_ins">
<use xlink:href="#path0_fill" fill="white" transform="translate(14927 1223)"/>
</mask>
<g mask="url(#mask0_outline_ins)">
<use xlink:href="#path1_stroke_2x" transform="translate(14927 1223)" fill="#197AE3"/>
</g>
</g>
<g id="electric-shock">
<g id="Group">
<g id="Vector">
<use xlink:href="#path2_fill" transform="translate(14945 1243)" fill="#197AE3"/>
</g>
</g>
</g>
</g>
</g>
<defs>
<path id="path0_fill" d="M 66 33C 66 51.2254 51.2254 66 33 66C 14.7746 66 0 51.2254 0 33C 0 14.7746 14.7746 0 33 0C 51.2254 0 66 14.7746 66 33Z"/>
<path id="path1_stroke_2x" d="M 65 33C 65 50.6731 50.6731 65 33 65L 33 67C 51.7777 67 67 51.7777 67 33L 65 33ZM 33 65C 15.3269 65 1 50.6731 1 33L -1 33C -1 51.7777 14.2223 67 33 67L 33 65ZM 1 33C 1 15.3269 15.3269 1 33 1L 33 -1C 14.2223 -1 -1 14.2223 -1 33L 1 33ZM 33 1C 50.6731 1 65 15.3269 65 33L 67 33C 67 14.2223 51.7777 -1 33 -1L 33 1Z"/>
<path id="path2_fill" d="M 1.03455 15.0119L 3.07932 15.5225L 4.6189 13.0869L 1.69334 12.3559C 0.961047 12.1724 0.222158 12.6198 0.0406601 13.3533C -0.141137 14.087 0.303756 14.8293 1.03455 15.0119ZM 27.7213 15.4058L 21.0278 21.4784L 13.1565 15.3402C 13.0065 15.2232 12.8337 15.1391 12.6492 15.0932L 11.6013 14.8314L 10.0617 17.2672L 11.7108 17.679L 20.2571 24.3435C 20.5043 24.5361 20.7995 24.6314 21.0935 24.6314C 21.4223 24.6314 21.7499 24.5125 22.0084 24.2782L 29.5503 17.4359C 30.1089 16.9292 30.1524 16.064 29.6475 15.5032C 29.1426 14.9429 28.2805 14.8985 27.7213 15.4058ZM 13.0257 8.73734L 20.3567 13.467C 20.9753 13.8654 21.7976 13.7007 22.2157 13.0942L 29.7579 2.14688C 30.1863 1.5253 30.0309 0.673032 29.4117 0.24312C 28.7917 -0.187093 27.943 -0.0310914 27.5146 0.590496L 20.7221 10.4488L 13.3464 5.69078C 13.041 5.49396 12.6702 5.42805 12.315 5.50575C 11.9604 5.58436 11.652 5.80143 11.4576 6.1089L 0.212858 23.8982C -0.190937 24.5364 -0.00223922 25.382 0.633452 25.7869C 0.859949 25.9308 1.11284 26 1.36274 26C 1.81423 26 2.25583 25.7754 2.51533 25.3642L 13.0257 8.73734Z"/>
</defs>
</svg>
