<svg width="66" height="66" viewBox="0 0 66 66" version="1.1" xmlns="http://www.w3.org/2000/svg" xmlns:xlink="http://www.w3.org/1999/xlink">
<title>Group 16</title>
<desc>Created using Figma</desc>
<g id="Canvas" transform="translate(-15288 -1224)">
<g id="Group 16">
<g id="Ellipse 4.5">
<mask id="mask0_outline_ins">
<use xlink:href="#path0_fill" fill="white" transform="translate(15288 1224)"/>
</mask>
<g mask="url(#mask0_outline_ins)">
<use xlink:href="#path1_stroke_2x" transform="translate(15288 1224)" fill="#197AE3"/>
</g>
</g>
<g id="recycle-water">
<g id="Group">
<g id="Group">
<g id="Vector">
<use xlink:href="#path2_fill" transform="translate(15306.3 1236)" fill="#197AE3"/>
</g>
</g>
</g>
<g id="Group">
<g id="Group">
<g id="Vector">
<use xlink:href="#path3_fill" transform="translate(15305.6 1270.32)" fill="#197AE3"/>
</g>
</g>
</g>
<g id="Group">
<g id="Group">
<g id="Vector">
<use xlink:href="#path4_fill" transform="translate(15310.6 1274.13)" fill="#197AE3"/>
</g>
</g>
</g>
<g id="Group">
<g id="Group">
<g id="Vector">
<use xlink:href="#path5_fill" transform="translate(15307.1 1271.76)" fill="#197AE3"/>
</g>
</g>
</g>
<g id="Group">
<g id="Group">
<g id="Vector">
<use xlink:href="#path6_fill" transform="translate(15308.8 1273.03)" fill="#197AE3"/>
</g>
</g>
</g>
<g id="Group">
<g id="Group">
<g id="Vector">
<use xlink:href="#path7_fill" transform="translate(15314.5 1275.75)" fill="#197AE3"/>
</g>
</g>
</g>
<g id="Group">
<g id="Group">
<g id="Vector">
<use xlink:href="#path8_fill" transform="translate(15312.5 1275.04)" fill="#197AE3"/>
</g>
</g>
</g>
<g id="Group">
<g id="Group">
<g id="Vector">
<use xlink:href="#path9_fill" transform="translate(15300.2 1259.17)" fill="#197AE3"/>
</g>
</g>
</g>
<g id="Group">
<g id="Group">
<g id="Vector">
<use xlink:href="#path10_fill" transform="translate(15300 1257.08)" fill="#197AE3"/>
</g>
</g>
</g>
<g id="Group">
<g id="Group">
<g id="Vector">
<use xlink:href="#path11_fill" transform="translate(15301.2 1263.24)" fill="#197AE3"/>
</g>
</g>
</g>
<g id="Group">
<g id="Group">
<g id="Vector">
<use xlink:href="#path12_fill" transform="translate(15304.2 1268.72)" fill="#197AE3"/>
</g>
</g>
</g>
<g id="Group">
<g id="Group">
<g id="Vector">
<use xlink:href="#path13_fill" transform="translate(15316.5 1276.25)" fill="#197AE3"/>
</g>
</g>
</g>
<g id="Group">
<g id="Group">
<g id="Vector">
<use xlink:href="#path14_fill" transform="translate(15303 1267)" fill="#197AE3"/>
</g>
</g>
</g>
<g id="Group">
<g id="Group">
<g id="Vector">
<use xlink:href="#path15_fill" transform="translate(15302 1265.17)" fill="#197AE3"/>
</g>
</g>
</g>
<g id="Group">
<g id="Group">
<g id="Vector">
<use xlink:href="#path16_fill" transform="translate(15300.6 1261.23)" fill="#197AE3"/>
</g>
</g>
</g>
<g id="Group">
<g id="Group">
<g id="Vector">
<use xlink:href="#path17_fill" transform="translate(15338.9 1264.46)" fill="#197AE3"/>
</g>
</g>
</g>
<g id="Group">
<g id="Group">
<g id="Vector">
<use xlink:href="#path18_fill" transform="translate(15336.8 1268.1)" fill="#197AE3"/>
</g>
</g>
</g>
<g id="Group">
<g id="Group">
<g id="Vector">
<use xlink:href="#path19_fill" transform="translate(15337.9 1266.33)" fill="#197AE3"/>
</g>
</g>
</g>
<g id="Group">
<g id="Group">
<g id="Vector">
<use xlink:href="#path20_fill" transform="translate(15335.5 1269.74)" fill="#197AE3"/>
</g>
</g>
</g>
<g id="Group">
<g id="Group">
<g id="Vector">
<use xlink:href="#path21_fill" transform="translate(15340.2 1260.47)" fill="#197AE3"/>
</g>
</g>
</g>
<g id="Group">
<g id="Group">
<g id="Vector">
<use xlink:href="#path22_fill" transform="translate(15340.5 1258.4)" fill="#197AE3"/>
</g>
</g>
</g>
<g id="Group">
<g id="Group">
<g id="Vector">
<use xlink:href="#path23_fill" transform="translate(15339.6 1262.5)" fill="#197AE3"/>
</g>
</g>
</g>
<g id="Group">
<g id="Group">
<g id="Vector">
<use xlink:href="#path24_fill" transform="translate(15334 1271.24)" fill="#197AE3"/>
</g>
</g>
</g>
<g id="Group">
<g id="Group">
<g id="Vector">
<use xlink:href="#path25_fill" transform="translate(15332.4 1272.58)" fill="#197AE3"/>
</g>
</g>
</g>
<g id="Group">
<g id="Group">
<g id="Vector">
<use xlink:href="#path26_fill" transform="translate(15322.8 1276.45)" fill="#197AE3"/>
</g>
</g>
</g>
<g id="Group">
<g id="Group">
<g id="Vector">
<use xlink:href="#path27_fill" transform="translate(15320.7 1276.59)" fill="#197AE3"/>
</g>
</g>
</g>
<g id="Group">
<g id="Group">
<g id="Vector">
<use xlink:href="#path28_fill" transform="translate(15324.8 1276.09)" fill="#197AE3"/>
</g>
</g>
</g>
<g id="Group">
<g id="Group">
<g id="Vector">
<use xlink:href="#path29_fill" transform="translate(15318.6 1276.53)" fill="#197AE3"/>
</g>
</g>
</g>
<g id="Group">
<g id="Group">
<g id="Vector">
<use xlink:href="#path30_fill" transform="translate(15326.9 1275.51)" fill="#197AE3"/>
</g>
</g>
</g>
<g id="Group">
<g id="Group">
<g id="Vector">
<use xlink:href="#path31_fill" transform="translate(15328.8 1274.73)" fill="#197AE3"/>
</g>
</g>
</g>
<g id="Group">
<g id="Group">
<g id="Vector">
<use xlink:href="#path32_fill" transform="translate(15330.7 1273.75)" fill="#197AE3"/>
</g>
</g>
</g>
</g>
<g id="drop (1)">
<g id="Group">
<g id="Group">
<g id="Vector">
<use xlink:href="#path33_fill" transform="translate(15313 1246)" fill="#197AE3"/>
</g>
</g>
</g>
<g id="Group">
<g id="Group">
<g id="Vector">
<use xlink:href="#path34_fill" transform="translate(15315.4 1259.29)" fill="#197AE3"/>
</g>
</g>
</g>
</g>
</g>
</g>
<defs>
<path id="path0_fill" d="M 66 33C 66 51.2254 51.2254 66 33 66C 14.7746 66 0 51.2254 0 33C 0 14.7746 14.7746 0 33 0C 51.2254 0 66 14.7746 66 33Z"/>
<path id="path1_stroke_2x" d="M 65 33C 65 50.6731 50.6731 65 33 65L 33 67C 51.7777 67 67 51.7777 67 33L 65 33ZM 33 65C 15.3269 65 1 50.6731 1 33L -1 33C -1 51.7777 14.2223 67 33 67L 33 65ZM 1 33C 1 15.3269 15.3269 1 33 1L 33 -1C 14.2223 -1 -1 14.2223 -1 33L 1 33ZM 33 1C 50.6731 1 65 15.3269 65 33L 67 33C 67 14.2223 51.7777 -1 33 -1L 33 1Z"/>
<path id="path2_fill" d="M 14.7047 0C 9.81645 0 5.15152 1.68492 1.4004 4.767L 1.4004 0.699973C 1.40049 0.313606 1.08678 0 0.700202 0C 0.313708 0 1.9032e-07 0.313606 1.9032e-07 0.699973L 1.9032e-07 6.99998L 0.624626 6.99998C 0.670169 7.0049 0.714234 7.00424 0.760432 6.99998L 6.30206 6.99998C 6.68855 6.99998 7.00226 6.68637 7.00226 6.3C 7.00226 5.91364 6.68855 5.60003 6.30206 5.60003L 2.58943 5.60003C 6.03734 2.87979 10.2744 1.40003 14.7048 1.40003C 25.5164 1.40003 34.3112 10.1927 34.3112 21C 34.3112 21.3864 34.6249 21.7 35.0114 21.7C 35.3979 21.7 35.7116 21.3864 35.7116 21C 35.7116 9.42064 26.2879 0 14.7047 0Z"/>
<path id="path3_fill" d="M 1.20278 0.215385C 0.936664 -0.0645877 0.49552 -0.0716434 0.215455 0.194384C -0.0646088 0.460412 -0.0716655 0.901413 0.194449 1.18139C 0.327465 1.32839 0.516527 1.39836 0.698614 1.39836C 0.873643 1.39836 1.04876 1.33536 1.18177 1.20936C 1.46184 0.936359 1.46889 0.495358 1.20278 0.215385Z"/>
<path id="path4_fill" d="M 1.03346 0.0879009C 0.697349 -0.101099 0.270238 0.0249004 0.0881511 0.367873C -0.100911 0.703873 0.0251295 1.13085 0.361239 1.31288C 0.473249 1.37588 0.585341 1.40385 0.69735 1.40385C 0.949432 1.40385 1.18748 1.27088 1.31352 1.03988C 1.50267 0.696902 1.37663 0.269846 1.03346 0.0879009Z"/>
<path id="path5_fill" d="M 1.15577 0.168389C 0.86167 -0.0836108 0.420526 -0.0485838 0.168444 0.245416C -0.0836387 0.539417 -0.0486003 0.987388 0.245496 1.23242C 0.378512 1.34439 0.539592 1.40042 0.700672 1.40042C 0.896709 1.40042 1.09283 1.31642 1.23282 1.15539C 1.48482 0.861388 1.44986 0.42039 1.15577 0.168389Z"/>
<path id="path6_fill" d="M 1.09952 0.122703C 0.777437 -0.09427 0.343268 -0.0173251 0.126225 0.30473C -0.0978761 0.61973 -0.0138483 1.06073 0.301255 1.2777C 0.427296 1.3617 0.560312 1.4037 0.700385 1.4037C 0.924486 1.4037 1.14153 1.29173 1.27455 1.09568C 1.49865 0.780675 1.41462 0.346648 1.09952 0.122703Z"/>
<path id="path7_fill" d="M 0.905436 0.030114C 0.534287 -0.0818587 0.142214 0.12814 0.0301231 0.499085C -0.0818862 0.870113 0.128182 1.25509 0.499249 1.36706C 0.569244 1.38806 0.639322 1.39503 0.702343 1.39503C 1.00341 1.39503 1.28356 1.19906 1.37456 0.898004C 1.48657 0.52714 1.2765 0.135114 0.905436 0.030114Z"/>
<path id="path8_fill" d="M 0.97052 0.0531751C 0.613403 -0.0938249 0.207297 0.0741753 0.0531924 0.431176C -0.0938557 0.788176 0.0741981 1.19415 0.431315 1.3482C 0.522317 1.38323 0.613403 1.39718 0.69743 1.39718C 0.977494 1.39718 1.23663 1.23615 1.34864 0.970202C 1.49569 0.613202 1.32764 0.200175 0.97052 0.0531751Z"/>
<path id="path9_fill" d="M 1.39391 0.600801C 1.33786 0.222801 0.980743 -0.0432282 0.602619 0.00582651C 0.217521 0.0618539 -0.0485935 0.418855 0.00745218 0.796855C 0.0564409 1.14688 0.357594 1.39888 0.700679 1.39888C 0.728743 1.3988 0.763699 1.3988 0.798738 1.39183C 1.18384 1.34286 1.44995 0.985856 1.39391 0.600801Z"/>
<path id="path10_fill" d="M 0.672691 0.00047005C 0.287592 0.0144974 -0.0135608 0.33647 0.000471105 0.728498C 0.014503 1.09953 0.322631 1.4005 0.700755 1.4005L 0.728737 1.4005C 1.11384 1.38647 1.41499 1.05753 1.40096 0.672472C 1.38692 0.287499 1.05787 -0.0135573 0.672691 0.00047005Z"/>
<path id="path11_fill" d="M 1.35906 0.462582C 1.23301 0.0986096 0.826908 -0.0903901 0.462735 0.0425826C 0.0986429 0.175555 -0.090419 0.581611 0.0425972 0.938611C 0.147632 1.22564 0.413746 1.40061 0.700785 1.40061C 0.784813 1.40061 0.861865 1.38658 0.945893 1.35861C 1.30301 1.22564 1.49207 0.826637 1.35906 0.462582Z"/>
<path id="path12_fill" d="M 1.25385 0.27341C 1.0158 -0.0346176 0.581628 -0.0905638 0.273499 0.147409C -0.0346286 0.385382 -0.0905921 0.826383 0.147458 1.13441C 0.287531 1.30938 0.4976 1.40044 0.700612 1.40044C 0.854635 1.40044 1.00168 1.35146 1.13478 1.25344C 1.43593 1.01538 1.4919 0.581437 1.25385 0.27341Z"/>
<path id="path13_fill" d="M 0.831184 0.0116699C 0.45306 -0.0583028 0.0819122 0.193697 0.0119166 0.571697C -0.0580789 0.949697 0.186946 1.31367 0.572127 1.3907C 0.614141 1.39767 0.656154 1.39767 0.705143 1.39767C 1.03428 1.39767 1.32837 1.16667 1.39139 0.830671C 1.46139 0.452671 1.20931 0.0886973 0.831184 0.0116699Z"/>
<path id="path14_fill" d="M 1.29596 0.327858C 1.09287 0.0058847 0.65878 -0.0991168 0.329645 0.103829C 0.000510429 0.313829 -0.0974668 0.740802 0.105545 1.06983C 0.238561 1.2868 0.462662 1.39886 0.700712 1.39886C 0.826753 1.39886 0.952795 1.36383 1.07186 1.29386C 1.401 1.09091 1.49897 0.656885 1.29596 0.327858Z"/>
<path id="path15_fill" d="M 1.3313 0.392841C 1.15627 0.0428132 0.74311 -0.0971337 0.392969 0.0708664C 0.0428267 0.238867 -0.0971645 0.658867 0.0708905 1.00889C 0.189957 1.25392 0.442039 1.40092 0.701097 1.40092C 0.806131 1.40092 0.90419 1.37992 1.00922 1.33095C 1.35231 1.16279 1.49936 0.742786 1.3313 0.392841Z"/>
<path id="path16_fill" d="M 1.38105 0.526573C 1.28299 0.155546 0.904869 -0.0754556 0.526745 0.0225718C 0.155596 0.113544 -0.0754793 0.491546 0.0225801 0.869546C 0.0996326 1.18455 0.386672 1.40152 0.6948 1.40152C 0.750928 1.4016 0.813948 1.39463 0.869912 1.3806C 1.24106 1.28257 1.47214 0.904573 1.38105 0.526573Z"/>
<path id="path17_fill" d="M 0.983815 0.0584485C 0.626698 -0.0955243 0.213535 0.0654228 0.0595123 0.41545C -0.0945107 0.772451 0.0595139 1.18548 0.416631 1.33945C 0.507633 1.38145 0.605692 1.40245 0.696695 1.40245C 0.969784 1.40245 1.22186 1.24142 1.34093 0.98245C 1.49495 0.632504 1.33388 0.212503 0.983815 0.0584485Z"/>
<path id="path18_fill" d="M 1.11124 0.133879C 0.796138 -0.0971215 0.354992 -0.0200956 0.130891 0.294905C -0.0932092 0.602932 -0.0231305 1.04393 0.291973 1.26788C 0.418014 1.35885 0.558087 1.40085 0.698078 1.40085C 0.922179 1.40085 1.13225 1.29585 1.27224 1.10685C 1.49634 0.791933 1.42634 0.357906 1.11124 0.133879Z"/>
<path id="path19_fill" d="M 1.04696 0.0898022C 0.710854 -0.0991979 0.283744 0.019828 0.094682 0.355828C -0.101355 0.691828 0.017628 1.1188 0.353738 1.3078C 0.458772 1.3708 0.577838 1.39878 0.696823 1.39878C 0.94193 1.39878 1.17998 1.27278 1.30602 1.04875C 1.50214 0.712748 1.38307 0.285775 1.04696 0.0898022Z"/>
<path id="path20_fill" d="M 1.16533 0.174462C 0.87123 -0.0775383 0.430088 -0.0565379 0.171031 0.237462L 0.178005 0.237462C -0.0810523 0.52449 -0.0530719 0.965489 0.234049 1.22446C 0.367065 1.34349 0.535122 1.39943 0.696202 1.39943C 0.892239 1.39943 1.0813 1.32241 1.22137 1.16146C 1.48043 0.874433 1.45245 0.433435 1.16533 0.174462Z"/>
<path id="path21_fill" d="M 0.842766 0.0165169C 0.464642 -0.0674831 0.0934934 0.177543 0.0165229 0.555543C -0.0675045 0.933543 0.177602 1.30457 0.555725 1.38152C 0.604714 1.39554 0.653784 1.40252 0.702773 1.40252C 1.02485 1.40252 1.31895 1.17152 1.38197 0.84249C 1.466 0.46449 1.22089 0.0935443 0.842766 0.0165169Z"/>
<path id="path22_fill" d="M 0.773304 0.00417016C 0.388206 -0.0378299 0.0450391 0.242143 0.0030254 0.627198C -0.0320134 1.01217 0.241076 1.35523 0.626257 1.39723L 0.703309 1.39723C 1.05345 1.39723 1.3615 1.1312 1.39654 0.7742C 1.43855 0.389145 1.15848 0.0391155 0.773304 0.00417016Z"/>
<path id="path23_fill" d="M 0.909413 0.0340352C 0.545321 -0.0849922 0.146191 0.118038 0.0341 0.489065C -0.0849662 0.853038 0.118127 1.25204 0.482219 1.37106C 0.552215 1.39206 0.629266 1.39904 0.699262 1.39904C 0.993358 1.39904 1.26645 1.21004 1.36451 0.916037C 1.48357 0.545091 1.28048 0.153063 0.909413 0.0340352Z"/>
<path id="path24_fill" d="M 1.21369 0.229039C 0.954628 -0.0579068 0.506508 -0.0789883 0.226362 0.187039C -0.0607597 0.446012 -0.074709 0.887013 0.184348 1.17404C 0.324422 1.32104 0.513484 1.39807 0.702545 1.39807C 0.8706 1.39807 1.03865 1.34204 1.17167 1.21604C 1.45879 0.950013 1.4798 0.509012 1.21369 0.229039Z"/>
<path id="path25_fill" d="M 1.25972 0.285786C 1.02864 -0.0292143 0.587496 -0.0922137 0.279368 0.138786C -0.0287602 0.369787 -0.0917808 0.810786 0.139295 1.11881C 0.272311 1.30781 0.482382 1.40584 0.699507 1.40584C 0.846556 1.40584 0.993603 1.35687 1.11964 1.26581C 1.42777 1.03481 1.49079 0.593813 1.25972 0.285786Z"/>
<path id="path26_fill" d="M 1.39214 0.614683C 1.35012 0.22971 0.999983 -0.0432908 0.614884 0.0056819C 0.229785 0.0546546 -0.0433047 0.404683 0.00568393 0.789656C 0.0476977 1.13968 0.348769 1.39866 0.69891 1.39866L 0.782939 1.39866C 1.16804 1.34968 1.44113 0.999656 1.39214 0.614683Z"/>
<path id="path27_fill" d="M 0.686368 0.0069738L 0.686368 -6.60897e-07C 0.30127 0.0140267 -0.0068587 0.329028 0.00011624 0.714001C 0.00709118 1.09897 0.322193 1.407 0.700317 1.407L 0.714351 1.407L 0.714351 1.40003C 1.09945 1.39306 1.40758 1.07805 1.4006 0.693C 1.39363 0.300972 1.07147 -0.00697152 0.686368 0.0069738Z"/>
<path id="path28_fill" d="M 1.38485 0.542221C 1.29377 0.164221 0.922702 -0.0667789 0.544578 0.0172211C 0.166455 0.108194 -0.0715952 0.479221 0.0194072 0.857221C 0.0894028 1.17919 0.3835 1.40322 0.698603 1.40322C 0.754648 1.40322 0.803635 1.39625 0.859681 1.38222C 1.23083 1.29822 1.46888 0.920221 1.38485 0.542221Z"/>
<path id="path29_fill" d="M 0.759143 0.00188377C 0.374044 -0.0260889 0.0308773 0.260855 0.00289546 0.64591C -0.0321433 1.03088 0.254978 1.36688 0.640076 1.40191L 0.696122 1.40191C 1.06021 1.40191 1.36834 1.12891 1.39632 0.757884C 1.43136 0.372912 1.14424 0.0369111 0.759143 0.00188377Z"/>
<path id="path30_fill" d="M 1.36166 0.47217C 1.23562 0.108197 0.836488 -0.0877761 0.472397 0.038224C 0.108305 0.164224 -0.0878126 0.556252 0.0382286 0.927198C 0.136288 1.21423 0.409377 1.39617 0.696416 1.39617C 0.773469 1.39617 0.85044 1.3892 0.927492 1.36114C 1.29158 1.23514 1.4877 0.836143 1.36166 0.47217Z"/>
<path id="path31_fill" d="M 1.33558 0.404172C 1.1745 0.0541444 0.76142 -0.0998291 0.404303 0.0681711C 0.0541613 0.229198 -0.0998598 0.642145 0.0681951 0.992172C 0.187261 1.25115 0.439343 1.39815 0.705375 1.39815C 0.803434 1.39815 0.901413 1.37715 0.999472 1.33515C 1.34961 1.17412 1.50364 0.754117 1.33558 0.404172Z"/>
<path id="path32_fill" d="M 1.29912 0.341642C 1.103 0.0126961 0.675889 -0.0992784 0.339779 0.0966943C 0.0106444 0.299722 -0.101365 0.726695 0.101729 1.06269C 0.22777 1.27967 0.46582 1.3987 0.703952 1.3987C 0.823018 1.3987 0.949061 1.37072 1.06107 1.30067C 1.39021 1.1047 1.50221 0.670669 1.29912 0.341642Z"/>
<path id="path33_fill" d="M 8.85682 0.158125C 8.76713 0.057707 8.63697 0 8.5 0C 8.36303 0 8.23287 0.057707 8.14318 0.158125C 7.8107 0.530406 0 9.32667 0 13.75C 0 18.2991 3.81305 22 8.5 22C 13.187 22 17 18.2991 17 13.75C 17 9.32667 9.1893 0.530406 8.85682 0.158125ZM 8.5 21.0833C 4.33389 21.0833 0.94443 17.7936 0.94443 13.75C 0.94443 10.1723 6.9576 2.95904 8.50022 1.16768C 9.16331 1.93682 10.6517 3.70614 12.1269 5.75317C 14.6971 9.31971 16.0556 12.085 16.0556 13.75C 16.0556 17.7936 12.6662 21.0833 8.5 21.0833Z"/>
<path id="path34_fill" d="M 6.1389 5.5C 3.27467 5.5 0.944474 3.23834 0.944474 0.458348C 0.944474 0.205262 0.733036 3.35693e-07 0.472237 3.35693e-07C 0.211482 3.35693e-07 8.10623e-09 0.205219 8.10623e-09 0.458348C 8.10623e-09 3.74378 2.75391 6.4167 6.1389 6.4167C 6.3997 6.4167 6.61114 6.21148 6.61114 5.95835C 6.61114 5.70526 6.3997 5.5 6.1389 5.5Z"/>
</defs>
</svg>
