<svg width="76" height="76" viewBox="0 0 76 76" version="1.1" xmlns="http://www.w3.org/2000/svg" xmlns:xlink="http://www.w3.org/1999/xlink">
<g id="Canvas" fill="none">
<g id="group (1)">
<g id="Group">
<g id="Group_2">
<g id="Group 2">
<g id="Ellipse 8.4">
<circle cx="38" cy="38" r="37.5" stroke="#197AE3"/>
</g>
<g id="Group_3">
<g id="Vector">
<path d="M 2.12234e-07 8.20119C 2.12234e-07 10.4255 0.848359 12.9935 2.26942 15.0704C 3.87973 17.4239 5.91365 18.7201 7.99651 18.7201C 10.0794 18.7201 12.1133 17.4239 13.7237 15.0704C 15.1448 12.9935 15.9932 10.4255 15.9932 8.20119C 15.9932 3.67907 12.4059 -4.89743e-08 7.9966 -4.89743e-08C 3.58729 -4.89743e-08 2.12234e-07 3.67907 2.12234e-07 8.20119ZM 7.99651 1.33732C 11.6868 1.33732 14.6891 4.41647 14.6891 8.20119C 14.6891 10.1318 13.9102 12.4696 12.6563 14.3022C 11.3167 16.2599 9.61838 17.3827 7.99651 17.3827C 6.37464 17.3827 4.67619 16.2599 3.33676 14.3022C 2.08278 12.4696 1.30388 10.1318 1.30388 8.20119C 1.30388 4.41647 4.30621 1.33732 7.99651 1.33732Z" transform="translate(33.0723 20.9503)" fill="#197AE3"/>
</g>
<g id="Vector_2">
<path d="M 25.6487 5.24207C 24.2397 2.99956 22.2561 1.20932 19.9124 0.0650188C 19.6635 -0.0565886 19.367 -0.00434392 19.1717 0.195274C 17.6008 1.80185 15.7883 2.65105 13.9303 2.65105C 12.0721 2.65105 10.26 1.80194 8.69005 0.195364C 8.4948 -0.00443243 8.19819 -0.0565879 7.94931 0.0649304C 5.60548 1.20923 3.62171 2.99947 2.21256 5.24198C 0.765079 7.54548 1.69787e-07 10.2179 1.69787e-07 12.9705L 1.69787e-07 12.9821C 1.69787e-07 13.1708 0.0777163 13.3506 0.213937 13.4774C 3.97596 16.9765 8.84722 18.9035 13.9303 18.9035C 19.0134 18.9035 23.8846 16.9764 27.6468 13.4775C 27.783 13.3507 27.8607 13.1708 27.8607 12.9822L 27.8607 12.9706C 27.8607 10.2179 27.0958 7.54539 25.6487 5.24207ZM 13.9303 17.5661C 9.26901 17.5661 4.7978 15.8349 1.30692 12.6855C 1.3576 10.2912 2.04705 7.97396 3.30859 5.96646C 4.50537 4.06202 6.15888 2.51741 8.10952 1.47688C 9.85205 3.12197 11.8557 3.98837 13.9303 3.98837C 16.0045 3.98837 18.0085 3.12188 19.752 1.47679C 21.7025 2.51723 23.3559 4.06184 24.5525 5.96637C 25.8138 7.97378 26.5031 10.2911 26.5537 12.6855C 23.0629 15.835 18.5916 17.5661 13.9303 17.5661Z" transform="translate(27.1387 38.0966)" fill="#197AE3"/>
</g>
<g id="Vector_3">
<path d="M 6.98664 16.3305C 7.71799 16.3305 8.44777 16.1475 9.15574 15.7865C 9.47816 15.6221 9.6096 15.2208 9.44939 14.8901C 9.28917 14.5595 8.8979 14.4247 8.57539 14.589C 8.04919 14.8572 7.51465 14.9932 6.98655 14.9932C 5.61721 14.9932 4.17903 14.039 3.04084 12.3752C 1.96951 10.8092 1.30396 8.81288 1.30396 7.16539C 1.30396 3.9518 3.85321 1.33732 6.98664 1.33732C 8.46568 1.33732 9.86622 1.91719 10.9304 2.97029C 11.1895 3.22661 11.6023 3.21912 11.8523 2.95335C 12.1023 2.68758 12.095 2.26427 11.8358 2.00786C 10.5272 0.713062 8.80506 0 6.98664 0C 3.13421 0 -6.89759e-08 3.21439 -6.89759e-08 7.16539C -6.89759e-08 9.10228 0.737783 11.337 1.97351 13.1433C 3.37953 15.1986 5.15996 16.3305 6.98664 16.3305Z" transform="translate(24.1191 19)" fill="#197AE3"/>
</g>
<g id="Vector_4">
<path d="M 5.6186 13.7848C 4.04759 13.0903 2.59863 12.1515 1.30753 10.9923C 1.35821 8.95944 1.94725 6.99268 3.01876 5.28759C 4.03107 3.67656 5.42544 2.3667 7.06992 1.47702C 8.57912 2.88362 10.311 3.62414 12.1043 3.62414C 13.1759 3.62414 14.2288 3.35989 15.2335 2.83877C 15.5548 2.67205 15.6835 2.26988 15.5211 1.94027C 15.3585 1.61075 14.9664 1.47871 14.645 1.64535C 13.8244 2.07097 12.9696 2.28673 12.1043 2.28673C 10.5263 2.28673 8.98526 1.5635 7.64792 0.19524C 7.45267 -0.00446731 7.15589 -0.0565343 6.90718 0.0648948C 4.87065 1.05924 3.14699 2.61473 1.92265 4.56321C 0.664847 6.56492 -8.62199e-09 8.88723 -8.62199e-09 11.2791L -8.62199e-09 11.2889C -8.62199e-09 11.4776 0.0777163 11.6575 0.213937 11.7842C 1.6656 13.1344 3.31033 14.2207 5.10241 15.013C 5.18647 15.0502 5.27401 15.0678 5.36016 15.0678C 5.61252 15.0678 5.85288 14.9165 5.9592 14.6635C 6.10177 14.3243 5.94929 13.931 5.6186 13.7848Z" transform="translate(19 34.0208)" fill="#197AE3"/>
</g>
<g id="Vector_5">
<path d="M 1.02297 0.118445C 0.788863 -0.0474729 0.471217 -0.0384674 0.246762 0.141626C 0.0197852 0.323769 -0.0611472 0.650076 0.0482988 0.922355C 0.147661 1.16958 0.390372 1.33514 0.65073 1.33514C 0.940731 1.33514 1.20005 1.13089 1.2782 0.845147C 1.35191 0.575721 1.24742 0.277586 1.02297 0.118445Z" transform="translate(25.4512 48.4065)" fill="#197AE3"/>
</g>
</g>
</g>
</g>
</g>
</g>
</g>
</svg>

