<svg width="76" height="76" viewBox="0 0 76 76" version="1.1" xmlns="http://www.w3.org/2000/svg" xmlns:xlink="http://www.w3.org/1999/xlink">
<g id="Canvas" fill="none">
<g id="Group">
<g id="Ellipse 8.5">
<circle cx="38" cy="38" r="37.5" stroke="#197AE3"/>
</g>
<g id="shipped">
<g id="Group_2">
<g id="Group_3">
<g id="Vector">
<path d="M 44.6399 12.718L 43.3969 7.80547C 43.7367 7.73414 43.9917 7.43625 43.9917 7.07935L 43.9917 6.28728C 43.9917 4.56753 42.5756 3.16846 40.8351 3.16846L 35.1734 3.16846L 35.1734 1.53468C 35.1734 0.688418 34.4766 -3.2791e-07 33.6201 -3.2791e-07L 4.75988 -3.2791e-07C 3.90338 -3.2791e-07 3.20663 0.688418 3.20663 1.53468L 3.20663 15.0001C 3.20663 15.4102 3.5431 15.7427 3.95823 15.7427C 4.37326 15.7427 4.70982 15.4103 4.70982 15.0001L 4.70982 1.53468C 4.70982 1.50735 4.73223 1.48521 4.75988 1.48521L 33.62 1.48521C 33.6477 1.48521 33.6701 1.50735 33.6701 1.53468L 33.6701 15.0003C 33.6701 15.4104 34.0066 15.7429 34.4217 15.7429C 34.8367 15.7429 35.1733 15.4105 35.1733 15.0003L 35.1733 14.1585L 44.0392 14.1585C 44.0399 14.1585 44.0405 14.1587 44.0411 14.1587C 44.0419 14.1587 44.0425 14.1586 44.0432 14.1586C 45.1342 14.1593 46.0605 14.8668 46.3787 15.8418L 44.0417 15.8418C 43.6266 15.8418 43.2901 16.1742 43.2901 16.5844L 43.2901 18.1685C 43.2901 19.4515 44.3465 20.4953 45.645 20.4953L 46.4968 20.4953L 46.4968 23.7626L 44.5316 23.7626C 43.8861 21.9208 42.1141 20.5942 40.0333 20.5942C 37.9525 20.5942 36.1804 21.9208 35.535 23.7626L 35.1731 23.7626L 35.1731 18.1684C 35.1731 17.7584 34.8366 17.4258 34.4215 17.4258C 34.0065 17.4258 33.6699 17.7583 33.6699 18.1684L 33.6699 23.7624L 18.0766 23.7624C 17.4311 21.9206 15.6591 20.594 13.5783 20.594C 11.4975 20.594 9.72546 21.9206 9.07999 23.7624L 4.75988 23.7624C 4.73223 23.7624 4.70982 23.7402 4.70982 23.7129L 4.70982 22.0792L 7.96661 22.0792C 8.38164 22.0792 8.7182 21.7468 8.7182 21.3366C 8.7182 20.9264 8.38173 20.594 7.96661 20.594L 0.751595 20.594C 0.336563 20.594 0 20.9264 0 21.3366C 0 21.7468 0.336469 22.0792 0.751595 22.0792L 3.20673 22.0792L 3.20673 23.7129C 3.20673 24.5592 3.90348 25.2476 4.75998 25.2476L 8.81974 25.2476C 8.81955 25.2641 8.81842 25.2805 8.81842 25.297C 8.81842 27.8903 10.9538 30 13.5783 30C 16.2028 30 18.3382 27.8903 18.3382 25.297C 18.3382 25.2804 18.3371 25.2641 18.3369 25.2476L 35.2747 25.2476C 35.2745 25.2641 35.2734 25.2805 35.2734 25.297C 35.2734 27.8903 37.4088 30 40.0333 30C 42.6578 30 44.7932 27.8903 44.7932 25.297C 44.7932 25.2804 44.7921 25.2641 44.7919 25.2476L 47.2484 25.2476C 47.6634 25.2476 48 24.9151 48 24.505L 48 16.5842C 48.0001 14.6286 46.5397 13.0038 44.6399 12.718ZM 35.1734 4.65358L 40.8351 4.65358C 41.7469 4.65358 42.4886 5.38646 42.4886 6.28728L 42.4886 6.33674L 35.1734 6.33674L 35.1734 4.65358ZM 35.1734 12.6734L 35.1734 7.82186L 41.8517 7.82186L 43.0792 12.6734L 35.1734 12.6734ZM 13.5783 28.5151C 11.7825 28.5151 10.3215 27.0716 10.3215 25.2972C 10.3215 23.5228 11.7825 22.0794 13.5783 22.0794C 15.3741 22.0794 16.8351 23.5228 16.8351 25.2972C 16.8351 27.0716 15.3741 28.5151 13.5783 28.5151ZM 40.0335 28.5151C 38.2377 28.5151 36.7767 27.0716 36.7767 25.2972C 36.7767 23.5228 38.2377 22.0794 40.0335 22.0794C 41.8293 22.0794 43.2903 23.5228 43.2903 25.2972C 43.2903 27.0716 41.8293 28.5151 40.0335 28.5151ZM 46.497 19.01L 45.6452 19.01C 45.1755 19.01 44.7934 18.6325 44.7934 18.1684L 44.7934 17.3268L 46.4969 17.3268L 46.4969 19.01L 46.497 19.01Z" transform="translate(14 23)" fill="#197AE3"/>
</g>
</g>
</g>
<g id="Group_4">
<g id="Group_5">
<g id="Vector_2">
<path d="M 1.55325 -1.4021e-06C 0.696752 -1.4021e-06 -1.60218e-07 0.688419 -1.60218e-07 1.53468C -1.60218e-07 2.38093 0.696752 3.06935 1.55325 3.06935C 2.40976 3.06935 3.10651 2.38093 3.10651 1.53468C 3.10651 0.688419 2.40976 -1.4021e-06 1.55325 -1.4021e-06Z" transform="translate(26.0234 46.7626)" fill="#197AE3"/>
</g>
</g>
</g>
<g id="Group_6">
<g id="Group_7">
<g id="Vector_3">
<path d="M 1.55325 -1.4021e-06C 0.696752 -1.4021e-06 -1.25885e-06 0.688419 -1.25885e-06 1.53468C -1.25885e-06 2.38093 0.696752 3.06935 1.55325 3.06935C 2.40976 3.06935 3.10651 2.38093 3.10651 1.53468C 3.10651 0.688419 2.40976 -1.4021e-06 1.55325 -1.4021e-06Z" transform="translate(52.4805 46.7626)" fill="#197AE3"/>
</g>
</g>
</g>
<g id="Group_8">
<g id="Group_9">
<g id="Vector_4">
<path d="M 11.975 4.97519e-07L 0.751595 4.97519e-07C 0.336563 4.97519e-07 4.69209e-07 0.332446 4.69209e-07 0.742606C 4.69209e-07 1.15277 0.33647 1.48521 0.751595 1.48521L 11.975 1.48521C 12.39 1.48521 12.7266 1.15277 12.7266 0.742606C 12.7266 0.332446 12.3901 4.97519e-07 11.975 4.97519e-07Z" transform="translate(33.2402 43.5942)" fill="#197AE3"/>
</g>
</g>
</g>
<g id="Group_10">
<g id="Group_11">
<g id="Vector_5">
<path d="M 10.3717 -1.0855e-06L 0.751595 -1.0855e-06C 0.336563 -1.0855e-06 -6.72342e-08 0.332444 -6.72342e-08 0.742605C -6.72342e-08 1.15277 0.336469 1.48521 0.751595 1.48521L 10.3717 1.48521C 10.7867 1.48521 11.1233 1.15277 11.1233 0.742605C 11.1233 0.332444 10.7867 -1.0855e-06 10.3717 -1.0855e-06Z" transform="translate(15.6035 40.4259)" fill="#197AE3"/>
</g>
</g>
</g>
<g id="Group_12">
<g id="Group_13">
<g id="Vector_6">
<path d="M 12.5064 0.217434C 12.213 -0.0724942 11.737 -0.0724935 11.4435 0.217528L 4.75991 6.82113L 1.28299 3.38581C 0.989462 3.09578 0.513587 3.09578 0.220149 3.38581C -0.0733828 3.67583 -0.0733828 4.14592 0.220149 4.43594L 4.22853 8.39638C 4.37525 8.54144 4.56763 8.61387 4.75991 8.61387C 4.95219 8.61387 5.14466 8.54144 5.29128 8.39638L 12.5063 1.26766C 12.7998 0.977547 12.7998 0.507455 12.5064 0.217434Z" transform="translate(27.6289 30.1288)" fill="#197AE3"/>
</g>
</g>
</g>
</g>
</g>
</g>
</svg>

