<svg width="57" height="30" viewBox="0 0 57 30" version="1.1" xmlns="http://www.w3.org/2000/svg" xmlns:xlink="http://www.w3.org/1999/xlink">
<title>Group 3</title>
<desc>Created using Figma</desc>
<g id="Canvas" transform="translate(-18010 -3463)">
<g id="Group 3">
<g id="&#209;&#136;&#208;&#176;&#208;&#179; 3">
<use xlink:href="#path0_fill" transform="translate(18022 3472)" fill="#197AE3"/>
</g>
<g id="Rectangle 48.2">
<mask id="mask0_outline_ins">
<use xlink:href="#path1_fill" fill="white" transform="translate(18010 3463)"/>
</mask>
<g mask="url(#mask0_outline_ins)">
<use xlink:href="#path2_stroke_2x" transform="translate(18010 3463)" fill="#197AE3"/>
</g>
</g>
</g>
</g>
<defs>
<path id="path0_fill" d="M 10.1827 10L 1.13468 10L 1.13468 3.76L 2.94168 3.76L 2.94168 8.479L 4.76168 8.479L 4.76168 3.76L 6.55568 3.76L 6.55568 8.479L 8.38868 8.479L 8.38868 3.76L 10.1827 3.76L 10.1827 10ZM 17.2996 8.388C 17.2996 8.66533 17.4469 8.804 17.7416 8.804C 17.8629 8.804 17.9756 8.78667 18.0796 8.752L 18.0796 9.935C 17.7502 10.0563 17.4166 10.117 17.0786 10.117C 16.4199 10.117 15.9606 9.883 15.7006 9.415C 15.0506 9.92633 14.3009 10.182 13.4516 10.182C 12.8362 10.182 12.3162 10.013 11.8916 9.675C 11.4756 9.32833 11.2676 8.86033 11.2676 8.271C 11.2676 7.777 11.4149 7.36533 11.7096 7.036C 12.0042 6.70667 12.3466 6.48567 12.7366 6.373C 13.1266 6.25167 13.5512 6.191 14.0106 6.191C 14.5219 6.191 15.0159 6.24733 15.4926 6.36L 15.4926 6.139C 15.4926 5.81833 15.3669 5.56267 15.1156 5.372C 14.8642 5.18133 14.5002 5.086 14.0236 5.086C 13.3302 5.086 12.5936 5.242 11.8136 5.554L 11.8136 3.994C 12.6456 3.71667 13.4516 3.578 14.2316 3.578C 16.2769 3.578 17.2996 4.51833 17.2996 6.399L 17.2996 8.388ZM 14.4266 7.27C 14.0539 7.27 13.7419 7.33933 13.4906 7.478C 13.2392 7.61667 13.1136 7.83333 13.1136 8.128C 13.1136 8.35333 13.2046 8.53967 13.3866 8.687C 13.5772 8.82567 13.8112 8.895 14.0886 8.895C 14.6346 8.895 15.1026 8.726 15.4926 8.388L 15.4926 7.413C 15.0939 7.31767 14.7386 7.27 14.4266 7.27ZM 20.8548 10L 19.0478 10L 19.0478 3.76L 23.8058 3.76L 23.8058 5.281L 20.8548 5.281L 20.8548 10ZM 33.7392 3.422C 33.7392 3.87267 33.6178 4.267 33.3752 4.605C 33.1412 4.93433 32.8162 5.17267 32.4002 5.32C 32.8942 5.46733 33.3015 5.73167 33.6222 6.113C 33.9429 6.48567 34.1032 6.97533 34.1032 7.582C 34.1032 8.03267 34.0035 8.43133 33.8042 8.778C 33.6135 9.116 33.3492 9.38467 33.0112 9.584C 32.6732 9.78333 32.2962 9.93067 31.8802 10.026C 31.4729 10.13 31.0352 10.182 30.5672 10.182C 29.4839 10.182 28.4612 9.98267 27.4992 9.584L 27.4992 7.777C 28.3485 8.25367 29.3192 8.48333 30.4112 8.466C 30.9572 8.466 31.3992 8.37067 31.7372 8.18C 32.0752 7.98933 32.2442 7.699 32.2442 7.309C 32.2442 6.62433 31.7329 6.282 30.7102 6.282L 29.2542 6.282L 29.2672 4.618L 30.4892 4.631C 30.9312 4.631 31.2735 4.553 31.5162 4.397C 31.7675 4.23233 31.8932 3.99833 31.8932 3.695C 31.8932 3.37433 31.7545 3.12733 31.4772 2.954C 31.1999 2.772 30.7969 2.681 30.2682 2.681C 29.3929 2.681 28.5219 2.94533 27.6552 3.474L 27.6552 1.667C 28.5045 1.20767 29.4665 0.978 30.5412 0.978C 31.4945 0.978 32.2659 1.19033 32.8552 1.615C 33.4445 2.03967 33.7392 2.642 33.7392 3.422Z"/>
<path id="path1_fill" d="M 0 15C 0 6.71573 6.71573 0 15 0L 42 0C 50.2843 0 57 6.71573 57 15C 57 23.2843 50.2843 30 42 30L 15 30C 6.71573 30 0 23.2843 0 15Z"/>
<path id="path2_stroke_2x" d="M 15 3L 42 3L 42 -3L 15 -3L 15 3ZM 42 27L 15 27L 15 33L 42 33L 42 27ZM 15 27C 8.37258 27 3 21.6274 3 15L -3 15C -3 24.9411 5.05888 33 15 33L 15 27ZM 54 15C 54 21.6274 48.6274 27 42 27L 42 33C 51.9411 33 60 24.9411 60 15L 54 15ZM 42 3C 48.6274 3 54 8.37258 54 15L 60 15C 60 5.05887 51.9411 -3 42 -3L 42 3ZM 15 -3C 5.05888 -3 -3 5.05887 -3 15L 3 15C 3 8.37258 8.37258 3 15 3L 15 -3Z"/>
</defs>
</svg>
