<svg width="57" height="30" viewBox="0 0 57 30" version="1.1" xmlns="http://www.w3.org/2000/svg" xmlns:xlink="http://www.w3.org/1999/xlink">
<title>Group</title>
<desc>Created using Figma</desc>
<g id="Canvas" transform="translate(-17608 -3463)">
<g id="Group">
<g id="&#209;&#136;&#208;&#176;&#208;&#179; 1">
<use xlink:href="#path0_fill" transform="translate(17620 3472)" fill="#197AE3"/>
</g>
<g id="Rectangle 48">
<mask id="mask0_outline_ins">
<use xlink:href="#path1_fill" fill="white" transform="translate(17608 3463)"/>
</mask>
<g mask="url(#mask0_outline_ins)">
<use xlink:href="#path2_stroke_2x" transform="translate(17608 3463)" fill="#197AE3"/>
</g>
</g>
</g>
</g>
<defs>
<path id="path0_fill" d="M 11.0587 10L 2.01065 10L 2.01065 3.76L 3.81765 3.76L 3.81765 8.479L 5.63765 8.479L 5.63765 3.76L 7.43165 3.76L 7.43165 8.479L 9.26465 8.479L 9.26465 3.76L 11.0587 3.76L 11.0587 10ZM 18.1755 8.388C 18.1755 8.66533 18.3229 8.804 18.6175 8.804C 18.7389 8.804 18.8515 8.78667 18.9555 8.752L 18.9555 9.935C 18.6262 10.0563 18.2925 10.117 17.9545 10.117C 17.2959 10.117 16.8365 9.883 16.5765 9.415C 15.9265 9.92633 15.1769 10.182 14.3275 10.182C 13.7122 10.182 13.1922 10.013 12.7675 9.675C 12.3515 9.32833 12.1435 8.86033 12.1435 8.271C 12.1435 7.777 12.2909 7.36533 12.5855 7.036C 12.8802 6.70667 13.2225 6.48567 13.6125 6.373C 14.0025 6.25167 14.4272 6.191 14.8865 6.191C 15.3979 6.191 15.8919 6.24733 16.3685 6.36L 16.3685 6.139C 16.3685 5.81833 16.2429 5.56267 15.9915 5.372C 15.7402 5.18133 15.3762 5.086 14.8995 5.086C 14.2062 5.086 13.4695 5.242 12.6895 5.554L 12.6895 3.994C 13.5215 3.71667 14.3275 3.578 15.1075 3.578C 17.1529 3.578 18.1755 4.51833 18.1755 6.399L 18.1755 8.388ZM 15.3025 7.27C 14.9299 7.27 14.6179 7.33933 14.3665 7.478C 14.1152 7.61667 13.9895 7.83333 13.9895 8.128C 13.9895 8.35333 14.0805 8.53967 14.2625 8.687C 14.4532 8.82567 14.6872 8.895 14.9645 8.895C 15.5105 8.895 15.9785 8.726 16.3685 8.388L 16.3685 7.413C 15.9699 7.31767 15.6145 7.27 15.3025 7.27ZM 21.7307 10L 19.9237 10L 19.9237 3.76L 24.6817 3.76L 24.6817 5.281L 21.7307 5.281L 21.7307 10ZM 30.5722 1.16L 31.9892 1.16L 31.9892 8.323L 33.4712 8.323L 33.4712 10L 28.4272 10L 28.4272 8.323L 30.0912 8.323L 30.0912 3.11L 28.4272 3.734L 28.4272 1.979L 30.5722 1.16Z"/>
<path id="path1_fill" d="M 0 15C 0 6.71573 6.71573 0 15 0L 42 0C 50.2843 0 57 6.71573 57 15L 57 15C 57 23.2843 50.2843 30 42 30L 15 30C 6.71573 30 0 23.2843 0 15L 0 15Z"/>
<path id="path2_stroke_2x" d="M 15 3L 42 3L 42 -3L 15 -3L 15 3ZM 42 27L 15 27L 15 33L 42 33L 42 27ZM 15 27C 8.37258 27 3 21.6274 3 15L -3 15C -3 24.9411 5.05888 33 15 33L 15 27ZM 54 15C 54 21.6274 48.6274 27 42 27L 42 33C 51.9411 33 60 24.9411 60 15L 54 15ZM 42 3C 48.6274 3 54 8.37258 54 15L 60 15C 60 5.05887 51.9411 -3 42 -3L 42 3ZM 15 -3C 5.05888 -3 -3 5.05887 -3 15L 3 15C 3 8.37258 8.37258 3 15 3L 15 -3Z"/>
</defs>
</svg>
