<svg width="57" height="30" viewBox="0 0 57 30" version="1.1" xmlns="http://www.w3.org/2000/svg" xmlns:xlink="http://www.w3.org/1999/xlink">
<title>Group 2</title>
<desc>Created using Figma</desc>
<g id="Canvas" transform="translate(-17809 -3463)">
<g id="Group 2">
<g id="&#209;&#136;&#208;&#176;&#208;&#179; 2">
<use xlink:href="#path0_fill" transform="translate(17821 3472)" fill="#197AE3"/>
</g>
<g id="Rectangle 48.1">
<mask id="mask0_outline_ins">
<use xlink:href="#path1_fill" fill="white" transform="translate(17809 3463)"/>
</mask>
<g mask="url(#mask0_outline_ins)">
<use xlink:href="#path2_stroke_2x" transform="translate(17809 3463)" fill="#197AE3"/>
</g>
</g>
</g>
</g>
<defs>
<path id="path0_fill" d="M 10.1827 10L 1.13468 10L 1.13468 3.76L 2.94168 3.76L 2.94168 8.479L 4.76168 8.479L 4.76168 3.76L 6.55568 3.76L 6.55568 8.479L 8.38868 8.479L 8.38868 3.76L 10.1827 3.76L 10.1827 10ZM 17.2996 8.388C 17.2996 8.66533 17.4469 8.804 17.7416 8.804C 17.8629 8.804 17.9756 8.78667 18.0796 8.752L 18.0796 9.935C 17.7502 10.0563 17.4166 10.117 17.0786 10.117C 16.4199 10.117 15.9606 9.883 15.7006 9.415C 15.0506 9.92633 14.3009 10.182 13.4516 10.182C 12.8362 10.182 12.3162 10.013 11.8916 9.675C 11.4756 9.32833 11.2676 8.86033 11.2676 8.271C 11.2676 7.777 11.4149 7.36533 11.7096 7.036C 12.0042 6.70667 12.3466 6.48567 12.7366 6.373C 13.1266 6.25167 13.5512 6.191 14.0106 6.191C 14.5219 6.191 15.0159 6.24733 15.4926 6.36L 15.4926 6.139C 15.4926 5.81833 15.3669 5.56267 15.1156 5.372C 14.8642 5.18133 14.5002 5.086 14.0236 5.086C 13.3302 5.086 12.5936 5.242 11.8136 5.554L 11.8136 3.994C 12.6456 3.71667 13.4516 3.578 14.2316 3.578C 16.2769 3.578 17.2996 4.51833 17.2996 6.399L 17.2996 8.388ZM 14.4266 7.27C 14.0539 7.27 13.7419 7.33933 13.4906 7.478C 13.2392 7.61667 13.1136 7.83333 13.1136 8.128C 13.1136 8.35333 13.2046 8.53967 13.3866 8.687C 13.5772 8.82567 13.8112 8.895 14.0886 8.895C 14.6346 8.895 15.1026 8.726 15.4926 8.388L 15.4926 7.413C 15.0939 7.31767 14.7386 7.27 14.4266 7.27ZM 20.8548 10L 19.0478 10L 19.0478 3.76L 23.8058 3.76L 23.8058 5.281L 20.8548 5.281L 20.8548 10ZM 27.7072 1.914C 28.5825 1.29 29.5965 0.978 30.7492 0.978C 31.6939 0.978 32.4652 1.199 33.0632 1.641C 33.6698 2.083 33.9732 2.733 33.9732 3.591C 33.9732 4.25833 33.7565 4.83033 33.3232 5.307C 32.8985 5.775 32.3179 6.22567 31.5812 6.659C 30.7145 7.17033 30.1815 7.517 29.9822 7.699C 29.7482 7.92433 29.6269 8.13667 29.6182 8.336L 34.0382 8.323L 34.0382 10L 27.4082 10L 27.4082 9.129C 27.4082 8.65233 27.4775 8.22333 27.6162 7.842C 27.7635 7.46067 27.9975 7.11833 28.3182 6.815C 28.6475 6.51167 28.9205 6.28633 29.1372 6.139C 29.3539 5.983 29.6832 5.775 30.1252 5.515C 30.1512 5.49767 30.1729 5.48467 30.1902 5.476C 30.2075 5.46733 30.2292 5.45433 30.2552 5.437C 30.2812 5.41967 30.3029 5.40667 30.3202 5.398C 30.3722 5.36333 30.4805 5.30267 30.6452 5.216C 30.8185 5.12067 30.9312 5.05567 30.9832 5.021C 31.0352 4.98633 31.1262 4.93 31.2562 4.852C 31.3862 4.76533 31.4772 4.70033 31.5292 4.657C 31.5812 4.605 31.6462 4.53567 31.7242 4.449C 31.8109 4.36233 31.8715 4.28433 31.9062 4.215C 31.9409 4.14567 31.9712 4.06333 31.9972 3.968C 32.0232 3.87267 32.0362 3.773 32.0362 3.669C 32.0362 3.34833 31.9062 3.10567 31.6462 2.941C 31.3862 2.76767 31.0265 2.681 30.5672 2.681C 29.5792 2.681 28.6259 3.032 27.7072 3.734L 27.7072 1.914Z"/>
<path id="path1_fill" d="M 0 15C 0 6.71573 6.71573 0 15 0L 42 0C 50.2843 0 57 6.71573 57 15C 57 23.2843 50.2843 30 42 30L 15 30C 6.71573 30 0 23.2843 0 15Z"/>
<path id="path2_stroke_2x" d="M 15 3L 42 3L 42 -3L 15 -3L 15 3ZM 42 27L 15 27L 15 33L 42 33L 42 27ZM 15 27C 8.37258 27 3 21.6274 3 15L -3 15C -3 24.9411 5.05888 33 15 33L 15 27ZM 54 15C 54 21.6274 48.6274 27 42 27L 42 33C 51.9411 33 60 24.9411 60 15L 54 15ZM 42 3C 48.6274 3 54 8.37258 54 15L 60 15C 60 5.05887 51.9411 -3 42 -3L 42 3ZM 15 -3C 5.05888 -3 -3 5.05887 -3 15L 3 15C 3 8.37258 8.37258 3 15 3L 15 -3Z"/>
</defs>
</svg>
