<svg width="52" height="64" viewBox="0 0 52 64" version="1.1" xmlns="http://www.w3.org/2000/svg" xmlns:xlink="http://www.w3.org/1999/xlink">
<title>user</title>
<desc>Created using Figma</desc>
<g id="Canvas" transform="translate(-17412 -3444)">
<g id="user">
<g id="Group">
<g id="Vector">
<use xlink:href="#path0_fill" transform="translate(17412 3444)" fill="#197AE3"/>
</g>
</g>
</g>
</g>
<defs>
<path id="path0_fill" d="M 36.847 37.5479L 36.6869 37.474C 36.3048 37.2962 35.9199 37.1285 35.5275 36.9716C 35.0995 36.7962 34.6652 36.634 34.2246 36.4821C 33.8767 36.3654 33.5261 36.2563 33.1719 36.1498C 32.6323 35.9902 32.0873 35.846 31.5262 35.7187C 31.3357 35.6785 31.1415 35.6395 30.9484 35.6044L 30.8164 35.5783C 30.4851 35.5121 30.1524 35.4537 29.8159 35.403L 29.7194 35.3874C 29.7157 35.3874 29.7131 35.3848 29.7094 35.3848L 29.613 35.3719C 29.3336 35.3291 29.0556 35.2889 28.7659 35.2551L 27.7805 35.1721C 26.5691 35.0903 25.3208 35.0929 24.1234 35.1824L 23.7743 35.2123L 23.6117 35.2252L 23.2041 35.2628C 22.8294 35.303 22.4574 35.3563 22.0853 35.4173L 21.9761 35.4329C 21.7222 35.4757 21.4681 35.5238 21.2179 35.5719C 20.9399 35.6226 20.6655 35.6783 20.3912 35.7393C 19.8605 35.8613 19.3334 36.0003 18.823 36.1522C 18.4166 36.2716 18.0155 36.4027 17.6383 36.5352L 17.3767 36.6314C 16.5766 36.9209 15.7818 37.2532 15.0122 37.618L 14.8065 37.718L 14.8027 37.7232C 5.80329 42.127 -1.17582e-07 51.5096 -1.17582e-07 61.6905C -1.17582e-07 61.9242 0.0152141 62.1539 0.0292427 62.385L 0.0966193 64L 51.901 64L 51.9708 62.4031C 51.986 62.1668 52 61.9319 52 61.6905C 52 51.3471 46.0558 41.8815 36.847 37.5479ZM 2.54056 61.4034C 2.64982 52.2624 7.93623 43.877 15.9934 40.0146L 16.2524 39.9108L 16.2828 39.8809C 16.9139 39.5861 17.5654 39.3175 18.2257 39.0799L 18.4351 39.0034C 18.7945 38.8761 19.1526 38.7593 19.5246 38.6515C 19.9882 38.5125 20.4606 38.3878 20.9342 38.279C 21.1792 38.2258 21.4244 38.1751 21.6771 38.1271C 21.8777 38.0895 22.077 38.0505 22.279 38.018L 22.378 37.9998C 22.7411 37.9414 23.1057 37.8881 23.4688 37.8479L 24.2993 37.7739C 25.3862 37.6921 26.4263 37.6804 27.6859 37.7739L 28.4934 37.8428C 28.6928 37.8663 28.8922 37.8935 29.1348 37.9285L 29.4256 37.9713C 29.7291 38.0168 30.0326 38.0699 30.3373 38.1285L 30.4796 38.1557C 30.6511 38.1883 30.8212 38.222 30.9824 38.2569C 31.4827 38.3686 31.9741 38.501 32.4617 38.6452C 32.7842 38.7414 33.1043 38.8399 33.4167 38.9464C 33.8128 39.0813 34.2041 39.2282 34.5913 39.3851C 34.9634 39.5344 35.3303 39.6942 35.6935 39.8643L 35.7569 39.8942C 43.997 43.7592 49.348 52.1719 49.4573 61.4012L 2.54056 61.4012L 2.54056 61.4034ZM 19.723 31.8356C 19.9135 31.9174 20.1103 31.9887 20.3071 32.0602L 20.7198 32.2133C 20.8785 32.2755 21.0385 32.3367 21.2011 32.3887C 22.7148 32.8755 24.2983 33.126 25.9084 33.1391L 26.0367 33.1417C 26.5891 33.1417 27.1427 33.1118 27.6735 33.0561C 27.8562 33.0379 28.034 33.008 28.2131 32.9769L 28.6106 32.9159C 28.8341 32.886 29.0575 32.8523 29.2913 32.8056C 29.4513 32.7719 29.6062 32.729 29.7611 32.6862L 30.1954 32.5733C 30.41 32.5202 30.6246 32.4668 30.8368 32.3994C 30.9688 32.3565 31.0984 32.3073 31.2266 32.2578L 31.5758 32.1293C 31.8247 32.041 32.0761 31.9501 32.3276 31.8424C 32.4254 31.7996 32.5206 31.7529 32.6145 31.7061L 32.7275 31.6489C 33.0717 31.4918 33.4145 31.3308 33.7547 31.1439L 33.9756 31.009C 34.3566 30.7882 34.7363 30.5597 35.121 30.291C 35.3204 30.1535 35.5109 29.9989 35.6988 29.8458L 36.349 29.3291C 40.0876 26.1653 42.2361 21.5225 42.2361 16.7073L 42.2438 16.5698C 42.2438 7.43262 34.9727 1.91819e-11 26.0355 1.91819e-11C 17.5047 1.91819e-11 10.4074 6.81973 9.8779 15.526L 9.86387 15.7415C 9.84352 16.0155 9.82712 16.2894 9.82712 16.5698C 9.82455 23.2436 13.7091 29.2351 19.723 31.8356ZM 12.3959 15.9215L 12.4111 15.6878C 12.8581 8.34609 18.8416 2.59618 26.0341 2.59618C 33.572 2.59618 39.7027 8.86423 39.7092 16.4512L 39.7015 16.5875C 39.6963 20.7446 37.8831 24.6589 34.7148 27.3476L 34.1116 27.8177C 33.977 27.9294 33.8411 28.0409 33.6722 28.1605C 33.3675 28.3722 33.0448 28.5629 32.7172 28.7526L 32.5356 28.8655C 32.2614 29.0162 31.9731 29.1497 31.6734 29.286L 31.3369 29.4523C 31.1438 29.5341 30.9407 29.6054 30.74 29.6769L 30.3209 29.8315C 30.2397 29.8626 30.1571 29.8963 30.0771 29.921C 29.921 29.9702 29.7609 30.008 29.6021 30.0482L 29.0955 30.1807C 28.9862 30.2106 28.8783 30.2417 28.7819 30.2625C 28.613 30.2963 28.4403 30.3197 28.269 30.3444L 27.7865 30.4183C 27.6697 30.4391 27.5527 30.4599 27.4219 30.4728C 26.9991 30.5183 26.5737 30.5429 26.142 30.5468L 26.0226 30.5456L 26.0201 30.5456C 24.6296 30.5443 23.2645 30.3326 21.9591 29.9147C 21.8461 29.8783 21.7356 29.8329 21.6252 29.7901L 21.1478 29.6123C 20.9992 29.559 20.852 29.507 20.7097 29.446C 15.6405 27.2541 12.3641 22.1985 12.3641 16.5706C 12.3641 16.3512 12.3807 16.1356 12.3959 15.9215Z"/>
</defs>
</svg>
