<svg width="57" height="30" viewBox="0 0 57 30" version="1.1" xmlns="http://www.w3.org/2000/svg" xmlns:xlink="http://www.w3.org/1999/xlink">
<title>Group 4</title>
<desc>Created using Figma</desc>
<g id="Canvas" transform="translate(-18221 -3463)">
<g id="Group 4">
<g id="&#209;&#136;&#208;&#176;&#208;&#179; 4">
<use xlink:href="#path0_fill" transform="translate(18231 3472)" fill="#197AE3"/>
</g>
<g id="Rectangle 48.3">
<mask id="mask0_outline_ins">
<use xlink:href="#path1_fill" fill="white" transform="translate(18221 3463)"/>
</mask>
<g mask="url(#mask0_outline_ins)">
<use xlink:href="#path2_stroke_2x" transform="translate(18221 3463)" fill="#197AE3"/>
</g>
</g>
</g>
</g>
<defs>
<path id="path0_fill" d="M 10.7955 10L 1.74747 10L 1.74747 3.76L 3.55447 3.76L 3.55447 8.479L 5.37447 8.479L 5.37447 3.76L 7.16847 3.76L 7.16847 8.479L 9.00147 8.479L 9.00147 3.76L 10.7955 3.76L 10.7955 10ZM 17.9124 8.388C 17.9124 8.66533 18.0597 8.804 18.3544 8.804C 18.4757 8.804 18.5884 8.78667 18.6924 8.752L 18.6924 9.935C 18.363 10.0563 18.0294 10.117 17.6914 10.117C 17.0327 10.117 16.5734 9.883 16.3134 9.415C 15.6634 9.92633 14.9137 10.182 14.0644 10.182C 13.449 10.182 12.929 10.013 12.5044 9.675C 12.0884 9.32833 11.8804 8.86033 11.8804 8.271C 11.8804 7.777 12.0277 7.36533 12.3224 7.036C 12.617 6.70667 12.9594 6.48567 13.3494 6.373C 13.7394 6.25167 14.164 6.191 14.6234 6.191C 15.1347 6.191 15.6287 6.24733 16.1054 6.36L 16.1054 6.139C 16.1054 5.81833 15.9797 5.56267 15.7284 5.372C 15.477 5.18133 15.113 5.086 14.6364 5.086C 13.943 5.086 13.2064 5.242 12.4264 5.554L 12.4264 3.994C 13.2584 3.71667 14.0644 3.578 14.8444 3.578C 16.8897 3.578 17.9124 4.51833 17.9124 6.399L 17.9124 8.388ZM 15.0394 7.27C 14.6667 7.27 14.3547 7.33933 14.1034 7.478C 13.852 7.61667 13.7264 7.83333 13.7264 8.128C 13.7264 8.35333 13.8174 8.53967 13.9994 8.687C 14.19 8.82567 14.424 8.895 14.7014 8.895C 15.2474 8.895 15.7154 8.726 16.1054 8.388L 16.1054 7.413C 15.7067 7.31767 15.3514 7.27 15.0394 7.27ZM 21.4676 10L 19.6606 10L 19.6606 3.76L 24.4186 3.76L 24.4186 5.281L 21.4676 5.281L 21.4676 10ZM 32.35 1.16L 34.287 1.16L 34.287 6.763L 35.626 6.763L 35.626 8.388L 34.287 8.388L 34.287 10L 32.428 10L 32.428 8.388L 27.787 8.388L 27.787 6.776L 32.35 1.16ZM 32.428 6.763L 32.428 3.539L 29.815 6.763L 32.428 6.763Z"/>
<path id="path1_fill" d="M 0 15C 0 6.71573 6.71573 0 15 0L 42 0C 50.2843 0 57 6.71573 57 15C 57 23.2843 50.2843 30 42 30L 15 30C 6.71573 30 0 23.2843 0 15Z"/>
<path id="path2_stroke_2x" d="M 15 3L 42 3L 42 -3L 15 -3L 15 3ZM 42 27L 15 27L 15 33L 42 33L 42 27ZM 15 27C 8.37258 27 3 21.6274 3 15L -3 15C -3 24.9411 5.05888 33 15 33L 15 27ZM 54 15C 54 21.6274 48.6274 27 42 27L 42 33C 51.9411 33 60 24.9411 60 15L 54 15ZM 42 3C 48.6274 3 54 8.37258 54 15L 60 15C 60 5.05887 51.9411 -3 42 -3L 42 3ZM 15 -3C 5.05888 -3 -3 5.05887 -3 15L 3 15C 3 8.37258 8.37258 3 15 3L 15 -3Z"/>
</defs>
</svg>
