<svg width="50" height="50" viewBox="0 0 50 50" version="1.1" xmlns="http://www.w3.org/2000/svg" xmlns:xlink="http://www.w3.org/1999/xlink">
<title>Group</title>
<desc>Created using Figma</desc>
<g id="Canvas" transform="translate(-18422 -3451)">
<g id="Group">
<g id="Vector">
<use xlink:href="#path0_fill" transform="translate(18422 3451)" fill="#219653"/>
</g>
<g id="Vector">
<use xlink:href="#path1_fill" transform="translate(18438.3 3469.55)" fill="#219653"/>
</g>
</g>
</g>
<defs>
<path id="path0_fill" d="M 25 0C 11.2153 0 0 11.2153 0 25C 0 38.7847 11.2153 50 25 50C 38.7847 50 50 38.7847 50 25C 50 11.2153 38.7847 0 25 0ZM 25 47.502C 12.5918 47.502 2.49796 37.4082 2.49796 25C 2.49796 12.5918 12.5918 2.49796 25 2.49796C 37.4082 2.49796 47.502 12.5918 47.502 25C 47.502 37.4082 37.4082 47.502 25 47.502Z"/>
<path id="path1_fill" d="M 15.2134 0.367047L 5.62934 9.90008L 2.1322 6.38254C 1.6428 5.89315 0.857729 5.89315 0.368332 6.37235C -0.121064 6.85155 -0.121065 7.64682 0.358136 8.13622L 4.73212 12.5408C 4.97682 12.7855 5.29288 12.9078 5.61915 12.9078C 5.93522 12.9078 6.25128 12.7855 6.49598 12.5408L 16.967 2.13091C 17.4564 1.64152 17.4564 0.856444 16.9772 0.367047C 16.4878 -0.122349 15.7028 -0.122349 15.2134 0.367047Z"/>
</defs>
</svg>
