<svg width="76" height="76" viewBox="0 0 76 76" version="1.1" xmlns="http://www.w3.org/2000/svg" xmlns:xlink="http://www.w3.org/1999/xlink">
<g id="Canvas" fill="none">
<g id="Group">
<g id="Group 2">
<g id="Ellipse 8.6">
<circle cx="38" cy="38" r="37.5" stroke="#197AE3"/>
</g>
<g id="Group_2">
<g id="Group_3">
<g id="Vector">
<path d="M 20.8977 7.33329L 19.4063 7.33329L 19.4063 4.39999L 19.5829 4.39999C 20.2798 4.39999 20.8436 3.82361 20.8436 3.11299L 20.8436 1.287C 20.8437 0.576382 20.2798 0 19.583 0L 14.9176 0C 14.221 0 13.6562 0.57621 13.6562 1.287L 13.6562 3.11299C 13.6562 3.82378 14.221 4.39999 14.9176 4.39999L 15.0938 4.39999L 15.0938 7.33329L 7.90635 7.33329L 7.90635 4.39999L 8.08307 4.39999C 8.77989 4.39999 9.34371 3.82361 9.34371 3.11299L 9.34371 1.287C 9.34371 0.576382 8.77989 0 8.08307 0L 3.41765 0C 2.721 0 2.15625 0.57621 2.15625 1.287L 2.15625 3.11299C 2.15625 3.82378 2.721 4.39999 3.41765 4.39999L 3.59386 4.39999L 3.59386 7.33329L 2.1031 7.33329C 0.941421 7.33329 2.8789e-07 8.29373 2.8789e-07 9.47906L 2.8789e-07 41.8542C 2.8789e-07 43.0395 0.941337 44 2.1031 44L 20.8977 44C 22.0588 44 23 43.0394 23 41.8542L 23 9.47906C 23 8.29398 22.0588 7.33329 20.8977 7.33329ZM 15.0937 2.9333L 15.0937 1.46669L 19.4062 1.46669L 19.4062 2.93338L 15.0939 2.93338L 15.0937 2.93338L 15.0937 2.9333ZM 16.5313 4.39999L 17.9689 4.39999L 17.9689 7.33329L 16.5313 7.33329L 16.5313 4.39999ZM 3.59377 2.9333L 3.59377 1.46669L 7.90627 1.46669L 7.90627 2.93338L 3.59394 2.93338L 3.59377 2.93338L 3.59377 2.9333ZM 5.03138 4.39999L 6.46891 4.39999L 6.46891 7.33329L 5.03138 7.33329L 5.03138 4.39999ZM 21.5626 41.8541C 21.5626 42.2294 21.2648 42.5332 20.8977 42.5332L 2.1031 42.5332C 1.73527 42.5332 1.43753 42.2294 1.43753 41.8541L 1.43753 9.47897C 1.43753 9.10369 1.73527 8.7999 2.1031 8.7999L 3.59386 8.7999L 7.90635 8.7999L 15.0938 8.7999L 19.4063 8.7999L 20.8977 8.7999C 21.2648 8.7999 21.5625 9.10377 21.5625 9.47897L 21.5625 41.8541L 21.5626 41.8541Z" transform="translate(50 62) scale(-1)" fill="#197AE3"/>
</g>
<g id="Vector_2">
<path d="M 2.26199e-07 11.7333L 15.8125 11.7333L 15.8125 2.6226e-07L 2.26199e-07 2.6226e-07L 2.26199e-07 11.7333ZM 1.43753 1.46669L 14.375 1.46669L 14.375 10.2667L 1.43753 10.2667L 1.43753 1.46669Z" transform="translate(46.4062 44.4) scale(-1)" fill="#197AE3"/>
</g>
<g id="Vector_3">
<path d="M 2.87497 9.02174e-07L 0.718721 9.02174e-07C 0.321753 9.02174e-07 -1.54227e-07 0.328281 -1.54227e-07 0.733303C -1.54227e-07 1.13833 0.321753 1.46661 0.718721 1.46661L 2.87497 1.46661C 3.27194 1.46661 3.59369 1.13833 3.59369 0.733303C 3.59369 0.328281 3.27185 9.02174e-07 2.87497 9.02174e-07Z" transform="translate(45.6875 29.7334) scale(-1)" fill="#197AE3"/>
</g>
<g id="Vector_4">
<path d="M 2.87497 9.02174e-07L 0.718721 9.02174e-07C 0.321753 9.02174e-07 1.131e-06 0.328281 1.131e-06 0.733303C 1.131e-06 1.13833 0.321753 1.46661 0.718721 1.46661L 2.87497 1.46661C 3.27194 1.46661 3.59369 1.13833 3.59369 0.733303C 3.59369 0.328281 3.27185 9.02174e-07 2.87497 9.02174e-07Z" transform="translate(34.9062 29.7334) scale(-1)" fill="#197AE3"/>
</g>
<g id="Vector_5">
<path d="M 3.59369 9.02174e-07L 0.718722 9.02174e-07C 0.321753 9.02174e-07 -1.02818e-08 0.328281 -1.02818e-08 0.733303C -1.02818e-08 1.13833 0.321753 1.46661 0.718722 1.46661L 3.59369 1.46661C 3.99066 1.46661 4.31241 1.13833 4.31241 0.733303C 4.31241 0.328281 3.99066 9.02174e-07 3.59369 9.02174e-07Z" transform="translate(40.6562 29.7334) scale(-1)" fill="#197AE3"/>
</g>
<g id="Vector_6">
<path d="M 3.22721 -1.15394e-07L 1.08604 -1.15394e-07C 0.486419 -1.15394e-07 -1.43945e-07 0.496288 -1.43945e-07 1.10808L -1.43945e-07 4.75861C -1.43945e-07 5.3704 0.486419 5.86669 1.08604 5.86669L 3.22721 5.86669C 3.82717 5.86669 4.31249 5.37014 4.31249 4.75861L 4.31249 1.10808C 4.31258 0.496632 3.82717 -1.15394e-07 3.22721 -1.15394e-07ZM 2.87505 4.39999L 1.43753 4.39999L 1.43753 1.46669L 2.87505 1.46669L 2.87505 4.39999Z" transform="translate(43.5312 41.4667) scale(-1)" fill="#197AE3"/>
</g>
<g id="Vector_7">
<path d="M 3.22721 -1.15394e-07L 1.08604 -1.15394e-07C 0.48642 -1.15394e-07 -2.8789e-07 0.496288 -2.8789e-07 1.10808L -2.8789e-07 4.75861C -2.8789e-07 5.3704 0.48642 5.86669 1.08604 5.86669L 3.22721 5.86669C 3.82717 5.86669 4.3125 5.37014 4.3125 4.75861L 4.3125 1.10808C 4.3125 0.496632 3.82717 -1.15394e-07 3.22721 -1.15394e-07ZM 2.87505 4.39999L 1.43753 4.39999L 1.43753 1.46669L 2.87505 1.46669L 2.87505 4.39999Z" transform="translate(37.7812 41.4667) scale(-1)" fill="#197AE3"/>
</g>
</g>
</g>
</g>
</g>
</g>
</svg>

