<svg width="5" height="8" viewBox="0 0 5 8" version="1.1" xmlns="http://www.w3.org/2000/svg" xmlns:xlink="http://www.w3.org/1999/xlink">
<title>angle-arrow-pointing-to-right</title>
<desc>Created using Figma</desc>
<g id="Canvas" transform="translate(-1784 -1250)">
<g id="angle-arrow-pointing-to-right">
<g id="Group">
<g id="Vector">
<use xlink:href="#path0_fill" transform="translate(1784 1250)" fill="#ffffff"/>
</g>
</g>
</g>
</g>
<defs>
<path id="path0_fill" d="M 4.91433 3.81559L 0.910664 0.0802145C 0.853369 0.026813 0.787439 0 0.713022 0C 0.638575 0 0.572674 0.026813 0.51541 0.0802145L 0.0859117 0.481034C 0.028557 0.534464 -1.83665e-09 0.595839 -1.83665e-09 0.665413C -1.83665e-09 0.734986 0.028557 0.796361 0.0859117 0.849791L 3.46232 4.00008L 0.0859117 7.15043C 0.028557 7.20386 -1.83665e-09 7.26535 -1.83665e-09 7.33473C -1.83665e-09 7.40427 0.028557 7.46576 0.0859117 7.51919L 0.51544 7.91987C 0.572704 7.97336 0.638605 8 0.713052 8C 0.787469 8 0.853369 7.9733 0.910664 7.91987L 4.91412 4.18446C 4.97135 4.13106 5 4.06955 5 4.00008C 5 3.93062 4.97156 3.86914 4.91433 3.81559Z"/>
</defs>
</svg>
